<svg width="99" height="132" viewBox="0 0 99 132" fill="none" xmlns="http://www.w3.org/2000/svg">
<rect width="99" height="132" fill="#1E1E1E"/>
<g id="mypage_login" clip-path="url(#clip0_851_14967)">
<rect width="375" height="909" transform="translate(-138 -300)" fill="black"/>
<g id="_?&#235;&#141;&#137;&#236;&#148;&#160;??1" clip-path="url(#clip1_851_14967)">
<g id="Group">
<g id="Group_2">
<path id="Vector" d="M51.3606 12.1418L58.8334 10.4903L65.1884 14.7415L72.8144 15.3684L77.6381 21.3017L84.7434 24.1307L87.5916 31.2262L93.5332 36.0278L94.1763 43.6432L98.4334 49.9894L96.7949 57.4365L99 64.7614L95.2329 71.3981L95.187 79.044L89.613 84.2892L87.316 91.5681L80.4557 94.9324L76.1067 101.217L68.542 102.425L62.5392 107.151L54.9592 106.065L47.8232 108.817L40.9016 105.56L33.2756 106.08L27.6251 100.927L20.1675 99.1835L16.2933 92.5927L9.69327 88.7238L7.93225 81.292L2.75638 75.6645L3.27703 68.0339L0 61.1372L2.74107 53.9959L1.65383 46.4416L6.3703 40.4319L7.56473 32.8777L13.8432 28.5348L17.2121 21.6687L24.5012 19.3596L29.7383 13.7934L37.3949 13.7322L44.0408 9.95508L51.3606 12.1418Z" fill="#9E00FF"/>
<path id="Vector_2" d="M33.1838 94.3511L32.4181 122.106L13.3531 130.501L42.877 131.587L44.1327 97.6235" fill="#9E00FF"/>
<path id="Vector_3" d="M59.9359 93.6323L69.7211 119.629L90.4858 121.372L62.9373 132L50.6561 100.3" fill="#9E00FF"/>
</g>
<g id="Group_3">
<g id="Group_4">
<path id="Vector_4" d="M31.4227 45.6924C32.8162 45.723 33.9647 44.3162 34.0107 42.5423L34.1944 33.8871C34.2251 32.1132 33.6432 34.5599 30.8408 34.8658C29.4473 35.0187 29.0798 37.8936 29.0492 39.6521L28.9879 42.4353C28.9573 44.2091 30.0445 45.6619 31.4381 45.6924H31.4227Z" fill="#530078"/>
<path id="Vector_5" d="M29.1257 35.6763C29.2482 35.7987 29.4626 35.7834 29.6311 35.7528C30.4733 35.5693 31.3308 35.4011 32.1424 35.0647C32.954 34.7282 33.7503 34.2389 34.3782 33.4896C34.5007 33.3367 34.6385 33.1532 34.6538 32.9238C34.7151 32.0521 33.9494 32.8167 33.7656 32.985C33.3522 33.3367 32.9234 33.6578 32.4793 33.9178C31.6065 34.4224 30.6724 34.7435 29.7229 34.8659C29.5545 34.8812 29.3707 34.8964 29.2329 35.0188C29.0951 35.1411 28.9879 35.3858 29.0645 35.5693C29.0798 35.6152 29.1104 35.6458 29.141 35.6763H29.1257Z" fill="#530078"/>
</g>
<g id="Group_5">
<path id="Vector_6" d="M47.4097 46.0139C46.0162 45.9834 44.929 44.5306 44.9596 42.7568L45.1434 34.1015C45.174 32.3277 45.6793 34.805 48.4663 35.2025C49.8445 35.4013 50.1049 38.2915 50.0589 40.0654L49.9977 42.8485C49.967 44.6224 48.8032 46.0292 47.4097 45.9987V46.0139Z" fill="#530078"/>
<path id="Vector_7" d="M50.1202 36.1046C49.9977 36.227 49.7833 36.1964 49.6149 36.1658C48.7726 35.9517 47.9304 35.7376 47.1341 35.3706C46.3378 35.0036 45.5569 34.4684 44.9749 33.7038C44.8524 33.5509 44.7299 33.3521 44.7299 33.138C44.6993 32.2664 45.4343 33.0615 45.6181 33.2298C46.0162 33.6121 46.4297 33.9332 46.8738 34.2084C47.716 34.7437 48.6348 35.1107 49.5842 35.2636C49.7527 35.2942 49.9364 35.3095 50.0743 35.4318C50.2121 35.5541 50.3039 35.7988 50.2121 35.9976C50.1968 36.0435 50.1661 36.0741 50.1355 36.1046H50.1202Z" fill="#530078"/>
</g>
<path id="Vector_8" d="M53.1828 55.9994L50.1201 56.1676C50.0742 55.3419 49.8139 54.302 48.8185 54.0115C48.1447 53.8127 47.5322 54.0573 47.425 54.2103C46.6593 55.6171 44.929 56.6111 43.122 56.6876C41.4222 56.764 39.9062 55.9994 38.9721 54.5773C38.574 53.9656 38.2524 53.9197 38.1452 53.9044C37.5174 53.7974 36.4454 54.302 34.96 55.4183C32.5406 57.2381 30.5498 55.296 29.5851 54.3632C29.2788 54.0726 28.8348 53.6292 28.6357 53.568C28.3907 53.6903 27.6403 54.8372 27.2728 55.8618L24.3939 54.8219C24.6542 54.1032 26.0784 50.5249 28.7122 50.5249C30.0139 50.5249 30.9633 51.4424 31.7136 52.1764C32.0352 52.4976 32.6477 53.0939 32.8774 53.1092C32.8774 53.1092 32.954 53.1092 33.0918 52.9869C34.715 51.7636 36.6445 50.5555 38.6352 50.8919C39.7837 51.0907 40.7484 51.7635 41.4988 52.8952C41.851 53.4304 42.341 53.6598 42.9689 53.6445C43.7651 53.5986 44.4849 53.1551 44.7146 52.7422C45.4955 51.3048 47.4556 50.5708 49.3545 50.9989C51.5749 51.5036 52.999 53.3692 53.1522 55.9841L53.1828 55.9994Z" fill="#530078"/>
</g>
</g>
<g id="Group_6">
<path id="Vector_9" d="M81.8941 20.5546C82.9007 17.418 71.9779 11.1183 57.4972 6.48389C43.0166 1.84948 30.4616 0.635254 29.455 3.77185C28.4484 6.90845 39.3712 13.2081 53.8519 17.8425C68.3325 22.4769 80.8875 23.6912 81.8941 20.5546Z" stroke="white" stroke-width="0.5" stroke-miterlimit="10"/>
<path id="Vector_10" d="M84.929 16.3344C85.3532 13.068 73.4725 8.83675 58.3927 6.88361C43.3128 4.93048 30.7443 5.99507 30.32 9.26146C29.8958 12.5278 41.7765 16.7591 56.8564 18.7122C71.9362 20.6654 84.5047 19.6008 84.929 16.3344Z" stroke="white" stroke-width="0.5" stroke-miterlimit="10"/>
<g id="Group_7">
<path id="Vector_11" d="M38.7424 11.2856L38.4209 12.6466L39.3703 13.6711L37.9768 13.7935L37.2877 15.0168L36.7364 13.717L35.3735 13.4417L36.4148 12.5242L36.2617 11.1479L37.4714 11.8667L38.7424 11.2856Z" fill="#FDD273"/>
<path id="Vector_12" d="M60.671 9.26671L60.4413 10.2913L61.1457 11.0559L60.1044 11.1476L59.5838 12.0651L59.1703 11.1017L58.129 10.8877L58.9253 10.1995L58.8181 9.15967L59.7216 9.69489L60.671 9.26671Z" fill="#FDD273"/>
<path id="Vector_13" d="M72.845 23.6261L72.6 24.6506L73.3044 25.4152L72.2631 25.507L71.7424 26.4245L71.329 25.4611L70.303 25.247L71.0993 24.5589L70.9768 23.519L71.8802 24.0543L72.845 23.6261Z" fill="#FDD273"/>
<path id="Vector_14" d="M47.7007 1.74328L47.4098 1.17748L46.7666 1.11631L47.2107 0.657553L47.0882 0.0305839L47.6548 0.305839L48.206 0L48.1142 0.626969L48.5889 1.05514L47.961 1.16219L47.7007 1.74328Z" fill="#FDD273"/>
<path id="Vector_15" d="M67.6385 22.9226L67.3169 22.4791L66.7656 22.4944L67.0872 22.0509L66.9034 21.531L67.4241 21.6992L67.8529 21.3628V21.9133L68.3123 22.2191L67.7916 22.3874L67.6385 22.9226Z" fill="#FDD273"/>
<path id="Vector_16" d="M79.1234 18.8396L78.9243 18.3656L78.4189 18.2585L78.8018 17.9374L78.7558 17.4175L79.1999 17.6927L79.6593 17.4786L79.5368 17.9833L79.889 18.3656L79.3684 18.3962L79.1234 18.8396Z" fill="#FDD273"/>
<path id="Vector_17" d="M63.1518 6.71297L62.8914 6.22362L62.3555 6.16246L62.7383 5.76487L62.6311 5.22965L63.1211 5.47432L63.5958 5.21436L63.5193 5.74957L63.9174 6.13187L63.3815 6.22362L63.1518 6.71297Z" fill="#FDD273"/>
<path id="Vector_18" d="M44.0408 17.5551L43.8418 17.0811L43.3364 16.974L43.7346 16.6376L43.6733 16.1177L44.1174 16.3929L44.5921 16.1788L44.4696 16.6835L44.8065 17.0658L44.3012 17.0964L44.0408 17.5551Z" fill="#FDD273"/>
</g>
</g>
</g>
</g>
<defs>
<clipPath id="clip0_851_14967">
<rect width="375" height="909" fill="white" transform="translate(-138 -300)"/>
</clipPath>
<clipPath id="clip1_851_14967">
<rect width="99" height="132" fill="white"/>
</clipPath>
</defs>
</svg>
