<svg width="320" height="503" viewBox="0 0 320 503" fill="none" xmlns="http://www.w3.org/2000/svg">
<g opacity="0.1">
<path d="M-38.2115 0.47273L158.456 262.983L-38.2115 84.9692V0.47273Z" fill="white"/>
<path d="M158.456 262.983L39.9543 0.47273H103.41L158.456 262.983Z" fill="white"/>
<path d="M158.456 262.983L168.304 0.47273L226.411 0L158.456 262.983Z" fill="white"/>
<path d="M294.669 0.47273L158.456 262.983L358.212 0.47273H294.669Z" fill="white"/>
<path d="M158.456 262.983L358.212 85.7138V153.574L158.456 262.983Z" fill="white"/>
<path d="M158.456 262.983L358.212 216.613V277.406L158.456 262.983Z" fill="white"/>
<path d="M158.456 262.983L358.212 338.309V403.128L158.456 262.983Z" fill="white"/>
<path d="M158.456 262.983L358.212 503H270.646L158.456 262.983Z" fill="white"/>
<path d="M158.456 262.983L195.151 502.98H124.88L158.456 262.983Z" fill="white"/>
<path d="M158.456 262.983L51.745 503H-25.6054L158.456 262.983Z" fill="white"/>
<path d="M158.456 262.983L-38.2115 433.064V355.741L158.456 262.983Z" fill="white"/>
<path d="M158.456 262.983L-38.2115 144.403V204.29L158.456 262.983Z" fill="white"/>
<path d="M158.456 262.983L-38.2115 251.725V307.845L158.456 262.983Z" fill="white"/>
</g>
</svg>
