<svg width="119" height="32" viewBox="0 0 119 32" fill="none" xmlns="http://www.w3.org/2000/svg">
<path d="M29.0505 12.56H30.0505L30.0505 12.555L29.0505 12.56ZM25.6905 20.68L24.9982 19.9583L24.5177 20.4192L24.7576 21.0403L25.6905 20.68ZM29.9705 31.76V32.76H31.4288L30.9033 31.3997L29.9705 31.76ZM16.2105 31.76L15.2648 32.0852L15.4969 32.76H16.2105V31.76ZM13.6105 24.2L14.5561 23.8748L14.324 23.2H13.6105V24.2ZM13.5705 24.2V23.2H12.5705V24.2H13.5705ZM13.5705 31.8V32.8H14.5705V31.8H13.5705ZM0.770467 31.8H-0.229533V32.8H0.770467V31.8ZM0.770467 0.519998V-0.480002H-0.229533V0.519998H0.770467ZM10.9705 10.88L11.4926 10.0271L10.7012 9.54259L10.1589 10.2957L10.9705 10.88ZM10.2505 11.88L9.43893 11.2957L8.823 12.1512L9.70971 12.7212L10.2505 11.88ZM20.5705 14.08V15.08H21.5705V14.08H20.5705ZM20.5705 12.96H21.5705V11.96H20.5705V12.96ZM28.0505 12.56C28.0505 16.0968 26.785 18.2445 24.9982 19.9583L26.3827 21.4017C28.5159 19.3555 30.0505 16.7032 30.0505 12.56H28.0505ZM24.7576 21.0403L29.0376 32.1203L30.9033 31.3997L26.6233 20.3197L24.7576 21.0403ZM29.9705 30.76H16.2105V32.76H29.9705V30.76ZM17.1561 31.4348L14.5561 23.8748L12.6648 24.5252L15.2648 32.0852L17.1561 31.4348ZM13.6105 23.2H13.5705V25.2H13.6105V23.2ZM12.5705 24.2V31.8H14.5705V24.2H12.5705ZM13.5705 30.8H0.770467V32.8H13.5705V30.8ZM1.77047 31.8V0.519998H-0.229533V31.8H1.77047ZM0.770467 1.52H13.0505V-0.480002H0.770467V1.52ZM13.0505 1.52C18.6892 1.52 22.406 2.52269 24.7087 4.32712C26.9563 6.08839 28.0314 8.75733 28.0505 12.565L30.0505 12.555C30.0295 8.36267 28.8247 5.01161 25.9423 2.75288C23.1149 0.537305 18.8517 -0.480002 13.0505 -0.480002V1.52ZM10.1589 10.2957L9.43893 11.2957L11.062 12.4643L11.782 11.4643L10.1589 10.2957ZM9.70971 12.7212C10.9986 13.5498 12.9875 14.1274 14.9367 14.502C16.9169 14.8826 19.0004 15.08 20.5705 15.08V13.08C19.1406 13.08 17.184 12.8974 15.3142 12.538C13.4134 12.1726 11.7423 11.6502 10.7912 11.0388L9.70971 12.7212ZM21.5705 14.08V12.96H19.5705V14.08H21.5705ZM20.5705 11.96C19.1529 11.96 17.3124 11.7502 15.584 11.3909C13.829 11.0261 12.3196 10.5334 11.4926 10.0271L10.4483 11.7329C11.5814 12.4266 13.3719 12.9739 15.177 13.3491C17.0085 13.7298 18.988 13.96 20.5705 13.96V11.96ZM56.7545 31.8V32.8H57.7545V31.8H56.7545ZM32.0345 31.8H31.0345V32.8H32.0345V31.8ZM32.0345 0.519998V-0.480002H31.0345V0.519998H32.0345ZM56.7545 0.519998H57.7545V-0.480002H56.7545V0.519998ZM56.7545 9.92V10.92H57.7545V9.92H56.7545ZM44.0345 9.92V8.92H43.0345V9.92H44.0345ZM44.0345 11.32H43.0345V12.32H44.0345V11.32ZM56.7545 11.32H57.7545V10.32H56.7545V11.32ZM56.7545 21V22H57.7545V21H56.7545ZM44.0345 21V20H43.0345V21H44.0345ZM44.0345 22.4H43.0345V23.4H44.0345V22.4ZM56.7545 22.4H57.7545V21.4H56.7545V22.4ZM56.7545 30.8H32.0345V32.8H56.7545V30.8ZM33.0345 31.8V0.519998H31.0345V31.8H33.0345ZM32.0345 1.52H56.7545V-0.480002H32.0345V1.52ZM55.7545 0.519998V9.92H57.7545V0.519998H55.7545ZM56.7545 8.92H44.0345V10.92H56.7545V8.92ZM43.0345 9.92V11.32H45.0345V9.92H43.0345ZM44.0345 12.32H56.7545V10.32H44.0345V12.32ZM55.7545 11.32V21H57.7545V11.32H55.7545ZM56.7545 20H44.0345V22H56.7545V20ZM43.0345 21V22.4H45.0345V21H43.0345ZM44.0345 23.4H56.7545V21.4H44.0345V23.4ZM55.7545 22.4V31.8H57.7545V22.4H55.7545ZM73.2117 31.76V32.76H73.9496L74.1672 32.0549L73.2117 31.76ZM58.8117 31.76L57.8558 31.4663L57.4583 32.76H58.8117V31.76ZM68.4117 0.519998V-0.480002H67.6729L67.4558 0.226256L68.4117 0.519998ZM82.0117 0.519998L82.9676 0.226256L82.7506 -0.480002H82.0117V0.519998ZM91.6117 31.76V32.76H92.9652L92.5676 31.4663L91.6117 31.76ZM77.2117 31.76L76.2562 32.0549L76.4738 32.76H77.2117V31.76ZM75.2117 25.28L76.1672 24.9851L75.2117 21.8892L74.2562 24.9851L75.2117 25.28ZM70.6517 15.12L71.0504 14.2029L70.2835 13.8695L69.8197 14.5653L70.6517 15.12ZM69.9317 16.2L69.0997 15.6453L68.4577 16.6083L69.5036 17.1037L69.9317 16.2ZM80.8517 18V19H81.8517V18H80.8517ZM80.8517 16.8H81.8517V15.8H80.8517V16.8ZM73.2117 30.76H58.8117V32.76H73.2117V30.76ZM59.7676 32.0537L69.3676 0.81374L67.4558 0.226256L57.8558 31.4663L59.7676 32.0537ZM68.4117 1.52H82.0117V-0.480002H68.4117V1.52ZM81.0558 0.81374L90.6558 32.0537L92.5676 31.4663L82.9676 0.226256L81.0558 0.81374ZM91.6117 30.76H77.2117V32.76H91.6117V30.76ZM78.1672 31.4651L76.1672 24.9851L74.2562 25.5749L76.2562 32.0549L78.1672 31.4651ZM74.2562 24.9851L72.2562 31.4651L74.1672 32.0549L76.1672 25.5749L74.2562 24.9851ZM69.8197 14.5653L69.0997 15.6453L70.7638 16.7547L71.4838 15.6747L69.8197 14.5653ZM69.5036 17.1037C72.7571 18.6449 77.0289 19 80.8517 19V17C77.0745 17 73.1863 16.6351 70.3598 15.2963L69.5036 17.1037ZM81.8517 18V16.8H79.8517V18H81.8517ZM80.8517 15.8C77.1123 15.8 73.6295 15.3243 71.0504 14.2029L70.253 16.0371C73.194 17.3157 76.9912 17.8 80.8517 17.8V15.8ZM118.264 31.76V32.76H119.264V31.76H118.264ZM93.6642 31.76H92.6642V32.76H93.6642V31.76ZM93.6642 0.519998V-0.480002H92.6642V0.519998H93.6642ZM108.064 0.519998H109.064V-0.480002H108.064V0.519998ZM108.064 20.64H107.064V21.64H108.064V20.64ZM118.264 20.64H119.264V19.64H118.264V20.64ZM118.264 30.76H93.6642V32.76H118.264V30.76ZM94.6642 31.76V0.519998H92.6642V31.76H94.6642ZM93.6642 1.52H108.064V-0.480002H93.6642V1.52ZM107.064 0.519998V20.64H109.064V0.519998H107.064ZM108.064 21.64H118.264V19.64H108.064V21.64ZM117.264 20.64V31.76H119.264V20.64H117.264Z" fill="#00FF41"/>
</svg>
