<svg width="369" height="379" viewBox="0 0 369 379" fill="none" xmlns="http://www.w3.org/2000/svg">
<path style="mix-blend-mode:screen" d="M189.026 378.469C293.075 378.469 377.421 293.948 377.421 189.686C377.421 85.4229 293.075 0.901855 189.026 0.901855C84.9766 0.901855 0.630371 85.4229 0.630371 189.686C0.630371 293.948 84.9766 378.469 189.026 378.469Z" fill="url(#paint0_radial_1717_18933)"/>
<g style="mix-blend-mode:color-dodge">
<path d="M189.016 339.637C271.663 339.637 338.656 272.497 338.656 189.685C338.656 106.873 271.663 39.7344 189.016 39.7344C106.369 39.7344 39.3854 106.873 39.3854 189.685C39.3854 272.497 106.379 339.637 189.026 339.637H189.016Z" fill="url(#paint1_radial_1717_18933)"/>
</g>
<path fill-rule="evenodd" clip-rule="evenodd" d="M310.661 190.229C310.661 224.333 296.202 255.018 273.071 276.547C261.991 286.85 248.979 295.045 234.588 300.493C225.305 304.028 215.468 306.416 205.242 307.485C202.65 307.786 200.067 307.96 197.425 308.058C195.881 308.135 194.318 308.155 192.745 308.155C187.521 308.155 182.345 307.805 177.286 307.135C159.36 304.766 142.716 298.425 128.247 288.889C126.849 288.015 125.509 287.092 124.169 286.102C121.731 284.383 119.342 282.548 117.051 280.596C104.854 270.39 94.7455 257.776 87.5014 243.434C82.918 234.451 79.4902 224.789 77.3733 214.661V214.564C76.3051 209.437 75.5574 204.183 75.1787 198.833C74.9553 195.997 74.8582 193.103 74.8582 190.219C74.8582 166.943 81.6071 145.24 93.2501 126.945C98.2025 119.177 104 112.059 110.574 105.689C131.83 85.0342 160.807 72.2842 192.764 72.2842C195.357 72.2842 197.892 72.3813 200.436 72.5366C210.642 73.2067 220.498 75.1488 229.83 78.2659H229.927C232.811 79.1884 235.598 80.2566 238.394 81.451C240.463 82.2958 242.473 83.2183 244.493 84.2185C255.941 89.7924 266.351 97.1822 275.334 106.019C279.839 110.427 283.976 115.176 287.705 120.255C299.426 136.083 307.243 154.98 309.806 175.537C310.408 180.344 310.7 185.248 310.7 190.2L310.651 190.229H310.661Z" fill="url(#paint2_radial_1717_18933)"/>
<path style="mix-blend-mode:screen" fill-rule="evenodd" clip-rule="evenodd" d="M122.809 282.325C110.613 272.119 100.504 259.475 93.2598 245.162C88.7055 236.151 85.268 226.518 83.1317 216.39V216.292C81.4906 208.427 80.6166 200.289 80.6166 191.948C80.6166 168.672 87.3655 146.968 99.0085 128.674C103.961 120.905 109.758 113.787 116.332 107.388C137.589 86.7336 166.565 74.0127 198.542 74.0127C201.135 74.0127 203.64 74.0904 206.184 74.2652C214.176 74.7896 221.945 76.1102 229.432 78.1203C220.226 75.11 210.486 73.1873 200.407 72.5464C197.872 72.3716 195.328 72.2939 192.764 72.2939C160.807 72.2939 131.811 85.0148 110.554 105.669C103.98 112.039 98.1831 119.157 93.2307 126.955C81.578 145.25 74.8388 166.953 74.8388 190.229C74.8388 198.571 75.7128 206.708 77.3539 214.574V214.671C79.4708 224.799 82.9277 234.461 87.482 243.443C94.7455 257.757 104.854 270.4 117.031 280.606C129.946 291.433 145.212 299.551 161.933 304.057C147.474 299.328 134.229 291.889 122.809 282.325Z" fill="url(#paint3_radial_1717_18933)"/>
<path style="mix-blend-mode:screen" d="M175.528 170.07C207.515 151.028 223.547 118.963 211.341 98.4544C199.134 77.9456 163.302 76.7609 131.316 95.8131C99.3289 114.856 83.2967 146.92 95.503 167.429C107.709 187.938 143.541 189.122 175.528 170.07Z" fill="url(#paint4_radial_1717_18933)"/>
<path d="M185.132 355.203C180.849 355.203 176.567 355.009 172.343 354.61C79.4513 345.852 28.2764 283.645 28.2764 179.402C28.2764 85.5686 78.2083 39.9385 180.908 39.9385C292.968 39.9385 357.233 90.1229 357.233 177.606C357.233 226.091 335.005 274.129 296.221 309.427C263.836 338.899 223.984 355.174 185.132 355.174V355.203ZM180.898 42.4244C79.8688 42.4244 30.7526 87.2291 30.7526 179.402C30.7526 282.179 81.1021 343.511 172.557 352.125C214.652 356.086 259.107 339.85 294.522 307.592C332.781 272.77 354.708 225.401 354.708 177.615C354.737 91.7154 291.356 42.4341 180.898 42.4341V42.4244Z" fill="url(#paint5_radial_1717_18933)"/>
<path style="mix-blend-mode:screen" opacity="0.5" fill-rule="evenodd" clip-rule="evenodd" d="M38.7542 150.551C38.7542 150.551 69.6922 199.959 130.801 230.256L185.986 190.909C185.986 190.909 148.999 99.3086 144.619 49.1533C144.619 49.1533 43.9882 59.9321 38.7542 150.532V150.561V150.551Z" fill="url(#paint6_linear_1717_18933)"/>
<path fill-rule="evenodd" clip-rule="evenodd" d="M40.9197 157.913C46.9694 166.526 65.6332 145.745 81.3158 123.964C96.9984 102.183 105.68 89.4625 103.466 77.0427C101.252 64.6228 66.2546 86.996 53.7377 104.126C41.2207 121.245 35.239 149.853 40.9197 157.913Z" fill="white"/>
<path fill-rule="evenodd" clip-rule="evenodd" d="M41.7839 161.331C41.7839 161.331 33.6173 169.973 38.2784 176.838C42.9298 183.704 48.9795 179.033 48.057 174.1C47.1345 169.177 45.3477 162.205 41.7839 161.331Z" fill="white"/>
<path fill-rule="evenodd" clip-rule="evenodd" d="M271.061 313.389C271.061 313.389 261.205 314.661 253.912 323.099C246.59 331.538 257.32 330.169 263.322 325.168C269.342 320.167 271.109 315.758 271.061 313.398V313.389Z" fill="#FFE291"/>
<path style="mix-blend-mode:screen" opacity="0.5" fill-rule="evenodd" clip-rule="evenodd" d="M80.1213 316.176C80.1213 316.176 106.427 334.393 196.464 325.265C286.491 316.127 322.731 277.702 322.731 277.702L312.778 290.52C312.778 290.52 291.094 305.678 261.175 317.108C231.257 328.537 172.042 327.857 159.671 351.784C159.671 351.784 110.632 344.395 80.1408 316.195H80.1116L80.1213 316.176Z" fill="url(#paint7_linear_1717_18933)"/>
<path d="M214.642 221.643C214.701 226.168 211.079 229.897 206.553 229.955C202.028 230.013 198.299 226.391 198.241 221.866C198.183 217.341 201.805 213.612 206.33 213.554C210.855 213.496 214.584 217.118 214.642 221.643Z" fill="#5E550B"/>
<path d="M146.503 222.575C146.561 227.1 142.939 230.829 138.414 230.887C133.889 230.946 130.16 227.323 130.102 222.798C130.044 218.273 133.666 214.544 138.191 214.486C142.716 214.428 146.445 218.05 146.503 222.575Z" fill="#5E550B"/>
<path fill-rule="evenodd" clip-rule="evenodd" d="M136.87 208.893C134.617 209.282 132.996 210.437 132.471 211.233C132.015 211.942 131.073 212.136 130.364 211.68C129.655 211.224 129.461 210.282 129.917 209.573C131.024 207.873 133.52 206.378 136.346 205.893C139.269 205.388 142.755 205.931 145.862 208.573C146.503 209.116 146.581 210.078 146.037 210.719C145.493 211.36 144.532 211.437 143.891 210.893C141.56 208.903 139.016 208.534 136.87 208.893Z" fill="#C2B126"/>
<path fill-rule="evenodd" clip-rule="evenodd" d="M203.854 207.116C201.601 207.505 199.979 208.66 199.455 209.456C198.999 210.165 198.057 210.36 197.348 209.903C196.639 209.447 196.445 208.505 196.901 207.796C198.008 206.097 200.504 204.601 203.329 204.116C206.252 203.611 209.738 204.154 212.836 206.796C213.477 207.34 213.555 208.301 213.011 208.942C212.467 209.583 211.506 209.66 210.865 209.117C208.534 207.126 205.99 206.757 203.844 207.116H203.854Z" fill="#C2B126"/>
<path fill-rule="evenodd" clip-rule="evenodd" d="M173.13 235.296C166.633 235.354 160.214 234.082 152.232 231.684L153.582 227.168C161.351 229.499 167.255 230.635 173.081 230.577C178.898 230.519 184.792 229.285 192.531 226.644L194.056 231.101C186.054 233.83 179.636 235.228 173.13 235.286V235.296Z" fill="#5E550B"/>
<g style="mix-blend-mode:color-burn">
<path d="M108.476 191.686C106.961 198.502 107.845 204.348 111.137 209.233C114.516 214.059 120.061 217.331 127.752 219.05C135.52 220.779 141.92 220.176 146.959 217.224C152.019 214.204 155.301 209.281 156.825 202.464L166.924 157.194C168.439 150.377 167.507 144.56 164.128 139.734C160.836 134.849 155.34 131.548 147.649 129.829C139.88 128.101 133.471 128.741 128.412 131.771C123.372 134.723 120.09 139.608 118.575 146.415L108.486 191.686H108.476ZM138.443 149.347C138.919 147.221 139.647 145.852 140.628 145.22C141.619 144.599 142.842 144.443 144.308 144.774C145.697 145.084 146.707 145.735 147.338 146.716C148.037 147.716 148.154 149.279 147.678 151.406L136.948 199.532C136.472 201.658 135.705 203.028 134.646 203.63C133.656 204.261 132.471 204.416 131.083 204.105C129.616 203.775 128.568 203.125 127.946 202.134C127.315 201.144 127.247 199.59 127.713 197.473L138.443 149.347ZM175.091 228.11L179.597 207.893L161.36 203.824L156.854 224.041L175.091 228.11ZM184.287 208.592C182.772 215.409 183.656 221.254 186.948 226.139C190.327 230.965 195.862 234.237 203.562 235.956C211.331 237.685 217.73 237.073 222.77 234.131C227.829 231.111 231.111 226.187 232.636 219.38L242.735 174.109C244.25 167.293 243.318 161.476 239.938 156.65C236.646 151.765 231.15 148.464 223.459 146.745C215.691 145.016 209.282 145.657 204.223 148.687C199.183 151.639 195.901 156.523 194.386 163.331L184.297 208.601L184.287 208.592ZM214.254 166.253C214.73 164.127 215.458 162.758 216.439 162.126C217.429 161.495 218.653 161.35 220.119 161.68C221.508 161.991 222.518 162.641 223.149 163.622C223.848 164.622 223.964 166.186 223.489 168.312L212.758 216.438C212.283 218.564 211.515 219.934 210.457 220.536C209.467 221.167 208.282 221.322 206.893 221.012C205.427 220.681 204.378 220.031 203.757 219.04C203.125 218.05 203.058 216.496 203.524 214.379L214.254 166.253ZM268.886 231.324C269.012 230.742 269.196 230.324 269.429 230.091C269.701 229.829 270.158 229.761 270.779 229.906C271.362 230.033 271.711 230.275 271.818 230.625C271.925 230.936 271.915 231.392 271.789 231.975L269.75 241.132C269.614 241.715 269.429 242.152 269.187 242.423C268.954 242.656 268.546 242.715 267.953 242.589C267.332 242.453 266.953 242.22 266.808 241.899C266.701 241.549 266.72 241.083 266.846 240.491L268.886 231.334V231.324ZM243.677 214.078C243.182 216.321 243.454 218.079 244.502 219.37C245.561 220.623 247.25 221.507 249.562 222.021C251.834 222.526 253.708 222.439 255.165 221.75C256.66 221.031 257.66 219.555 258.165 217.312L260.204 208.155C260.7 205.912 260.428 204.164 259.36 202.921C258.34 201.639 256.689 200.755 254.417 200.241C252.106 199.726 250.202 199.823 248.697 200.542C247.202 201.221 246.211 202.688 245.706 204.931L243.667 214.088L243.677 214.078ZM251.513 206.213C251.649 205.63 251.824 205.212 252.057 204.979C252.329 204.717 252.786 204.649 253.407 204.795C253.99 204.921 254.339 205.164 254.446 205.513C254.553 205.824 254.543 206.281 254.417 206.863L252.378 216.02C252.251 216.603 252.057 217.04 251.824 217.312C251.591 217.545 251.183 217.603 250.591 217.467C249.969 217.331 249.591 217.098 249.445 216.778C249.338 216.428 249.358 215.962 249.484 215.379L251.523 206.222L251.513 206.213ZM247.901 243.589L252.873 244.696L273.353 203.746L268.536 202.678L247.901 243.589ZM261.049 239.19C260.554 241.433 260.826 243.191 261.875 244.482C262.933 245.735 264.623 246.618 266.934 247.133C269.206 247.638 271.08 247.551 272.537 246.861C274.032 246.143 275.033 244.667 275.537 242.423L277.577 233.266C278.072 231.023 277.8 229.275 276.732 228.032C275.712 226.751 274.061 225.857 271.789 225.352C269.478 224.838 267.575 224.935 266.07 225.653C264.574 226.333 263.584 227.799 263.079 230.042L261.04 239.2L261.049 239.19Z" fill="#FF7111"/>
</g>
<defs>
<radialGradient id="paint0_radial_1717_18933" cx="0" cy="0" r="1" gradientUnits="userSpaceOnUse" gradientTransform="translate(202.195 190.104) rotate(-1.97) scale(188.46 188.855)">
<stop stop-color="#D4D929"/>
<stop offset="0.57" stop-color="#FFEA2F"/>
<stop offset="0.76" stop-color="#816914"/>
<stop offset="1" stop-color="#0F0000"/>
</radialGradient>
<radialGradient id="paint1_radial_1717_18933" cx="0" cy="0" r="1" gradientUnits="userSpaceOnUse" gradientTransform="translate(196.101 199.337) rotate(-1.97) scale(149.683 149.995)">
<stop offset="0.69" stop-color="#7E31FF"/>
<stop offset="0.72" stop-color="#7229E2"/>
<stop offset="0.78" stop-color="#531DA3"/>
<stop offset="0.83" stop-color="#39126E"/>
<stop offset="0.88" stop-color="#240A45"/>
<stop offset="0.93" stop-color="#150327"/>
<stop offset="0.97" stop-color="#150010"/>
<stop offset="1" stop-color="#0F0000"/>
</radialGradient>
<radialGradient id="paint2_radial_1717_18933" cx="0" cy="0" r="1" gradientUnits="userSpaceOnUse" gradientTransform="translate(134.431 119.633) scale(197.749 197.749)">
<stop stop-color="#FFDF86"/>
<stop offset="0.29" stop-color="#FFDF85"/>
<stop offset="0.44" stop-color="#FFE184"/>
<stop offset="0.55" stop-color="#FFE881"/>
<stop offset="0.62" stop-color="#FFEC80"/>
<stop offset="0.65" stop-color="#FFE97A"/>
<stop offset="0.7" stop-color="#FFE56B"/>
<stop offset="0.76" stop-color="#FFDF55"/>
<stop offset="0.82" stop-color="#FFDB40"/>
<stop offset="0.89" stop-color="#FDD421"/>
<stop offset="0.91" stop-color="#FCD31B"/>
</radialGradient>
<radialGradient id="paint3_radial_1717_18933" cx="0" cy="0" r="1" gradientUnits="userSpaceOnUse" gradientTransform="translate(106.804 109.146) scale(155.273 155.273)">
<stop stop-color="#FFA5B7"/>
<stop offset="1" stop-color="#0F0000"/>
</radialGradient>
<radialGradient id="paint4_radial_1717_18933" cx="0" cy="0" r="1" gradientUnits="userSpaceOnUse" gradientTransform="translate(158.271 139.014) rotate(-30.77) scale(67.5788 43.2862)">
<stop stop-color="white"/>
<stop offset="0.17" stop-color="#D39191"/>
<stop offset="0.4" stop-color="#8E5D5D"/>
<stop offset="0.6" stop-color="#573333"/>
<stop offset="0.78" stop-color="#301515"/>
<stop offset="0.92" stop-color="#170808"/>
<stop offset="1" stop-color="#0F0000"/>
</radialGradient>
<radialGradient id="paint5_radial_1717_18933" cx="0" cy="0" r="1" gradientUnits="userSpaceOnUse" gradientTransform="translate(194.94 192.422) scale(161.154 161.154)">
<stop stop-color="#FFE296"/>
<stop offset="0.29" stop-color="#FFE395"/>
<stop offset="0.44" stop-color="#FFE594"/>
<stop offset="0.55" stop-color="#FFEB92"/>
<stop offset="0.62" stop-color="#FFEF91"/>
<stop offset="0.65" stop-color="#FFEC8C"/>
<stop offset="0.7" stop-color="#FFE881"/>
<stop offset="0.76" stop-color="#FFE26D"/>
<stop offset="0.82" stop-color="#FFDA55"/>
<stop offset="0.89" stop-color="#FDD53D"/>
<stop offset="0.91" stop-color="#FCD438"/>
</radialGradient>
<linearGradient id="paint6_linear_1717_18933" x1="62.7879" y1="88.8503" x2="193.396" y2="180.305" gradientUnits="userSpaceOnUse">
<stop stop-color="#FFD58F"/>
<stop offset="0.2" stop-color="#CA9264"/>
<stop offset="0.42" stop-color="#885C3F"/>
<stop offset="0.61" stop-color="#543223"/>
<stop offset="0.78" stop-color="#261F1C"/>
<stop offset="0.91" stop-color="#150807"/>
<stop offset="1" stop-color="#0F0000"/>
</linearGradient>
<linearGradient id="paint7_linear_1717_18933" x1="80.1213" y1="314.729" x2="322.731" y2="314.729" gradientUnits="userSpaceOnUse">
<stop stop-color="#FFD58F"/>
<stop offset="0.2" stop-color="#BB9C68"/>
<stop offset="0.42" stop-color="#796643"/>
<stop offset="0.61" stop-color="#453A26"/>
<stop offset="0.78" stop-color="#171F1C"/>
<stop offset="0.91" stop-color="#060807"/>
<stop offset="1"/>
</linearGradient>
</defs>
</svg>
