<svg width="338" height="293" viewBox="0 0 338 293" fill="none" xmlns="http://www.w3.org/2000/svg">
<path d="M306.365 148.065C306.365 217.1 250.32 273.065 181.183 273.065C135.219 273.065 95.0398 248.328 73.2706 211.461C62.2959 192.873 56 171.201 56 148.065C56 79.0291 112.048 23.0669 181.183 23.0669C197.91 23.0669 213.871 26.3439 228.456 32.2881C274.157 50.913 306.365 95.7318 306.365 148.062V148.065Z" fill="#FF2C89"/>
<path d="M305.747 151.697C305.747 218.495 251.52 272.642 184.625 272.642C140.153 272.642 101.276 248.708 80.2127 213.036C69.596 195.051 63.5028 174.084 63.5028 151.697C63.5003 84.901 117.728 30.751 184.623 30.751C200.809 30.751 216.252 33.9205 230.364 39.6747C274.583 57.6947 305.745 101.061 305.745 151.697H305.747Z" fill="#FFAFFF"/>
<path d="M307.111 153.216C307.111 217.307 255.079 269.263 190.896 269.263C148.223 269.263 110.923 246.298 90.7139 212.071C80.5277 194.815 74.6824 174.696 74.6824 153.216C74.6824 89.1276 126.715 37.1724 190.898 37.1724C206.429 37.1724 221.246 40.2144 234.787 45.7337C277.214 63.0238 307.114 104.633 307.114 153.216H307.111Z" fill="#FF40C3"/>
<path d="M250.816 104.588C250.816 168.677 198.784 220.632 134.598 220.632C119.07 220.632 104.252 217.59 90.7117 212.073C80.5256 194.818 74.6802 174.698 74.6802 153.219C74.6802 89.1301 126.712 37.1748 190.896 37.1748C206.427 37.1748 221.244 40.2169 234.785 45.7361C244.973 62.9912 250.816 83.1084 250.816 104.588Z" fill="#FF86F3"/>
<path d="M178.339 142.198C150.119 175.168 111.297 188.289 91.6255 171.501C78.5479 160.34 77.2287 138.773 86.1056 115.879C90.5816 104.338 97.6485 92.4596 107.106 81.4086C135.326 48.4382 174.148 35.3201 193.817 52.1052C198.576 56.1672 201.778 61.6064 203.498 67.988C208.888 87.9777 199.73 117.204 178.339 142.198Z" fill="#FFAFFF"/>
<path d="M235.495 251.306C255.261 241.01 267.732 225.864 263.35 217.476C258.967 209.088 239.391 210.635 219.626 220.931C199.86 231.227 187.389 246.373 191.771 254.761C196.153 263.149 215.729 261.602 235.495 251.306Z" fill="#FF2C89"/>
<path d="M234.558 252.165C252.289 242.929 263.476 229.341 259.544 221.816C255.613 214.291 238.052 215.678 220.321 224.915C202.59 234.151 191.403 247.738 195.334 255.263C199.266 262.788 216.827 261.401 234.558 252.165Z" fill="#FF40C3"/>
<path d="M176.707 251.586C177.85 245.959 169.112 239.44 157.19 237.024C145.268 234.609 134.676 237.212 133.532 242.839C132.389 248.466 141.127 254.986 153.049 257.401C164.971 259.817 175.563 257.213 176.707 251.586Z" fill="#FF2C89"/>
<path d="M173.577 252.249C174.603 247.201 166.764 241.352 156.068 239.185C145.372 237.018 135.869 239.353 134.844 244.401C133.818 249.449 141.657 255.298 152.353 257.465C163.049 259.632 172.551 257.297 173.577 252.249Z" fill="#FF40C3"/>
<path d="M173.052 251.731C173.841 247.851 166.953 243.181 157.669 241.3C148.385 239.419 140.22 241.039 139.431 244.919C138.643 248.8 145.53 253.47 154.814 255.351C164.098 257.232 172.264 255.612 173.052 251.731Z" fill="#FF2C89"/>
<path d="M183.615 239.449C189.086 238.659 193.159 235.523 192.713 232.445C192.268 229.366 187.471 227.511 182.001 228.301C176.53 229.091 172.457 232.227 172.903 235.306C173.349 238.384 178.145 240.239 183.615 239.449Z" fill="#FF2C89"/>
<path d="M226.478 249.474C239.928 242.468 248.528 232.382 245.689 226.946C242.849 221.511 229.644 222.784 216.194 229.789C202.745 236.795 194.144 246.881 196.984 252.317C199.824 257.752 213.029 256.48 226.478 249.474Z" fill="#FF2C89"/>
<path d="M209.817 199.227C229.583 188.931 238.224 166.454 229.117 149.023C220.011 131.592 196.605 125.809 176.839 136.105C157.073 146.401 148.432 168.878 157.539 186.309C166.645 203.739 190.051 209.523 209.817 199.227Z" fill="#FF40C3"/>
<path d="M209.044 200.395C226.775 191.158 234.527 170.995 226.357 155.359C218.188 139.723 197.192 134.534 179.461 143.77C161.73 153.007 153.978 173.17 162.148 188.806C170.317 204.443 191.313 209.631 209.044 200.395Z" fill="#FF86F3"/>
<path d="M147.246 210.516C149.095 200.582 138.604 190.304 123.814 187.559C109.024 184.814 95.5347 190.641 93.6854 200.575C91.8362 210.509 102.327 220.787 117.117 223.533C131.908 226.278 145.397 220.45 147.246 210.516Z" fill="#FF40C3"/>
<path d="M143.265 212.044C144.924 203.132 135.513 193.912 122.245 191.449C108.977 188.986 96.8767 194.215 95.2177 203.126C93.5587 212.038 102.97 221.259 116.238 223.722C129.506 226.184 141.606 220.956 143.265 212.044Z" fill="#FF86F3"/>
<path d="M181.67 76.8389C196.298 73.3322 206.241 62.5249 203.879 52.7C201.517 42.8752 187.743 37.7533 173.115 41.26C158.487 44.7666 148.544 55.574 150.906 65.3988C153.268 75.2237 167.042 80.3456 181.67 76.8389Z" fill="#FF86F3"/>
<path d="M184.647 76.3781C197.485 72.2252 205.625 61.8681 202.827 53.2448C200.029 44.6215 187.354 40.9975 174.516 45.1504C161.677 49.3033 153.538 59.6605 156.335 68.2838C159.133 76.9071 171.809 80.531 184.647 76.3781Z" fill="#FFAFFF"/>
<path d="M179.822 68.4437C188.796 63.2702 193.538 54.6955 190.414 49.2915C187.289 43.8876 177.481 43.7008 168.507 48.8742C159.533 54.0477 154.791 62.6225 157.916 68.0264C161.04 73.4304 170.848 73.6172 179.822 68.4437Z" fill="#FF86F3"/>
<path d="M166.97 222.984C174.399 221.911 179.835 216.998 179.113 212.009C178.39 207.021 171.782 203.847 164.354 204.92C156.925 205.993 151.489 210.906 152.211 215.895C152.934 220.883 159.542 224.057 166.97 222.984Z" fill="#FF86F3"/>
<path d="M249.021 149.433C263.594 147.595 273.406 130.293 270.939 110.788C268.471 91.2831 254.657 76.9613 240.085 78.7995C225.512 80.6378 215.699 97.9398 218.167 117.445C220.635 136.95 234.448 151.271 249.021 149.433Z" fill="#FF40C3"/>
<path d="M248.56 141.936C261.633 140.287 270.436 124.766 268.223 107.269C266.009 89.7718 253.617 76.9245 240.543 78.5736C227.47 80.2227 218.667 95.7438 220.88 113.241C223.094 130.738 235.486 143.585 248.56 141.936Z" fill="#FF86F3"/>
<path d="M242.932 135.739C252.813 134.492 259.467 122.76 257.794 109.533C256.12 96.3065 246.753 86.5947 236.872 87.8412C226.99 89.0877 220.336 100.82 222.01 114.047C223.683 127.274 233.05 136.985 242.932 135.739Z" fill="#FF40C3"/>
<path d="M197.915 191.86C211.364 184.854 217.482 170.016 211.58 158.719C205.678 147.422 189.99 143.943 176.541 150.949C163.091 157.954 156.973 172.792 162.876 184.089C168.778 195.387 184.465 198.866 197.915 191.86Z" fill="#FF40C3"/>
<path d="M288.951 204.023C293.011 197.002 293.713 189.817 290.52 187.976C287.327 186.135 281.447 190.335 277.387 197.357C273.327 204.378 272.625 211.563 275.818 213.404C279.011 215.245 284.891 211.045 288.951 204.023Z" fill="#FF2C89"/>
<path d="M289.105 102.958C291.726 102.306 295.02 106.448 296.459 112.209C297.901 117.974 296.945 123.175 294.324 123.828C291.703 124.48 288.409 120.338 286.969 114.577C285.527 108.812 286.484 103.611 289.105 102.958Z" fill="#FF2C89"/>
<path d="M244.443 192.436C247.907 188.218 248.156 182.704 245 180.12C241.844 177.536 236.478 178.861 233.014 183.079C229.551 187.297 229.302 192.811 232.458 195.395C235.614 197.978 240.98 196.654 244.443 192.436Z" fill="#FF2C89"/>
<path d="M240.483 208.141C243.259 206.849 244.726 204.124 243.759 202.053C242.793 199.982 239.759 199.349 236.983 200.641C234.208 201.932 232.741 204.658 233.707 206.729C234.673 208.8 237.707 209.432 240.483 208.141Z" fill="#FF2C89"/>
<path d="M275.274 189.029C276.901 190.361 276.448 193.603 274.26 196.268C272.072 198.932 268.978 200.012 267.351 198.68C265.724 197.348 266.177 194.106 268.365 191.441C270.552 188.776 273.647 187.696 275.274 189.029Z" fill="#FF2C89"/>
<path d="M283.145 125.37C283.514 118.919 281.589 113.563 278.845 113.407C276.101 113.25 273.577 118.352 273.208 124.803C272.839 131.253 274.764 136.609 277.508 136.765C280.253 136.922 282.776 131.82 283.145 125.37Z" fill="#FF2C89"/>
<path d="M282.799 127.231C283.109 121.814 281.493 117.317 279.189 117.185C276.885 117.054 274.766 121.338 274.456 126.755C274.146 132.171 275.763 136.669 278.066 136.8C280.37 136.932 282.489 132.647 282.799 127.231Z" fill="#FF40C3"/>
<path d="M280.92 173.942C288.578 161.817 289.425 148.611 282.811 144.446C276.197 140.28 264.626 146.733 256.968 158.858C249.309 170.983 248.462 184.189 255.076 188.355C261.69 192.52 273.261 186.068 280.92 173.942Z" fill="#FF2C89"/>
<path d="M280.725 174.755C287.595 163.878 288.354 152.032 282.421 148.295C276.487 144.558 266.108 150.346 259.237 161.223C252.367 172.1 251.608 183.947 257.541 187.684C263.475 191.42 273.854 185.632 280.725 174.755Z" fill="#FF40C3"/>
<path d="M274.42 175.28C279.631 167.029 280.381 158.152 276.094 155.452C271.807 152.752 264.107 157.252 258.895 165.503C253.683 173.753 252.934 182.631 257.221 185.33C261.508 188.03 269.208 183.53 274.42 175.28Z" fill="#FF2C89"/>
<path d="M232.214 51.1705C231.811 53.3302 225.955 54.0526 219.131 52.7853C212.307 51.5179 207.103 48.7408 207.506 46.5811C207.909 44.4214 213.764 43.699 220.588 44.9663C227.412 46.2337 232.617 49.0108 232.214 51.1705Z" fill="#FF40C3"/>
<path d="M206.395 124.594C213.331 119.793 215.701 111.217 211.69 105.439C207.678 99.6605 198.804 98.868 191.868 103.669C184.932 108.47 182.562 117.046 186.573 122.824C190.585 128.602 199.46 129.395 206.395 124.594Z" fill="#FF86F3"/>
<path d="M206.296 124.268C212.97 119.648 215.507 111.763 211.962 106.656C208.417 101.549 200.132 101.155 193.458 105.775C186.783 110.394 184.247 118.279 187.792 123.386C191.337 128.493 199.622 128.888 206.296 124.268Z" fill="#FFAFFF"/>
<path d="M136.603 185.782C142.912 185.782 148.026 182.335 148.026 178.083C148.026 173.831 142.912 170.384 136.603 170.384C130.295 170.384 125.18 173.831 125.18 178.083C125.18 182.335 130.295 185.782 136.603 185.782Z" fill="#FFAFFF"/>
<path d="M82.5732 171.517C85.3894 170.422 89.3222 173.759 91.3574 178.973C93.3927 184.187 92.7618 189.302 89.9455 190.396C87.1293 191.491 83.1965 188.154 81.1613 182.94C79.1261 177.726 79.7569 172.611 82.5732 171.517Z" fill="#FF40C3"/>
<path d="M90.0594 188.434C92.8752 187.338 93.5078 182.223 91.4723 177.01C89.4368 171.797 85.504 168.46 82.6882 169.556C79.8724 170.652 79.2398 175.767 81.2753 180.98C83.3108 186.193 87.2435 189.53 90.0594 188.434Z" fill="#FFAFFF"/>
<path d="M151.451 156.18C157.195 150.444 159.049 142.995 155.591 139.542C152.133 136.09 144.673 137.941 138.929 143.677C133.184 149.413 131.331 156.861 134.788 160.314C138.246 163.767 145.706 161.916 151.451 156.18Z" fill="#FF86F3"/>
<path d="M151.693 157.604C157.024 152.281 158.744 145.369 155.536 142.165C152.327 138.961 145.405 140.679 140.074 146.002C134.743 151.325 133.022 158.238 136.231 161.442C139.439 164.645 146.362 162.927 151.693 157.604Z" fill="#FFAFFF"/>
<path d="M134.073 69.6269C140.6 64.7972 144.211 58.6169 142.137 55.8229C140.063 53.0289 133.091 54.6792 126.564 59.5089C120.037 64.3386 116.427 70.5189 118.5 73.3129C120.574 76.1069 127.546 74.4566 134.073 69.6269Z" fill="#FF86F3"/>
<path d="M141.384 57.9922C143.309 60.5844 139.957 66.3186 133.902 70.8005C127.846 75.2823 121.375 76.8146 119.45 74.22C117.525 71.6278 120.877 65.8936 126.932 61.4118C132.988 56.9299 139.459 55.3976 141.384 57.9922Z" fill="#FFAFFF"/>
<path d="M119.167 80.2038C120.284 81.3186 118.807 84.5982 115.868 87.5303C112.931 90.4624 109.645 91.9372 108.531 90.8248C107.414 89.71 108.891 86.4304 111.83 83.4983C114.766 80.5662 118.053 79.0915 119.167 80.2038Z" fill="#FF86F3"/>
<path d="M175.948 126.82C176.959 128.03 175.194 131.164 172.005 133.824C168.816 136.484 165.414 137.658 164.402 136.449C163.391 135.239 165.156 132.104 168.345 129.445C171.535 126.785 174.937 125.61 175.948 126.82Z" fill="#FF86F3"/>
<path d="M110.328 181.085C115.092 181.085 118.954 178.629 118.954 175.6C118.954 172.572 115.092 170.116 110.328 170.116C105.564 170.116 101.701 172.572 101.701 175.6C101.701 178.629 105.564 181.085 110.328 181.085Z" fill="#FFAFFF"/>
<g filter="url(#filter0_d_851_18538)">
<path fill-rule="evenodd" clip-rule="evenodd" d="M295.044 193.433C277.831 199.319 298.106 245.876 314.708 236.747L322.376 232.529C336.286 224.867 318.876 184.347 302.768 190.464C300.54 191.308 297.116 192.561 295.044 193.433Z" fill="url(#paint0_linear_851_18538)"/>
<path fill-rule="evenodd" clip-rule="evenodd" d="M295.681 193.383C288.526 194.528 286.302 205.41 290.699 217.683C295.105 229.952 304.477 238.982 311.631 237.837C318.786 236.692 321.01 225.81 316.604 213.541C312.198 201.272 302.826 192.241 295.671 193.386L295.681 193.383Z" fill="url(#paint1_linear_851_18538)"/>
<path fill-rule="evenodd" clip-rule="evenodd" d="M285.901 193.093C266.108 199.862 289.422 253.382 308.501 242.891L317.319 238.04C333.297 229.223 313.288 182.646 294.769 189.681C292.208 190.652 288.274 192.094 285.888 193.087L285.901 193.093Z" fill="url(#paint2_linear_851_18538)"/>
<path fill-rule="evenodd" clip-rule="evenodd" d="M286.619 193.034C278.395 194.354 275.832 206.854 280.898 220.968C285.96 235.071 296.732 245.456 304.955 244.135C313.179 242.815 315.742 230.315 310.676 216.202C305.614 202.098 294.842 191.714 286.619 193.034Z" fill="url(#paint3_linear_851_18538)"/>
<path d="M310.673 216.205C305.61 202.099 294.836 191.714 286.611 193.034C284.211 193.414 282.301 194.754 280.911 196.813C282.264 195.071 284.033 193.927 286.215 193.582C294.44 192.261 305.214 202.647 310.277 216.752C313.863 226.742 313.617 235.937 310.255 240.91C313.99 236.079 314.392 226.578 310.673 216.205Z" fill="url(#paint4_linear_851_18538)"/>
<path fill-rule="evenodd" clip-rule="evenodd" d="M290.735 207.752C286.871 208.373 285.572 213.68 287.846 219.612C290.119 225.543 295.093 229.847 298.96 229.236C302.823 228.615 304.123 223.308 301.849 217.377C299.575 211.445 294.602 207.141 290.725 207.756L290.735 207.752Z" fill="url(#paint5_linear_851_18538)"/>
<path d="M301.848 217.378C299.574 211.446 294.6 207.141 290.723 207.756C289.445 207.962 288.448 208.678 287.769 209.766C288.421 208.992 289.276 208.472 290.327 208.303C294.191 207.683 299.178 211.993 301.452 217.925C302.975 221.898 302.892 225.585 301.507 227.779C303.252 225.69 303.494 221.706 301.839 217.381L301.848 217.378Z" fill="url(#paint6_linear_851_18538)"/>
<path style="mix-blend-mode:multiply" opacity="0.44" fill-rule="evenodd" clip-rule="evenodd" d="M299.857 220.564C299.857 220.564 303.128 238.495 304.042 244.243C299.903 244.467 295.232 241.943 290.997 237.599L289.331 213.792L299.86 220.574L299.857 220.564Z" fill="url(#paint7_linear_851_18538)"/>
<path fill-rule="evenodd" clip-rule="evenodd" d="M229.656 236.206C222.303 238.72 231.914 260.04 238.997 256.145L298.153 228.12C304.093 224.845 296.662 207.556 289.781 210.166C288.831 210.53 230.544 235.843 229.656 236.206Z" fill="url(#paint8_linear_851_18538)"/>
<ellipse cx="27.6188" cy="27.6857" rx="27.6188" ry="27.6857" transform="matrix(0.995956 0.0771008 -0.0790608 0.997936 242.486 202.471)" fill="#FF2C89"/>
<path fill-rule="evenodd" clip-rule="evenodd" d="M209.983 226.442C188.518 233.786 213.803 291.854 234.507 280.469L244.073 275.209C261.425 265.649 239.703 215.124 219.621 222.749C216.849 223.804 212.57 225.367 209.986 226.451L209.983 226.442Z" fill="url(#paint9_linear_851_18538)"/>
<path fill-rule="evenodd" clip-rule="evenodd" d="M210.773 226.378C201.854 227.805 199.076 241.376 204.566 256.683C210.055 271.989 221.746 283.246 230.664 281.818C239.583 280.39 242.361 266.819 236.872 251.513C231.382 236.207 219.691 224.95 210.773 226.378Z" fill="url(#paint10_linear_851_18538)"/>
<path d="M236.868 251.516C231.378 236.208 219.685 224.95 210.764 226.378C208.168 226.795 206.097 228.244 204.593 230.458C206.057 228.552 207.99 227.308 210.368 226.925C219.289 225.498 230.982 236.756 236.472 252.064C240.368 262.92 240.101 272.898 236.435 278.292C240.474 273.04 240.897 262.756 236.868 251.516Z" fill="url(#paint11_linear_851_18538)"/>
<path style="mix-blend-mode:multiply" opacity="0.44" fill-rule="evenodd" clip-rule="evenodd" d="M235.63 260.817C235.63 260.817 235.851 273.534 236.185 278.635C234.752 280.353 232.902 281.473 230.671 281.825C226.907 282.432 222.648 280.76 218.565 277.486L222.997 254.231L235.626 260.807L235.63 260.817Z" fill="url(#paint12_linear_851_18538)"/>
<path fill-rule="evenodd" clip-rule="evenodd" d="M200.732 233.503C182.052 239.893 204.052 290.404 222.07 280.505L230.387 275.924C245.481 267.606 226.59 223.655 209.115 230.293C206.704 231.211 202.98 232.569 200.735 233.513L200.732 233.503Z" fill="url(#paint13_linear_851_18538)"/>
<path fill-rule="evenodd" clip-rule="evenodd" d="M201.421 233.455C193.662 234.696 191.234 246.499 196.015 259.821C200.793 273.134 210.964 282.932 218.724 281.691C226.483 280.449 228.902 268.649 224.12 255.327C219.342 242.015 209.171 232.216 201.412 233.458L201.421 233.455Z" fill="url(#paint14_linear_851_18538)"/>
<path d="M223.744 255.597C218.965 242.283 208.792 232.483 201.031 233.725C198.762 234.09 196.953 235.363 195.647 237.299C196.923 235.667 198.59 234.591 200.644 234.269C208.405 233.028 218.575 242.818 223.357 256.141C226.736 265.565 226.514 274.227 223.343 278.933C226.882 274.381 227.265 265.4 223.756 255.603L223.744 255.597Z" fill="url(#paint15_linear_851_18538)"/>
</g>
<path fill-rule="evenodd" clip-rule="evenodd" d="M67.2065 18.1663C57.3078 28.1144 87.2283 53.4022 95.5969 41.4185L99.4622 35.883C106.47 25.8333 80.5922 3.74456 71.5367 13.4753C70.2834 14.8196 68.3417 16.8554 67.2065 18.1663Z" fill="url(#paint16_linear_851_18538)"/>
<path fill-rule="evenodd" clip-rule="evenodd" d="M67.6298 17.9143C63.0708 21.1489 65.2474 29.4369 72.4788 36.4262C79.7156 43.4101 89.2819 46.4582 93.8409 43.2235C98.3999 39.9889 96.2233 31.7009 88.9865 24.7171C81.7497 17.7332 72.1834 14.6851 67.6245 17.9197L67.6298 17.9143Z" fill="url(#paint17_linear_851_18538)"/>
<path fill-rule="evenodd" clip-rule="evenodd" d="M60.7655 21.0519C49.3832 32.492 83.7826 61.559 93.4006 47.7881L97.8454 41.4214C105.889 29.867 76.1456 4.47515 65.7355 15.6644C64.2955 17.2101 62.0658 19.5506 60.7547 21.052L60.7655 21.0519Z" fill="url(#paint18_linear_851_18538)"/>
<path fill-rule="evenodd" clip-rule="evenodd" d="M61.2416 20.7662C56.0031 24.4871 58.4972 34.0099 66.8198 42.0444C75.137 50.0734 86.1339 53.5804 91.3724 49.8595C96.6109 46.1387 94.1168 36.6158 85.7942 28.5814C77.477 20.5523 66.4801 17.0453 61.2416 20.7662Z" fill="url(#paint19_linear_851_18538)"/>
<path d="M85.7932 28.5838C77.4747 20.554 66.4758 17.0469 61.2362 20.7684C59.7055 21.8505 58.8414 23.4299 58.5831 25.3288C58.9241 23.6616 59.7575 22.2662 61.1491 21.2825C66.3887 17.561 77.3876 21.068 85.7061 29.0978C91.5974 34.7852 94.566 41.2305 93.9377 45.8181C94.8727 41.2011 91.9072 34.4909 85.7932 28.5838Z" fill="url(#paint20_linear_851_18538)"/>
<path fill-rule="evenodd" clip-rule="evenodd" d="M69.114 29.5444C66.6527 31.2927 67.5658 35.4082 71.1637 38.7353C74.7616 42.0625 79.6715 43.3424 82.1382 41.5994C84.5994 39.8511 83.6863 35.7357 80.0884 32.4085C76.4905 29.0814 71.5806 27.8015 69.1086 29.5499L69.114 29.5444Z" fill="url(#paint21_linear_851_18538)"/>
<path d="M80.0879 32.4089C76.4896 29.0815 71.5789 27.8016 69.1065 29.5502C68.2931 30.1294 67.8481 30.9651 67.7489 31.9493C67.9362 31.1913 68.3505 30.5396 69.0194 30.0643C71.4811 28.3157 76.4025 29.5955 80.0008 32.923C82.4106 35.152 83.612 37.7309 83.403 39.7211C83.8969 37.68 82.7041 34.8416 80.0826 32.4144L80.0879 32.4089Z" fill="url(#paint22_linear_851_18538)"/>
<path style="mix-blend-mode:multiply" opacity="0.44" fill-rule="evenodd" clip-rule="evenodd" d="M79.7986 35.2935C79.7986 35.2935 88.1827 46.5814 90.7773 50.2465C87.9908 51.8141 83.8971 51.6626 79.4844 50.1032L70.2044 34.2018L79.804 35.2989L79.7986 35.2935Z" fill="url(#paint23_linear_851_18538)"/>
<path fill-rule="evenodd" clip-rule="evenodd" d="M36.5719 70.0798C32.3429 74.329 46.2704 85.7977 49.8411 80.6845L81.1992 41.1014C84.1907 36.8079 73.1477 27.3839 69.2782 31.5386C68.7453 32.115 37.062 69.5253 36.5719 70.0798Z" fill="url(#paint24_linear_851_18538)"/>
<ellipse cx="21.3069" cy="21.3586" rx="21.3069" ry="21.3586" transform="matrix(0.927254 -0.371583 0.370701 0.929896 33.9311 42.3618)" fill="#FF2C89"/>
<path fill-rule="evenodd" clip-rule="evenodd" d="M19.6282 70.0404C7.28546 82.4496 44.6021 113.99 55.0389 99.0455L59.8612 92.141C68.6018 79.6034 36.3257 52.0649 25.0356 64.1957C23.4784 65.8719 21.0512 68.4139 19.6336 70.0458L19.6282 70.0404Z" fill="url(#paint25_linear_851_18538)"/>
<path fill-rule="evenodd" clip-rule="evenodd" d="M20.1527 69.7271C14.4701 73.7595 17.1812 84.0966 26.2042 92.8117C35.2271 101.527 47.1579 105.324 52.8406 101.291C58.5233 97.259 55.8122 86.9219 46.7892 78.2068C37.7662 69.4916 25.8354 65.6948 20.1527 69.7271Z" fill="url(#paint26_linear_851_18538)"/>
<path d="M46.788 78.2096C37.7636 69.4937 25.8307 65.6967 20.1469 69.7298C18.4931 70.9047 17.5547 72.6144 17.2707 74.6594C17.632 72.8408 18.5451 71.3204 20.0597 70.2439C25.7436 66.2108 37.6765 70.0077 46.7009 78.7237C53.1027 84.9042 56.3237 91.8987 55.6288 96.8814C56.6304 91.8693 53.4125 84.6099 46.788 78.2096Z" fill="url(#paint27_linear_851_18538)"/>
<path style="mix-blend-mode:multiply" opacity="0.44" fill-rule="evenodd" clip-rule="evenodd" d="M49.1061 85.0663C49.1061 85.0663 53.6008 93.7887 55.5734 97.2039C55.1681 98.8818 54.2706 100.288 52.8476 101.293C50.4509 102.998 46.9333 103.295 42.9911 102.424L38.1182 84.8227L49.1007 85.0609L49.1061 85.0663Z" fill="url(#paint28_linear_851_18538)"/>
<path fill-rule="evenodd" clip-rule="evenodd" d="M15.6387 78.0846C4.89687 88.8821 37.3604 116.316 46.4469 103.317L50.6364 97.3087C58.2392 86.4007 30.1657 62.4437 20.3422 73.0017C18.9877 74.4602 16.8753 76.6702 15.6441 78.0899L15.6387 78.0846Z" fill="url(#paint29_linear_851_18538)"/>
<path fill-rule="evenodd" clip-rule="evenodd" d="M16.0992 77.8156C11.155 81.3234 13.5046 90.3179 21.3603 97.9021C29.2106 105.481 39.592 108.787 44.5363 105.28C49.4805 101.772 47.1256 92.7827 39.2699 85.1985C31.4196 77.6196 21.0382 74.3132 16.0939 77.821L16.0992 77.8156Z" fill="url(#paint30_linear_851_18538)"/>
<path d="M39.1011 85.5131C31.2496 77.9336 20.8663 74.627 15.921 78.1355C14.476 79.1628 13.6596 80.6608 13.4165 82.4461C13.7423 80.8817 14.5279 79.5677 15.8392 78.6441C20.7845 75.1357 31.1624 78.4368 39.0193 86.0217C44.574 91.3875 47.3778 97.4558 46.7905 101.795C47.6846 97.4372 44.8838 91.0932 39.1118 85.513L39.1011 85.5131Z" fill="url(#paint31_linear_851_18538)"/>
<rect x="125.82" y="86.9868" width="16.656" height="3.33121" rx="1.6656" transform="rotate(24.59 125.82 86.9868)" fill="#FF2C89"/>
<rect width="16.656" height="3.33121" rx="1.6656" transform="matrix(0.964049 -0.265724 -0.265724 -0.964049 183.508 100.146)" fill="#FF2C89"/>
<circle cx="189.823" cy="108.691" r="6.96531" transform="rotate(4.58588 189.823 108.691)" fill="black"/>
<circle cx="132.143" cy="104.064" r="6.96531" transform="rotate(4.58588 132.143 104.064)" fill="black"/>
<path fill-rule="evenodd" clip-rule="evenodd" d="M160.581 117.489C155.085 117.024 149.762 115.436 143.204 112.778L144.707 109.071C151.093 111.66 155.993 113.087 160.918 113.503C165.837 113.919 170.917 113.338 177.671 111.721L178.602 115.611C171.622 117.282 166.083 117.954 160.581 117.489Z" fill="black"/>
<path d="M232.105 90.6088L233.714 75.4713L243.908 87.1202C245.887 89.8095 246.854 93.151 246.332 96.4103C246.004 98.4178 245.442 99.773 243.774 100.785C243.774 100.785 239.732 103.017 235.64 99.0772C233.347 96.8718 232.146 93.7727 232.105 90.6088Z" fill="#C6E7FF"/>
<path d="M252.445 104.773L253.54 94.4714L260.477 102.399C261.824 104.229 262.482 106.503 262.127 108.721C261.904 110.087 261.521 111.009 260.386 111.698C260.386 111.698 257.636 113.217 254.851 110.535C253.29 109.035 252.473 106.926 252.445 104.773Z" fill="#C6E7FF"/>
<defs>
<filter id="filter0_d_851_18538" x="181.564" y="180.96" width="145.885" height="100.987" filterUnits="userSpaceOnUse" color-interpolation-filters="sRGB">
<feFlood flood-opacity="0" result="BackgroundImageFix"/>
<feColorMatrix in="SourceAlpha" type="matrix" values="0 0 0 0 0 0 0 0 0 0 0 0 0 0 0 0 0 0 127 0" result="hardAlpha"/>
<feOffset dx="-8" dy="-4"/>
<feGaussianBlur stdDeviation="2"/>
<feComposite in2="hardAlpha" operator="out"/>
<feColorMatrix type="matrix" values="0 0 0 0 0 0 0 0 0 0 0 0 0 0 0 0 0 0 0.25 0"/>
<feBlend mode="normal" in2="BackgroundImageFix" result="effect1_dropShadow_851_18538"/>
<feBlend mode="normal" in="SourceGraphic" in2="effect1_dropShadow_851_18538" result="shape"/>
</filter>
<linearGradient id="paint0_linear_851_18538" x1="297.374" y1="192.383" x2="319.851" y2="236.31" gradientUnits="userSpaceOnUse">
<stop stop-color="#383836"/>
<stop offset="0.12" stop-color="#BFBFBF"/>
<stop offset="0.21" stop-color="#727372"/>
<stop offset="0.3" stop-color="#2F302F"/>
<stop offset="0.34" stop-color="#151615"/>
<stop offset="0.42" stop-color="#1F201F"/>
<stop offset="0.57" stop-color="#3C3C3A"/>
<stop offset="0.58" stop-color="#3F3F3D"/>
<stop offset="0.65" stop-color="#565654"/>
<stop offset="0.7" stop-color="#6B6B6A"/>
<stop offset="0.73" stop-color="#5A5A5A"/>
<stop offset="0.81" stop-color="#333333"/>
<stop offset="0.89" stop-color="#171717"/>
<stop offset="0.95" stop-color="#060606"/>
<stop offset="1"/>
</linearGradient>
<linearGradient id="paint1_linear_851_18538" x1="332.845" y1="244.844" x2="285.342" y2="197.474" gradientUnits="userSpaceOnUse">
<stop stop-color="white"/>
<stop offset="0.77" stop-color="#ADB7C3"/>
<stop offset="1" stop-color="#7B90A6"/>
</linearGradient>
<linearGradient id="paint2_linear_851_18538" x1="288.546" y1="191.867" x2="314.399" y2="242.37" gradientUnits="userSpaceOnUse">
<stop stop-color="#383836"/>
<stop offset="0.12" stop-color="#BFBFBF"/>
<stop offset="0.21" stop-color="#727372"/>
<stop offset="0.3" stop-color="#2F302F"/>
<stop offset="0.34" stop-color="#151615"/>
<stop offset="0.42" stop-color="#1F201F"/>
<stop offset="0.57" stop-color="#3C3C3A"/>
<stop offset="0.58" stop-color="#3F3F3D"/>
<stop offset="0.65" stop-color="#565654"/>
<stop offset="0.7" stop-color="#6B6B6A"/>
<stop offset="0.73" stop-color="#5A5A5A"/>
<stop offset="0.81" stop-color="#333333"/>
<stop offset="0.89" stop-color="#171717"/>
<stop offset="0.95" stop-color="#060606"/>
<stop offset="1"/>
</linearGradient>
<linearGradient id="paint3_linear_851_18538" x1="298.03" y1="178.987" x2="293.975" y2="257.847" gradientUnits="userSpaceOnUse">
<stop stop-color="#919190"/>
<stop offset="0.23" stop-color="#6C6C6B"/>
<stop offset="0.58" stop-color="#393939"/>
<stop offset="0.85" stop-color="#1A1A1A"/>
<stop offset="1" stop-color="#0F0F0F"/>
</linearGradient>
<linearGradient id="paint4_linear_851_18538" x1="284.495" y1="176.848" x2="315.261" y2="256.592" gradientUnits="userSpaceOnUse">
<stop stop-color="#BFBFBF"/>
<stop offset="0.33" stop-color="#848484"/>
<stop offset="0.5" stop-color="#6B6B6A"/>
<stop offset="0.55" stop-color="#5A5A5A"/>
<stop offset="0.69" stop-color="#333333"/>
<stop offset="0.81" stop-color="#171717"/>
<stop offset="0.92" stop-color="#060606"/>
<stop offset="1"/>
</linearGradient>
<linearGradient id="paint5_linear_851_18538" x1="295.861" y1="201.885" x2="294.159" y2="235.055" gradientUnits="userSpaceOnUse">
<stop stop-color="#919190"/>
<stop offset="0.23" stop-color="#6C6C6B"/>
<stop offset="0.58" stop-color="#393939"/>
<stop offset="0.85" stop-color="#1A1A1A"/>
<stop offset="1" stop-color="#0F0F0F"/>
</linearGradient>
<linearGradient id="paint6_linear_851_18538" x1="289.959" y1="200.822" x2="303.023" y2="234.657" gradientUnits="userSpaceOnUse">
<stop stop-color="#BFBFBF"/>
<stop offset="0.33" stop-color="#848484"/>
<stop offset="0.5" stop-color="#6B6B6A"/>
<stop offset="0.55" stop-color="#5A5A5A"/>
<stop offset="0.69" stop-color="#333333"/>
<stop offset="0.81" stop-color="#171717"/>
<stop offset="0.92" stop-color="#060606"/>
<stop offset="1"/>
</linearGradient>
<linearGradient id="paint7_linear_851_18538" x1="298.281" y1="247.117" x2="295.297" y2="219.102" gradientUnits="userSpaceOnUse">
<stop/>
<stop offset="0.16" stop-color="#060606"/>
<stop offset="0.38" stop-color="#191918"/>
<stop offset="0.65" stop-color="#373737"/>
<stop offset="0.94" stop-color="#616160"/>
<stop offset="1" stop-color="#6B6B6A"/>
</linearGradient>
<linearGradient id="paint8_linear_851_18538" x1="259.217" y1="222.092" x2="268.26" y2="242.321" gradientUnits="userSpaceOnUse">
<stop stop-color="#0A0A0A"/>
<stop offset="0.21" stop-color="#ADADAE"/>
<stop offset="0.44" stop-color="#737476"/>
<stop offset="0.63" stop-color="#595959"/>
<stop offset="0.88" stop-color="#424243"/>
<stop offset="1" stop-color="#0A0A0A"/>
</linearGradient>
<linearGradient id="paint9_linear_851_18538" x1="212.859" y1="225.106" x2="240.901" y2="279.892" gradientUnits="userSpaceOnUse">
<stop stop-color="#383836"/>
<stop offset="0.12" stop-color="#BFBFBF"/>
<stop offset="0.21" stop-color="#727372"/>
<stop offset="0.3" stop-color="#2F302F"/>
<stop offset="0.34" stop-color="#151615"/>
<stop offset="0.42" stop-color="#1F201F"/>
<stop offset="0.57" stop-color="#3C3C3A"/>
<stop offset="0.58" stop-color="#3F3F3D"/>
<stop offset="0.65" stop-color="#565654"/>
<stop offset="0.7" stop-color="#6B6B6A"/>
<stop offset="0.73" stop-color="#5A5A5A"/>
<stop offset="0.81" stop-color="#333333"/>
<stop offset="0.89" stop-color="#171717"/>
<stop offset="0.95" stop-color="#060606"/>
<stop offset="1"/>
</linearGradient>
<linearGradient id="paint10_linear_851_18538" x1="223.135" y1="211.347" x2="218.758" y2="296.485" gradientUnits="userSpaceOnUse">
<stop stop-color="#919190"/>
<stop offset="0.23" stop-color="#6C6C6B"/>
<stop offset="0.58" stop-color="#393939"/>
<stop offset="0.85" stop-color="#1A1A1A"/>
<stop offset="1" stop-color="#0F0F0F"/>
</linearGradient>
<linearGradient id="paint11_linear_851_18538" x1="208.553" y1="209.034" x2="241.779" y2="295.125" gradientUnits="userSpaceOnUse">
<stop stop-color="#BFBFBF"/>
<stop offset="0.33" stop-color="#848484"/>
<stop offset="0.5" stop-color="#6B6B6A"/>
<stop offset="0.55" stop-color="#5A5A5A"/>
<stop offset="0.69" stop-color="#333333"/>
<stop offset="0.81" stop-color="#171717"/>
<stop offset="0.92" stop-color="#060606"/>
<stop offset="1"/>
</linearGradient>
<linearGradient id="paint12_linear_851_18538" x1="231.126" y1="258.92" x2="226.238" y2="285.006" gradientUnits="userSpaceOnUse">
<stop stop-color="#6B6B6A"/>
<stop offset="0.08" stop-color="#585857"/>
<stop offset="0.24" stop-color="#383837"/>
<stop offset="0.41" stop-color="#1F1F1F"/>
<stop offset="0.59" stop-color="#0D0D0D"/>
<stop offset="0.78" stop-color="#030303"/>
<stop offset="1"/>
</linearGradient>
<linearGradient id="paint13_linear_851_18538" x1="203.254" y1="232.357" x2="227.651" y2="280.02" gradientUnits="userSpaceOnUse">
<stop stop-color="#383836"/>
<stop offset="0.12" stop-color="#BFBFBF"/>
<stop offset="0.21" stop-color="#727372"/>
<stop offset="0.3" stop-color="#2F302F"/>
<stop offset="0.34" stop-color="#151615"/>
<stop offset="0.42" stop-color="#1F201F"/>
<stop offset="0.57" stop-color="#3C3C3A"/>
<stop offset="0.58" stop-color="#3F3F3D"/>
<stop offset="0.65" stop-color="#565654"/>
<stop offset="0.7" stop-color="#6B6B6A"/>
<stop offset="0.73" stop-color="#5A5A5A"/>
<stop offset="0.81" stop-color="#333333"/>
<stop offset="0.89" stop-color="#171717"/>
<stop offset="0.95" stop-color="#060606"/>
<stop offset="1"/>
</linearGradient>
<linearGradient id="paint14_linear_851_18538" x1="212.201" y1="220.205" x2="208.373" y2="294.636" gradientUnits="userSpaceOnUse">
<stop stop-color="#919190"/>
<stop offset="0.23" stop-color="#6C6C6B"/>
<stop offset="0.58" stop-color="#393939"/>
<stop offset="0.85" stop-color="#1A1A1A"/>
<stop offset="1" stop-color="#0F0F0F"/>
</linearGradient>
<linearGradient id="paint15_linear_851_18538" x1="199.032" y1="218.456" x2="228.069" y2="293.719" gradientUnits="userSpaceOnUse">
<stop stop-color="#BFBFBF"/>
<stop offset="0.33" stop-color="#848484"/>
<stop offset="0.5" stop-color="#6B6B6A"/>
<stop offset="0.55" stop-color="#5A5A5A"/>
<stop offset="0.69" stop-color="#333333"/>
<stop offset="0.81" stop-color="#171717"/>
<stop offset="0.92" stop-color="#060606"/>
<stop offset="1"/>
</linearGradient>
<linearGradient id="paint16_linear_851_18538" x1="68.4602" y1="16.6444" x2="99.006" y2="39.3603" gradientUnits="userSpaceOnUse">
<stop stop-color="#383836"/>
<stop offset="0.12" stop-color="#BFBFBF"/>
<stop offset="0.21" stop-color="#727372"/>
<stop offset="0.3" stop-color="#2F302F"/>
<stop offset="0.34" stop-color="#151615"/>
<stop offset="0.42" stop-color="#1F201F"/>
<stop offset="0.57" stop-color="#3C3C3A"/>
<stop offset="0.58" stop-color="#3F3F3D"/>
<stop offset="0.65" stop-color="#565654"/>
<stop offset="0.7" stop-color="#6B6B6A"/>
<stop offset="0.73" stop-color="#5A5A5A"/>
<stop offset="0.81" stop-color="#333333"/>
<stop offset="0.89" stop-color="#171717"/>
<stop offset="0.95" stop-color="#060606"/>
<stop offset="1"/>
</linearGradient>
<linearGradient id="paint17_linear_851_18538" x1="110.909" y1="40.8293" x2="61.8739" y2="24.2744" gradientUnits="userSpaceOnUse">
<stop stop-color="white"/>
<stop offset="0.77" stop-color="#ADB7C3"/>
<stop offset="1" stop-color="#7B90A6"/>
</linearGradient>
<linearGradient id="paint18_linear_851_18538" x1="62.1768" y1="19.3012" x2="97.3036" y2="45.4139" gradientUnits="userSpaceOnUse">
<stop stop-color="#383836"/>
<stop offset="0.12" stop-color="#BFBFBF"/>
<stop offset="0.21" stop-color="#727372"/>
<stop offset="0.3" stop-color="#2F302F"/>
<stop offset="0.34" stop-color="#151615"/>
<stop offset="0.42" stop-color="#1F201F"/>
<stop offset="0.57" stop-color="#3C3C3A"/>
<stop offset="0.58" stop-color="#3F3F3D"/>
<stop offset="0.65" stop-color="#565654"/>
<stop offset="0.7" stop-color="#6B6B6A"/>
<stop offset="0.73" stop-color="#5A5A5A"/>
<stop offset="0.81" stop-color="#333333"/>
<stop offset="0.89" stop-color="#171717"/>
<stop offset="0.95" stop-color="#060606"/>
<stop offset="1"/>
</linearGradient>
<linearGradient id="paint19_linear_851_18538" x1="64.3404" y1="7.15305" x2="88.4569" y2="63.094" gradientUnits="userSpaceOnUse">
<stop stop-color="#919190"/>
<stop offset="0.23" stop-color="#6C6C6B"/>
<stop offset="0.58" stop-color="#393939"/>
<stop offset="0.85" stop-color="#1A1A1A"/>
<stop offset="1" stop-color="#0F0F0F"/>
</linearGradient>
<linearGradient id="paint20_linear_851_18538" x1="54.2463" y1="10.2928" x2="102.755" y2="54.9584" gradientUnits="userSpaceOnUse">
<stop stop-color="#BFBFBF"/>
<stop offset="0.33" stop-color="#848484"/>
<stop offset="0.5" stop-color="#6B6B6A"/>
<stop offset="0.55" stop-color="#5A5A5A"/>
<stop offset="0.69" stop-color="#333333"/>
<stop offset="0.81" stop-color="#171717"/>
<stop offset="0.92" stop-color="#060606"/>
<stop offset="1"/>
</linearGradient>
<linearGradient id="paint21_linear_851_18538" x1="70.6572" y1="23.7354" x2="80.8037" y2="47.2635" gradientUnits="userSpaceOnUse">
<stop stop-color="#919190"/>
<stop offset="0.23" stop-color="#6C6C6B"/>
<stop offset="0.58" stop-color="#393939"/>
<stop offset="0.85" stop-color="#1A1A1A"/>
<stop offset="1" stop-color="#0F0F0F"/>
</linearGradient>
<linearGradient id="paint22_linear_851_18538" x1="66.2106" y1="25.0141" x2="86.7994" y2="43.9622" gradientUnits="userSpaceOnUse">
<stop stop-color="#BFBFBF"/>
<stop offset="0.33" stop-color="#848484"/>
<stop offset="0.5" stop-color="#6B6B6A"/>
<stop offset="0.55" stop-color="#5A5A5A"/>
<stop offset="0.69" stop-color="#333333"/>
<stop offset="0.81" stop-color="#171717"/>
<stop offset="0.92" stop-color="#060606"/>
<stop offset="1"/>
</linearGradient>
<linearGradient id="paint23_linear_851_18538" x1="87.7728" y1="54.2011" x2="76.1446" y2="35.8388" gradientUnits="userSpaceOnUse">
<stop/>
<stop offset="0.16" stop-color="#060606"/>
<stop offset="0.38" stop-color="#191918"/>
<stop offset="0.65" stop-color="#373737"/>
<stop offset="0.94" stop-color="#616160"/>
<stop offset="1" stop-color="#6B6B6A"/>
</linearGradient>
<linearGradient id="paint24_linear_851_18538" x1="52.2041" y1="50.2234" x2="65.3663" y2="61.1314" gradientUnits="userSpaceOnUse">
<stop stop-color="#0A0A0A"/>
<stop offset="0.21" stop-color="#ADADAE"/>
<stop offset="0.44" stop-color="#737476"/>
<stop offset="0.63" stop-color="#595959"/>
<stop offset="0.88" stop-color="#424243"/>
<stop offset="1" stop-color="#0A0A0A"/>
</linearGradient>
<linearGradient id="paint25_linear_851_18538" x1="21.162" y1="68.1345" x2="59.2651" y2="96.464" gradientUnits="userSpaceOnUse">
<stop stop-color="#383836"/>
<stop offset="0.12" stop-color="#BFBFBF"/>
<stop offset="0.21" stop-color="#727372"/>
<stop offset="0.3" stop-color="#2F302F"/>
<stop offset="0.34" stop-color="#151615"/>
<stop offset="0.42" stop-color="#1F201F"/>
<stop offset="0.57" stop-color="#3C3C3A"/>
<stop offset="0.58" stop-color="#3F3F3D"/>
<stop offset="0.65" stop-color="#565654"/>
<stop offset="0.7" stop-color="#6B6B6A"/>
<stop offset="0.73" stop-color="#5A5A5A"/>
<stop offset="0.81" stop-color="#333333"/>
<stop offset="0.89" stop-color="#171717"/>
<stop offset="0.95" stop-color="#060606"/>
<stop offset="1"/>
</linearGradient>
<linearGradient id="paint26_linear_851_18538" x1="23.574" y1="55.1081" x2="49.6105" y2="115.503" gradientUnits="userSpaceOnUse">
<stop stop-color="#919190"/>
<stop offset="0.23" stop-color="#6C6C6B"/>
<stop offset="0.58" stop-color="#393939"/>
<stop offset="0.85" stop-color="#1A1A1A"/>
<stop offset="1" stop-color="#0F0F0F"/>
</linearGradient>
<linearGradient id="paint27_linear_851_18538" x1="12.6959" y1="58.4857" x2="65.0726" y2="106.703" gradientUnits="userSpaceOnUse">
<stop stop-color="#BFBFBF"/>
<stop offset="0.33" stop-color="#848484"/>
<stop offset="0.5" stop-color="#6B6B6A"/>
<stop offset="0.55" stop-color="#5A5A5A"/>
<stop offset="0.69" stop-color="#333333"/>
<stop offset="0.81" stop-color="#171717"/>
<stop offset="0.92" stop-color="#060606"/>
<stop offset="1"/>
</linearGradient>
<linearGradient id="paint28_linear_851_18538" x1="45.3432" y1="85.2919" x2="50.8665" y2="105.007" gradientUnits="userSpaceOnUse">
<stop stop-color="#6B6B6A"/>
<stop offset="0.08" stop-color="#585857"/>
<stop offset="0.24" stop-color="#383837"/>
<stop offset="0.41" stop-color="#1F1F1F"/>
<stop offset="0.59" stop-color="#0D0D0D"/>
<stop offset="0.78" stop-color="#030303"/>
<stop offset="1"/>
</linearGradient>
<linearGradient id="paint29_linear_851_18538" x1="16.992" y1="76.4308" x2="50.1419" y2="101.076" gradientUnits="userSpaceOnUse">
<stop stop-color="#383836"/>
<stop offset="0.12" stop-color="#BFBFBF"/>
<stop offset="0.21" stop-color="#727372"/>
<stop offset="0.3" stop-color="#2F302F"/>
<stop offset="0.34" stop-color="#151615"/>
<stop offset="0.42" stop-color="#1F201F"/>
<stop offset="0.57" stop-color="#3C3C3A"/>
<stop offset="0.58" stop-color="#3F3F3D"/>
<stop offset="0.65" stop-color="#565654"/>
<stop offset="0.7" stop-color="#6B6B6A"/>
<stop offset="0.73" stop-color="#5A5A5A"/>
<stop offset="0.81" stop-color="#333333"/>
<stop offset="0.89" stop-color="#171717"/>
<stop offset="0.95" stop-color="#060606"/>
<stop offset="1"/>
</linearGradient>
<linearGradient id="paint30_linear_851_18538" x1="19.0335" y1="64.9691" x2="41.7951" y2="117.769" gradientUnits="userSpaceOnUse">
<stop stop-color="#919190"/>
<stop offset="0.23" stop-color="#6C6C6B"/>
<stop offset="0.58" stop-color="#393939"/>
<stop offset="0.85" stop-color="#1A1A1A"/>
<stop offset="1" stop-color="#0F0F0F"/>
</linearGradient>
<linearGradient id="paint31_linear_851_18538" x1="9.32584" y1="68.2545" x2="55.1079" y2="110.411" gradientUnits="userSpaceOnUse">
<stop stop-color="#BFBFBF"/>
<stop offset="0.33" stop-color="#848484"/>
<stop offset="0.5" stop-color="#6B6B6A"/>
<stop offset="0.55" stop-color="#5A5A5A"/>
<stop offset="0.69" stop-color="#333333"/>
<stop offset="0.81" stop-color="#171717"/>
<stop offset="0.92" stop-color="#060606"/>
<stop offset="1"/>
</linearGradient>
</defs>
</svg>
