<svg width="76" height="101" viewBox="0 0 76 101" fill="none" xmlns="http://www.w3.org/2000/svg">
<g id="Group 7266">
<g id="Group">
<g id="Group_2">
<path id="Vector" d="M34.3749 13.9507L30.2462 11.2838L25.4693 12.4432L20.741 11.1162L16.5243 13.6247L11.6123 13.7597L8.32046 17.3957L3.66414 18.9664L1.59019 23.4189L-2.39574 26.2956L-3.07092 31.1599L-6.02653 35.0772L-5.23949 39.9261L-6.91111 44.5377L-4.72268 48.9401L-4.96048 53.8401L-1.57278 57.407L-0.353601 62.164L3.92679 64.5622L6.49843 68.7498L11.2954 69.7774L14.9887 73.0275L19.8728 72.5992L24.3584 74.612L28.9086 72.7611L33.7783 73.3649L37.5789 70.2522L42.4114 69.3962L45.1303 65.2971L49.5002 63.0548L50.8826 58.3469L54.3951 54.9077L54.3314 50.0011L56.681 45.6818L55.17 41.0056L56.1389 36.1974L53.3195 32.1697L52.8291 27.2837L48.9449 24.2669L47.0308 19.7458L42.4431 18.0096L39.273 14.2506L34.3749 13.9507Z" fill="#FF391D"/>
<path id="Vector_2" d="M11.0637 61.183L-0.614334 74.6737L-13.5064 71.1072L0.724877 83.6456L15.1704 67.2579L11.0637 61.183Z" fill="#FF391D"/>
<path id="Vector_3" d="M28.7591 67.718L28.8657 85.5607L40.9813 91.2296L22.0257 91.512L21.699 69.6689L28.7591 67.718Z" fill="#FF391D"/>
</g>
<g id="Group_3">
<path id="Vector_4" d="M29.1523 31.5543C29.9453 31.8472 30.819 31.4678 31.0982 30.7116L32.886 25.8705C33.1653 25.1144 32.748 24.2582 31.9549 23.9653C31.1619 23.6725 30.2883 24.0519 30.009 24.808L28.2212 29.6491C27.942 30.4053 28.3593 31.2615 29.1523 31.5543Z" fill="#6F0000"/>
<path id="Vector_5" d="M41.8974 46.698C40.8612 47.0069 39.7664 47.1056 38.6828 47.1456C35.5379 47.2625 32.3656 46.9712 29.3502 46.0567C26.3347 45.1422 23.4921 43.5894 21.2582 41.3812C20.3147 40.446 19.4592 39.386 18.9606 38.154C18.462 36.922 18.3364 35.5029 18.8054 34.2615C19.3415 32.8667 20.6768 31.8614 22.1227 31.578C23.9065 31.2308 25.4628 32.0675 26.4641 33.5271C27.0436 34.3698 27.5269 35.3028 28.3045 35.9777C28.8222 36.4204 29.4438 36.7233 30.0699 36.9859C31.5952 37.6226 33.192 38.0656 34.8269 38.2921C35.5142 38.3888 36.2059 38.4451 36.9065 38.4209C38.6964 38.3694 40.5159 37.7839 42.2462 38.2343C43.5169 38.5673 44.6318 39.4925 45.1658 40.6852C45.6999 41.8779 45.6405 43.344 44.9604 44.476C44.3523 45.4984 43.3066 46.202 42.1776 46.5919C42.08 46.6292 41.9858 46.6573 41.8789 46.6912L41.8974 46.698Z" fill="#6F0000"/>
<g id="Clip path group">
<mask id="mask0_982_17007" style="mask-type:luminance" maskUnits="userSpaceOnUse" x="18" y="31" width="28" height="17">
<g id="clippath">
<path id="Vector_6" d="M41.9091 46.7233C37.5082 47.6024 32.9033 47.2746 28.6601 45.8542C24.6599 44.5132 20.2749 41.8878 18.8329 37.6772C18.4464 36.539 18.2686 35.4883 18.7044 34.308C19.079 33.2937 19.977 32.2526 20.9919 31.831C23.015 31.0063 26.0418 31.6631 26.8289 33.9866C26.8604 34.0716 27.2048 35.0685 27.2771 35.0429C26.9212 34.5028 26.8771 34.4236 27.1414 34.8146C27.2515 34.9705 27.3742 35.1206 27.5003 35.2615C27.623 35.4116 27.7617 35.5467 27.8878 35.6875C27.4012 35.2459 27.3411 35.1818 27.6982 35.4918C27.9383 35.6643 28.1591 35.8611 28.4026 36.0244C28.7282 36.2494 29.064 36.4467 29.4056 36.6567C29.8394 36.9008 29.754 36.8483 29.1426 36.5177C29.3294 36.6076 29.5162 36.6976 29.7031 36.7876C30.4572 37.1289 31.2376 37.4276 32.0224 37.686C32.3888 37.8004 32.7621 37.8963 33.1411 38.0049C33.6319 38.1232 33.5731 38.112 32.9557 37.9678C33.1688 38.0151 33.3853 38.0531 33.611 38.0945C34.4274 38.2389 35.2517 38.3337 36.0837 38.379C36.4716 38.407 36.857 38.4131 37.2425 38.4192C37.4634 38.417 37.6843 38.4147 37.9051 38.4125C37.3163 38.4465 37.2667 38.4387 37.759 38.4109C38.6422 38.3179 39.5102 38.2088 40.3803 38.0377C42.6434 37.5845 45.1796 39.2861 45.4846 41.6098C45.7896 43.9334 44.3319 46.2348 41.9125 46.7141L41.9091 46.7233Z" fill="white"/>
</g>
</mask>
<g mask="url(#mask0_982_17007)">
<g id="Group_4">
<path id="Vector_7" d="M31.0661 53.9521C29.5856 50.5552 27.1115 49.5367 23.7655 51.0779C19.6906 52.9471 19.5586 44.7354 23.6117 42.8686C29.0217 40.3921 34.1199 42.3063 36.5187 47.8133C38.3122 51.9232 32.877 58.0998 31.0661 53.9521Z" fill="#E494C4"/>
</g>
</g>
</g>
<path id="Vector_8" d="M38.567 35.0313C39.36 35.3241 40.2336 34.9447 40.5129 34.1885L42.3007 29.3475C42.5799 28.5913 42.1626 27.7351 41.3696 27.4423C40.5766 27.1494 39.703 27.5288 39.4237 28.285L37.6359 33.1261C37.3566 33.8822 37.774 34.7384 38.567 35.0313Z" fill="#6F0000"/>
</g>
</g>
<g id="Group_5">
<path id="Vector_9" d="M47.8863 70.716L45.2925 74.505L41.923 74.3504L44.1256 76.7566L42.6872 84.2835L46.1367 77.6669L49.9207 77.2097L47.0323 75.2418L47.8863 70.716Z" fill="white"/>
<path id="Vector_10" d="M60.0573 21.9264L60.045 24.0595L61.8214 25.2081L59.8344 25.1973L57.8932 28.127L58.4827 24.7715L56.6988 23.2744L58.8846 23.6834L60.0573 21.9264Z" fill="white"/>
<path id="Vector_11" d="M47.7723 82.4311L46.6953 84.0138L45.2822 83.953L46.2018 84.9528L45.6033 88.1059L47.0448 85.3375L48.6339 85.1489L47.4194 84.3231L47.7723 82.4311Z" fill="white"/>
<path id="Vector_12" d="M51.8098 71.4419C51.6804 71.7923 51.8573 72.193 52.2169 72.3258C52.5765 72.4586 52.9679 72.2783 53.1007 71.9187C53.2335 71.559 53.0533 71.1676 52.6936 71.0348C52.334 70.902 51.9426 71.0823 51.8098 71.4419Z" fill="white"/>
<path id="Vector_13" d="M53.7102 70.2681C53.532 70.2023 53.4409 70.0044 53.5067 69.8262C53.5725 69.6479 53.7704 69.5568 53.9486 69.6226C54.1269 69.6885 54.218 69.8863 54.1522 70.0646C54.0863 70.2428 53.8885 70.3339 53.7102 70.2681Z" fill="white"/>
<path id="Vector_14" d="M6.46064 11.0818C6.17459 11.8564 6.57588 12.7276 7.35967 13.0171C8.14347 13.3065 9.01129 12.9145 9.30075 12.1307C9.59021 11.3469 9.18552 10.4849 8.40172 10.1954C7.61793 9.90596 6.7501 10.298 6.46064 11.0818Z" fill="white"/>
<path id="Vector_15" d="M12.863 3.44946C12.5523 3.33474 12.392 2.99403 12.5048 2.68847C12.6176 2.38291 12.961 2.2282 13.2716 2.34293C13.5823 2.45766 13.7426 2.79837 13.6298 3.10393C13.5169 3.40949 13.1736 3.56419 12.863 3.44946Z" fill="white"/>
<path id="Vector_16" d="M12.8777 9.59545C12.3735 9.40926 12.1142 8.85373 12.2985 8.35465C12.4828 7.85556 13.0409 7.60192 13.5451 7.78811C14.0493 7.9743 14.3086 8.52983 14.1243 9.02891C13.94 9.528 13.3818 9.78164 12.8777 9.59545Z" fill="white"/>
<path id="Vector_17" d="M53.7813 81.2551C53.7268 81.4027 53.8058 81.5576 53.9534 81.6121C54.1009 81.6666 54.2651 81.591 54.3161 81.4526C54.3672 81.3143 54.2916 81.1502 54.1441 81.0957C53.9965 81.0412 53.8324 81.1168 53.7813 81.2551Z" fill="white"/>
<path id="Vector_18" d="M51.9914 82.6688C51.9028 82.9085 52.0308 83.1863 52.2705 83.2749C52.5103 83.3634 52.7846 83.2447 52.8766 82.9957C52.9685 82.7467 52.8372 82.4782 52.5974 82.3896C52.3577 82.3011 52.0833 82.4198 51.9914 82.6688Z" fill="white"/>
</g>
</g>
</svg>
