<svg width="48" height="62" viewBox="0 0 48 62" fill="none" xmlns="http://www.w3.org/2000/svg">
<g clip-path="url(#clip0_1204_18041)">
<path d="M24.884 1.07189L28.5057 0.258471L31.5867 2.33891L35.2864 2.63792L37.6228 5.53938L41.0685 6.92296L42.4518 10.3895L45.3391 12.736L45.6484 16.461L47.7208 19.5601L46.9261 23.2091L48 26.7872L46.1741 30.0383L46.1539 33.776L43.4553 36.343L42.3436 39.9058L39.0162 41.558L36.9111 44.6343L33.2466 45.2222L30.3342 47.5358L26.6622 47.0112L23.2015 48.3568L19.8464 46.7654L16.1467 47.0239L13.4053 44.5051L9.79366 43.6537L7.91239 40.4329L4.71072 38.5476L3.85308 34.9113L1.34556 32.1568L1.59204 28.4292L0 25.0539L1.32544 21.562L0.792245 17.8649L3.08095 14.9229L3.65439 11.2308L6.70013 9.09968L8.32738 5.73957L11.8636 4.60939L14.3987 1.88278L18.1085 1.85237L21.3303 0L24.884 1.07189Z" fill="#FF6C00"/>
<path d="M16.1014 41.2869L15.7417 54.8642L6.50391 58.982L20.8146 59.4989L21.4057 42.8833" fill="#FF6C00"/>
<path d="M23.4077 41.8367L29.7834 53.8049L23.7875 62L36.4684 55.295L28.8025 40.5723" fill="#FF6C00"/>
<path d="M20.1507 22.6389C19.1447 22.6389 18.1361 22.5376 17.1477 22.3551C16.0788 22.1575 15.0174 21.8585 14.0592 21.3415C13.101 20.8246 12.2433 20.0796 11.7101 19.1243C11.5768 18.8835 11.4611 18.6175 11.4737 18.3438C11.4863 18.0701 11.6649 17.7838 11.934 17.7331C12.1704 17.6875 12.4068 17.8268 12.5602 18.0144C12.7111 18.2019 12.8017 18.4299 12.9098 18.6453C13.2946 19.3979 13.9536 19.9833 14.6955 20.3837C15.4375 20.784 16.2599 21.007 17.0848 21.1641C19.3987 21.6076 21.8182 21.5493 24.0842 20.893C25.4147 20.5078 26.7779 19.8312 27.4142 18.5921C27.5223 18.3818 27.6079 18.1588 27.7613 17.9814C28.0656 17.6292 28.8 17.619 28.8855 18.1765C28.9207 18.4147 28.8277 18.6504 28.7195 18.8633C27.9046 20.4572 26.2371 21.4404 24.542 21.9852C23.126 22.4388 21.6421 22.6466 20.1532 22.6415L20.1507 22.6389Z" fill="#662900"/>
<path d="M24.1421 16.9071C23.4681 16.9071 22.9248 16.3825 22.9248 15.7363V11.6033C22.9248 10.9572 23.4706 10.4326 24.1421 10.4326C24.8136 10.4326 25.3594 10.9572 25.3594 11.6033V15.7363C25.3594 16.3825 24.8136 16.9071 24.1421 16.9071Z" fill="#662900"/>
<path d="M16.1618 16.9071C15.4877 16.9071 14.9445 16.3825 14.9445 15.7363V11.6033C14.9445 10.9572 15.4902 10.4326 16.1618 10.4326C16.8333 10.4326 17.379 10.9572 17.379 11.6033V15.7363C17.379 16.3825 16.8333 16.9071 16.1618 16.9071Z" fill="#662900"/>
</g>
<defs>
<clipPath id="clip0_1204_18041">
<rect width="48" height="62" fill="white"/>
</clipPath>
</defs>
</svg>
