<svg width="54" height="67" viewBox="0 0 54 67" fill="none" xmlns="http://www.w3.org/2000/svg">
<path d="M35.9441 13.1878L39.1528 13.7956L40.9348 16.5497L43.8255 18.0757L44.714 21.2353L47.0228 23.5539L46.9475 26.8336L48.4789 29.7311L47.4363 32.8436L48.0478 36.0687L46.1388 38.7382L45.7753 41.9948L43.1736 43.9848L41.8639 46.9911L38.7922 48.1267L36.6627 50.6115L33.3983 50.7873L30.626 52.5345L27.4573 51.7337L24.3013 52.5881L21.5075 50.8855L18.2407 50.7676L16.0684 48.3126L12.9875 47.2337L11.6386 44.2411L9.00558 42.2998L8.59227 39.0423L6.65028 36.4072L7.21591 33.1722L6.13659 30.0796L7.62551 27.1508L7.50065 23.8766L9.78095 21.5178L10.627 18.3513L13.496 16.7741L15.2379 13.9957L18.4399 13.3359L20.9221 11.192L24.1748 11.5074L27.1712 10.1922L30.1863 11.4597L33.438 11.0885L35.9441 13.1878Z" fill="#006CFF"/>
<path opacity="0.7" d="M35.9441 13.1878L39.1528 13.7956L40.9348 16.5497L43.8255 18.0757L44.714 21.2353L47.0228 23.5539L46.9475 26.8336L48.4789 29.7311L47.4363 32.8436L48.0478 36.0687L46.1388 38.7382L45.7753 41.9948L43.1736 43.9848L41.8639 46.9911L38.7922 48.1267L36.6627 50.6115L33.3983 50.7873L30.626 52.5345L27.4573 51.7337L24.3013 52.5881L21.5075 50.8855L18.2407 50.7676L16.0684 48.3126L12.9875 47.2337L11.6386 44.2411L9.00558 42.2998L8.59227 39.0423L6.65028 36.4072L7.21591 33.1722L6.13659 30.0796L7.62551 27.1508L7.50065 23.8766L9.78095 21.5178L10.627 18.3513L13.496 16.7741L15.2379 13.9957L18.4399 13.3359L20.9221 11.192L24.1748 11.5074L27.1712 10.1922L30.1863 11.4597L33.438 11.0885L35.9441 13.1878Z" fill="url(#paint0_linear_982_17006)"/>
<path d="M14.9332 42.5842L9.9473 53.4138L1.04327 53.5215L12.4547 58.9261L18.674 45.7235" fill="#006CFF"/>
<path d="M20.659 45.5733L21.6872 57.4553L13.999 61.9791L26.5821 60.9873L25.4639 46.4368" fill="#006CFF"/>
<path d="M41.9413 32.2991C42.2978 31.1451 40.3088 29.5035 37.4986 28.6325C34.6885 27.7615 32.1214 27.9909 31.7649 29.145C31.4084 30.299 33.3975 31.9406 36.2076 32.8116C39.0177 33.6826 41.5848 33.4532 41.9413 32.2991Z" fill="#FF00FF"/>
<path d="M17.7744 24.8052C18.1309 23.6512 16.1419 22.0096 13.3317 21.1386C10.5216 20.2676 7.95453 20.497 7.59803 21.6511C7.24152 22.8051 9.23058 24.4467 12.0407 25.3177C14.8509 26.1887 17.4179 25.9593 17.7744 24.8052Z" fill="#FF00FF"/>
<path d="M21.9747 24.9313C21.7036 24.9244 21.4263 24.8765 21.1493 24.7887C19.5195 24.2671 18.6143 22.511 19.1361 20.8748L20.3322 21.2548C20.0245 22.2281 20.561 23.274 21.5306 23.5815C22.5001 23.889 23.543 23.3493 23.8507 22.376L25.0468 22.756C24.6117 24.1205 23.3279 24.9785 21.9694 24.9237L21.9747 24.9313Z" fill="#0000FF"/>
<path d="M29.483 27.3285C29.2054 27.3205 28.9282 27.2726 28.6511 27.1847C27.8577 26.9343 27.2157 26.3835 26.8386 25.6451C26.4615 24.9067 26.3885 24.0609 26.6379 23.2709L27.834 23.6508C27.6857 24.1251 27.7254 24.6252 27.9549 25.0648C28.1844 25.5044 28.5664 25.8303 29.0324 25.9775C29.5048 26.1258 30.0033 26.0853 30.4416 25.8544C30.8799 25.6236 31.2052 25.2399 31.3525 24.7721L32.5486 25.152C32.298 25.9486 31.7483 26.5935 31.012 26.9728C30.5305 27.2229 29.9994 27.3377 29.4712 27.3198L29.483 27.3285Z" fill="#0000FF"/>
<path d="M27.7889 31.6748L26.5928 31.2948C26.7532 30.7893 26.615 30.2056 26.2055 29.6549C25.7468 29.0424 25.0281 28.5516 24.1724 28.2771C22.5103 27.7499 20.8136 28.23 20.4632 29.3358L19.2671 28.9559C19.8339 27.1742 22.2108 26.3318 24.559 27.0775C25.6606 27.4278 26.6042 28.0774 27.2196 28.897C27.8766 29.7837 28.0854 30.7662 27.7965 31.6695L27.7889 31.6748Z" fill="#0000FF"/>
<path d="M13.302 23.8925L17.8996 22.7274L15.6179 26.9389C15.0506 27.8007 14.1824 28.4438 13.1719 28.6425C12.5524 28.7687 12.0921 28.7425 11.6114 28.3728C11.6114 28.3728 10.5168 27.4438 11.2203 25.8324C11.6157 24.9276 12.3905 24.2483 13.302 23.8925Z" fill="white"/>
<path d="M48.0066 20.11C48.9128 18.3701 43.1642 13.5652 35.1666 9.37786C27.1691 5.19055 19.9511 3.20655 19.0449 4.94647C18.1387 6.68638 23.8874 11.4913 31.8849 15.6787C39.8825 19.866 47.1004 21.85 48.0066 20.11Z" stroke="white" stroke-width="0.75" stroke-miterlimit="10"/>
<path d="M50.2157 17.926C50.7949 16.0511 44.2763 12.3652 35.656 9.69335C27.0357 7.02149 19.5781 6.37543 18.9989 8.25033C18.4197 10.1252 24.9383 13.8111 33.5586 16.483C42.1789 19.1548 49.6365 19.8009 50.2157 17.926Z" stroke="white" stroke-width="0.75" stroke-miterlimit="10"/>
<path d="M23.7136 10.2946L23.3891 11.0584L23.8385 11.7626L23.0137 11.6934L22.4845 12.3351L22.2993 11.5233L21.5213 11.2222L22.2331 10.792L22.2838 9.96087L22.9139 10.503L23.7136 10.2946Z" fill="#FDD273"/>
<path d="M36.7451 11.32L36.5057 11.8985L36.839 12.4293L36.2174 12.3752L35.8216 12.86L35.6814 12.2493L35.0965 12.0216L35.6312 11.694L35.673 11.068L36.1458 11.483L36.7451 11.32Z" fill="#FDD273"/>
<path d="M42.4056 20.9898L42.1597 21.5672L42.4995 22.0991L41.8715 22.0439L41.4756 22.5287L41.3354 21.918L40.7505 21.6903L41.2917 21.3639L41.327 20.7367L41.7999 21.1517L42.4056 20.9898Z" fill="#FDD273"/>
<path d="M29.9257 5.58916L29.8076 5.23546L29.4478 5.12665L29.7516 4.90586L29.738 4.52358L30.0453 4.74332L30.3991 4.61781L30.2837 4.97781L30.5174 5.27814L30.1387 5.27935L29.9257 5.58916Z" fill="#FDD273"/>
<path d="M39.4325 20.0561L39.2914 19.7584L38.9667 19.7156L39.1996 19.4826L39.1425 19.1595L39.4341 19.3165L39.7203 19.1593L39.6644 19.4829L39.9039 19.7109L39.5765 19.761L39.4325 20.0561Z" fill="#FDD273"/>
<path d="M46.5601 18.8148L46.4921 18.5165L46.212 18.4081L46.4723 18.2464L46.4915 17.9432L46.7226 18.1431L47.02 18.0745L46.8988 18.3535L47.0595 18.6145L46.7531 18.5816L46.5601 18.8148Z" fill="#FDD273"/>
<path d="M38.4543 10.0756L38.3552 9.76523L38.0395 9.67068L38.3055 9.47668L38.3023 9.14952L38.5614 9.34093L38.8719 9.23463L38.772 9.54396L38.9661 9.80413L38.6401 9.80778L38.4543 10.0756Z" fill="#FDD273"/>
<path d="M26.1789 14.5132L26.111 14.2148L25.832 14.1L26.0912 13.9448L26.1115 13.6351L26.3415 13.8414L26.64 13.7664L26.5188 14.0454L26.6795 14.3064L26.3731 14.2735L26.1789 14.5132Z" fill="#FDD273"/>
<path d="M33.295 16.3286C40.9455 16.9596 47.2766 15.918 47.4358 14.0022C47.5951 12.0863 41.5223 10.0216 33.8718 9.3906C26.2212 8.75959 19.8902 9.80117 19.7309 11.717C19.5716 13.6329 25.6445 15.6976 33.295 16.3286Z" stroke="white" stroke-width="0.3" stroke-miterlimit="10"/>
<defs>
<linearGradient id="paint0_linear_982_17006" x1="17.9484" y1="49.0774" x2="38.1654" y2="11.736" gradientUnits="userSpaceOnUse">
<stop stop-color="#006CFF"/>
<stop offset="0.19" stop-color="#006AFB"/>
<stop offset="0.35" stop-color="#0066F1"/>
<stop offset="0.5" stop-color="#005FDF"/>
<stop offset="0.64" stop-color="#0055C7"/>
<stop offset="0.78" stop-color="#0049A7"/>
<stop offset="0.91" stop-color="#003A80"/>
<stop offset="1" stop-color="#002E62"/>
</linearGradient>
</defs>
</svg>
