<svg width="137" height="137" viewBox="0 0 137 137" fill="none" xmlns="http://www.w3.org/2000/svg">
<path d="M68.5591 0.012207L81.82 36.0021L116.643 19.9301L100.569 54.7536L136.559 68.0122L100.569 81.2731L116.643 116.097L81.82 100.022L68.5591 136.012L55.3005 100.022L20.477 116.097L36.549 81.2731L0.559082 68.0122L36.549 54.7536L20.477 19.9301L55.3005 36.0021L68.5591 0.012207Z" fill="#FC1E75"/>
<g clip-path="url(#clip0_851_20829)">
<path d="M31.1392 73.0122C36.4302 73.0122 40.7193 64.9533 40.7193 55.0122C40.7193 45.0711 36.4302 37.0122 31.1392 37.0122C25.8483 37.0122 21.5591 45.0711 21.5591 55.0122C21.5591 64.9533 25.8483 73.0122 31.1392 73.0122Z" fill="white"/>
<path d="M27.2126 65.3587C30.0736 65.3587 32.393 63.0425 32.393 60.1854C32.393 57.3283 30.0736 55.0122 27.2126 55.0122C24.3516 55.0122 22.0322 57.3283 22.0322 60.1854C22.0322 63.0425 24.3516 65.3587 27.2126 65.3587Z" fill="black"/>
<path d="M25.0128 60.1854C26.0448 60.1854 26.8815 59.3499 26.8815 58.3193C26.8815 57.2886 26.0448 56.4531 25.0128 56.4531C23.9807 56.4531 23.144 57.2886 23.144 58.3193C23.144 59.3499 23.9807 60.1854 25.0128 60.1854Z" fill="white"/>
<path d="M52.0025 73.0122C57.2935 73.0122 61.5826 64.9533 61.5826 55.0122C61.5826 45.0711 57.2935 37.0122 52.0025 37.0122C46.7115 37.0122 42.4224 45.0711 42.4224 55.0122C42.4224 64.9533 46.7115 73.0122 52.0025 73.0122Z" fill="white"/>
<path d="M48.0759 65.3587C50.9369 65.3587 53.2562 63.0425 53.2562 60.1854C53.2562 57.3283 50.9369 55.0122 48.0759 55.0122C45.2148 55.0122 42.8955 57.3283 42.8955 60.1854C42.8955 63.0425 45.2148 65.3587 48.0759 65.3587Z" fill="black"/>
<path d="M45.876 60.1854C46.9081 60.1854 47.7448 59.3499 47.7448 58.3193C47.7448 57.2886 46.9081 56.4531 45.876 56.4531C44.844 56.4531 44.0073 57.2886 44.0073 58.3193C44.0073 59.3499 44.844 60.1854 45.876 60.1854Z" fill="white"/>
</g>
<defs>
<clipPath id="clip0_851_20829">
<rect width="40" height="36" fill="white" transform="translate(21.5591 37.0122)"/>
</clipPath>
</defs>
</svg>
