<svg width="62" height="70" viewBox="0 0 62 70" fill="none" xmlns="http://www.w3.org/2000/svg">
<g clip-path="url(#clip0_2144_23943)">
<path d="M35.9066 3.10705L39.9997 2.17667L43.4805 4.55809L47.6575 4.89951L50.2911 8.2113L54.1829 9.79891L55.743 13.7509L59.0057 16.431L59.3496 20.6817L61.6897 24.224L60.7922 28.3893L62 32.4693L59.9367 36.1823L59.9115 40.4415L56.8585 43.3692L55.6004 47.4321L51.8344 49.3185L49.4524 52.8266L45.3174 53.4924L42.0211 56.1298L37.8777 55.5238L33.9608 57.0602L30.178 55.2422L25.9927 55.5324L22.8977 52.6559L18.8214 51.6828L16.6994 48.004L13.0844 45.8531L12.1198 41.6962L9.28489 38.5552L9.57006 34.3045L7.77515 30.4464L9.2765 26.4688L8.6726 22.2437L11.2643 18.8893L11.9102 14.6812L15.3574 12.2486L17.1942 8.41616L21.1951 7.12729L24.0636 4.02035L28.2489 3.98621L31.8974 1.87793L35.9066 3.10705Z" fill="#FF391D"/>
<path d="M40.6035 48.5928L45.9631 63.0947L57.3365 64.0677L42.2391 69.9999L35.5208 52.3057L40.6035 48.5928Z" fill="#FF391D"/>
<path d="M24.5081 48.5928L19.1485 63.0947L7.77515 64.0677L22.8642 69.9999L29.5825 52.3057L24.5081 48.5928Z" fill="#FF391D"/>
<path d="M34.8834 19.0174C34.1621 19.0174 33.575 18.4455 33.575 17.7456V13.2645C33.575 12.5646 34.1621 11.9927 34.8834 11.9927C35.6047 11.9927 36.1918 12.5646 36.1918 13.2645V17.7456C36.1918 18.4455 35.6047 19.0174 34.8834 19.0174Z" fill="#6F0000"/>
<path d="M20.2054 27.5187C20.9435 28.0821 21.7907 28.4918 22.6462 28.8503C25.1289 29.8916 27.7541 30.6086 30.4381 30.7708C33.1221 30.9329 35.8564 30.5232 38.2972 29.3965C39.3288 28.9185 40.3269 28.3125 41.0902 27.459C41.8534 26.6054 42.3735 25.4872 42.3651 24.335C42.3483 23.0375 41.5767 21.817 40.5031 21.1512C39.1778 20.3318 37.6849 20.5452 36.4519 21.4329C35.739 21.945 35.0764 22.5596 34.2544 22.8754C33.7092 23.0802 33.1221 23.14 32.5434 23.1656C31.1343 23.2253 29.7252 23.1058 28.3497 22.7986C27.7709 22.6705 27.2006 22.5083 26.647 22.2779C25.2295 21.6975 23.9462 20.6732 22.4281 20.5196C21.3126 20.4086 20.1467 20.8268 19.3667 21.6377C18.5867 22.4486 18.2008 23.6606 18.4105 24.7873C18.5951 25.8031 19.2241 26.6908 20.0125 27.348C20.0796 27.4077 20.1467 27.459 20.2222 27.5187H20.2054Z" fill="#6F0000"/>
<mask id="mask0_2144_23943" style="mask-type:luminance" maskUnits="userSpaceOnUse" x="18" y="20" width="25" height="11">
<path d="M20.1887 27.5358C23.4514 29.5758 27.2341 30.694 31.0504 30.8135C34.6486 30.9244 38.9346 30.105 41.3334 27.109C41.9792 26.2982 42.4322 25.4958 42.4322 24.4033C42.4322 23.4644 42.0212 22.3462 41.3334 21.6975C39.9579 20.4172 37.341 20.0416 36.0242 21.6975C35.9738 21.7572 35.4035 22.4657 35.3532 22.423C35.7977 22.0901 35.8564 22.0389 35.5293 22.2779C35.3951 22.3718 35.2525 22.4572 35.1099 22.534C34.9673 22.6193 34.8164 22.6876 34.6738 22.7644C35.1938 22.5511 35.2609 22.5169 34.8835 22.662C34.6402 22.7303 34.4054 22.8242 34.1622 22.8839C33.835 22.9693 33.5079 23.029 33.1724 23.0973C32.7531 23.1656 32.8369 23.1485 33.4241 23.0632C33.2479 23.0803 33.0718 23.0973 32.8956 23.1144C32.1911 23.1656 31.4782 23.1741 30.7736 23.1485C30.4465 23.1315 30.1194 23.0973 29.7839 23.0717C29.3561 23.0205 29.4065 23.029 29.9433 23.0973C29.7587 23.0717 29.5742 23.0376 29.3813 23.0034C28.6851 22.8754 27.9974 22.7047 27.318 22.4913C26.9993 22.3974 26.6889 22.2864 26.3786 22.1755C26.2025 22.1072 26.0263 22.0389 25.8502 21.9706C26.3115 22.1755 26.3534 22.184 25.9676 22.0133C25.2882 21.6719 24.6256 21.3219 23.9798 20.9208C22.3023 19.8709 19.7693 20.494 18.8383 22.295C17.9073 24.096 18.3938 26.4091 20.1887 27.5273V27.5358Z" fill="white"/>
</mask>
<g mask="url(#mask0_2144_23943)">
<path d="M26.7309 36.6857C28.9201 34.3641 31.2014 34.2787 33.4241 36.5406C36.1333 39.2891 38.6663 32.6399 35.9739 29.9C32.3757 26.2553 27.729 26.2809 24.1811 30.0451C21.5307 32.8533 24.0553 39.5195 26.7309 36.6857Z" fill="#E494C4"/>
</g>
<path d="M26.3199 19.0174C25.5986 19.0174 25.0115 18.4455 25.0115 17.7456V13.2645C25.0115 12.5646 25.5986 11.9927 26.3199 11.9927C27.0412 11.9927 27.6284 12.5646 27.6284 13.2645V17.7456C27.6284 18.4455 27.0412 19.0174 26.3199 19.0174Z" fill="#6F0000"/>
<path d="M8.31205 45.2812L9.26822 49.1479L12.0109 50.0355L9.53662 51.333L8.46302 57.8968L7.65783 51.4695L4.76416 49.9587L7.65783 49.2247L8.31205 45.2812Z" fill="white"/>
<path d="M57.7728 52.374L57.3702 53.9958L56.2295 54.3628L57.2611 54.9091L57.7057 57.6575L58.0496 54.9603L59.2574 54.3287L58.0496 54.0214L57.7728 52.374Z" fill="white"/>
<path d="M59.8529 49.1562L59.5174 50.4963L58.5696 50.8121L59.4251 51.256L59.8025 53.5435L60.0793 51.3072L61.0858 50.778L60.0793 50.5305L59.8529 49.1562Z" fill="white"/>
<path d="M12.9921 1.87793L12.3715 3.61918L10.6101 4.02035L12.2037 4.6093L12.8915 7.57967L13.4115 4.66905L15.2819 3.98621L13.4115 3.66186L12.9921 1.87793Z" fill="white"/>
<path d="M4.94023 54.8579L5.33444 56.4711L6.48352 56.8467L5.45186 57.3844L4.99894 60.1329L4.66345 57.4442L3.44727 56.8126L4.66345 56.5053L4.94023 54.8579Z" fill="white"/>
<path d="M4.95696 44.6922C4.95696 45.0166 4.69695 45.2897 4.36984 45.2897C4.04273 45.2897 3.78271 45.0251 3.78271 44.6922C3.78271 44.3593 4.04273 44.0947 4.36984 44.0947C4.69695 44.0947 4.95696 44.3593 4.95696 44.6922Z" fill="white"/>
<path d="M3.78282 43.1644C3.94495 43.1644 4.07638 43.0306 4.07638 42.8656C4.07638 42.7006 3.94495 42.5669 3.78282 42.5669C3.62069 42.5669 3.48926 42.7006 3.48926 42.8656C3.48926 43.0306 3.62069 43.1644 3.78282 43.1644Z" fill="white"/>
<path d="M59.098 9.16727C59.098 9.88425 58.5192 10.4732 57.8063 10.4732C57.0934 10.4732 56.5146 9.89279 56.5146 9.16727C56.5146 8.44174 57.0934 7.86133 57.8063 7.86133C58.5192 7.86133 59.098 8.44174 59.098 9.16727Z" fill="white"/>
<path d="M56.2294 1.02427C56.512 1.02427 56.741 0.794976 56.741 0.512133C56.741 0.22929 56.512 0 56.2294 0C55.9468 0 55.7178 0.22929 55.7178 0.512133C55.7178 0.794976 55.9468 1.02427 56.2294 1.02427Z" fill="white"/>
<path d="M54.4012 6.02599C54.8598 6.02599 55.2315 5.65149 55.2315 5.18951C55.2315 4.72753 54.8598 4.35303 54.4012 4.35303C53.9426 4.35303 53.5708 4.72753 53.5708 5.18951C53.5708 5.65149 53.9426 6.02599 54.4012 6.02599Z" fill="white"/>
<path d="M0.478171 52.0925C0.478171 52.2291 0.369134 52.3315 0.234935 52.3315C0.100736 52.3315 -0.00830078 52.2205 -0.00830078 52.0925C-0.00830078 51.9645 0.100736 51.8535 0.234935 51.8535C0.369134 51.8535 0.478171 51.9645 0.478171 52.0925Z" fill="white"/>
<path d="M1.49294 53.7823C1.49294 54.0042 1.30842 54.192 1.09034 54.192C0.872268 54.192 0.687744 54.0127 0.687744 53.7823C0.687744 53.5518 0.872268 53.3726 1.09034 53.3726C1.30842 53.3726 1.49294 53.5518 1.49294 53.7823Z" fill="white"/>
</g>
<defs>
<clipPath id="clip0_2144_23943">
<rect width="62" height="70" fill="white"/>
</clipPath>
</defs>
</svg>
