<svg width="113" height="116" viewBox="0 0 113 116" fill="none" xmlns="http://www.w3.org/2000/svg">
<g id="Group 7264">
<g id="Group" filter="url(#filter0_d_982_17005)">
<g id="Group_2">
<path id="Vector" d="M58.5477 16.8792L64.0265 16.1523L68.3236 19.6065L73.771 20.5186L76.8729 25.086L81.7946 27.5581L83.4168 32.8396L87.3882 36.6519L87.3762 42.1731L90.0606 46.9951L88.4158 52.2684L89.5534 57.6613L86.427 62.21L85.9224 67.7085L81.598 71.1388L79.4929 76.2346L74.3541 78.2431L70.8421 82.4952L65.3322 82.8892L60.7233 85.9204L55.3383 84.688L50.0451 86.222L45.2711 83.4554L39.7517 83.3644L36.0075 79.3072L30.7605 77.5898L28.3794 72.6074L23.8733 69.4279L23.0612 63.9715L19.6982 59.6001L20.5316 54.1507L18.6045 48.9733L21.0125 44.0118L20.689 38.5111L24.4543 34.4727L25.7736 29.1156L30.5728 26.3693L33.4078 21.6383L38.7968 20.4222L42.9037 16.7359L48.4087 17.1589L53.4219 14.8506L58.5477 16.8792Z" fill="#00FF3E"/>
<path id="Vector_2" d="M57.411 74.4211L61.6993 94.0133L49.8002 103.208L70.6682 98.8525L65.6422 74.818" fill="#00FF3E"/>
<path id="Vector_3" d="M71.8584 66.7941L85.8251 81.1927L100.064 76.3559L84.9019 91.3313L67.6356 73.8725" fill="#00FF3E"/>
<g id="Group_3">
<path id="Vector_4" d="M21.9755 81.1956L23.9677 84.0918L26.5482 83.9745L24.8645 85.8233L25.9737 91.5854L23.3236 86.5175L20.4197 86.1652L22.6355 84.6586L21.9755 81.1956Z" fill="#00FF3E"/>
<path id="Vector_5" d="M92.4124 67.7803L92.6447 69.9253L91.3958 70.9036L92.9119 71.0876L94.7068 74.2105L93.9117 70.8011L95.127 69.4793L93.4913 69.6626L92.4124 67.7803Z" fill="#00FF3E"/>
<path id="Vector_6" d="M93.5292 62.9231L93.7229 64.7029L92.6861 65.5191L93.9563 65.6691L95.4395 68.2743L94.7863 65.4329L95.7911 64.3295L94.432 64.4832L93.5292 62.9231Z" fill="#00FF3E"/>
<path id="Vector_7" d="M14.3996 26.9823L14.4181 29.3803L12.4152 30.6792L14.6562 30.6627L16.8393 33.9456L16.1771 30.1771L18.1819 28.4924L15.7261 28.955L14.3996 26.9823Z" fill="#00FF3E"/>
<path id="Vector_8" d="M28.7687 88.11L29.9918 89.8799L31.5744 89.8107L30.5423 90.9431L31.2196 94.4815L29.5986 91.3754L27.815 91.1621L29.1782 90.2369L28.7687 88.11Z" fill="#00FF3E"/>
<path id="Vector_9" d="M31.1471 82.0335C31.295 82.4302 31.0908 82.8737 30.6833 83.024C30.2757 83.1744 29.832 82.9704 29.6841 82.5738C29.5363 82.1772 29.7404 81.7337 30.148 81.5833C30.5556 81.433 30.9993 81.6369 31.1471 82.0335Z" fill="#00FF3E"/>
<path id="Vector_10" d="M29.0045 80.7115C29.2048 80.6374 29.3071 80.415 29.233 80.2148C29.1588 80.0146 28.9364 79.9124 28.7361 79.9865C28.5358 80.0607 28.4335 80.2831 28.5076 80.4833C28.5818 80.6834 28.8042 80.7856 29.0045 80.7115Z" fill="#00FF3E"/>
<path id="Vector_11" d="M21.1345 89.4229C21.1956 89.5902 21.1118 89.7681 20.9445 89.8292C20.7771 89.8904 20.5992 89.8066 20.5405 89.6501C20.4819 89.4936 20.5632 89.305 20.7306 89.2438C20.8979 89.1827 21.0759 89.2664 21.1345 89.4229Z" fill="#00FF3E"/>
<path id="Vector_12" d="M23.1438 91.0121C23.2404 91.2845 23.1059 91.5873 22.8226 91.6865C22.5393 91.7856 22.2363 91.6513 22.1397 91.3789C22.0431 91.1064 22.1775 90.8036 22.4608 90.7045C22.7442 90.6053 23.0471 90.7397 23.1438 91.0121Z" fill="#00FF3E"/>
<path id="Vector_13" d="M81.1151 18.5357L82.5623 20.6393L84.4372 20.5596L83.2137 21.8947L84.0179 26.0838L82.0836 22.4038L79.9738 22.1522L81.5922 21.055L81.1151 18.5357Z" fill="#00FF3E"/>
<path id="Vector_14" d="M76.5863 19.0555C76.6243 19.1714 76.5653 19.3096 76.4494 19.3476C76.3334 19.3856 76.1976 19.3375 76.1572 19.2108C76.1167 19.0841 76.1781 18.9567 76.2941 18.9187C76.4101 18.8807 76.5458 18.9288 76.5863 19.0555Z" fill="#00FF3E"/>
<path id="Vector_15" d="M78.0435 20.2163C78.1121 20.4159 78.0142 20.631 77.817 20.7103C77.6198 20.7896 77.3914 20.6835 77.3228 20.484C77.2543 20.2844 77.3522 20.0693 77.5494 19.99C77.7465 19.9107 77.975 20.0168 78.0435 20.2163Z" fill="#00FF3E"/>
</g>
</g>
<path id="Vector_16" d="M47.841 40.9268C46.9885 41.3608 45.976 41.0496 45.5627 40.2381L42.9441 35.0609C42.5308 34.2494 42.8904 33.2489 43.7429 32.815C44.5955 32.3811 45.608 32.6922 46.0213 33.5037L48.6398 38.6809C49.0531 39.4924 48.6936 40.4929 47.841 40.9268Z" fill="#003B02"/>
<path id="Vector_17" d="M35.5454 59.4927C40.5734 59.912 45.6706 58.9556 50.2331 56.8076C54.5198 54.7911 59.0919 51.3038 60.145 46.4158C60.4303 45.0924 60.4961 43.8988 59.8555 42.641C59.3108 41.5537 58.1756 40.5115 56.9867 40.1729C54.6247 39.5148 51.3335 40.6339 50.7405 43.3312C50.7196 43.4379 50.4511 44.5875 50.379 44.5701C50.7051 43.9172 50.7524 43.827 50.5077 44.2912C50.4023 44.4741 50.2862 44.6594 50.1676 44.834C50.049 45.0085 49.9197 45.1856 49.7878 45.3519C50.2728 44.7984 50.3333 44.7165 49.9719 45.1169C49.729 45.3427 49.5019 45.5876 49.2566 45.8026C48.9267 46.0937 48.5703 46.3683 48.2247 46.6403C47.7764 46.9587 47.8659 46.9041 48.499 46.4526C48.301 46.5775 48.1029 46.7023 47.9049 46.8272C47.1078 47.305 46.2792 47.7448 45.4251 48.1224C45.0249 48.3051 44.6173 48.4554 44.2255 48.6248C43.6936 48.8264 43.7557 48.8008 44.4276 48.567C44.1956 48.643 43.9529 48.7215 43.7185 48.7867C42.8264 49.0484 41.9135 49.2696 40.9967 49.4237C40.5718 49.4987 40.1336 49.5654 39.7013 49.6082C39.4594 49.6411 39.2044 49.6657 38.96 49.6879C39.6201 49.6495 39.6739 49.6371 39.1265 49.6723C38.1319 49.6856 37.1431 49.6749 36.1503 49.5972C33.5626 49.3875 30.9552 51.6073 30.9129 54.2346C30.8706 56.8619 32.8004 59.2398 35.5512 59.4687L35.5454 59.4927Z" fill="#003B02"/>
<g id="Clip path group">
<mask id="mask0_982_17005" style="mask-type:luminance" maskUnits="userSpaceOnUse" x="30" y="39" width="31" height="21">
<g id="clippath">
<path id="Vector_18" d="M35.5454 59.4927C40.5734 59.912 45.6706 58.9556 50.2331 56.8076C54.5198 54.7911 59.0919 51.3038 60.145 46.4158C60.4303 45.0924 60.4961 43.8988 59.8555 42.641C59.3108 41.5537 58.1756 40.5115 56.9867 40.1729C54.6247 39.5148 51.3335 40.6339 50.7405 43.3312C50.7196 43.4379 50.4511 44.5875 50.379 44.5701C50.7051 43.9172 50.7524 43.827 50.5077 44.2912C50.4023 44.4741 50.2862 44.6594 50.1676 44.834C50.049 45.0085 49.9197 45.1856 49.7878 45.3519C50.2728 44.7984 50.3333 44.7165 49.9719 45.1169C49.729 45.3427 49.5019 45.5876 49.2566 45.8026C48.9267 46.0937 48.5703 46.3683 48.2247 46.6403C47.7764 46.9587 47.8659 46.9041 48.499 46.4526C48.301 46.5775 48.1029 46.7023 47.9049 46.8272C47.1078 47.305 46.2792 47.7448 45.4251 48.1224C45.0249 48.3051 44.6173 48.4554 44.2255 48.6248C43.6936 48.8264 43.7557 48.8008 44.4276 48.567C44.1956 48.643 43.9529 48.7215 43.7185 48.7867C42.8264 49.0484 41.9135 49.2696 40.9967 49.4237C40.5718 49.4987 40.1336 49.5654 39.7013 49.6082C39.4594 49.6411 39.2044 49.6657 38.96 49.6879C39.6201 49.6495 39.6739 49.6371 39.1265 49.6723C38.1319 49.6856 37.1431 49.6749 36.1503 49.5972C33.5626 49.3875 30.9552 51.6073 30.9129 54.2346C30.8706 56.8619 32.8004 59.2398 35.5512 59.4687L35.5454 59.4927Z" fill="white"/>
</g>
</mask>
<g mask="url(#mask0_982_17005)">
<g id="Group_4">
<path id="Vector_19" d="M48.5853 66.1609C49.8031 62.1869 52.4363 60.7204 56.3704 62.0031C61.1621 63.5645 60.2525 54.3798 55.4848 52.8242C49.1243 50.7508 43.6783 53.5438 41.7078 60.0138C40.2407 64.827 47.0958 71.0246 48.5853 66.1609Z" fill="#E494C4"/>
</g>
</g>
</g>
<path id="Vector_20" d="M37.7652 46.0192C36.9126 46.4531 35.9001 46.1419 35.4869 45.3304L32.8683 40.1533C32.455 39.3418 32.8146 38.3413 33.6671 37.9073C34.5197 37.4734 35.5322 37.7846 35.9455 38.5961L38.564 43.7732C38.9773 44.5847 38.6178 45.5852 37.7652 46.0192Z" fill="#003B02"/>
</g>
<g id="Group_5">
<g id="Group_6">
<g id="Group_7">
<path id="Vector_21" d="M50.276 10.3387C50.6215 10.214 50.8454 9.85658 50.7911 9.47245C50.7352 9.03204 50.3231 8.71884 49.885 8.78556C49.4444 8.84152 49.1309 9.25352 49.1976 9.69145C49.2519 10.0756 49.5547 10.3572 49.924 10.3857C49.6207 13.2089 48.9459 14.8598 48.0846 15.749L53.3614 14.9326C52.3368 14.273 51.2889 12.8708 50.2868 10.3363L50.276 10.3387Z" fill="url(#paint0_linear_982_17005)"/>
<path id="Vector_22" d="M48.0225 15.7746L48.0689 15.73C49.0147 14.7647 49.6334 12.968 49.905 10.4014C49.5332 10.3622 49.2279 10.0697 49.1869 9.69391C49.1589 9.4737 49.2113 9.2577 49.3514 9.07818C49.4808 8.90113 49.6813 8.78705 49.9016 8.75907C49.9662 8.74422 50.025 8.75337 50.0921 8.74928C50.4746 8.78598 50.7799 9.07841 50.8342 9.46253C50.886 9.83589 50.6753 10.2016 50.3216 10.3396C51.2369 12.6448 52.2607 14.1885 53.378 14.9061L53.4177 14.931L48.0308 15.7614L48.0225 15.7746ZM50.0697 8.79975C50.0109 8.7906 49.9546 8.79222 49.89 8.80707C49.6804 8.83257 49.5014 8.94171 49.3696 9.10799C49.2378 9.27427 49.1829 9.47951 49.2192 9.68648C49.2685 10.0491 49.5606 10.3332 49.9299 10.3616L49.9514 10.3567L49.9563 10.3782C49.6823 12.9341 49.0719 14.7175 48.155 15.7102L53.3217 14.9078C52.2102 14.1661 51.1889 12.6331 50.2868 10.3362L50.2819 10.3147L50.3034 10.3098C50.6489 10.185 50.8513 9.83256 50.8019 9.46996C50.7526 9.10736 50.4605 8.82322 50.0912 8.7948L50.0697 8.79975Z" fill="url(#paint1_linear_982_17005)"/>
</g>
<g id="Group_8">
<path id="Vector_23" d="M58.8538 11.1092C58.5385 10.921 58.3823 10.5377 58.5019 10.1702C58.6414 9.74154 59.0988 9.51176 59.5169 9.65362C59.9457 9.793 60.1755 10.2501 60.0335 10.668C59.9139 11.0355 59.5559 11.2537 59.1974 11.2228C58.9851 14.0478 59.3644 15.7963 60.0441 16.8299L55.0066 15.087C56.1358 14.6235 57.4131 13.4233 58.8563 11.1199L58.8538 11.1092Z" fill="url(#paint2_linear_982_17005)"/>
<path id="Vector_24" d="M60.0971 16.863L54.9479 15.0779L55.0017 15.0655C56.2204 14.5474 57.5135 13.219 58.8323 11.1141C58.5145 10.9152 58.3691 10.5294 58.4887 10.1619C58.6083 9.79448 58.9638 9.56546 59.3439 9.5914C59.4027 9.60055 59.4614 9.6097 59.5227 9.62961C59.9515 9.76899 60.1946 10.2344 60.0575 10.6738C59.9379 11.0413 59.5932 11.2678 59.2239 11.2394C59.0326 13.8103 59.3181 15.6937 60.074 16.8117L60.1079 16.8606L60.0971 16.863ZM55.0605 15.0746L59.9995 16.7835C59.2627 15.6497 58.9904 13.7747 59.1734 11.217L59.1684 11.1955L59.19 11.1905C59.5593 11.2189 59.8957 11.0056 60.007 10.6514C60.1383 10.236 59.9134 9.80042 59.5061 9.65609C59.4449 9.63618 59.3861 9.62703 59.3273 9.61788C58.958 9.58946 58.6215 9.80277 58.5102 10.157C58.3989 10.5112 58.5418 10.8863 58.8572 11.0744L58.8679 11.0719L58.8646 11.1067C57.5566 13.2091 56.2742 14.535 55.058 15.0639L55.0605 15.0746Z" fill="url(#paint3_linear_982_17005)"/>
</g>
</g>
<g id="Group_9">
<g id="Group_10">
<path id="Vector_25" d="M64.2831 11.1529C63.8418 11.107 63.4523 11.4345 63.4088 11.8865C63.3853 12.1298 63.4721 12.3592 63.6326 12.5149C61.8288 14.3346 56.382 18.8502 54.9016 9.10547C55.2643 9.05608 55.5594 8.76161 55.5963 8.37921C55.6422 7.93805 55.3147 7.54876 54.8625 7.50538C54.4104 7.462 54.0317 7.78703 53.9882 8.23895C53.9514 8.62135 54.1887 8.96339 54.543 9.07458C51.3359 18.4011 46.7922 12.9866 45.3425 10.8723C45.5273 10.7391 45.6492 10.5298 45.6751 10.2972C45.7211 9.85604 45.3935 9.46675 44.9414 9.42337C44.4893 9.37999 44.1105 9.70502 44.067 10.1569C44.0235 10.6089 44.3486 10.9874 44.8007 11.0308C44.8811 11.035 44.9721 11.0367 45.0475 11.0194L46.5308 18.6558L61.0831 19.9678L63.9073 12.7237C63.9818 12.7519 64.0671 12.7776 64.1474 12.7818C64.5888 12.8277 64.9783 12.5002 65.0218 12.0483C65.0653 11.5963 64.7402 11.2178 64.2881 11.1744L64.2831 11.1529Z" fill="url(#paint4_linear_982_17005)"/>
<path id="Vector_26" d="M61.0806 19.9571L46.4935 18.6417L45.0127 11.016C44.9373 11.0334 44.8595 11.0399 44.7767 11.025C44.3246 10.9816 43.9837 10.584 44.0272 10.1321C44.0707 9.68014 44.4686 9.3394 44.9207 9.38278C45.3728 9.42616 45.7136 9.82374 45.6701 10.2757C45.6442 10.5082 45.533 10.7151 45.3507 10.859C45.7419 11.4263 46.3721 12.2446 47.1333 12.9422C48.0393 13.7764 48.9258 14.2298 49.7713 14.3074C51.6576 14.4744 53.2484 12.7149 54.5057 9.06047C54.1489 8.93852 53.9199 8.58324 53.9592 8.21161C54.0027 7.75968 54.4005 7.41894 54.8526 7.46232C55.3047 7.5057 55.6455 7.90328 55.602 8.3552C55.5652 8.7376 55.2834 9.04035 54.9098 9.09222C55.4908 12.902 56.7493 14.9244 58.6248 15.0938C59.4595 15.1739 60.4113 14.8758 61.4637 14.2259C62.3453 13.672 63.1037 12.9764 63.5928 12.49C63.4406 12.3211 63.3646 12.0892 63.3797 11.8591C63.4232 11.4072 63.8211 11.0665 64.2732 11.1098C64.7253 11.1532 65.0661 11.5508 65.0226 12.0027C64.9791 12.4547 64.5813 12.7954 64.1292 12.752C64.0488 12.7478 63.9768 12.7304 63.9023 12.7022L61.0781 19.9463L61.0806 19.9571ZM46.5317 18.6102L61.0599 19.9165L63.8924 12.6591L63.9139 12.6542C63.9909 12.6931 64.0654 12.7213 64.1458 12.7255C64.5739 12.7631 64.9551 12.4488 65.0035 12.0184C65.052 11.588 64.7269 11.2095 64.2963 11.1612C63.8657 11.1128 63.487 11.4379 63.4385 11.8683C63.4209 12.0876 63.4969 12.3194 63.6574 12.4752L63.6624 12.4967C63.1758 12.9938 62.3958 13.6944 61.5142 14.2483C60.4643 14.9089 59.4992 15.1987 58.6563 15.1319C56.746 14.9591 55.485 12.926 54.8941 9.07317L54.8892 9.05165L54.9107 9.0467C55.2735 8.9973 55.5578 8.70531 55.5863 8.33615C55.624 7.90823 55.3097 7.52722 54.8683 7.48137C54.427 7.43551 54.059 7.75806 54.013 8.19923C53.9845 8.56839 54.1978 8.90462 54.5522 9.0158L54.5737 9.01086L54.5811 9.04314C53.318 12.7216 51.7106 14.5076 49.8002 14.3348C48.9548 14.2572 48.0551 13.7954 47.1491 12.9612C46.3746 12.2554 45.7419 11.4263 45.3482 10.8482L45.3433 10.8267C45.5281 10.6936 45.6393 10.4867 45.6676 10.2649C45.7053 9.83698 45.391 9.45597 44.9496 9.41012C44.5083 9.36426 44.1403 9.68682 44.0919 10.1172C44.0434 10.5476 44.3685 10.9261 44.7991 10.9745C44.8794 10.9787 44.9573 10.9721 45.0459 10.9631L45.0674 10.9581L45.0724 10.9796L46.5507 18.5945L46.5317 18.6102Z" fill="url(#paint5_linear_982_17005)"/>
</g>
<g id="Group_11">
<path id="Vector_27" d="M46.5134 18.638L46.4448 19.397L60.9038 20.6991L60.9724 19.9401L46.5134 18.638Z" fill="url(#paint6_linear_982_17005)"/>
<path id="Vector_28" d="M60.9242 20.7069L46.42 19.4064L46.4862 18.6094L60.9904 19.9098L60.9242 20.7069ZM46.4664 19.3618L60.8903 20.658L60.9523 19.9412L46.5284 18.645L46.4664 19.3618Z" fill="url(#paint7_linear_982_17005)"/>
</g>
</g>
<path id="Vector_29" d="M61.3306 19.9109C61.3206 20.0152 61.2253 20.0938 61.1317 20.0813L46.4404 18.7559C46.336 18.7459 46.2575 18.6506 46.27 18.5571C46.28 18.4528 46.3753 18.3742 46.4689 18.3867L61.1602 19.7121C61.2646 19.7221 61.3432 19.8174 61.3306 19.9109Z" fill="url(#paint8_linear_982_17005)"/>
<path id="Vector_30" d="M61.2562 20.7212C61.2461 20.8255 61.1508 20.9041 61.0573 20.8916L46.3659 19.5662C46.2616 19.5562 46.183 19.4609 46.1955 19.3674C46.2055 19.2631 46.3009 19.1845 46.3944 19.197L61.0858 20.5224C61.1901 20.5324 61.2687 20.6277 61.2562 20.7212Z" fill="url(#paint9_linear_982_17005)"/>
</g>
</g>
<defs>
<filter id="filter0_d_982_17005" x="0.415283" y="2.85065" width="111.648" height="112.357" filterUnits="userSpaceOnUse" color-interpolation-filters="sRGB">
<feFlood flood-opacity="0" result="BackgroundImageFix"/>
<feColorMatrix in="SourceAlpha" type="matrix" values="0 0 0 0 0 0 0 0 0 0 0 0 0 0 0 0 0 0 127 0" result="hardAlpha"/>
<feOffset/>
<feGaussianBlur stdDeviation="6"/>
<feColorMatrix type="matrix" values="0 0 0 0 0 0 0 0 0 1 0 0 0 0 0.301961 0 0 0 1 0"/>
<feBlend mode="normal" in2="BackgroundImageFix" result="effect1_dropShadow_982_17005"/>
<feBlend mode="normal" in="SourceGraphic" in2="effect1_dropShadow_982_17005" result="shape"/>
</filter>
<linearGradient id="paint0_linear_982_17005" x1="49.0025" y1="12.2602" x2="60.1051" y2="13.2633" gradientUnits="userSpaceOnUse">
<stop stop-color="#793700"/>
<stop offset="0.04" stop-color="#803D00"/>
<stop offset="0.1" stop-color="#965100"/>
<stop offset="0.18" stop-color="#BA7001"/>
<stop offset="0.27" stop-color="#EB9B01"/>
<stop offset="0.28" stop-color="#F1A002"/>
<stop offset="0.5" stop-color="#FFF58C"/>
<stop offset="0.76" stop-color="#F1A002"/>
<stop offset="1" stop-color="#793700"/>
</linearGradient>
<linearGradient id="paint1_linear_982_17005" x1="48.3413" y1="12.2117" x2="53.612" y2="12.6879" gradientUnits="userSpaceOnUse">
<stop stop-color="#FDAA1B"/>
<stop offset="0.04" stop-color="#AD6B00"/>
<stop offset="0.16" stop-color="#FDCC5B"/>
<stop offset="0.4" stop-color="#CC8800"/>
<stop offset="0.6" stop-color="#FDC748"/>
<stop offset="0.66" stop-color="#FDDF82"/>
<stop offset="0.72" stop-color="#FDF2AE"/>
<stop offset="0.75" stop-color="#FDFAC0"/>
<stop offset="0.87" stop-color="#AD6B00"/>
<stop offset="1" stop-color="#FDCB0E"/>
</linearGradient>
<linearGradient id="paint2_linear_982_17005" x1="50.6054" y1="-5.48148" x2="61.7079" y2="-4.47841" gradientUnits="userSpaceOnUse">
<stop stop-color="#793700"/>
<stop offset="0.04" stop-color="#803D00"/>
<stop offset="0.1" stop-color="#965100"/>
<stop offset="0.18" stop-color="#BA7001"/>
<stop offset="0.27" stop-color="#EB9B01"/>
<stop offset="0.28" stop-color="#F1A002"/>
<stop offset="0.5" stop-color="#FFF58C"/>
<stop offset="0.76" stop-color="#F1A002"/>
<stop offset="1" stop-color="#793700"/>
</linearGradient>
<linearGradient id="paint3_linear_982_17005" x1="55.1526" y1="12.8251" x2="60.4233" y2="13.3013" gradientUnits="userSpaceOnUse">
<stop stop-color="#FDAA1B"/>
<stop offset="0.04" stop-color="#AD6B00"/>
<stop offset="0.16" stop-color="#FDCC5B"/>
<stop offset="0.4" stop-color="#CC8800"/>
<stop offset="0.6" stop-color="#FDC748"/>
<stop offset="0.66" stop-color="#FDDF82"/>
<stop offset="0.72" stop-color="#FDF2AE"/>
<stop offset="0.75" stop-color="#FDFAC0"/>
<stop offset="0.87" stop-color="#AD6B00"/>
<stop offset="1" stop-color="#FDCB0E"/>
</linearGradient>
<linearGradient id="paint4_linear_982_17005" x1="44.3774" y1="12.4979" x2="63.9857" y2="14.2694" gradientUnits="userSpaceOnUse">
<stop stop-color="#793700"/>
<stop offset="0.04" stop-color="#803D00"/>
<stop offset="0.1" stop-color="#965100"/>
<stop offset="0.18" stop-color="#BA7001"/>
<stop offset="0.27" stop-color="#EB9B01"/>
<stop offset="0.28" stop-color="#F1A002"/>
<stop offset="0.5" stop-color="#FFF58C"/>
<stop offset="0.76" stop-color="#F1A002"/>
<stop offset="1" stop-color="#793700"/>
</linearGradient>
<linearGradient id="paint5_linear_982_17005" x1="43.8272" y1="12.4483" x2="64.8219" y2="14.3451" gradientUnits="userSpaceOnUse">
<stop stop-color="#FDAA1B"/>
<stop offset="0.04" stop-color="#AD6B00"/>
<stop offset="0.16" stop-color="#FDCC5B"/>
<stop offset="0.4" stop-color="#CC8800"/>
<stop offset="0.6" stop-color="#FDC748"/>
<stop offset="0.66" stop-color="#FDDF82"/>
<stop offset="0.72" stop-color="#FDF2AE"/>
<stop offset="0.75" stop-color="#FDFAC0"/>
<stop offset="0.87" stop-color="#AD6B00"/>
<stop offset="1" stop-color="#FDCB0E"/>
</linearGradient>
<linearGradient id="paint6_linear_982_17005" x1="43.8167" y1="18.7722" x2="63.425" y2="20.5437" gradientUnits="userSpaceOnUse">
<stop stop-color="#793700"/>
<stop offset="0.04" stop-color="#803D00"/>
<stop offset="0.1" stop-color="#965100"/>
<stop offset="0.18" stop-color="#BA7001"/>
<stop offset="0.27" stop-color="#EB9B01"/>
<stop offset="0.28" stop-color="#F1A002"/>
<stop offset="0.5" stop-color="#FFF58C"/>
<stop offset="0.76" stop-color="#F1A002"/>
<stop offset="1" stop-color="#793700"/>
</linearGradient>
<linearGradient id="paint7_linear_982_17005" x1="46.4629" y1="19.0062" x2="60.9656" y2="20.3165" gradientUnits="userSpaceOnUse">
<stop stop-color="#FDAA1B"/>
<stop offset="0.04" stop-color="#AD6B00"/>
<stop offset="0.16" stop-color="#FDCC5B"/>
<stop offset="0.4" stop-color="#CC8800"/>
<stop offset="0.6" stop-color="#FDC748"/>
<stop offset="0.66" stop-color="#FDDF82"/>
<stop offset="0.72" stop-color="#FDF2AE"/>
<stop offset="0.75" stop-color="#FDFAC0"/>
<stop offset="0.87" stop-color="#AD6B00"/>
<stop offset="1" stop-color="#FDCB0E"/>
</linearGradient>
<linearGradient id="paint8_linear_982_17005" x1="46.2705" y1="18.5565" x2="61.3343" y2="19.9174" gradientUnits="userSpaceOnUse">
<stop stop-color="#FDAA1B"/>
<stop offset="0.04" stop-color="#AD6B00"/>
<stop offset="0.16" stop-color="#FDCC5B"/>
<stop offset="0.4" stop-color="#CC8800"/>
<stop offset="0.6" stop-color="#FDC748"/>
<stop offset="0.66" stop-color="#FDDF82"/>
<stop offset="0.72" stop-color="#FDF2AE"/>
<stop offset="0.75" stop-color="#FDFAC0"/>
<stop offset="0.87" stop-color="#AD6B00"/>
<stop offset="1" stop-color="#FDCB0E"/>
</linearGradient>
<linearGradient id="paint9_linear_982_17005" x1="46.197" y1="19.3704" x2="61.2608" y2="20.7313" gradientUnits="userSpaceOnUse">
<stop stop-color="#FDAA1B"/>
<stop offset="0.04" stop-color="#AD6B00"/>
<stop offset="0.16" stop-color="#FDCC5B"/>
<stop offset="0.4" stop-color="#CC8800"/>
<stop offset="0.6" stop-color="#FDC748"/>
<stop offset="0.66" stop-color="#FDDF82"/>
<stop offset="0.72" stop-color="#FDF2AE"/>
<stop offset="0.75" stop-color="#FDFAC0"/>
<stop offset="0.87" stop-color="#AD6B00"/>
<stop offset="1" stop-color="#FDCB0E"/>
</linearGradient>
</defs>
</svg>
