<svg id="레이어_1" data-name="레이어 1" xmlns="http://www.w3.org/2000/svg" xmlns:xlink="http://www.w3.org/1999/xlink" viewBox="0 0 800 800"><defs><style>.cls-1{fill:#fff;fill-opacity:0;}.cls-2{fill:#ff2c89;}.cls-3{fill:#ffafff;}.cls-4{fill:#ff40c3;}.cls-5{fill:#ff86f3;}.cls-11,.cls-13,.cls-14,.cls-15,.cls-16,.cls-18,.cls-19,.cls-20,.cls-22,.cls-23,.cls-24,.cls-25,.cls-27,.cls-29,.cls-30,.cls-31,.cls-32,.cls-34,.cls-35,.cls-36,.cls-38,.cls-6,.cls-7,.cls-8,.cls-9{fill-rule:evenodd;}.cls-6{fill:url(#무제_그라디언트);}.cls-7{fill:url(#무제_그라디언트_2);}.cls-8{fill:url(#무제_그라디언트_3);}.cls-9{fill:url(#무제_그라디언트_4);}.cls-10{fill:url(#무제_그라디언트_5);}.cls-11{fill:url(#무제_그라디언트_6);}.cls-12{fill:url(#무제_그라디언트_7);}.cls-13,.cls-18,.cls-29,.cls-34{opacity:0.44;isolation:isolate;}.cls-13{fill:url(#무제_그라디언트_8);}.cls-14{fill:url(#무제_그라디언트_9);}.cls-15{fill:url(#무제_그라디언트_10);}.cls-16{fill:url(#무제_그라디언트_11);}.cls-17{fill:url(#무제_그라디언트_12);}.cls-18{fill:url(#무제_그라디언트_13);}.cls-19{fill:url(#무제_그라디언트_14);}.cls-20{fill:url(#무제_그라디언트_15);}.cls-21{fill:url(#무제_그라디언트_16);}.cls-22{fill:url(#무제_그라디언트_17);}.cls-23{fill:url(#무제_그라디언트_18);}.cls-24{fill:url(#무제_그라디언트_19);}.cls-25{fill:url(#무제_그라디언트_20);}.cls-26{fill:url(#무제_그라디언트_21);}.cls-27{fill:url(#무제_그라디언트_22);}.cls-28{fill:url(#무제_그라디언트_23);}.cls-29{fill:url(#무제_그라디언트_24);}.cls-30{fill:url(#무제_그라디언트_25);}.cls-31{fill:url(#무제_그라디언트_26);}.cls-32{fill:url(#무제_그라디언트_27);}.cls-33{fill:url(#무제_그라디언트_28);}.cls-34{fill:url(#무제_그라디언트_29);}.cls-35{fill:url(#무제_그라디언트_30);}.cls-36{fill:url(#무제_그라디언트_31);}.cls-37{fill:url(#무제_그라디언트_32);}</style><linearGradient id="무제_그라디언트" x1="550.8" y1="345.87" x2="579.65" y2="289.49" gradientTransform="matrix(1, 0, 0, -1, 0, 804)" gradientUnits="userSpaceOnUse"><stop offset="0" stop-color="#383836"/><stop offset="0.12" stop-color="#bfbfbf"/><stop offset="0.21" stop-color="#727372"/><stop offset="0.3" stop-color="#2f302f"/><stop offset="0.34" stop-color="#151615"/><stop offset="0.42" stop-color="#1f201f"/><stop offset="0.57" stop-color="#3c3c3a"/><stop offset="0.58" stop-color="#3f3f3d"/><stop offset="0.65" stop-color="#565654"/><stop offset="0.7" stop-color="#6b6b6a"/><stop offset="0.73" stop-color="#5a5a5a"/><stop offset="0.81" stop-color="#333"/><stop offset="0.89" stop-color="#171717"/><stop offset="0.95" stop-color="#060606"/><stop offset="1"/></linearGradient><linearGradient id="무제_그라디언트_2" x1="596.57" y1="278.7" x2="535.6" y2="339.5" gradientTransform="matrix(1, 0, 0, -1, 0, 804)" gradientUnits="userSpaceOnUse"><stop offset="0" stop-color="#fff"/><stop offset="0.77" stop-color="#adb7c3"/><stop offset="1" stop-color="#7b90a6"/></linearGradient><linearGradient id="무제_그라디언트_3" x1="539.41" y1="346.5" x2="572.6" y2="281.69" xlink:href="#무제_그라디언트"/><linearGradient id="무제_그라디언트_4" x1="551.54" y1="363.16" x2="546.34" y2="261.95" gradientTransform="matrix(1, 0, 0, -1, 0, 804)" gradientUnits="userSpaceOnUse"><stop offset="0" stop-color="#919190"/><stop offset="0.23" stop-color="#6c6c6b"/><stop offset="0.58" stop-color="#393939"/><stop offset="0.85" stop-color="#1a1a1a"/><stop offset="1" stop-color="#0f0f0f"/></linearGradient><linearGradient id="무제_그라디언트_5" x1="534.25" y1="365.82" x2="573.73" y2="263.47" gradientTransform="matrix(1, 0, 0, -1, 0, 804)" gradientUnits="userSpaceOnUse"><stop offset="0" stop-color="#bfbfbf"/><stop offset="0.33" stop-color="#848484"/><stop offset="0.5" stop-color="#6b6b6a"/><stop offset="0.55" stop-color="#5a5a5a"/><stop offset="0.69" stop-color="#333"/><stop offset="0.81" stop-color="#171717"/><stop offset="0.92" stop-color="#060606"/><stop offset="1"/></linearGradient><linearGradient id="무제_그라디언트_6" x1="548.81" y1="333.77" x2="546.63" y2="291.2" xlink:href="#무제_그라디언트_4"/><linearGradient id="무제_그라디언트_7" x1="541.37" y1="335.09" x2="558.13" y2="291.67" xlink:href="#무제_그라디언트_5"/><linearGradient id="무제_그라디언트_8" x1="552" y1="275.69" x2="548.17" y2="311.65" gradientTransform="matrix(1, 0, 0, -1, 0, 804)" gradientUnits="userSpaceOnUse"><stop offset="0"/><stop offset="0.16" stop-color="#060606"/><stop offset="0.38" stop-color="#191918"/><stop offset="0.65" stop-color="#373737"/><stop offset="0.94" stop-color="#616160"/><stop offset="1" stop-color="#6b6b6a"/></linearGradient><linearGradient id="무제_그라디언트_9" x1="501.85" y1="307.76" x2="513.46" y2="281.79" gradientTransform="matrix(1, 0, 0, -1, 0, 804)" gradientUnits="userSpaceOnUse"><stop offset="0" stop-color="#0a0a0a"/><stop offset="0.21" stop-color="#adadae"/><stop offset="0.44" stop-color="#737476"/><stop offset="0.63" stop-color="#595959"/><stop offset="0.88" stop-color="#424243"/><stop offset="1" stop-color="#0a0a0a"/></linearGradient><linearGradient id="무제_그라디언트_10" x1="442.27" y1="303.84" x2="478.26" y2="233.52" xlink:href="#무제_그라디언트"/><linearGradient id="무제_그라디언트_11" x1="455.38" y1="321.63" x2="449.76" y2="212.36" xlink:href="#무제_그라디언트_4"/><linearGradient id="무제_그라디언트_12" x1="436.81" y1="324.52" x2="479.45" y2="214.03" xlink:href="#무제_그라디언트_5"/><linearGradient id="무제_그라디언트_13" x1="465.73" y1="260.59" x2="459.46" y2="227.11" gradientTransform="matrix(1, 0, 0, -1, 0, 804)" gradientUnits="userSpaceOnUse"><stop offset="0" stop-color="#6b6b6a"/><stop offset="0.08" stop-color="#585857"/><stop offset="0.24" stop-color="#383837"/><stop offset="0.41" stop-color="#1f1f1f"/><stop offset="0.59" stop-color="#0d0d0d"/><stop offset="0.78" stop-color="#030303"/><stop offset="1"/></linearGradient><linearGradient id="무제_그라디언트_14" x1="429.96" y1="294.54" x2="461.27" y2="233.37" xlink:href="#무제_그라디언트"/><linearGradient id="무제_그라디언트_15" x1="441.37" y1="310.26" x2="436.45" y2="214.73" xlink:href="#무제_그라디언트_4"/><linearGradient id="무제_그라디언트_16" x1="424.6" y1="312.43" x2="461.87" y2="215.84" xlink:href="#무제_그라디언트_5"/><linearGradient id="무제_그라디언트_17" x1="257.07" y1="571.39" x2="296.28" y2="542.24" xlink:href="#무제_그라디언트"/><linearGradient id="무제_그라디언트_18" x1="311.67" y1="540.55" x2="248.73" y2="561.8" xlink:href="#무제_그라디언트_2"/><linearGradient id="무제_그라디언트_19" x1="248.98" y1="567.95" x2="294.07" y2="534.44" xlink:href="#무제_그라디언트"/><linearGradient id="무제_그라디언트_20" x1="251.69" y1="583.61" x2="282.64" y2="511.81" xlink:href="#무제_그라디언트_4"/><linearGradient id="무제_그라디언트_21" x1="238.82" y1="579.56" x2="301.08" y2="522.23" xlink:href="#무제_그라디언트_5"/><linearGradient id="무제_그라디언트_22" x1="259.83" y1="562.35" x2="272.86" y2="532.15" xlink:href="#무제_그라디언트_4"/><linearGradient id="무제_그라디언트_23" x1="254.23" y1="560.72" x2="280.65" y2="536.4" xlink:href="#무제_그라디언트_5"/><linearGradient id="무제_그라디언트_24" x1="281.86" y1="523.25" x2="266.93" y2="546.82" xlink:href="#무제_그라디언트_8"/><linearGradient id="무제_그라디언트_25" x1="236.2" y1="528.31" x2="253.1" y2="514.31" xlink:href="#무제_그라디언트_9"/><linearGradient id="무제_그라디언트_26" x1="196.34" y1="505.28" x2="245.25" y2="468.92" xlink:href="#무제_그라디언트"/><linearGradient id="무제_그라디언트_27" x1="199.35" y1="522.06" x2="232.77" y2="444.55" xlink:href="#무제_그라디언트_4"/><linearGradient id="무제_그라디언트_28" x1="185.49" y1="517.71" x2="252.72" y2="455.82" xlink:href="#무제_그라디언트_5"/><linearGradient id="무제_그라디언트_29" x1="227.33" y1="483.36" x2="234.42" y2="458.06" xlink:href="#무제_그라디언트_13"/><linearGradient id="무제_그라디언트_30" x1="190.99" y1="494.63" x2="233.54" y2="463" xlink:href="#무제_그라디언트"/><linearGradient id="무제_그라디언트_31" x1="193.57" y1="509.42" x2="222.78" y2="441.66" xlink:href="#무제_그라디언트_4"/><linearGradient id="무제_그라디언트_32" x1="181.19" y1="505.2" x2="239.95" y2="451.09" xlink:href="#무제_그라디언트_5"/></defs><title>diet</title><rect class="cls-1" width="800" height="800"/><path class="cls-2" d="M562.5,401.16c0,88.61-71.93,160.43-160.67,160.43A160.46,160.46,0,0,1,241.16,401.36v-.21c0-88.61,71.94-160.43,160.67-160.43A160.5,160.5,0,0,1,562.5,401.05Z"/><path class="cls-3" d="M561.71,405.83c0,85.73-69.6,155.23-155.46,155.23A155.24,155.24,0,0,1,250.79,406v-.21c0-85.73,69.6-155.23,155.45-155.23A155.28,155.28,0,0,1,561.71,405.69Z"/><path class="cls-4" d="M563.46,407.78c0,82.26-66.78,148.94-149.16,148.94A149,149,0,0,1,265.14,408v-.2c0-82.26,66.78-148.94,149.16-148.94A149,149,0,0,1,563.46,407.68Z"/><path class="cls-5" d="M491.21,345.36c0,82.26-66.78,148.94-149.16,148.94a149,149,0,0,1-56.33-11,148.13,148.13,0,0,1-20.58-75.54c0-82.26,66.78-148.94,149.16-148.94a148.81,148.81,0,0,1,56.33,11A147.93,147.93,0,0,1,491.21,345.36Z"/><path class="cls-3" d="M398.18,393.63C362,436,312.13,452.79,286.89,431.24c-16.78-14.32-18.48-42-7.08-71.39a155.71,155.71,0,0,1,26.95-44.24C343,273.29,392.81,256.46,418.05,278a39.72,39.72,0,0,1,12.42,20.39C437.39,324,425.64,361.55,398.18,393.63Z"/><path class="cls-2" d="M471.54,533.67c25.37-13.21,41.38-32.66,35.75-43.42s-30.75-8.78-56.12,4.43-41.38,32.66-35.75,43.42S446.17,546.89,471.54,533.67Z"/><path class="cls-4" d="M470.34,534.77c22.76-11.86,37.12-29.29,32.07-38.95s-27.59-7.88-50.34,4S415,529.09,420,538.75,447.58,546.63,470.34,534.77Z"/><path class="cls-2" d="M396.09,534c1.47-7.22-9.75-15.59-25-18.69s-28.9.24-30.36,7.46,9.75,15.59,25,18.69S394.62,541.25,396.09,534Z"/><path class="cls-4" d="M392.07,534.88c1.32-6.48-8.74-14-22.47-16.77s-25.92.22-27.24,6.69,8.74,14,22.47,16.77S390.76,541.36,392.07,534.88Z"/><path class="cls-2" d="M391.4,534.22c1-5-7.83-11-19.74-13.39s-22.4-.33-23.41,4.65,7.83,11,19.74,13.39S390.39,539.2,391.4,534.22Z"/><path class="cls-2" d="M405,518.45c7-1,12.25-5,11.68-9s-6.73-6.33-13.75-5.32-12.25,5-11.68,9S397.94,519.47,405,518.45Z"/><path class="cls-2" d="M460,531.32c17.26-9,28.3-21.94,24.66-28.91s-20.59-5.34-37.85,3.65S418.48,528,422.12,535,442.71,540.31,460,531.32Z"/><path class="cls-4" d="M438.59,466.83c25.37-13.21,36.46-42.06,24.77-64.43s-41.73-29.8-67.1-16.58-36.46,42.06-24.77,64.44S413.22,480,438.59,466.83Z"/><path class="cls-5" d="M437.59,468.33c22.76-11.85,32.71-37.73,22.22-57.8s-37.43-26.73-60.19-14.87-32.71,37.73-22.22,57.8S414.84,480.18,437.59,468.33Z"/><path class="cls-4" d="M358.28,481.32c2.37-12.75-11.09-25.94-30.07-29.47s-36.3,4-38.67,16.71S300.63,494.5,319.61,498,355.9,494.07,358.28,481.32Z"/><path class="cls-5" d="M353.17,483.28c2.13-11.44-9.95-23.27-27-26.43s-32.56,3.55-34.69,15,9.95,23.27,27,26.43S351,494.72,353.17,483.28Z"/><path class="cls-5" d="M402.46,309.75c18.77-4.5,31.54-18.37,28.5-31s-20.71-19.18-39.48-14.68-31.54,18.37-28.51,31S383.68,314.25,402.46,309.75Z"/><path class="cls-3" d="M406.28,309.16c16.48-5.33,26.92-18.62,23.33-29.69s-19.86-15.72-36.34-10.39-26.92,18.62-23.33,29.69S389.8,314.49,406.28,309.16Z"/><path class="cls-5" d="M400.09,299c11.52-6.64,17.6-17.65,13.59-24.58s-16.6-7.18-28.12-.54S368,291.5,372,298.43,388.57,305.61,400.09,299Z"/><path class="cls-5" d="M383.59,497.32c9.53-1.38,16.51-7.68,15.58-14.09s-9.41-10.48-18.94-9.1-16.51,7.68-15.58,14.09S374.06,498.7,383.59,497.32Z"/><path class="cls-4" d="M488.9,402.92c18.7-2.36,31.3-24.57,28.13-49.6s-20.9-43.42-39.6-41.06-31.3,24.57-28.13,49.6S470.2,405.28,488.9,402.92Z"/><path class="cls-5" d="M488.31,393.3c16.78-2.12,28.08-22,25.24-44.5S494.8,309.85,478,312s-28.08,22-25.24,44.49S471.53,395.42,488.31,393.3Z"/><path class="cls-4" d="M481.09,385.34c12.68-1.6,21.22-16.66,19.08-33.63S486,322.27,473.32,323.87s-21.22,16.66-19.08,33.63S468.4,386.94,481.09,385.34Z"/><path class="cls-4" d="M423.31,457.37c17.26-9,25.12-28,17.54-42.53s-27.71-19-45-10-25.12,28-17.54,42.54S406.05,466.37,423.31,457.37Z"/><path class="cls-2" d="M540.15,473c5.21-9,6.11-18.23,2-20.6s-11.64,3-16.86,12-6.11,18.23-2,20.6S534.94,482,540.15,473Z"/><path class="cls-2" d="M540.35,343.27c3.36-.84,7.59,4.48,9.44,11.87s.62,14.07-2.74,14.91-7.59-4.48-9.44-11.87S537,344.11,540.35,343.27Z"/><path class="cls-2" d="M483,458.11c4.44-5.41,4.77-12.49.71-15.81s-10.94-1.62-15.38,3.8-4.77,12.49-.71,15.81S478.58,463.53,483,458.11Z"/><path class="cls-2" d="M477.94,478.27c3.56-1.66,5.45-5.16,4.21-7.81s-5.13-3.47-8.7-1.81-5.45,5.16-4.21,7.82S474.38,479.93,477.94,478.27Z"/><path class="cls-2" d="M522.6,453.74c2.09,1.71,1.51,5.87-1.3,9.29s-6.78,4.81-8.87,3.1-1.51-5.87,1.3-9.29S520.51,452,522.6,453.74Z"/><path class="cls-2" d="M532.7,372c.47-8.28-2-15.15-5.52-15.35S520.42,363,520,371.32s2,15.15,5.52,15.35S532.23,380.31,532.7,372Z"/><path class="cls-4" d="M532.26,374.42c.4-6.95-1.68-12.72-4.63-12.89s-5.68,5.33-6.07,12.28,1.68,12.73,4.63,12.89S531.86,381.38,532.26,374.42Z"/><path class="cls-2" d="M529.84,434.38c9.83-15.56,10.92-32.51,2.43-37.86s-23.34,2.94-33.17,18.5-10.92,32.51-2.43,37.86S520,449.94,529.84,434.38Z"/><path class="cls-4" d="M529.59,435.42c8.82-14,9.79-29.17,2.18-34S510.83,404.05,502,418s-9.79,29.16-2.18,34S520.78,449.38,529.59,435.42Z"/><path class="cls-2" d="M521.5,436.09c6.69-10.59,7.65-22,2.15-25.45s-15.38,2.31-22.07,12.9-7.65,22-2.15,25.45S514.81,446.68,521.5,436.09Z"/><path class="cls-4" d="M467.33,276.8c-.52,2.77-8,3.7-16.79,2.07s-15.44-5.19-14.92-8,8-3.7,16.79-2.07S467.85,274,467.33,276.8Z"/><path class="cls-5" d="M434.19,371c8.9-6.16,11.95-17.17,6.8-24.59s-16.54-8.43-25.44-2.27-11.94,17.17-6.79,24.59S425.29,377.2,434.19,371Z"/><path class="cls-3" d="M434.07,370.62c8.57-5.93,11.82-16.05,7.27-22.6s-15.18-7.06-23.75-1.13-11.82,16.05-7.27,22.6S425.5,376.55,434.07,370.62Z"/><path class="cls-3" d="M344.62,449.57c8.1,0,14.66-4.42,14.66-9.88s-6.56-9.88-14.66-9.88S330,434.23,330,439.69,336.52,449.57,344.62,449.57Z"/><path class="cls-4" d="M275.27,431.26c3.61-1.41,8.66,2.88,11.27,9.57s1.8,13.26-1.81,14.66-8.66-2.88-11.27-9.57S271.66,432.67,275.27,431.26Z"/><path class="cls-3" d="M284.88,453c3.61-1.41,4.43-8,1.81-14.66s-7.66-11-11.27-9.57-4.43,8-1.81,14.66S281.27,454.38,284.88,453Z"/><path class="cls-5" d="M363.67,411.58c7.37-7.36,9.75-16.92,5.31-21.35s-14-2.06-21.39,5.31-9.75,16.92-5.31,21.35S356.3,418.94,363.67,411.58Z"/><path class="cls-3" d="M364,413.41c6.84-6.83,9-15.7,4.93-19.82s-13-1.91-19.85,4.92-9.05,15.7-4.93,19.82S357.14,420.24,364,413.41Z"/><path class="cls-5" d="M341.37,300.49c8.38-6.2,13-14.13,10.35-17.72s-11.61-1.47-20,4.73-13,14.13-10.35,17.72S333,306.69,341.37,300.49Z"/><path class="cls-3" d="M350.75,285.56c2.47,3.33-1.83,10.69-9.6,16.44s-16.08,7.72-18.55,4.39,1.83-10.69,9.6-16.44S348.28,282.23,350.75,285.56Z"/><path class="cls-5" d="M322.24,314.07c1.43,1.43-.46,5.64-4.24,9.4s-8,5.66-9.42,4.23.46-5.64,4.23-9.4S320.81,312.64,322.24,314.07Z"/><path class="cls-5" d="M395.12,373.9c1.3,1.55-1,5.58-5.06,9s-8.46,4.92-9.76,3.37,1-5.58,5.06-9S393.82,372.34,395.12,373.9Z"/><path class="cls-3" d="M310.89,443.54c6.11,0,11.07-3.15,11.07-7s-5-7-11.07-7-11.07,3.15-11.07,7S304.78,443.54,310.89,443.54Z"/><path class="cls-6" d="M548,459.39c-22.09,7.55,3.93,67.31,25.24,55.59l9.84-5.41c17.85-9.84-4.49-61.84-25.17-54C555,456.67,550.63,458.27,548,459.39Z"/><path class="cls-7" d="M548.79,459.33c-9.18,1.47-12,15.44-6.39,31.19s17.68,27.34,26.87,25.87,12-15.44,6.38-31.18S558,457.87,548.78,459.34Z"/><path class="cls-8" d="M536.24,459c-25.4,8.69,4.52,77.38,29,63.91l11.32-6.23c20.51-11.32-5.17-71.1-28.94-62.07-3.29,1.25-8.34,3.1-11.4,4.37Z"/><path class="cls-9" d="M537.16,458.88c-10.56,1.7-13.84,17.74-7.34,35.85s20.32,31.43,30.88,29.74,13.84-17.74,7.34-35.85S547.71,457.19,537.16,458.88Z"/><path class="cls-10" d="M568,488.62c-6.5-18.1-20.33-31.43-30.88-29.74a10.73,10.73,0,0,0-7.32,4.85,10.55,10.55,0,0,1,6.81-4.15c10.56-1.69,24.38,11.63,30.88,29.74,4.6,12.82,4.29,24.62,0,31C572.29,514.13,572.8,501.93,568,488.62Z"/><path class="cls-11" d="M542.44,477.77c-5,.8-6.63,7.61-3.71,15.22S548,506.13,553,505.34s6.63-7.61,3.71-15.22-9.3-13.14-14.28-12.35Z"/><path class="cls-12" d="M556.71,490.13c-2.92-7.61-9.3-13.14-14.28-12.35a5.4,5.4,0,0,0-3.79,2.58,5.38,5.38,0,0,1,3.28-1.88c5-.8,11.36,4.74,14.28,12.35,1.95,5.1,1.85,9.83.07,12.65,2.24-2.68,2.55-7.79.43-13.35Z"/><path class="cls-13" d="M554.15,494.22s4.2,23,5.37,30.39c-5.31.29-11.31-3-16.74-8.53l-2.14-30.56,13.51,8.7Z"/><path class="cls-14" d="M464.05,514.29c-9.44,3.23,2.9,30.59,12,25.59l75.93-36c7.62-4.2-1.91-26.39-10.75-23C540,481.34,465.19,513.83,464.05,514.29Z"/><ellipse class="cls-2" cx="513.07" cy="509.23" rx="35.58" ry="35.4" transform="translate(-113.37 869.96) rotate(-74.72)"/><path class="cls-15" d="M438.8,501.76c-27.55,9.43,4.9,84,31.48,69.34l12.28-6.75c22.27-12.27-5.61-77.12-31.38-67.33-3.56,1.35-9.05,3.36-12.37,4.75Z"/><path class="cls-16" d="M439.81,501.68c-11.45,1.83-15,19.25-8,38.9s22.05,34.09,33.5,32.26,15-19.25,8-38.9S451.26,499.85,439.81,501.68Z"/><path class="cls-17" d="M473.31,533.94c-7.05-19.65-22.06-34.1-33.5-32.27a11.7,11.7,0,0,0-7.92,5.24,11.43,11.43,0,0,1,7.41-4.53c11.45-1.83,26.46,12.62,33.5,32.26,5,13.93,4.66,26.74-.05,33.66C477.93,561.57,478.48,548.37,473.31,533.94Z"/><path class="cls-18" d="M471.72,545.88s.28,16.32.71,22.87a11.29,11.29,0,0,1-7.08,4.09c-4.83.78-10.3-1.37-15.54-5.57l5.69-29.85,16.21,8.44Z"/><path class="cls-19" d="M426.93,510.82c-24,8.2,4.26,73,27.39,60.33L465,565.27c19.37-10.68-4.87-67.09-27.3-58.57-3.09,1.18-7.87,2.92-10.76,4.13Z"/><path class="cls-20" d="M427.81,510.76c-10,1.59-13.08,16.74-6.94,33.84s19.19,29.66,29.15,28.07,13.06-16.74,6.93-33.84-19.19-29.66-29.15-28.07Z"/><path class="cls-21" d="M456.46,539.18c-6.13-17.09-19.19-29.66-29.15-28.07a10.17,10.17,0,0,0-6.91,4.59,10,10,0,0,1,6.41-3.89c10-1.59,23,11,29.15,28.07,4.34,12.09,4.05,23.21,0,29.25,4.54-5.84,5-17.37.53-29.94Z"/><path class="cls-22" d="M255.55,234.44c-12.7,12.77,25.7,45.22,36.44,29.84l5-7.1c9-12.9-24.22-41.25-35.84-28.76C259.5,230.15,257,232.76,255.55,234.44Z"/><path class="cls-23" d="M256.09,234.12c-5.85,4.15-3.06,14.79,6.22,23.76s21.57,12.88,27.42,8.72,3.06-14.79-6.23-23.75-21.56-12.88-27.41-8.73Z"/><path class="cls-24" d="M247.28,238.15c-14.61,14.68,29.54,52,41.89,34.32l5.7-8.17c10.32-14.83-27.85-47.42-41.21-33.06-1.85,2-4.71,5-6.39,6.91Z"/><path class="cls-25" d="M247.89,237.78c-6.72,4.78-3.52,17,7.16,27.31s24.79,14.81,31.51,10,3.52-17-7.16-27.31S254.62,233,247.89,237.78Z"/><path class="cls-26" d="M279.4,247.81c-10.68-10.31-24.79-14.81-31.52-10a8.28,8.28,0,0,0-3.41,5.85,8.16,8.16,0,0,1,3.29-5.19c6.73-4.78,20.84-.28,31.52,10,7.56,7.3,11.37,15.57,10.57,21.46C291.06,264,287.25,255.4,279.4,247.81Z"/><path class="cls-27" d="M258,249.05c-3.16,2.24-2,7.53,2.63,11.8s10.92,5.91,14.09,3.68,2-7.53-2.63-11.8S261.16,246.81,258,249.05Z"/><path class="cls-28" d="M272.08,252.72c-4.62-4.27-10.92-5.91-14.09-3.67a4.16,4.16,0,0,0-1.74,3.08,4.11,4.11,0,0,1,1.63-2.42c3.16-2.24,9.48-.6,14.09,3.67,3.09,2.86,4.63,6.17,4.37,8.73.63-2.62-.9-6.26-4.26-9.39Z"/><path class="cls-29" d="M271.71,256.43s10.76,14.49,14.09,19.19c-3.58,2-8.83,1.82-14.49-.18L259.4,255l12.31,1.4Z"/><path class="cls-30" d="M216.23,301.07c-5.43,5.45,12.45,20.17,17,13.61l40.25-50.8c3.84-5.51-10.33-17.61-15.3-12.27C257.52,252.35,216.86,300.36,216.23,301.07Z"/><ellipse class="cls-2" cx="248.32" cy="280.85" rx="27.31" ry="27.45" transform="translate(-48.99 52.49) rotate(-10.99)"/><path class="cls-31" d="M194.48,301c-15.84,15.93,32.05,56.41,45.45,37.23l6.19-8.86c11.22-16.09-30.21-51.44-44.7-35.87-2,2.15-5.11,5.41-6.94,7.5Z"/><path class="cls-32" d="M195.16,300.62c-7.29,5.18-3.81,18.44,7.77,29.63s26.89,16.06,34.19,10.88,3.81-18.44-7.77-29.63S202.45,295.44,195.16,300.62Z"/><path class="cls-33" d="M229.34,311.51c-11.58-11.19-26.9-16.06-34.19-10.88a9,9,0,0,0-3.69,6.33,8.84,8.84,0,0,1,3.58-5.67c7.3-5.18,22.61-.3,34.19,10.88,8.22,7.93,12.35,16.91,11.46,23.3C242,329,237.84,319.72,229.34,311.51Z"/><path class="cls-34" d="M232.32,320.31s5.77,11.19,8.3,15.58a8.73,8.73,0,0,1-3.5,5.25c-3.08,2.19-7.59,2.57-12.65,1.45L218.22,320Z"/><path class="cls-35" d="M189.36,311.35c-13.79,13.86,27.88,49.07,39.54,32.38l5.38-7.71c9.76-14-26.27-44.75-38.88-31.2-1.74,1.87-4.45,4.71-6,6.53Z"/><path class="cls-36" d="M190,311c-6.35,4.5-3.33,16.05,6.75,25.78s23.4,14,29.75,9.47,3.32-16-6.76-25.77S196.34,306.48,190,311Z"/><path class="cls-37" d="M219.48,320.88c-10.08-9.73-23.4-14-29.75-9.47a7.8,7.8,0,0,0-3.21,5.53,7.69,7.69,0,0,1,3.11-4.88c6.35-4.5,19.67-.27,29.75,9.47,7.13,6.89,10.73,14.68,10,20.24,1.15-5.59-2.45-13.73-9.86-20.9Z"/><path class="cls-2" d="M332.72,323.66l15.55,7.12a2.13,2.13,0,0,1,1.05,2.82h0a2.13,2.13,0,0,1-2.82,1.05h0l-15.55-7.12a2.13,2.13,0,0,1-1.05-2.82h0A2.14,2.14,0,0,1,332.72,323.66Z"/><path class="cls-2" d="M406.88,339.09l16.49-4.54a2.13,2.13,0,0,0,1.49-2.62h0a2.13,2.13,0,0,0-2.62-1.49h0L405.74,335a2.13,2.13,0,0,0-1.49,2.62h0A2.13,2.13,0,0,0,406.88,339.09Z"/><circle cx="412.95" cy="350.65" r="8.94"/><circle cx="338.89" cy="344.7" r="8.94"/><path class="cls-38" d="M375.39,361.92c-7.05-.6-13.89-2.63-22.3-6.05l1.93-4.76c8.2,3.32,14.49,5.15,20.81,5.69s12.83-.21,21.5-2.29l1.2,5C389.56,361.66,382.45,362.52,375.39,361.92Z"/></svg>