<svg width="88" height="88" viewBox="0 0 88 88" fill="none" xmlns="http://www.w3.org/2000/svg">
<g id="Clip path group">
<mask id="mask0_2218_30550" style="mask-type:luminance" maskUnits="userSpaceOnUse" x="0" y="0" width="88" height="88">
<g id="clippath">
<path id="Vector" d="M87.4659 30.2194L30.2197 0L0.000304422 57.2462L57.2465 87.4656L87.4659 30.2194Z" fill="white"/>
</g>
</mask>
<g mask="url(#mask0_2218_30550)">
<g id="Group">
<g id="Group_2">
<path id="Vector_2" d="M29.3298 71.0231C44.3982 78.9775 63.0666 73.2089 71.021 58.1405C78.9754 43.0721 73.2112 24.4059 58.1385 16.4492C43.0657 8.49255 24.4016 14.2634 16.4472 29.3318C8.4928 44.4002 14.2613 63.0687 29.3298 71.0231Z" fill="#FF0000"/>
<path id="Vector_3" d="M53.0239 26.3376L56.2212 27.0895L57.8873 29.924L60.7293 31.5904L61.4802 34.7946L63.7031 37.2142L63.4817 40.4978L64.8884 43.4667L63.7122 46.5343L64.1792 49.7936L62.1484 52.3712L61.6384 55.6244L58.9397 57.495L57.4944 60.4426L54.3615 61.4361L52.1112 63.8314L48.8267 63.8531L45.9667 65.4836L42.8174 64.5356L39.6142 65.2426L36.8786 63.4165L33.6026 63.1492L31.5339 60.595L28.4828 59.3666L27.2552 56.3205L24.7002 54.2573L24.433 50.9761L22.598 48.2518L23.3064 45.0425L22.3593 41.8953L23.9778 39.0391L23.9998 35.7555L26.3939 33.497L27.3809 30.3683L30.3355 28.9152L32.2004 26.2112L35.4498 25.7001L38.0361 23.6649L41.2879 24.1354L44.3572 22.9478L47.3277 24.3497L50.6079 24.1263L53.0368 26.3445L53.0239 26.3376Z" fill="#FFF500"/>
<g id="Group_3">
<path id="Vector_4" d="M27.3955 26.5719C27.0733 26.878 26.7172 27.0279 26.3187 27.0169C25.9159 27.0037 25.5539 26.8292 25.224 26.4889C24.8941 26.1486 24.7292 25.7791 24.7359 25.3783C24.7425 24.9775 24.9015 24.6239 25.2151 24.3132C25.5373 24.007 25.8913 23.8505 26.2966 23.8485C26.6933 23.8419 27.0553 24.0164 27.3745 24.3455C27.4495 24.4238 27.5114 24.4953 27.5668 24.5688L25.9727 26.1198C26.1276 26.2459 26.2861 26.313 26.4635 26.3125C26.641 26.312 26.7983 26.2344 26.9392 26.1039C27.1317 25.9175 27.1913 25.6998 27.1375 25.4554L27.7375 24.8749C27.8783 25.1431 27.9202 25.431 27.8651 25.7453C27.8145 26.0509 27.6549 26.3322 27.3953 26.5828L27.3996 26.5851L27.3955 26.5719ZM26.1648 24.5598C25.9851 24.5646 25.8235 24.6399 25.6803 24.7748C25.5371 24.9096 25.4701 25.0681 25.4552 25.243C25.4491 25.4225 25.5023 25.5946 25.6236 25.7528L26.658 24.7481C26.5099 24.609 26.3469 24.5507 26.1628 24.5532L26.1671 24.5555L26.1648 24.5598Z" fill="white"/>
<path id="Vector_5" d="M28.7667 24.7202C28.372 24.6392 28.0417 24.415 27.7783 24.0433C27.5148 23.6716 27.4005 23.2901 27.453 22.8969C27.5055 22.5037 27.6946 22.177 28.0372 21.937C28.3756 21.6947 28.7404 21.6436 29.1182 21.7987L28.8417 21.4202L29.4673 20.9695L31.2465 23.4428L30.6209 23.8935L30.3256 23.4773C30.3554 23.9139 30.2055 24.2502 29.8672 24.4925C29.5311 24.7305 29.1656 24.8144 28.7752 24.7357L28.7622 24.7288L28.7667 24.7202ZM29.9129 23.3148C29.9485 23.09 29.8899 22.8652 29.7262 22.6403C29.5625 22.4154 29.3683 22.2797 29.1478 22.2463C28.9229 22.2107 28.7269 22.2568 28.5422 22.3863C28.3707 22.5118 28.2617 22.6869 28.2217 22.9094C28.1841 23.1277 28.247 23.3547 28.4107 23.5796C28.5744 23.8045 28.7686 23.9403 28.9958 23.9716C29.2206 24.0072 29.4253 23.9657 29.5968 23.8402C29.7682 23.7147 29.8773 23.5397 29.9129 23.3148Z" fill="white"/>
<path id="Vector_6" d="M30.6879 21.2594C30.566 21.0288 30.5606 20.7768 30.6715 20.5141C30.7868 20.2538 31.0065 20.0264 31.3322 19.8605C31.6582 19.6837 31.9662 19.6247 32.2476 19.6791C32.5291 19.7335 32.7469 19.8873 32.9077 20.1494L32.2071 20.5217C32.0717 20.3062 31.871 20.2667 31.6117 20.4012C31.4875 20.4686 31.3893 20.5497 31.3523 20.6409C31.3152 20.7321 31.3089 20.8174 31.3529 20.9126C31.4013 20.9991 31.4923 21.0471 31.6262 21.0347C31.7645 21.0246 31.9096 21.0015 32.0793 20.9527C32.2491 20.9039 32.4145 20.8527 32.5905 20.8238C32.7709 20.7861 32.9329 20.7941 33.0959 20.8524C33.2612 20.9065 33.3943 21.0321 33.489 21.2094C33.6216 21.4512 33.6161 21.703 33.4942 21.9654C33.3679 22.2255 33.1508 22.4376 32.8228 22.6078C32.5057 22.7783 32.202 22.8395 31.9181 22.8004C31.6341 22.7613 31.4076 22.6029 31.2384 22.3253L31.939 21.953C32.0876 22.1644 32.2883 22.2039 32.5543 22.0674C32.6784 22 32.7657 21.9187 32.8182 21.819C32.8708 21.7194 32.8684 21.6295 32.8159 21.5298C32.772 21.4346 32.6721 21.393 32.5361 21.3987C32.4002 21.4045 32.2528 21.4319 32.083 21.4808C31.9132 21.5296 31.7478 21.5807 31.5696 21.614C31.3978 21.6563 31.2272 21.6437 31.0619 21.5897C30.8966 21.5357 30.7719 21.4256 30.6729 21.2459L30.6905 21.2441L30.6879 21.2594Z" fill="white"/>
<path id="Vector_7" d="M35.1461 21.4366L32.9772 19.0511L33.7968 18.7472L35.2828 20.5063L35.2922 18.1908L36.0499 17.9096L35.8416 22.784L35.0839 23.0652L35.1548 21.4412L35.1505 21.4389L35.1461 21.4366Z" fill="white"/>
<path id="Vector_8" d="M39.3819 17.6413C39.55 17.2704 39.8352 17.0554 40.2506 16.9923C40.6615 16.9378 41.0255 17.0247 41.3354 17.2769C41.6476 17.5248 41.8303 17.8815 41.9014 18.3344C41.9659 18.7894 41.8849 19.1841 41.6563 19.5121C41.4278 19.84 41.1146 20.0347 40.7058 20.0958C40.2992 20.1525 39.9518 20.0134 39.6764 19.6853L39.7462 20.1929L38.9792 20.3031L38.3977 16.2744L39.1647 16.1643L39.3753 17.6433L39.3819 17.6413ZM40.9811 19.1335C41.1144 18.9546 41.1655 18.7213 41.1234 18.4443C41.0813 18.1674 40.9719 17.9656 40.7952 17.828C40.6163 17.6948 40.4159 17.6444 40.2071 17.6727C39.9984 17.7009 39.8165 17.8042 39.6876 17.9854C39.5521 18.1687 39.5055 18.3933 39.5476 18.6703C39.5854 18.945 39.6969 19.1534 39.8758 19.2866C40.0547 19.4198 40.2551 19.4702 40.4682 19.4442C40.677 19.416 40.8568 19.306 40.9923 19.1228L40.9855 19.1358L40.9811 19.1335Z" fill="white"/>
<path id="Vector_9" d="M43.8722 19.8896C43.4253 19.8863 43.0692 19.7426 42.7885 19.456C42.5078 19.1694 42.3717 18.7874 42.3734 18.312C42.3751 17.8366 42.5127 17.4606 42.795 17.1777C43.0773 16.8947 43.442 16.7494 43.8845 16.7504C44.3313 16.7537 44.6984 16.8976 44.9816 17.1689C45.2646 17.4512 45.4099 17.8159 45.4041 18.2781C45.3973 18.3853 45.3908 18.4815 45.38 18.5755L43.1587 18.5659C43.1806 18.7658 43.2472 18.9228 43.3759 19.0461C43.5047 19.1695 43.6677 19.2278 43.8671 19.2278C44.1365 19.2316 44.3316 19.1242 44.4592 18.9035L45.2982 18.9089C45.2107 19.2005 45.0411 19.4378 44.7831 19.6117C44.5295 19.788 44.2228 19.8864 43.8635 19.885L43.8679 19.8873L43.8722 19.8896ZM44.3917 17.5941C44.2563 17.4728 44.0846 17.4099 43.8962 17.4101C43.6968 17.4101 43.5378 17.4701 43.4058 17.5943C43.2761 17.7141 43.1981 17.8723 43.1673 18.0775L44.6066 18.0786C44.598 17.8747 44.5204 17.7174 44.3873 17.5918L44.3917 17.5941Z" fill="white"/>
<path id="Vector_10" d="M47.1638 20.1265C46.7271 20.0621 46.3874 19.8662 46.1536 19.5434C45.9197 19.2205 45.8365 18.8222 45.9059 18.3549C45.9754 17.8875 46.1652 17.5281 46.4837 17.2919C46.8022 17.0557 47.1789 16.9611 47.6243 17.0301C48.0611 17.0945 48.4073 17.2883 48.648 17.5982C48.8974 17.9126 48.9743 18.3021 48.9117 18.7564C48.8963 18.859 48.8722 18.9571 48.8461 19.0485L46.6514 18.7262C46.6404 18.9253 46.6893 19.0951 46.8002 19.2312C46.9068 19.365 47.0604 19.4517 47.2613 19.4802C47.5277 19.5211 47.742 19.4404 47.8976 19.2401L48.7296 19.3636C48.6074 19.637 48.3946 19.8513 48.1177 19.9876C47.8406 20.1349 47.5262 20.1849 47.1704 20.1245L47.1638 20.1265ZM47.9989 17.9256C47.8793 17.785 47.7257 17.6983 47.5334 17.6744C47.3434 17.6461 47.1719 17.6773 47.0228 17.7814C46.876 17.8811 46.7807 18.0302 46.7216 18.2261L48.1497 18.4372C48.1696 18.2317 48.1185 18.0663 47.9989 17.9256Z" fill="white"/>
<path id="Vector_11" d="M50.7093 17.7006L50.5706 18.2255C50.8692 17.9013 51.2069 17.7861 51.5793 17.8885L51.3806 18.6531L51.1954 18.6052C50.971 18.5477 50.7956 18.5548 50.647 18.6369C50.5007 18.7148 50.398 18.8987 50.3263 19.171L49.9388 20.65L49.1851 20.4516L49.9622 17.5001L50.7159 17.6986L50.7116 17.6963L50.7093 17.7006Z" fill="white"/>
<path id="Vector_12" d="M55.1309 19.2923L54.8706 19.8693L54.4388 19.6801L53.4828 21.9003L52.7774 21.5999L53.7334 19.3798L53.4341 19.2439L53.6834 18.6666L53.9828 18.8025L54.0541 18.6463C54.204 18.3101 54.3903 18.1039 54.6418 18.0262C54.889 17.9462 55.1968 17.9924 55.5853 18.1587L55.3312 18.7556C55.1837 18.6888 55.0701 18.6731 54.9795 18.7084C54.8912 18.7393 54.8258 18.8211 54.7659 18.9556L54.6945 19.1118L55.1416 19.3035L55.1286 19.2966L55.1309 19.2923Z" fill="white"/>
<path id="Vector_13" d="M54.7239 22.035C54.6101 21.6316 54.6649 21.2341 54.9017 20.8274C55.1342 20.4185 55.4509 20.1648 55.8541 20.0619C56.255 19.9634 56.6568 20.0205 57.0375 20.2436C57.4182 20.4667 57.6765 20.7747 57.7992 21.1718C57.9219 21.5688 57.8648 21.9707 57.628 22.3773C57.3955 22.7863 57.0722 23.0421 56.669 23.1449C56.2658 23.2477 55.8662 23.1863 55.4766 22.9696C55.0827 22.7506 54.8377 22.4385 54.7216 22.0394L54.7239 22.035ZM55.807 22.3963C55.9952 22.5013 56.1918 22.5275 56.4145 22.4623C56.6306 22.3992 56.8072 22.2431 56.9487 21.9855C57.0922 21.7346 57.1391 21.499 57.0802 21.2852C57.0237 21.067 56.9044 20.9154 56.7097 20.8016C56.5171 20.6944 56.3248 20.6704 56.111 20.7292C55.9015 20.7903 55.7271 20.953 55.5812 21.2083C55.4354 21.4636 55.3885 21.6992 55.4453 21.9064C55.4932 22.1199 55.6169 22.2738 55.8072 22.3854L55.807 22.3963Z" fill="white"/>
<path id="Vector_14" d="M59.7082 22.0355L59.3897 22.471C59.7861 22.276 60.1406 22.297 60.453 22.5339L59.9833 23.172L59.8281 23.0569C59.6405 22.9191 59.4686 22.8671 59.3038 22.8854C59.1435 22.9059 58.974 23.038 58.807 23.26L57.9013 24.4932L57.2761 24.0303L59.0874 21.5748L59.7125 22.0378L59.7082 22.0355Z" fill="white"/>
<path id="Vector_15" d="M60.9981 27.3132C60.6985 26.9889 60.5509 26.6285 60.5729 26.2303C60.5905 25.8298 60.7759 25.468 61.1182 25.1447C61.4606 24.8214 61.8321 24.6631 62.2372 24.6721C62.6357 24.6831 62.9914 24.8486 63.2909 25.1729C63.5992 25.5018 63.7424 25.8599 63.7381 26.2563C63.7314 26.6571 63.5615 27.0104 63.2237 27.3251C63.1454 27.4 63.0696 27.4597 62.9918 27.5127L61.4654 25.8929C61.3306 26.0433 61.2679 26.204 61.2684 26.3815C61.2689 26.5589 61.3355 26.716 61.4704 26.8592C61.6567 27.0517 61.872 27.1265 62.1143 27.0662L62.6902 27.6748C62.42 27.809 62.1277 27.8486 61.8224 27.7871C61.517 27.7256 61.24 27.5683 60.9917 27.3043L60.9961 27.3066L60.9981 27.3132ZM63.0272 26.1026C63.0204 25.9162 62.9517 25.7526 62.8189 25.616C62.684 25.4728 62.5302 25.3971 62.3529 25.3867C62.178 25.3718 62.0036 25.4293 61.8388 25.5528L62.8234 26.6042C62.9625 26.4561 63.0275 26.291 63.0227 26.1113L63.0272 26.1026Z" fill="white"/>
<path id="Vector_16" d="M64.6549 26.7235L65.1352 27.3979L63.6468 29.4201L66.0447 28.6755L66.5249 29.3499L63.3885 30.2031L62.8233 29.4063L64.6593 26.7258L64.6549 26.7235Z" fill="white"/>
<path id="Vector_17" d="M64.7397 32.5727C64.5358 32.1826 64.4984 31.7918 64.6164 31.411C64.7453 31.0305 65.0168 30.7363 65.438 30.5156C65.8591 30.2948 66.2611 30.2467 66.6442 30.3604C67.025 30.4783 67.315 30.7366 67.5276 31.1313C67.7402 31.526 67.7819 31.9191 67.6706 32.2978C67.5569 32.6809 67.2984 32.9819 66.8884 33.1919C66.793 33.2468 66.7047 33.2777 66.6141 33.313L65.5841 31.3404C65.4174 31.4462 65.3091 31.5885 65.2594 31.7561C65.2141 31.9259 65.23 32.095 65.3268 32.279C65.4551 32.5184 65.6409 32.6386 65.8991 32.6531L66.2814 33.3976C65.9843 33.4568 65.6983 33.4111 65.4166 33.2734C65.1371 33.1314 64.9186 32.9053 64.7461 32.5816L64.7397 32.5727ZM67.0143 31.9569C67.0576 31.7804 67.0352 31.6024 66.9449 31.4274C66.8522 31.2566 66.7212 31.1376 66.5582 31.0793C66.3908 31.0186 66.2111 31.0234 66.0189 31.0936L66.6873 32.3769C66.8583 32.2733 66.9709 32.1334 67.0165 31.9526L67.0143 31.9569Z" fill="white"/>
<path id="Vector_18" d="M68.7744 34.0157L68.2708 34.2039C68.7101 34.2531 68.9968 34.4653 69.1334 34.8255L68.3933 35.1049L68.3249 34.9303C68.2375 34.7181 68.1268 34.571 67.975 34.5019C67.8232 34.4329 67.619 34.4525 67.3518 34.5495L65.9199 35.1007L65.638 34.3759L68.4838 33.2863L68.7615 34.0088L68.7744 34.0157Z" fill="white"/>
<path id="Vector_19" d="M66.6619 37.148L69.2671 35.2447L69.4808 36.0885L67.5747 37.3806L69.8826 37.6353L70.0865 38.4241L65.2629 37.6999L65.059 36.9111L66.6619 37.148Z" fill="white"/>
<path id="Vector_20" d="M67.5733 39.6898C67.828 39.3646 68.1959 39.1711 68.655 39.1199C69.1249 39.069 69.5169 39.1762 69.8352 39.4439C70.1536 39.7117 70.3386 40.0641 70.3857 40.5099C70.4351 40.9513 70.3345 41.3413 70.0841 41.6687C69.8314 42.0006 69.4744 42.1942 69.0045 42.2452C68.5345 42.2962 68.1425 42.189 67.8198 41.9189C67.4972 41.6489 67.3078 41.2942 67.2607 40.8484C67.2136 40.4026 67.3119 40.017 67.5666 39.6918L67.5733 39.6898ZM67.9175 40.7687C67.9455 40.9884 68.0425 41.1614 68.2148 41.2967C68.3871 41.4319 68.6313 41.4833 68.9124 41.4545C69.2044 41.4259 69.4192 41.3233 69.5544 41.151C69.694 40.981 69.7531 40.7851 69.7271 40.572C69.6991 40.3523 69.6021 40.1793 69.4298 40.044C69.2553 39.9131 69.022 39.862 68.73 39.8906C68.438 39.9192 68.2232 40.0218 68.0836 40.1918C67.942 40.3552 67.8852 40.5467 67.9088 40.7641L67.9218 40.771L67.9175 40.7687Z" fill="white"/>
<path id="Vector_21" d="M70.5094 43.7813L70.0562 43.7691C70.3803 43.9735 70.5353 44.2989 70.5236 44.7303C70.5115 45.0784 70.3871 45.356 70.1457 45.572C69.9043 45.7879 69.5867 45.8861 69.1795 45.8705L67.3866 45.8047L67.4168 45.0342L69.1002 45.0976C69.3365 45.1116 69.5218 45.0543 69.6558 44.9368C69.7898 44.8193 69.8525 44.6585 69.8658 44.4551C69.8704 44.247 69.8172 44.075 69.6972 43.9562C69.5707 43.8285 69.3947 43.7633 69.1584 43.7493L67.475 43.6859L67.5031 42.9088L70.5437 43.0241L70.5156 43.8012L70.5094 43.7813Z" fill="white"/>
<path id="Vector_22" d="M67.0197 47.7267C67.1017 47.2882 67.306 46.9641 67.6395 46.7414C67.9731 46.5187 68.3712 46.4464 68.8403 46.5335C69.3051 46.6182 69.6555 46.8253 69.8804 47.1545C70.1054 47.4837 70.1802 47.8666 70.1048 48.3031C70.0229 48.7416 69.8226 49.079 69.4998 49.3129C69.177 49.5467 68.7832 49.6213 68.3316 49.5325C68.2247 49.5148 68.1332 49.4887 68.0418 49.4625L68.4494 47.2741C68.2525 47.2588 68.0807 47.301 67.9382 47.403C67.7958 47.5051 67.7048 47.6564 67.6719 47.8551C67.6267 48.1192 67.6964 48.3332 67.8856 48.4995L67.7338 49.3221C67.4673 49.187 67.2595 48.9721 67.1255 48.6909C66.9872 48.4074 66.957 48.0869 67.0195 47.7377L67.0238 47.74L67.0197 47.7267ZM69.1927 48.6357C69.3397 48.525 69.4287 48.367 69.4613 48.1793C69.4939 47.9917 69.4649 47.8157 69.3695 47.6712C69.2787 47.5181 69.1276 47.4161 68.934 47.3527L68.677 48.7733C68.8802 48.7975 69.0497 48.7596 69.1904 48.64L69.1927 48.6357Z" fill="white"/>
</g>
<path id="Vector_23" d="M20.3283 51.7948C20.279 51.6469 20.1959 51.5421 20.0965 51.4786C19.9862 51.4148 19.8703 51.4035 19.74 51.451C19.612 51.4942 19.514 51.5643 19.4637 51.6596C19.4134 51.7549 19.3848 51.8616 19.3798 51.9864C19.3792 52.1134 19.3873 52.245 19.3994 52.3899C19.4138 52.5304 19.4194 52.6773 19.4206 52.822C19.4217 52.9666 19.4077 53.1087 19.3806 53.2439C19.3535 53.3792 19.2895 53.5004 19.1885 53.6077C19.0853 53.7194 18.941 53.8038 18.7644 53.8657C18.464 53.973 18.1692 53.9336 17.8703 53.7758C17.5714 53.6181 17.3565 53.3329 17.2162 52.9377C17.0782 52.5381 17.0661 52.1938 17.1671 51.8871C17.268 51.5805 17.4852 51.3684 17.8273 51.2554L18.0948 52.0391C17.7895 52.1769 17.6879 52.4113 17.8008 52.7534C17.8563 52.9211 17.9458 53.0348 18.0691 53.1054C18.1947 53.1718 18.3238 53.179 18.4651 53.1317C18.613 53.0824 18.705 52.9815 18.7392 52.8223C18.78 52.6611 18.7882 52.4882 18.764 52.2926C18.7399 52.0971 18.7289 51.8975 18.7269 51.6915C18.7249 51.4855 18.7707 51.2938 18.8734 51.1098C18.9737 50.9302 19.1498 50.796 19.3926 50.7138C19.7237 50.6006 20.0255 50.6269 20.3065 50.7975C20.5876 50.968 20.7875 51.2397 20.9193 51.6194C21.0512 51.9991 21.0681 52.3238 20.9763 52.6131C20.8845 52.9025 20.6673 53.1146 20.3245 53.2604L20.0465 52.4546C20.1816 52.3874 20.2711 52.3018 20.3262 52.1869C20.3727 52.0674 20.3756 51.936 20.3263 51.7882L20.3306 51.7904L20.3283 51.7948Z" fill="white"/>
<path id="Vector_24" d="M18.9077 56.8374C18.6512 56.3476 18.5964 55.8534 18.7457 55.3397C18.9015 54.8348 19.2234 54.4454 19.731 54.1762C20.2343 53.9047 20.7458 53.859 21.2461 54.0234C21.7486 54.1834 22.1335 54.514 22.39 55.0038C22.6464 55.4937 22.7013 55.9878 22.5432 56.497C22.3875 57.0018 22.0656 57.3913 21.5536 57.6582C21.0503 57.9297 20.5389 57.9754 20.0363 57.8153C19.5337 57.6553 19.1532 57.327 18.8924 56.8349L18.9054 56.8417L18.9077 56.8374ZM20.234 57.0945C20.5389 57.1779 20.8576 57.1302 21.1989 56.9559C21.5358 56.7793 21.7557 56.5409 21.8544 56.2386C21.9508 55.9406 21.9202 55.6419 21.7584 55.3295C21.5966 55.017 21.3598 54.8255 21.0595 54.7335C20.7546 54.6501 20.4338 54.6912 20.0969 54.8678C19.76 55.0444 19.5401 55.2827 19.4414 55.5851C19.3427 55.8874 19.3711 56.1904 19.5329 56.5029C19.6947 56.8153 19.9314 57.0068 20.2363 57.0902L20.234 57.0945Z" fill="white"/>
<path id="Vector_25" d="M23.4917 57.07L24.4193 58.3239C24.6534 58.6358 24.7627 58.9427 24.743 59.2424C24.7232 59.5422 24.602 59.7717 24.366 59.9462C24.0207 60.2014 23.6424 60.1734 23.2264 59.8597C23.3507 60.0859 23.3808 60.3122 23.3253 60.5432C23.2721 60.7699 23.1473 60.9643 22.9537 61.1002C22.713 61.2833 22.4491 61.3323 22.1658 61.2603C21.8783 61.1861 21.6239 60.9964 21.3898 60.6845L20.4069 59.3571L23.4917 57.07ZM21.3496 59.6277L21.8178 60.2514C21.9178 60.3873 22.0386 60.4732 22.1782 60.5026C22.3134 60.5296 22.4521 60.4976 22.5814 60.3997C22.7149 60.3041 22.7856 60.1808 22.7997 60.0387C22.8137 59.8966 22.7665 59.7553 22.6665 59.6195L22.2026 58.998L21.3473 59.632L21.3496 59.6277ZM23.4858 58.036L22.6882 58.6341L23.1032 59.1909C23.2031 59.3268 23.3239 59.4127 23.4526 59.4418C23.5812 59.471 23.7089 59.4387 23.8382 59.3408C23.9651 59.2472 24.0312 59.1325 24.043 58.9948C24.0525 58.8613 24.0029 58.7244 23.903 58.5886L23.488 58.0317L23.4858 58.036Z" fill="white"/>
<path id="Vector_26" d="M27.12 61.3499L26.6902 61.7654L25.6898 60.7334L24.9668 61.4317L25.8534 62.3538L25.4236 62.7694L24.5324 61.8559L23.7669 62.5926L24.7672 63.6247L24.3374 64.0402L22.7907 62.4484L25.5621 59.7688L27.1042 61.3693L27.1111 61.3563L27.12 61.3499Z" fill="white"/>
<path id="Vector_27" d="M26.7134 64.0598L25.7559 65.2546L25.1532 64.7703L27.5484 61.7647L28.6484 62.65C28.9973 62.9227 29.1965 63.2273 29.2419 63.5503C29.294 63.8714 29.2131 64.161 29.0103 64.4194C28.8549 64.6087 28.6593 64.7381 28.4187 64.816C28.1739 64.8917 27.9052 64.8551 27.6102 64.7215L27.3899 66.5657L26.673 65.9934L26.9048 64.2218L26.7111 64.0641L26.7134 64.0598ZM27.7838 62.7141L27.0874 63.5926L27.5846 63.9936C27.7376 64.1131 27.8853 64.1689 28.0281 64.1501C28.173 64.138 28.2974 64.0597 28.4011 63.9261C28.5092 63.7949 28.5518 63.6512 28.5397 63.5064C28.5275 63.3615 28.4362 63.2302 28.2899 63.1087L27.7927 62.7078L27.7883 62.7055L27.7838 62.7141Z" fill="white"/>
<path id="Vector_28" d="M35.2698 66.4942L33.6224 69.961L32.9264 69.6324L33.9739 67.4383L31.9899 69.1823L31.489 68.9456L31.5865 66.3165L30.5459 68.4976L29.8456 68.1666L31.4929 64.6998L32.2712 65.0719L32.1677 68.174L34.5065 66.1356L35.2848 66.5077L35.2718 66.5008L35.2698 66.4942Z" fill="white"/>
<path id="Vector_29" d="M37.2382 71.0223L37.1848 70.2631L35.7455 69.8632L35.3154 70.4891L34.5248 70.2767L36.8598 66.9236L37.7505 67.1667L38.0331 71.237L37.2471 71.0159L37.2382 71.0223ZM36.0985 69.3518L37.1525 69.6423L37.0497 67.9487L36.1008 69.3475L36.0985 69.3518Z" fill="white"/>
<path id="Vector_30" d="M39.8562 69.9561L39.665 71.4723L38.8959 71.3765L39.3678 67.5661L40.7704 67.7416C41.2097 67.7907 41.5348 67.9513 41.7528 68.1993C41.9621 68.4427 42.0521 68.7339 42.0077 69.0593C41.9805 69.2997 41.8794 69.5122 41.7042 69.7077C41.5379 69.8968 41.2877 70.014 40.9649 70.0485L41.7428 71.7329L40.8273 71.6207L40.103 69.9922L39.8539 69.9604L39.8562 69.9561ZM40.0691 68.2519L39.9349 69.3663L40.5642 69.4437C40.7565 69.4677 40.9061 69.4359 41.0242 69.3487C41.1356 69.2635 41.2065 69.1293 41.23 68.9589C41.2534 68.7885 41.2151 68.6409 41.1276 68.5338C41.0401 68.4267 40.8972 68.3513 40.6983 68.3294L40.0691 68.2519Z" fill="white"/>
<path id="Vector_31" d="M43.5646 71.7643L42.7888 71.7757L42.7137 67.9313L43.4895 67.9199L43.5239 69.6383L44.8769 67.8936L45.8918 67.8699L44.258 69.8319L45.9669 71.7143L44.9609 71.7316L43.5389 70.0505L43.5735 71.7579L43.5692 71.7557L43.5646 71.7643Z" fill="white"/>
<path id="Vector_32" d="M48.4336 67.4616L48.5214 68.0506L47.0924 68.2711L47.2479 69.2669L48.5119 69.0758L48.5997 69.6648L47.3357 69.856L47.4966 70.9046L48.9255 70.6842L49.0133 71.2733L46.8194 71.6105L46.2417 67.8054L48.4356 67.4682L48.4313 67.4659L48.4336 67.4616Z" fill="white"/>
<path id="Vector_33" d="M48.9781 67.9819L48.8221 67.4066L51.5622 66.6433L51.7182 67.2186L50.7173 67.4988L51.586 70.6268L50.8453 70.8339L49.9766 67.7059L48.9804 67.9775L48.9781 67.9819Z" fill="white"/>
<path id="Vector_34" d="M28.7761 72.0712C44.4249 80.332 63.8037 74.3403 72.0622 58.6958C80.3207 43.0514 74.338 23.6662 58.6891 15.4054C43.0403 7.14461 23.6615 13.1363 15.403 28.7808C7.14452 44.4253 13.1339 63.8084 28.7784 72.0669L28.7761 72.0712Z" stroke="#FF0000" stroke-miterlimit="10"/>
<g id="Group_4">
<path id="Vector_35" d="M47.4105 44.3978C46.9167 44.1372 46.7195 43.5457 46.9664 43.0779L48.5509 40.0763C48.7978 39.6086 49.3975 39.4378 49.8913 39.6984C50.385 39.9591 50.5823 40.5505 50.3354 41.0183L48.7509 44.0199C48.504 44.4877 47.9043 44.6585 47.4105 44.3978Z" fill="black"/>
<path id="Vector_36" d="M34.4063 44.8098C34.7098 45.4518 35.1418 46.0288 35.6008 46.5757C36.9218 48.1647 38.4612 49.592 40.2318 50.6652C42.0024 51.7383 44.0112 52.4443 46.0743 52.5752C46.9472 52.6317 47.8401 52.5769 48.6594 52.2839C49.4809 51.9866 50.2293 51.4291 50.6299 50.6492C51.0808 49.774 50.9823 48.6808 50.4858 47.8483C49.8709 46.8204 48.7797 46.4326 47.6285 46.5781C46.9584 46.6619 46.2885 46.8399 45.62 46.7529C45.1743 46.6949 44.7553 46.5235 44.352 46.3327C43.3719 45.8708 42.4495 45.2786 41.6237 44.5768C41.2753 44.2822 40.9426 43.9681 40.6458 43.6176C39.8857 42.7179 39.3721 41.5717 38.3895 40.9256C37.666 40.4496 36.7314 40.3107 35.9063 40.5729C35.0811 40.8351 34.398 41.5102 34.1454 42.3349C33.912 43.0812 34.0319 43.9033 34.3337 44.6219C34.3608 44.6861 34.3901 44.7459 34.4172 44.81L34.4063 44.8098Z" fill="black"/>
<g id="Clip path group_2">
<mask id="mask1_2218_30550" style="mask-type:luminance" maskUnits="userSpaceOnUse" x="33" y="40" width="18" height="13">
<g id="clippath-1">
<path id="Vector_37" d="M34.3921 44.8139C35.8939 47.3511 38.0731 49.4652 40.6373 50.913C43.05 52.2807 46.2573 53.276 48.9511 52.1283C49.681 51.8157 50.272 51.441 50.6561 50.7133C50.9876 50.0853 51.106 49.1897 50.8625 48.5073C50.3797 47.1559 48.7278 45.9627 47.2416 46.5959C47.1841 46.6209 46.5473 46.8829 46.5264 46.8386C46.9485 46.7735 47.0078 46.766 46.7003 46.803C46.5773 46.8157 46.45 46.826 46.3229 46.8254C46.1936 46.8291 46.0688 46.8242 45.9441 46.8192C46.3747 46.8638 46.4338 46.8673 46.117 46.8274C45.9272 46.7882 45.735 46.7642 45.5475 46.7206C45.2946 46.6647 45.0488 46.5848 44.8007 46.5092C44.4963 46.4039 44.5549 46.4293 44.9854 46.579C44.8573 46.528 44.7291 46.4769 44.6076 46.4239C44.1085 46.2047 43.6232 45.9596 43.1539 45.6841C42.9332 45.5566 42.726 45.414 42.5077 45.2821C42.2358 45.0943 42.2658 45.1212 42.6045 45.3609C42.4881 45.2773 42.3696 45.187 42.2554 45.0991C41.8247 44.761 41.4163 44.4014 41.0327 44.0161C40.8504 43.8368 40.677 43.6512 40.5037 43.4655C40.4053 43.3582 40.3091 43.2465 40.2174 43.1371C40.4627 43.4383 40.4818 43.465 40.2836 43.2109C39.9414 42.7367 39.6121 42.2693 39.3144 41.7633C38.5413 40.458 36.598 39.9638 35.33 40.8341C34.0132 41.7339 33.5793 43.4267 34.4008 44.8184L34.3921 44.8139Z" fill="white"/>
</g>
</mask>
<g mask="url(#mask1_2218_30550)">
<g id="Group_5">
<path id="Vector_38" d="M35.6091 53.293C37.9175 52.5289 39.5045 53.2891 40.2225 55.601C41.1002 58.418 45.1744 54.8755 44.3051 52.0739C43.1432 48.337 39.9722 46.6853 36.2181 47.9323C33.424 48.8609 32.7841 54.2275 35.6091 53.293Z" fill="#FF0000"/>
</g>
</g>
</g>
<path id="Vector_39" d="M41.5726 41.3158C41.0789 41.0551 40.8816 40.4636 41.1285 39.9958L42.713 36.9943C42.9599 36.5265 43.5596 36.3557 44.0534 36.6163C44.5471 36.877 44.7444 37.4685 44.4975 37.9363L42.913 40.9378C42.6661 41.4056 42.0664 41.5764 41.5726 41.3158Z" fill="black"/>
</g>
<path id="Vector_40" d="M21.6421 31.083C22.3526 31.458 23.2325 31.1861 23.6076 30.4756C23.9826 29.7652 23.7107 28.8852 23.0003 28.5102C22.2898 28.1352 21.4098 28.4071 21.0348 29.1175C20.6598 29.828 20.9317 30.7079 21.6421 31.083Z" fill="white"/>
<path id="Vector_41" d="M66.1089 55.0657C66.8194 55.4408 67.6993 55.1688 68.0744 54.4584C68.4494 53.7479 68.1775 52.868 67.467 52.493C66.7566 52.1179 65.8766 52.3898 65.5016 53.1003C65.1266 53.8107 65.3985 54.6907 66.1089 55.0657Z" fill="white"/>
</g>
</g>
</g>
</g>
</svg>
