<svg width="34" height="31" viewBox="0 0 34 31" fill="none" xmlns="http://www.w3.org/2000/svg">
<g id="Group">
<path id="Vector" d="M15.5018 0.602293L13.1858 0L11.1495 1.26553L8.7583 1.37308L7.18087 3.17995L4.92587 3.983L3.9579 6.18064L2.04348 7.62184L1.75668 10.0059L0.347751 11.949L0.774374 14.308L0 16.5845L1.10778 18.714L1.0325 21.1124L2.70672 22.8189L3.34845 25.1348L5.45288 26.2749L6.73991 28.2969L9.09171 28.7593L10.9129 30.3117L13.297 30.0571L15.5018 31L17.6994 30.0571L20.0835 30.3117L21.9047 28.7593L24.2565 28.2969L25.5435 26.2749L27.648 25.1348L28.2897 22.8189L29.9639 21.1124L29.8922 18.714L31 16.5845L30.2256 14.308L30.6523 11.949L29.2433 10.0059L28.9565 7.62184L27.0385 6.18064L26.0705 3.983L23.812 3.17995L22.2345 1.37308L19.8433 1.26553L17.807 0L15.4982 0.602293H15.5018Z" fill="#0D64FF"/>
<path id="Vector_2" d="M22.2272 19.5529C22.2272 18.5885 21.4385 17.8106 20.4705 17.8106C19.5026 17.8106 18.7139 18.5885 18.7139 19.5529" stroke="black" stroke-miterlimit="10"/>
<path id="Vector_3" d="M24.0094 14.6736L19.7289 12.6122C18.4884 12.0171 18.915 10.1421 20.2881 10.1421H31.1258C32.5024 10.1421 32.929 12.0171 31.685 12.6122L27.4045 14.6736C26.3289 15.1899 25.0813 15.1899 24.0058 14.6736H24.0094Z" fill="black"/>
<g id="Group_2">
<g id="Group_3">
<path id="Vector_4" d="M27.0996 8.99135L27.5298 8.56114L33.1942 14.2435L32.764 14.6737L27.0996 8.99135Z" fill="white"/>
<path id="Vector_5" d="M25.4902 8.99517L25.9204 8.56496L31.5848 14.2473L31.1546 14.6775L25.4902 8.99517Z" fill="white"/>
</g>
</g>
<path id="Vector_6" d="M13.3942 14.6736L9.11362 12.6122C7.87319 12.0171 8.29981 10.1421 9.67289 10.1421H20.5105C21.8872 10.1421 22.3138 12.0171 21.0698 12.6122L16.7892 14.6736C15.7137 15.1899 14.4661 15.1899 13.3906 14.6736H13.3942Z" fill="black"/>
<g id="Group_4">
<g id="Group_5">
<path id="Vector_7" d="M16.4727 8.99849L16.9029 8.56828L22.5673 14.2506L22.137 14.6808L16.4727 8.99849Z" fill="white"/>
<path id="Vector_8" d="M14.874 8.99492L15.3042 8.56471L20.9686 14.247L20.5384 14.6772L14.874 8.99492Z" fill="white"/>
</g>
</g>
</g>
</svg>
