<svg width="375" height="401" viewBox="0 0 375 401" fill="none" xmlns="http://www.w3.org/2000/svg">
<path d="M299.321 300.293C354.54 245.074 354.54 155.547 299.321 100.328C244.102 45.1097 154.575 45.1097 99.3566 100.328C44.1379 155.547 44.138 245.074 99.3566 300.293C154.575 355.511 244.102 355.511 299.321 300.293Z" fill="url(#paint0_radial_1766_25370)"/>
<path d="M283.017 283.988C329.231 237.774 329.231 162.847 283.017 116.633C236.803 70.4187 161.875 70.4187 115.661 116.633C69.447 162.847 69.447 237.774 115.661 283.988C161.875 330.202 236.803 330.202 283.017 283.988Z" fill="url(#paint1_radial_1766_25370)"/>
<path style="mix-blend-mode:screen" opacity="0.34" d="M308.787 181.088C311.543 196.769 310.861 212.611 305.605 227.705C301.562 239.315 292.377 246.512 281.828 252.07C275.995 255.148 269.073 257.023 262.804 254.968C257.899 253.358 254.054 249.589 250.408 245.924C240.911 236.37 231.479 226.711 223.042 216.21C215.95 207.375 209.226 197.65 199.198 192.385C189.843 187.48 178.858 187.12 168.631 184.506C161.397 182.66 154.475 179.639 148.187 175.615C144.57 173.285 141.075 170.539 138.86 166.855C135.867 161.875 135.517 155.776 135.706 149.972C136.038 139.792 136.729 130.228 142.401 121.63C147.742 113.524 154.929 106.687 163.111 101.498C175.004 93.951 189.909 88.6861 204.028 89.2732C255.55 91.4038 299.857 130.351 308.768 181.097L308.787 181.088Z" fill="url(#paint2_radial_1766_25370)"/>
<path style="mix-blend-mode:screen" opacity="0.34" d="M292.358 164.677C294.375 176.164 293.873 187.782 290.028 198.852C287.064 207.365 280.332 212.639 272.605 216.711C268.334 218.965 263.249 220.338 258.656 218.842C255.058 217.668 252.246 214.903 249.575 212.213C242.615 205.206 235.703 198.132 229.519 190.434C224.32 183.957 219.387 176.826 212.039 172.972C205.183 169.374 197.134 169.118 189.634 167.196C184.331 165.842 179.256 163.636 174.654 160.672C172.002 158.967 169.446 156.95 167.817 154.252C165.62 150.606 165.364 146.127 165.506 141.875C165.743 134.413 166.254 127.406 170.412 121.099C174.322 115.162 179.597 110.143 185.591 106.337C194.303 100.807 205.23 96.9431 215.58 97.3787C253.344 98.9411 285.824 127.482 292.358 164.687V164.677Z" fill="url(#paint3_radial_1766_25370)"/>
<path style="mix-blend-mode:multiply" opacity="0.4" d="M301.05 259.816C296.126 258.557 290.028 263.481 285.615 265.299C278.39 268.282 270.73 270.289 262.889 270.45C250.229 270.706 236.99 265.574 229.784 255.157C226.603 250.555 224.718 245.214 222.303 240.167C213.525 221.882 197.058 207.441 177.779 201.125C165.232 197.016 151.283 196.05 140.507 188.417C125.849 178.039 121.247 157.604 124.703 139.972C128.008 123.107 138.367 110.92 144.986 95.7788C134.759 97.2371 122.222 109.983 115.148 117.161C106.361 126.071 98.9842 136.383 93.3973 147.586C82.1572 170.123 78.4358 195.964 82.7917 220.765C94.0981 285.137 155.44 328.147 219.813 316.841C237.123 313.801 253.685 306.907 267.993 296.699C278.722 289.048 298.456 273.424 301.05 259.797V259.816Z" fill="url(#paint4_radial_1766_25370)"/>
<path style="mix-blend-mode:multiply" opacity="0.4" d="M219.813 316.859C237.123 313.82 253.685 306.926 267.993 296.718C273.741 292.618 282.074 286.217 288.968 279.067C289.015 278.868 289.091 278.67 289.119 278.48C284.195 277.221 278.097 282.145 273.684 283.963C266.459 286.946 258.798 288.953 250.958 289.114C238.297 289.37 225.059 284.238 217.853 273.821C214.671 269.219 212.787 263.879 210.372 258.831C201.594 240.546 185.127 226.105 165.847 219.789C153.3 215.68 139.352 214.714 128.576 207.081C113.917 196.703 109.315 176.268 112.772 158.636C116.076 141.771 126.436 129.584 133.055 114.443C122.828 115.901 110.291 128.647 103.217 135.825C99.9785 139.101 96.9483 142.576 94.117 146.203C93.8802 146.667 93.6245 147.122 93.3878 147.586C82.1477 170.123 78.4263 195.964 82.7821 220.765C94.0885 285.137 155.431 328.147 219.803 316.841L219.813 316.859Z" fill="url(#paint5_radial_1766_25370)"/>
<path style="mix-blend-mode:screen" d="M257.264 128.296C254.281 134.508 242.539 135.057 231.044 129.527C219.548 123.997 212.654 114.49 215.637 108.278C218.62 102.066 230.362 101.517 241.858 107.047C253.353 112.577 260.247 122.084 257.264 128.296Z" fill="url(#paint6_radial_1766_25370)"/>
<path style="mix-blend-mode:screen" d="M282.131 149.963C279.214 152.396 273.192 149.991 268.684 144.584C264.177 139.177 262.889 132.823 265.806 130.389C268.722 127.956 274.745 130.361 279.252 135.768C283.759 141.175 285.047 147.529 282.131 149.963Z" fill="url(#paint7_radial_1766_25370)"/>
<g filter="url(#filter0_d_1766_25370)">
<path d="M266.582 136.477C265.351 135.957 263.656 134.688 262.236 133.135C261.185 131.998 260.058 130.237 259.546 128.75C258.978 127.235 259.243 126.288 259.234 126.307C259.243 126.393 260.872 127.444 262.416 127.879C263.467 128.287 265.768 129.11 267.936 130.521C269.006 131.241 270.057 132.159 270.692 133.277C271.355 134.366 267.889 137.017 266.592 136.468L266.582 136.477Z" fill="url(#paint8_linear_1766_25370)"/>
<path d="M266.052 133.135C264.054 131.828 262.539 130.682 261.686 129.764C260.815 128.845 260.569 128.277 260.569 128.277C260.569 128.277 261.061 128.826 261.961 129.527C262.861 130.228 264.13 131.051 265.484 131.904C266.828 132.737 267.463 133.513 267.444 133.76C267.406 133.996 266.999 133.769 266.061 133.135H266.052Z" fill="url(#paint9_linear_1766_25370)"/>
<path d="M270.36 136.213C269.518 134.338 269.688 133.287 270.086 132.662C270.483 132.074 271.819 131.44 273.902 131.374C275.408 131.326 277.33 132.074 278.551 132.889C279.811 133.675 280.559 134.461 280.568 134.451C280.568 134.451 279.101 135.199 278.248 135.976C277.955 136.25 277.519 136.582 277.15 136.961C276.762 137.32 276.345 137.728 275.55 138.087C274.802 138.447 273.694 138.656 272.69 138.372C271.705 138.106 270.891 137.387 270.351 136.213H270.36Z" fill="url(#paint10_linear_1766_25370)"/>
<path d="M271.639 135.067C273.409 134.149 275.218 133.495 276.582 133.694C277.917 133.817 278.58 134.196 278.58 134.167C278.58 134.167 277.803 134.101 276.724 134.262C275.635 134.385 274.442 134.944 273.23 135.635C272.017 136.298 271.023 136.222 270.739 136.005C270.446 135.768 270.739 135.455 271.629 135.067H271.639Z" fill="url(#paint11_linear_1766_25370)"/>
<path d="M271.535 137.491C273.694 136.733 276.241 138.485 278.267 140.947C278.958 141.847 279.773 143.106 280.786 144.11C281.761 145.123 282.879 145.814 282.879 145.824C282.926 145.824 280.985 146.458 278.665 145.985C277.15 145.767 273.779 144.29 271.695 142.206C269.546 140.152 270.228 137.945 271.535 137.491Z" fill="url(#paint12_linear_1766_25370)"/>
<path d="M273.902 139.489C277.642 143.513 280.284 145 280.294 145.057C280.294 145.057 279.413 144.754 278.201 144.044C276.989 143.362 275.483 142.216 274.11 140.89C272.747 139.574 272.33 138.618 272.396 138.362C272.481 138.088 272.983 138.476 273.902 139.48V139.489Z" fill="url(#paint13_linear_1766_25370)"/>
<path d="M269.622 135.758C271.071 137.084 271.61 138.154 271.156 139.224C270.692 140.237 269.281 141.402 267.302 141.828C265.9 142.15 263.817 141.79 262.406 141.109C260.986 140.446 260.143 139.717 260.133 139.735C260.133 139.726 261.459 139.158 262.397 138.552C263.325 137.936 264.092 137.065 264.934 135.645C265.787 134.224 267.709 133.988 269.622 135.758Z" fill="url(#paint14_linear_1766_25370)"/>
<path d="M268.088 137.888C266.79 139.422 265.218 140.114 264.025 140.171C262.87 140.275 262.217 139.991 262.226 140.01C262.226 140 262.927 140.047 263.817 139.754C264.736 139.47 265.834 138.864 266.667 137.907C268.466 135.881 269.527 136.468 268.088 137.888Z" fill="url(#paint15_linear_1766_25370)"/>
</g>
<path d="M246.753 43.6025C248.013 43.7729 249.187 45.7047 249.821 46.0929C250.342 46.4054 249.746 44.9945 250.371 45.4396C250.891 45.8373 252.596 48.072 253.221 48.4981C253.789 48.8959 253.334 47.5986 253.959 48.0531C254.528 48.4792 256.223 50.6193 256.838 51.0643C257.435 51.4905 257.046 50.2973 257.69 50.7519C258.296 51.1969 259.669 53.0718 260.304 53.5358C260.929 53.9809 260.844 53.0529 261.488 53.5358C262.113 53.9904 263.296 55.8369 263.95 56.3198C264.565 56.7838 264.66 55.9126 265.294 56.3956C265.881 56.8785 266.904 58.7345 267.52 59.2364C268.116 59.7288 268.419 58.886 269.016 59.4068C269.631 59.9087 270.54 61.8499 271.156 62.3613C271.743 62.8821 272.036 62.0488 272.605 62.5885C273.144 63.1377 274.025 65.1926 274.555 65.7702C275.218 66.4236 275.625 65.6471 276.231 66.3289C276.818 67.0486 277.292 69.2076 277.841 69.9557C278.409 70.6943 279.138 70.0409 279.621 70.8079C280.095 71.6033 280.303 73.6392 280.748 74.4536C281.231 75.2112 282.008 74.7661 282.415 75.5521C282.803 76.3475 282.765 78.3266 283.191 79.1125C283.636 79.8511 284.29 79.586 284.583 80.4004C284.905 81.1484 284.773 83.1654 285.076 83.9324C285.36 84.7089 285.947 84.4532 286.155 85.2676C286.373 85.9967 286.089 88.2126 286.326 88.989C286.524 89.7655 287.093 89.311 287.225 90.1443C287.367 90.8829 287.026 92.9188 287.178 93.7521C287.339 94.5097 287.888 94.1593 287.992 94.9642C288.059 95.485 287.68 97.341 288.049 100.21C288.56 104.036 290.274 107.7 293.115 110.342C295.056 112.151 296.581 112.52 297.064 112.681C297.102 112.7 297.149 112.7 297.187 112.71C297.159 112.71 297.13 112.7 297.111 112.71C297.14 112.71 297.168 112.719 297.187 112.729C297.149 112.71 297.102 112.71 297.064 112.7C296.553 112.596 295.047 112.738 292.907 112.587C290.757 112.435 287.945 112.113 283.314 111.536C280.862 111.195 279.243 111.251 278.712 111.109C277.784 110.882 277.576 110.39 276.591 110.106C275.597 109.803 273.608 109.651 272.491 109.272C271.383 108.865 271.44 108.401 270.294 107.928C269.101 107.464 266.61 106.829 265.379 106.223C264.177 105.579 264.158 105.03 262.965 104.291C261.743 103.543 259.281 102.388 258.079 101.46C256.933 100.513 257.037 99.9451 255.939 98.8561C254.859 97.7482 252.539 96.3467 251.564 95.3146C250.579 94.3013 251.033 93.8658 250.096 92.8336C249.206 91.8014 246.772 90.0212 245.986 88.9322C245.191 87.8622 245.996 87.7486 245.295 86.6501C244.613 85.5706 242.397 83.3169 241.896 82.1522C241.384 81.0253 242.341 81.3946 241.914 80.2394C241.583 79.2735 239.926 76.6126 239.727 75.6183C239.509 74.6241 240.447 75.268 240.267 74.3116C240.049 73.3457 238.846 70.6659 238.714 69.7474C238.6 68.8099 239.538 69.5674 239.433 68.6963C239.32 67.8251 238.136 65.3441 238.023 64.6055C237.89 63.8669 238.799 64.7949 238.657 64.1415C238.487 63.4786 237.36 61.1965 237.388 60.4674C237.417 59.7193 238.278 60.8272 238.401 60.0697C238.524 59.2837 238.193 56.3861 238.505 55.5339C238.837 54.6532 239.433 56.405 239.793 55.5717C240.172 54.6911 240.437 51.0833 240.92 50.2594C241.403 49.3977 241.82 51.3863 242.284 50.6288C242.776 49.8049 243.259 46.3107 243.704 45.7142C244.178 45.0513 244.481 47.0304 244.916 46.538C245.447 45.932 245.513 43.5646 246.734 43.6025H246.753ZM297.206 112.738L297.272 112.748C297.272 112.748 297.253 112.748 297.206 112.738ZM297.272 112.738C297.272 112.738 297.253 112.738 297.206 112.719C297.253 112.719 297.272 112.738 297.272 112.738Z" fill="url(#paint16_linear_1766_25370)"/>
<path d="M249.831 46.0927C250.352 46.4052 249.755 44.9942 250.38 45.4393C250.901 45.837 252.605 48.0718 253.23 48.4979C253.799 48.8956 253.344 47.5983 253.969 48.0528C254.537 48.479 256.232 50.619 256.848 51.0641C257.444 51.4902 257.056 50.2971 257.7 50.7516C258.306 51.1967 259.679 53.0716 260.313 53.5356C260.938 53.9806 260.853 53.0526 261.497 53.5356C262.122 53.9901 263.306 55.8366 263.959 56.3196C264.575 56.7836 264.669 55.9124 265.304 56.3953C265.891 56.8783 266.914 58.7342 267.529 59.2361C268.126 59.7285 268.429 58.8858 269.025 59.4066C269.641 59.9084 270.55 61.8497 271.165 62.361C271.752 62.8818 272.046 62.0485 272.614 62.5883C273.154 63.1375 274.034 65.1923 274.565 65.77C275.228 66.4234 275.635 65.6469 276.241 66.3287C276.828 67.0483 277.301 69.2073 277.851 69.9554C278.419 70.694 279.148 70.0406 279.631 70.8077C280.104 71.6031 280.313 73.639 280.758 74.4534C281.241 75.2109 282.017 74.7658 282.424 75.5518C282.813 76.3472 282.775 78.3263 283.201 79.1123C283.646 79.8509 284.299 79.5857 284.593 80.4001C284.915 81.1482 284.782 83.1651 285.085 83.9322C285.369 84.7086 285.956 84.453 286.165 85.2673C286.383 85.9965 286.098 88.2123 286.335 88.9888C286.534 89.7653 287.102 89.3107 287.235 90.1441C287.377 90.8827 287.036 92.9186 287.187 93.7519C287.348 94.5094 287.898 94.159 288.002 94.9639C288.068 95.4848 287.689 97.3407 288.059 100.21C288.589 104.168 290.407 107.994 293.447 110.617C295.454 112.378 296.922 112.605 297.196 112.719C290.397 111.81 284.167 106.696 278.883 102.729C268.751 94.8408 259.774 84.434 254.442 72.7015C250.465 63.2132 249.348 53.4314 246.734 43.5928C248.003 43.7443 249.177 45.695 249.812 46.0832L249.831 46.0927ZM297.215 112.728L297.282 112.738C297.282 112.738 297.263 112.738 297.215 112.728Z" fill="url(#paint17_linear_1766_25370)"/>
<path d="M299.213 112.728C300.425 112.88 301.193 114.045 298.124 113.495C295.388 113.079 292.471 111.923 289.299 110.143C280.237 105.087 272.463 98.0887 265.645 90.3333C255.92 78.6387 250.636 66.5464 248.676 51.689C249.727 56.8308 250.607 60.628 252.208 65.8456C255.475 75.6937 260.882 84.1593 267.595 91.9526C274.508 99.3955 282.472 106.441 291.752 110.806C294.375 112.037 297.045 112.473 299.213 112.738V112.728Z" fill="#435F0B"/>
<path d="M286.875 108.382C287.121 108.619 284.195 106.716 281.629 103.572C278.826 99.6327 277.51 96.9055 277.197 92.2182C276.875 87.5404 279.176 79.8986 280.246 78.1562C279.763 79.4725 279.176 81.2338 278.201 85.8643C277.235 90.5043 277.396 94.9833 279.328 99.2066C280.597 101.498 282.207 104.036 283.826 105.627C285.407 107.274 286.78 108.212 286.884 108.382H286.875Z" fill="#435F0B"/>
<path d="M275.872 100.39C276.033 100.665 273.533 98.3731 271.667 95.0588C269.186 91.2521 269.451 87.436 269.792 83.1274C270.512 78.2696 272.453 73.5066 274.754 69.1886C274.754 69.1696 272.983 72.8058 271.771 76.6883C270.304 81.2241 269.328 85.7315 270.218 90.8355C270.626 93.5626 272.188 95.5796 273.419 97.3504C274.659 99.1022 275.777 100.267 275.862 100.39H275.872Z" fill="#435F0B"/>
<path d="M266.421 91.1668C266.525 91.394 264.735 89.1309 263.628 86.1859C262.51 82.6254 262.823 78.7998 263.826 75.2488C264.953 71.0444 266.857 67.0105 268.997 63.2417C268.997 63.2417 267.425 66.2151 266.109 69.5956C264.489 73.5917 263.201 77.2753 263.325 82.152C263.362 84.5572 264.006 86.6878 264.792 88.3165C265.588 89.9168 266.383 91.0437 266.412 91.1763L266.421 91.1668Z" fill="#435F0B"/>
<path d="M258.552 79.8986C258.571 80.088 257.558 78.2414 257.397 75.6279C257.17 73.0144 257.87 69.6622 258.902 66.8309C260.058 63.7533 261.544 60.8084 263.211 57.9771C263.192 57.9771 262.094 60.0603 260.938 62.5697C259.49 65.7514 258.401 68.5827 257.842 72.3042C257.548 74.2454 257.634 76.073 257.889 77.4744C258.145 78.8664 258.562 79.7944 258.562 79.8986H258.552Z" fill="#435F0B"/>
<path d="M252.823 68.09C252.823 68.2321 252.369 66.8306 252.615 64.8799C252.795 62.9292 253.581 60.543 254.395 58.6396C255.588 55.7515 257.312 52.9675 257.34 52.9864C257.34 52.9864 256.601 54.2743 255.863 55.8746C255.314 56.9635 254.045 59.6434 253.287 62.4463C252.937 63.8193 252.71 65.2019 252.71 66.253C252.7 67.2946 252.842 68.0048 252.823 68.0806V68.09Z" fill="#435F0B"/>
<path d="M286.865 108.411C287.121 108.43 284.328 106.981 280.663 105.38C276.619 103.61 272.529 101.962 268.4 100.381C263.684 98.5909 258.988 96.555 254.139 95.1535C254.139 95.1346 258.164 96.6781 262.046 98.231C266.724 100.078 271.411 101.877 276.08 103.761C278.788 104.841 281.326 105.967 283.333 106.829C285.312 107.738 286.733 108.363 286.865 108.411Z" fill="#435F0B"/>
<path d="M275.938 100.324C276.193 100.428 273.656 98.4961 270.114 96.3655C266.27 94.0265 262.359 91.8107 258.457 89.5759C254.158 87.2086 249.679 85.0969 245.049 83.4303C245.068 83.4114 248.931 85.0307 252.52 86.8014C256.999 88.9888 261.279 91.555 265.607 94.0265C268.192 95.5322 270.701 96.9715 272.586 98.1741C274.508 99.3388 275.777 100.276 275.938 100.314V100.324Z" fill="#435F0B"/>
<path d="M266.667 91.0152C266.904 91.1289 264.906 89.1403 262.103 86.915C259.092 84.5003 255.938 82.2656 252.7 80.1539C249.196 77.8623 245.607 75.6654 241.905 73.6958C241.905 73.6958 244.926 75.476 247.804 77.3131C251.422 79.5857 254.973 81.9531 258.429 84.453C260.503 85.9397 262.425 87.4832 263.968 88.7426C265.521 89.9831 266.525 90.9395 266.658 91.0152H266.667Z" fill="#435F0B"/>
<path d="M258.391 79.9746C258.561 80.0882 257.33 78.3648 255.314 76.5372C253.306 74.6907 250.683 72.7211 248.391 71.064C245.039 68.6019 240.712 65.4865 240.712 65.5055C240.712 65.5055 242.805 67.0963 244.85 68.6493C246.28 69.7383 249.537 72.1056 252.586 74.5297C254.101 75.7513 255.55 77.0012 256.592 78.0523C257.634 79.094 258.306 79.9178 258.401 79.9746H258.391Z" fill="#435F0B"/>
<path d="M252.69 68.147C252.814 68.2322 252.141 66.9254 250.92 65.5618C249.689 64.1793 247.994 62.7494 246.441 61.5942C244.196 59.8613 241.053 57.9485 241.072 57.9674C241.072 57.9674 242.539 58.9712 243.969 60.0033C244.935 60.7325 247.189 62.3233 249.13 64.0941C250.124 64.9653 251.014 65.9122 251.639 66.6982C252.283 67.4746 252.634 68.0996 252.7 68.147H252.69Z" fill="#435F0B"/>
<path d="M272.444 137.548C272.614 137.283 273.864 135.55 274.622 134.65C276.118 132.822 285.095 119.802 303.617 115.285L302.66 111.185C291.818 113.429 283.513 118.571 277.747 123.438C271.052 129.092 267.785 134.262 267.671 134.527C267.548 134.802 267.605 135.853 269.556 136.989C271.336 138.021 272.273 137.813 272.434 137.548H272.444Z" fill="url(#paint18_linear_1766_25370)"/>
<path d="M302.66 111.176L302.575 112.217C291.06 115.446 284.517 119.897 278.883 124.651C272.197 130.285 269.404 134.404 268.287 135.985C267.624 135.209 267.539 134.726 267.662 134.527C269.025 132.15 273.268 127.169 277.765 123.42C283.551 118.59 291.818 113.429 302.67 111.185L302.66 111.176Z" fill="url(#paint19_linear_1766_25370)"/>
<path d="M302.528 111.185C301.941 111.327 301.694 112.369 301.979 113.515C302.263 114.661 302.973 115.465 303.56 115.314C304.147 115.172 304.403 114.13 304.119 112.984C303.835 111.839 303.124 111.034 302.528 111.185Z" fill="#85BA00"/>
<path d="M302.566 111.555C301.997 111.697 301.761 112.644 302.016 113.686C302.272 114.727 302.944 115.456 303.512 115.314C304.071 115.172 304.317 114.225 304.062 113.174C303.806 112.133 303.143 111.403 302.575 111.546L302.566 111.555Z" fill="#9DCA00"/>
<path d="M286.97 200.623C286.136 204.146 282.595 206.333 279.072 205.49C275.55 204.657 273.362 201.115 274.205 197.593C275.038 194.07 278.58 191.883 282.102 192.726C285.625 193.559 287.812 197.1 286.97 200.623Z" fill="#680000"/>
<path d="M233.932 188.039C233.098 191.561 229.557 193.749 226.034 192.906C222.512 192.072 220.324 188.531 221.167 185.008C222 181.486 225.542 179.298 229.065 180.141C232.587 180.974 234.775 184.516 233.932 188.039Z" fill="#680000"/>
<path fill-rule="evenodd" clip-rule="evenodd" d="M229.121 175.539C227.303 175.397 225.817 175.974 225.258 176.495C224.766 176.95 223.989 176.921 223.535 176.429C223.08 175.937 223.108 175.16 223.601 174.706C224.794 173.598 227.019 172.935 229.311 173.105C231.678 173.285 234.273 174.384 236.167 177.044C236.555 177.594 236.432 178.351 235.883 178.739C235.333 179.128 234.576 179.005 234.188 178.455C232.767 176.457 230.864 175.671 229.131 175.539H229.121Z" fill="#680000"/>
<path fill-rule="evenodd" clip-rule="evenodd" d="M281.439 187.243C279.621 187.101 278.135 187.679 277.576 188.199C277.084 188.654 276.307 188.625 275.853 188.133C275.398 187.641 275.426 186.864 275.919 186.41C277.112 185.302 279.337 184.639 281.629 184.809C283.996 184.989 286.591 186.088 288.485 188.749C288.873 189.298 288.75 190.055 288.201 190.444C287.651 190.832 286.894 190.709 286.506 190.159C285.085 188.161 283.182 187.375 281.449 187.243H281.439Z" fill="#680000"/>
<path fill-rule="evenodd" clip-rule="evenodd" d="M252.094 203.104C247.047 201.883 242.312 199.638 236.593 196.22L238.524 192.981C244.102 196.305 248.458 198.341 252.984 199.44C257.501 200.529 262.321 200.718 268.836 200.188L269.148 203.947C262.406 204.496 257.151 204.335 252.094 203.104Z" fill="#680000"/>
<defs>
<filter id="filter0_d_1766_25370" x="248.18" y="122.307" width="39.6995" height="35.853" filterUnits="userSpaceOnUse" color-interpolation-filters="sRGB">
<feFlood flood-opacity="0" result="BackgroundImageFix"/>
<feColorMatrix in="SourceAlpha" type="matrix" values="0 0 0 0 0 0 0 0 0 0 0 0 0 0 0 0 0 0 127 0" result="hardAlpha"/>
<feOffset dx="-3" dy="4"/>
<feGaussianBlur stdDeviation="4"/>
<feColorMatrix type="matrix" values="0 0 0 0 0.0980392 0 0 0 0 0.168627 0 0 0 0 0 0 0 0 0.5 0"/>
<feBlend mode="normal" in2="BackgroundImageFix" result="effect1_dropShadow_1766_25370"/>
<feBlend mode="normal" in="SourceGraphic" in2="effect1_dropShadow_1766_25370" result="shape"/>
</filter>
<radialGradient id="paint0_radial_1766_25370" cx="0" cy="0" r="1" gradientUnits="userSpaceOnUse" gradientTransform="translate(199.339 200.311) rotate(-8.68663) scale(141.2 141.2)">
<stop stop-color="#FF4900"/>
<stop offset="0.26" stop-color="#FF4900"/>
<stop offset="0.54" stop-color="#FF4A00" stop-opacity="0.99"/>
<stop offset="0.64" stop-color="#FF4D00" stop-opacity="0.97"/>
<stop offset="0.71" stop-color="#FF5400" stop-opacity="0.92"/>
<stop offset="0.76" stop-color="#FF5D00" stop-opacity="0.85"/>
<stop offset="0.81" stop-color="#FF6900" stop-opacity="0.77"/>
<stop offset="0.86" stop-color="#FF7800" stop-opacity="0.66"/>
<stop offset="0.9" stop-color="#FF8A00" stop-opacity="0.53"/>
<stop offset="0.93" stop-color="#FF9F00" stop-opacity="0.39"/>
<stop offset="0.96" stop-color="#FFB700" stop-opacity="0.22"/>
<stop offset="0.99" stop-color="#FFD000" stop-opacity="0.04"/>
<stop offset="1" stop-color="#FFD600" stop-opacity="0"/>
</radialGradient>
<radialGradient id="paint1_radial_1766_25370" cx="0" cy="0" r="1" gradientUnits="userSpaceOnUse" gradientTransform="translate(191.936 204.834) rotate(80.04) scale(118.7 118.7)">
<stop stop-color="#FF4900"/>
<stop offset="0.26" stop-color="#FF4900"/>
<stop offset="0.92" stop-color="#FFD600"/>
</radialGradient>
<radialGradient id="paint2_radial_1766_25370" cx="0" cy="0" r="1" gradientUnits="userSpaceOnUse" gradientTransform="translate(215.899 178.793) rotate(80.04) scale(86.0577 86.0577)">
<stop stop-color="#FF4900"/>
<stop offset="0.26" stop-color="#FF4900"/>
<stop offset="0.92" stop-color="#FFD600"/>
</radialGradient>
<radialGradient id="paint3_radial_1766_25370" cx="0" cy="0" r="1" gradientUnits="userSpaceOnUse" gradientTransform="translate(222.339 164.142) rotate(80.04) scale(63.0805 63.0805)">
<stop stop-color="#FF4900"/>
<stop offset="0.26" stop-color="#FF4900"/>
<stop offset="0.92" stop-color="#FFD600"/>
</radialGradient>
<radialGradient id="paint4_radial_1766_25370" cx="0" cy="0" r="1" gradientUnits="userSpaceOnUse" gradientTransform="translate(439.633 15.9543) rotate(80.04) scale(436.158 436.158)">
<stop stop-color="#FF4900"/>
<stop offset="0.26" stop-color="#FF4900"/>
<stop offset="0.92" stop-color="#FFD600"/>
</radialGradient>
<radialGradient id="paint5_radial_1766_25370" cx="0" cy="0" r="1" gradientUnits="userSpaceOnUse" gradientTransform="translate(414.841 39.1142) rotate(80.04) scale(404.954 404.954)">
<stop stop-color="#FF4900"/>
<stop offset="0.26" stop-color="#FF4900"/>
<stop offset="0.92" stop-color="#FFD600"/>
</radialGradient>
<radialGradient id="paint6_radial_1766_25370" cx="0" cy="0" r="1" gradientUnits="userSpaceOnUse" gradientTransform="translate(221.608 77.1764) rotate(25.68) scale(64.9921 64.9921)">
<stop stop-color="#FF4900"/>
<stop offset="0.26" stop-color="#FF4900"/>
<stop offset="0.92" stop-color="#FFD600"/>
</radialGradient>
<radialGradient id="paint7_radial_1766_25370" cx="0" cy="0" r="1" gradientUnits="userSpaceOnUse" gradientTransform="translate(273.571 119.537) rotate(50.17) scale(35.8531 35.8531)">
<stop stop-color="#FF4900"/>
<stop offset="0.26" stop-color="#FF4900"/>
<stop offset="0.92" stop-color="#FFD600"/>
</radialGradient>
<linearGradient id="paint8_linear_1766_25370" x1="269.322" y1="135.532" x2="259.012" y2="126.571" gradientUnits="userSpaceOnUse">
<stop offset="0.13" stop-color="#588000"/>
<stop offset="0.55" stop-color="#6FA700"/>
<stop offset="1" stop-color="#9BCC00"/>
</linearGradient>
<linearGradient id="paint9_linear_1766_25370" x1="267.527" y1="134.046" x2="260.24" y2="128.14" gradientUnits="userSpaceOnUse">
<stop stop-color="#588000"/>
<stop offset="0.45" stop-color="#6FA700"/>
<stop offset="1" stop-color="#9BCC00"/>
</linearGradient>
<linearGradient id="paint10_linear_1766_25370" x1="270.213" y1="135.581" x2="280.672" y2="133.679" gradientUnits="userSpaceOnUse">
<stop offset="0.13" stop-color="#4C7400"/>
<stop offset="0.55" stop-color="#639B00"/>
<stop offset="1" stop-color="#8FC000"/>
</linearGradient>
<linearGradient id="paint11_linear_1766_25370" x1="271.084" y1="135.581" x2="278.668" y2="133.572" gradientUnits="userSpaceOnUse">
<stop stop-color="#4C7400"/>
<stop offset="0.55" stop-color="#639B00"/>
<stop offset="1" stop-color="#84B700"/>
</linearGradient>
<linearGradient id="paint12_linear_1766_25370" x1="270.581" y1="138.272" x2="282.367" y2="146.56" gradientUnits="userSpaceOnUse">
<stop offset="0.13" stop-color="#588000"/>
<stop offset="0.55" stop-color="#6FA700"/>
<stop offset="1" stop-color="#9BCC00"/>
</linearGradient>
<linearGradient id="paint13_linear_1766_25370" x1="272.251" y1="138.642" x2="279.677" y2="145.034" gradientUnits="userSpaceOnUse">
<stop stop-color="#588000"/>
<stop offset="0.55" stop-color="#6FA700"/>
<stop offset="1" stop-color="#9BCC00"/>
</linearGradient>
<linearGradient id="paint14_linear_1766_25370" x1="270.072" y1="136.373" x2="261.451" y2="141.725" gradientUnits="userSpaceOnUse">
<stop stop-color="#5C8400"/>
<stop offset="0.16" stop-color="#5F8900"/>
<stop offset="0.36" stop-color="#679700"/>
<stop offset="0.53" stop-color="#73AB00"/>
<stop offset="1" stop-color="#9FD000"/>
</linearGradient>
<linearGradient id="paint15_linear_1766_25370" x1="261.835" y1="126.621" x2="255.119" y2="126.916" gradientUnits="userSpaceOnUse">
<stop stop-color="#628E00"/>
<stop offset="0.47" stop-color="#73AB00"/>
<stop offset="1" stop-color="#9FD000"/>
</linearGradient>
<linearGradient id="paint16_linear_1766_25370" x1="293.807" y1="115.82" x2="238.512" y2="50.2492" gradientUnits="userSpaceOnUse">
<stop stop-color="#588000"/>
<stop offset="0.46" stop-color="#6FA700"/>
<stop offset="1" stop-color="#9BCC00"/>
</linearGradient>
<linearGradient id="paint17_linear_1766_25370" x1="299.265" y1="111.217" x2="244.197" y2="45.914" gradientUnits="userSpaceOnUse">
<stop offset="0.21" stop-color="#588000"/>
<stop offset="1" stop-color="#6FA700"/>
</linearGradient>
<linearGradient id="paint18_linear_1766_25370" x1="265.176" y1="135.905" x2="311.56" y2="108.448" gradientUnits="userSpaceOnUse">
<stop stop-color="#4A7200"/>
<stop offset="0.18" stop-color="#588900"/>
<stop offset="1" stop-color="#619900"/>
</linearGradient>
<linearGradient id="paint19_linear_1766_25370" x1="267.466" y1="134.718" x2="298.742" y2="111.357" gradientUnits="userSpaceOnUse">
<stop stop-color="#477200"/>
<stop offset="0.14" stop-color="#518200"/>
<stop offset="1" stop-color="#5A9200"/>
</linearGradient>
</defs>
</svg>
