<svg xmlns="http://www.w3.org/2000/svg" xmlns:xlink="http://www.w3.org/1999/xlink" viewBox="0 0 800 800"><defs><style>.cls-1{mask:url(#mask);}.cls-10,.cls-11,.cls-12,.cls-13,.cls-15,.cls-16,.cls-17,.cls-19,.cls-2,.cls-20,.cls-21,.cls-4,.cls-40,.cls-41,.cls-6,.cls-7,.cls-9{mix-blend-mode:multiply;}.cls-2{fill:url(#Áåçûìÿííûé_ãðàäèåíò_6);}.cls-3{mask:url(#mask-2);}.cls-4{fill:url(#Áåçûìÿííûé_ãðàäèåíò_1670);}.cls-5{mask:url(#mask-3);}.cls-6{fill:url(#Áåçûìÿííûé_ãðàäèåíò_6-2);}.cls-7{fill:url(#Áåçûìÿííûé_ãðàäèåíò_1670-2);}.cls-8{mask:url(#mask-5);}.cls-9{fill:url(#Áåçûìÿííûé_ãðàäèåíò_6-3);}.cls-10{fill:url(#Áåçûìÿííûé_ãðàäèåíò_1669);}.cls-11{fill:url(#Áåçûìÿííûé_ãðàäèåíò_1670-3);}.cls-12{fill:url(#Áåçûìÿííûé_ãðàäèåíò_6-4);}.cls-13{fill:url(#Áåçûìÿííûé_ãðàäèåíò_1668);}.cls-14{mask:url(#mask-10);}.cls-15{fill:url(#Áåçûìÿííûé_ãðàäèåíò_6-5);}.cls-16{fill:url(#Áåçûìÿííûé_ãðàäèåíò_1652);}.cls-17{fill:url(#Áåçûìÿííûé_ãðàäèåíò_1669-2);}.cls-18{mask:url(#mask-13);}.cls-19{fill:url(#Áåçûìÿííûé_ãðàäèåíò_6-6);}.cls-20{fill:url(#Áåçûìÿííûé_ãðàäèåíò_1670-4);}.cls-21{fill:url(#Áåçûìÿííûé_ãðàäèåíò_6-7);}.cls-22{isolation:isolate;}.cls-23,.cls-45{fill:#fff;}.cls-23{opacity:0;}.cls-24{mask:url(#mask-16);}.cls-25,.cls-27,.cls-29,.cls-31,.cls-40{opacity:0.3;}.cls-25,.cls-27,.cls-29,.cls-31,.cls-37,.cls-39,.cls-42,.cls-43,.cls-44,.cls-46{mix-blend-mode:screen;}.cls-25{fill:url(#Áåçûìÿííûé_ãðàäèåíò_2);}.cls-26{mask:url(#mask-18);}.cls-27{fill:url(#Áåçûìÿííûé_ãðàäèåíò_2-2);}.cls-28{mask:url(#mask-20);}.cls-29{fill:url(#Áåçûìÿííûé_ãðàäèåíò_2-3);}.cls-30{mask:url(#mask-22);}.cls-31{fill:url(#Áåçûìÿííûé_ãðàäèåíò_2-4);}.cls-32{mask:url(#mask-24);}.cls-33{fill:url(#Áåçûìÿííûé_ãðàäèåíò_23);}.cls-34{mask:url(#mask-26);}.cls-35{fill:url(#Áåçûìÿííûé_ãðàäèåíò_18);}.cls-36{mask:url(#mask-28);}.cls-37{opacity:0.6;fill:url(#Áåçûìÿííûé_ãðàäèåíò_8);}.cls-38{fill:url(#Áåçûìÿííûé_ãðàäèåíò_7);}.cls-39{opacity:0.2;fill:url(#Áåçûìÿííûé_ãðàäèåíò_5);}.cls-40{fill:url(#Áåçûìÿííûé_ãðàäèåíò_7-2);}.cls-41{opacity:0.4;fill:url(#Áåçûìÿííûé_ãðàäèåíò_7-3);}.cls-42,.cls-43,.cls-44{opacity:0.5;}.cls-42{fill:url(#Áåçûìÿííûé_ãðàäèåíò_5-2);}.cls-43{fill:url(#Áåçûìÿííûé_ãðàäèåíò_5-3);}.cls-44{fill:url(#Áåçûìÿííûé_ãðàäèåíò_5-4);}.cls-45,.cls-48{fill-rule:evenodd;}.cls-46{fill:url(#Áåçûìÿííûé_ãðàäèåíò_624);}.cls-47,.cls-48{fill:#3f1b1b;}.cls-49{fill:#231815;}.cls-50{fill:#aa8c8b;}.cls-51{fill:#211b1b;}.cls-52{fill:#f7950b;}.cls-53{fill:#282828;}.cls-54{fill:#633232;}.cls-55{fill:#e9ad59;}.cls-56{fill:#c68434;}.cls-57{fill:#b26d24;}.cls-58{fill:#ffc176;}.cls-59{fill:#fdfbfb;}.cls-60{fill:#dc9342;}.cls-61{fill:#a9641a;}.cls-62{fill:#8d4d13;}.cls-63{filter:url(#luminosity-noclip-13);}.cls-64{filter:url(#luminosity-noclip-10);}.cls-65{filter:url(#luminosity-noclip-5);}.cls-66{filter:url(#luminosity-noclip-3);}.cls-67{filter:url(#luminosity-noclip-2);}.cls-68{filter:url(#luminosity-noclip);}</style><filter id="luminosity-noclip" x="245.19" y="-8592" width="307.91" height="32766" filterUnits="userSpaceOnUse" color-interpolation-filters="sRGB"><feFlood flood-color="#fff" result="bg"/><feBlend in="SourceGraphic" in2="bg"/></filter><mask id="mask" x="245.19" y="-8592" width="307.91" height="32766" maskUnits="userSpaceOnUse"><g class="cls-68"/></mask><radialGradient id="Áåçûìÿííûé_ãðàäèåíò_6" cx="1322.3" cy="1459.17" r="231.67" gradientTransform="translate(-241.34 -440.9) scale(0.49)" gradientUnits="userSpaceOnUse"><stop offset="0.01" stop-color="#fff"/><stop offset="0.37" stop-color="#979797"/><stop offset="0.68" stop-color="#464646"/><stop offset="0.89" stop-color="#131313"/><stop offset="1"/></radialGradient><filter id="luminosity-noclip-2" x="225.1" y="-8592" width="263.46" height="32766" filterUnits="userSpaceOnUse" color-interpolation-filters="sRGB"><feFlood flood-color="#fff" result="bg"/><feBlend in="SourceGraphic" in2="bg"/></filter><mask id="mask-2" x="225.1" y="-8592" width="263.46" height="32766" maskUnits="userSpaceOnUse"><g class="cls-67"/></mask><radialGradient id="Áåçûìÿííûé_ãðàäèåíò_1670" cx="-276.97" cy="1617.74" r="231.68" gradientTransform="matrix(0.16, -0.46, 0.46, 0.16, -428.96, -29.43)" gradientUnits="userSpaceOnUse"><stop offset="0.01" stop-color="#fff"/><stop offset="0.28" stop-color="#fdfdfd"/><stop offset="0.42" stop-color="#f5f5f5"/><stop offset="0.53" stop-color="#e8e8e8"/><stop offset="0.62" stop-color="#d5d5d5"/><stop offset="0.7" stop-color="#bdbdbd"/><stop offset="0.77" stop-color="#9f9f9f"/><stop offset="0.84" stop-color="#7c7c7c"/><stop offset="0.9" stop-color="#535353"/><stop offset="0.96" stop-color="#252525"/><stop offset="1"/></radialGradient><filter id="luminosity-noclip-3" x="311.26" y="-8592" width="263.46" height="32766" filterUnits="userSpaceOnUse" color-interpolation-filters="sRGB"><feFlood flood-color="#fff" result="bg"/><feBlend in="SourceGraphic" in2="bg"/></filter><mask id="mask-3" x="311.26" y="-8592" width="263.46" height="32766" maskUnits="userSpaceOnUse"><g class="cls-66"/></mask><radialGradient id="Áåçûìÿííûé_ãðàäèåíò_6-2" cx="-284.34" cy="2206.24" r="273.26" gradientTransform="matrix(0.16, -0.46, 0.46, 0.16, -428.96, -29.43)" xlink:href="#Áåçûìÿííûé_ãðàäèåíò_6"/><radialGradient id="Áåçûìÿííûé_ãðàäèåíò_1670-2" cx="-284.34" cy="2206.24" r="273.26" xlink:href="#Áåçûìÿííûé_ãðàäèåíò_1670"/><filter id="luminosity-noclip-5" x="231.94" y="-8592" width="337.59" height="32766" filterUnits="userSpaceOnUse" color-interpolation-filters="sRGB"><feFlood flood-color="#fff" result="bg"/><feBlend in="SourceGraphic" in2="bg"/></filter><mask id="mask-5" x="231.94" y="-8592" width="337.59" height="32766" maskUnits="userSpaceOnUse"><g class="cls-65"/></mask><radialGradient id="Áåçûìÿííûé_ãðàäèåíò_6-3" cx="1391.71" cy="1434.65" r="289.14" gradientTransform="matrix(0.49, 0.03, -0.03, 0.49, -219.35, -452.44)" xlink:href="#Áåçûìÿííûé_ãðàäèåíò_6"/><radialGradient id="Áåçûìÿííûé_ãðàäèåíò_1669" cx="1391.71" cy="1434.65" r="289.14" gradientTransform="matrix(0.49, 0.03, -0.03, 0.49, -219.35, -452.44)" gradientUnits="userSpaceOnUse"><stop offset="0.01" stop-color="#fff"/><stop offset="0.38" stop-color="#fdfdfd"/><stop offset="0.51" stop-color="#f6f6f6"/><stop offset="0.6" stop-color="#ebebeb"/><stop offset="0.68" stop-color="#dadada"/><stop offset="0.75" stop-color="#c4c4c4"/><stop offset="0.81" stop-color="#a8a8a8"/><stop offset="0.86" stop-color="#888"/><stop offset="0.91" stop-color="#626262"/><stop offset="0.95" stop-color="#373737"/><stop offset="0.99" stop-color="#090909"/><stop offset="1"/></radialGradient><radialGradient id="Áåçûìÿííûé_ãðàäèåíò_1670-3" cx="1322.3" cy="1459.17" r="231.67" gradientTransform="translate(-241.34 -440.9) scale(0.49)" xlink:href="#Áåçûìÿííûé_ãðàäèåíò_1670"/><radialGradient id="Áåçûìÿííûé_ãðàäèåíò_6-4" cx="-563.82" cy="-543.08" r="289.14" gradientTransform="matrix(-0.49, -0.03, 0.03, -0.49, 129.19, 246.69)" xlink:href="#Áåçûìÿííûé_ãðàäèåíò_6"/><radialGradient id="Áåçûìÿííûé_ãðàäèåíò_1668" cx="-563.82" cy="-543.08" r="289.14" gradientTransform="matrix(-0.49, -0.03, 0.03, -0.49, 129.19, 246.69)" gradientUnits="userSpaceOnUse"><stop offset="0.01" stop-color="#fff"/><stop offset="0.19" stop-color="#fcfcfc"/><stop offset="0.33" stop-color="#f3f3f3"/><stop offset="0.44" stop-color="#e3e3e3"/><stop offset="0.55" stop-color="#cdcdcd"/><stop offset="0.65" stop-color="#b1b1b1"/><stop offset="0.74" stop-color="#8e8e8e"/><stop offset="0.83" stop-color="#646464"/><stop offset="0.92" stop-color="#363636"/><stop offset="1"/></radialGradient><filter id="luminosity-noclip-10" x="191.3" y="-8592" width="411.01" height="32766" filterUnits="userSpaceOnUse" color-interpolation-filters="sRGB"><feFlood flood-color="#fff" result="bg"/><feBlend in="SourceGraphic" in2="bg"/></filter><mask id="mask-10" x="191.3" y="-8592" width="411.01" height="32766" maskUnits="userSpaceOnUse"><g class="cls-64"/></mask><radialGradient id="Áåçûìÿííûé_ãðàäèåíò_6-5" cx="129.33" cy="1883.28" r="350.97" gradientTransform="matrix(0.6, 0, 0, 0.55, 318.86, -626.49)" xlink:href="#Áåçûìÿííûé_ãðàäèåíò_6"/><radialGradient id="Áåçûìÿííûé_ãðàäèåíò_1652" cx="129.33" cy="1883.28" r="350.97" gradientTransform="matrix(0.6, 0, 0, 0.55, 318.86, -626.49)" gradientUnits="userSpaceOnUse"><stop offset="0.01" stop-color="#fff"/><stop offset="0.27" stop-color="#fdfdfd"/><stop offset="0.41" stop-color="#f5f5f5"/><stop offset="0.51" stop-color="#e8e8e8"/><stop offset="0.61" stop-color="#d5d5d5"/><stop offset="0.69" stop-color="#bcbcbc"/><stop offset="0.77" stop-color="#9d9d9d"/><stop offset="0.84" stop-color="#797979"/><stop offset="0.9" stop-color="#4f4f4f"/><stop offset="0.96" stop-color="#212121"/><stop offset="1"/></radialGradient><radialGradient id="Áåçûìÿííûé_ãðàäèåíò_1669-2" cx="129.33" cy="1883.28" r="350.97" gradientTransform="matrix(0.6, 0, 0, 0.55, 318.86, -626.49)" xlink:href="#Áåçûìÿííûé_ãðàäèåíò_1669"/><filter id="luminosity-noclip-13" x="246.72" y="-8592" width="307.92" height="32766" filterUnits="userSpaceOnUse" color-interpolation-filters="sRGB"><feFlood flood-color="#fff" result="bg"/><feBlend in="SourceGraphic" in2="bg"/></filter><mask id="mask-13" x="246.72" y="-8592" width="307.92" height="32766" maskUnits="userSpaceOnUse"><g class="cls-63"/></mask><radialGradient id="Áåçûìÿííûé_ãðàäèåíò_6-6" cx="1314.92" cy="2047.65" r="273.25" xlink:href="#Áåçûìÿííûé_ãðàäèåíò_6"/><radialGradient id="Áåçûìÿííûé_ãðàäèåíò_1670-4" cx="1314.92" cy="2047.65" r="273.25" gradientTransform="translate(-241.34 -440.9) scale(0.49)" xlink:href="#Áåçûìÿííûé_ãðàäèåíò_1670"/><radialGradient id="Áåçûìÿííûé_ãðàäèåíò_6-7" cx="-276.97" cy="1617.74" r="231.68" gradientTransform="matrix(0.16, -0.46, 0.46, 0.16, -428.96, -29.43)" xlink:href="#Áåçûìÿííûé_ãðàäèåíò_6"/><mask id="mask-16" x="245.19" y="234.65" width="307.91" height="257.42" maskUnits="userSpaceOnUse"><g transform="translate(0)"><g class="cls-1"><path class="cls-2" d="M553.11,363.36c0,71.08-68.93,128.71-154,128.71s-154-57.63-154-128.71,68.93-128.71,154-128.71S553.11,292.27,553.11,363.36Z"/></g></g></mask><filter id="luminosity-noclip-16" x="245.19" y="234.65" width="307.91" height="257.42" filterUnits="userSpaceOnUse" color-interpolation-filters="sRGB"><feFlood flood-color="#fff" result="bg"/><feBlend in="SourceGraphic" in2="bg"/></filter><radialGradient id="Áåçûìÿííûé_ãðàäèåíò_2" cx="1322.3" cy="1459.17" r="231.67" gradientTransform="translate(-241.34 -440.9) scale(0.49)" gradientUnits="userSpaceOnUse"><stop offset="0.01" stop-color="#ffe000"/><stop offset="0.5" stop-color="#ffe200"/><stop offset="0.74" stop-color="#ffea01"/><stop offset="0.92" stop-color="#fff703"/><stop offset="1" stop-color="#ffff04"/></radialGradient><mask id="mask-18" x="246.72" y="325.39" width="307.92" height="257.42" maskUnits="userSpaceOnUse"><g transform="translate(0)"><g class="cls-18"><ellipse class="cls-19" cx="400.68" cy="454.1" rx="153.96" ry="128.71"/></g></g></mask><filter id="luminosity-noclip-17" x="246.72" y="325.39" width="307.92" height="257.42" filterUnits="userSpaceOnUse" color-interpolation-filters="sRGB"><feFlood flood-color="#fff" result="bg"/><feBlend in="SourceGraphic" in2="bg"/></filter><radialGradient id="Áåçûìÿííûé_ãðàäèåíò_2-2" cx="1314.92" cy="2047.65" r="273.25" xlink:href="#Áåçûìÿííûé_ãðàäèåíò_2"/><mask id="mask-20" x="225.1" y="243.03" width="263.46" height="302.9" maskUnits="userSpaceOnUse"><g transform="translate(0)"><g class="cls-3"><path class="cls-21" d="M407.65,249.15C474.75,272.61,506.4,356.7,478.33,437S373.11,563.27,306,539.8,207.27,432.25,235.34,352,340.55,225.68,407.65,249.15Z"/></g></g></mask><filter id="luminosity-noclip-18" x="225.1" y="243.03" width="263.46" height="302.9" filterUnits="userSpaceOnUse" color-interpolation-filters="sRGB"><feFlood flood-color="#fff" result="bg"/><feBlend in="SourceGraphic" in2="bg"/></filter><radialGradient id="Áåçûìÿííûé_ãðàäèåíò_2-3" cx="-276.97" cy="1617.74" r="231.68" gradientTransform="matrix(0.16, -0.46, 0.46, 0.16, -428.96, -29.43)" xlink:href="#Áåçûìÿííûé_ãðàäèåíò_2"/><mask id="mask-22" x="311.26" y="271.53" width="263.46" height="302.9" maskUnits="userSpaceOnUse"><g transform="translate(0)"><g class="cls-5"><path class="cls-6" d="M493.81,277.66c67.1,23.46,98.75,107.55,70.68,187.81S459.27,591.78,392.17,568.31,293.43,460.76,321.5,380.5,426.71,254.19,493.81,277.66Z"/></g></g></mask><filter id="luminosity-noclip-19" x="311.26" y="271.53" width="263.46" height="302.9" filterUnits="userSpaceOnUse" color-interpolation-filters="sRGB"><feFlood flood-color="#fff" result="bg"/><feBlend in="SourceGraphic" in2="bg"/></filter><radialGradient id="Áåçûìÿííûé_ãðàäèåíò_2-4" cx="-284.34" cy="2206.24" r="273.26" gradientTransform="matrix(0.16, -0.46, 0.46, 0.16, -428.96, -29.43)" xlink:href="#Áåçûìÿííûé_ãðàäèåíò_2"/><mask id="mask-24" x="231.94" y="240.94" width="337.59" height="337.59" maskUnits="userSpaceOnUse"><g transform="translate(0)"><g class="cls-8"><path class="cls-9" d="M411.51,241.29A168.79,168.79,0,1,0,569.17,420.51,168.79,168.79,0,0,0,411.51,241.29ZM390.16,575A165.56,165.56,0,1,1,566,420.31,165.56,165.56,0,0,1,390.16,575Z"/></g></g></mask><filter id="luminosity-noclip-20" x="231.94" y="240.94" width="337.59" height="337.59" filterUnits="userSpaceOnUse" color-interpolation-filters="sRGB"><feFlood flood-color="#fff" result="bg"/><feBlend in="SourceGraphic" in2="bg"/></filter><radialGradient id="Áåçûìÿííûé_ãðàäèåíò_23" cx="1391.71" cy="1434.65" r="289.14" gradientTransform="matrix(0.49, 0.03, -0.03, 0.49, -219.35, -452.44)" gradientUnits="userSpaceOnUse"><stop offset="0.01" stop-color="#ffe000"/><stop offset="0.57" stop-color="#ffe200"/><stop offset="0.78" stop-color="#ffe901"/><stop offset="0.92" stop-color="#fff403"/><stop offset="1" stop-color="#ffff04"/></radialGradient><mask id="mask-26" x="231.94" y="240.94" width="337.59" height="337.59" maskUnits="userSpaceOnUse"><g transform="translate(0)"><g class="cls-8"><path class="cls-12" d="M390,578.18A168.79,168.79,0,1,0,232.29,399,168.79,168.79,0,0,0,390,578.18ZM411.3,244.51A165.56,165.56,0,1,1,235.51,399.16,165.56,165.56,0,0,1,411.3,244.51Z"/></g></g></mask><radialGradient id="Áåçûìÿííûé_ãðàäèåíò_18" cx="-563.82" cy="-543.08" r="289.14" gradientTransform="matrix(-0.49, -0.03, 0.03, -0.49, 129.19, 246.69)" gradientUnits="userSpaceOnUse"><stop offset="0.01" stop-color="#ffe000"/><stop offset="0.42" stop-color="#ffe300"/><stop offset="0.71" stop-color="#ffec02"/><stop offset="0.96" stop-color="#fffc04"/><stop offset="1" stop-color="#ffff04"/></radialGradient><mask id="mask-28" x="191.3" y="203.09" width="411.01" height="396.05" maskUnits="userSpaceOnUse"><g transform="translate(0)"><g class="cls-14"><ellipse class="cls-15" cx="396.8" cy="401.12" rx="211.56" ry="191.5" transform="translate(-156.6 291.12) rotate(-34.07)"/></g></g></mask><filter id="luminosity-noclip-22" x="191.3" y="203.09" width="411.01" height="396.05" filterUnits="userSpaceOnUse" color-interpolation-filters="sRGB"><feFlood flood-color="#fff" result="bg"/><feBlend in="SourceGraphic" in2="bg"/></filter><radialGradient id="Áåçûìÿííûé_ãðàäèåíò_8" cx="129.33" cy="1883.28" r="350.97" gradientTransform="matrix(0.6, 0, 0, 0.55, 318.86, -626.49)" gradientUnits="userSpaceOnUse"><stop offset="0.01" stop-color="#f7f52b"/><stop offset="0.82" stop-color="#f5f62c"/><stop offset="1" stop-color="#f2f72d"/></radialGradient><linearGradient id="Áåçûìÿííûé_ãðàäèåíò_7" x1="438.77" y1="491.48" x2="345.81" y2="293.5" gradientUnits="userSpaceOnUse"><stop offset="0" stop-color="#f7a92b"/><stop offset="1" stop-color="#f2f739"/></linearGradient><linearGradient id="Áåçûìÿííûé_ãðàäèåíò_5" x1="355.55" y1="321.86" x2="477.79" y2="528.28" gradientUnits="userSpaceOnUse"><stop offset="0" stop-color="#fffffd"/><stop offset="1" stop-color="#f2f739"/></linearGradient><linearGradient id="Áåçûìÿííûé_ãðàäèåíò_7-2" x1="428.92" y1="543.44" x2="408.26" y2="423.5" xlink:href="#Áåçûìÿííûé_ãðàäèåíò_7"/><linearGradient id="Áåçûìÿííûé_ãðàäèåíò_7-3" x1="441.06" y1="530.53" x2="420.4" y2="483.47" xlink:href="#Áåçûìÿííûé_ãðàäèåíò_7"/><linearGradient id="Áåçûìÿííûé_ãðàäèåíò_5-2" x1="332.46" y1="573.13" x2="689.88" y2="573.13" gradientTransform="translate(-269.17 91.28) rotate(-23.13)" xlink:href="#Áåçûìÿííûé_ãðàäèåíò_5"/><linearGradient id="Áåçûìÿííûé_ãðàäèåíò_5-3" x1="538.06" y1="374.35" x2="182.39" y2="507.41" xlink:href="#Áåçûìÿííûé_ãðàäèåíò_5"/><linearGradient id="Áåçûìÿííûé_ãðàäèåíò_5-4" x1="244.04" y1="460.23" x2="613.28" y2="460.23" gradientTransform="matrix(1.08, -0.11, 0.1, 0.99, -78.12, 13.18)" xlink:href="#Áåçûìÿííûé_ãðàäèåíò_5"/><radialGradient id="Áåçûìÿííûé_ãðàäèåíò_624" cx="-874.04" cy="1093.9" r="101.25" gradientTransform="matrix(0, -0.81, -0.52, 0, 1019.18, -400.96)" gradientUnits="userSpaceOnUse"><stop offset="0" stop-color="#fb0"/><stop offset="0.17" stop-color="#c59000"/><stop offset="0.4" stop-color="#805e00"/><stop offset="0.6" stop-color="#493500"/><stop offset="0.78" stop-color="#211800"/><stop offset="0.92" stop-color="#090700"/><stop offset="1"/></radialGradient></defs><title>premium</title><g class="cls-22"><g id="레이어_1" data-name="레이어 1"><polyline class="cls-23" points="800 0 800 800 0 800 0 0"/><g class="cls-24"><g class="cls-24"><path class="cls-25" d="M553.11,363.36c0,71.08-68.93,128.71-154,128.71s-154-57.63-154-128.71,68.93-128.71,154-128.71S553.11,292.27,553.11,363.36Z" transform="translate(0)"/></g></g><g class="cls-26"><g class="cls-26"><ellipse class="cls-27" cx="400.68" cy="454.1" rx="153.96" ry="128.71"/></g></g><g class="cls-28"><g class="cls-28"><path class="cls-29" d="M407.65,249.15C474.75,272.61,506.4,356.7,478.33,437S373.11,563.27,306,539.8,207.27,432.25,235.34,352,340.55,225.68,407.65,249.15Z" transform="translate(0)"/></g></g><g class="cls-30"><g class="cls-30"><path class="cls-31" d="M493.81,277.66c67.1,23.46,98.75,107.55,70.68,187.81S459.27,591.78,392.17,568.31,293.43,460.76,321.5,380.5,426.71,254.19,493.81,277.66Z" transform="translate(0)"/></g></g><g class="cls-32"><g class="cls-32"><path class="cls-33" d="M411.51,241.29A168.79,168.79,0,1,0,569.17,420.51,168.79,168.79,0,0,0,411.51,241.29ZM390.16,575A165.56,165.56,0,1,1,566,420.31,165.56,165.56,0,0,1,390.16,575Z" transform="translate(0)"/></g></g><g class="cls-34"><g class="cls-34"><path class="cls-35" d="M390,578.18A168.79,168.79,0,1,0,232.29,399,168.79,168.79,0,0,0,390,578.18ZM411.3,244.51A165.56,165.56,0,1,1,235.51,399.16,165.56,165.56,0,0,1,411.3,244.51Z" transform="translate(0)"/></g></g><g class="cls-36"><g class="cls-36"><g class="cls-36"><ellipse class="cls-37" cx="396.8" cy="401.12" rx="211.56" ry="191.5" transform="translate(-156.6 291.12) rotate(-34.07)"/></g></g></g><circle class="cls-38" cx="399.91" cy="408.73" r="145.72"/><path class="cls-39" d="M482.8,434.65c13.3-6.84,16.09-19,21.49-31.56,6.11-14.2,8.71-25.48,8.53-41.36q-.15-14.18-.31-28.36a28.52,28.52,0,0,0-.58-6.59c-2.52-10-16.53-16.87-23.64-23.74-9.38-9.08-21.05-16-33-21.16C406,260.71,342.86,273.1,304.59,310.19,283.58,330.54,269,355,263,384.06a23.45,23.45,0,0,0-.55,9.16,55.11,55.11,0,0,0,2.08,6.29c2.43,7.62.73,15.89,1.5,23.85,3,31,41.06,51.86,69.92,48.91-.71-4.8-3.57-6.36,1.74-8.68,4.63-2,12.5-1.08,17.48-1.17a219,219,0,0,1,36.72,2.35,23.87,23.87,0,0,0,7.76.34c3.68-.68,6.75-3.14,10.22-4.56,4.67-1.92,8.24-.84,12.94-.51s9.64-1.87,14.41-.85c0,3.11,4.66,3.25,7.62,2.29,7.55-2.44,15.58-5.25,21.73-10.45,3.17-2.68,4.61-5.71,7-8.95C476.34,438.19,478.2,437,482.8,434.65Z" transform="translate(0)"/><path class="cls-40" d="M355,537.91c-11.13-5.49-22.73-10-34.07-15-4.64-2-9-2.63-12.43-6.37-4.49-4.89-8.28-10.74-12.36-16-2.43-3.13-5-6.51-5.21-10.46,2.48,2.44,6.08,3.26,9.5,3.95,10,2,20.71,2.42,30.59,4.91,8.58,2.16,16,2.75,24.73-.21,6.35-2.15,12-5.93,17.9-9.12,3.34-1.81,7.17-3.48,10.84-2.46,1.85.51,3.46,1.67,5.27,2.33s4.1.69,5.37-.76c.68-.77,1-1.84,1.69-2.57,1.09-1.11,2.85-1.11,4.4-1,15.84,1.06,31.81,5.35,47.38,2.24,21.75-4.35,41.73-23.16,54.21-40.76,12.7-17.93,17.27-40.35,28-59.5,2,19.69.75,39.89-5.43,58.7C507.58,500,446.23,536,391.85,540.55,380,541.56,365.94,543.3,355,537.91Z" transform="translate(0)"/><path class="cls-41" d="M339.15,518.34q3.17-.17,6.35-.21c6.42-.08,12.26,1.41,18.65,1.91a161.44,161.44,0,0,0,89.52-19.24c6.83-3.74,13.6-8.06,21.28-9.36a20.77,20.77,0,0,0,3.65-.76,14.76,14.76,0,0,0,3.27-1.81,155.8,155.8,0,0,0,37.9-36.43c-10.75,20.47-27.46,37.17-45,52.19a157.32,157.32,0,0,1-16,12.34c-14.59,9.59-31.48,15-48.61,17.72a212.63,212.63,0,0,1-26.3,2.42c-9.6.33-19.24,2.06-27.69-3.66-2-1.36-3.72-3.14-5.76-4.48-4.31-2.82-9.67-3.35-14.69-4.53a53.92,53.92,0,0,1-12.29-4.5c1.77.9,8.34-1.06,10.48-1.24Q336.53,518.47,339.15,518.34Z" transform="translate(0)"/><path class="cls-42" d="M614,332.82c-4.86-11.36-38.24-9.14-87,3.57l.83,1.11c45.18-11.78,75.83-14,80.21-3.73,8.18,19.14-78.32,74.45-193.2,123.52s-214.65,73.33-222.83,54.18c-4.73-11.08,22.27-34.27,68.1-61.35-.17-.41-.33-.82-.49-1.23-48.77,28.89-77.58,54-72.37,66.19,8.8,20.62,111.46-3.46,229.3-53.79S622.8,353.45,614,332.82Z" transform="translate(0)"/><path class="cls-43" d="M636.91,343.92c-4.25-12.54-44.91-11.19-104.37,1.13.4.78.8,1.58,1.17,2.37,47.36-8.75,79.12-8.8,82.74,1.9,6.68,19.71-84.74,68.51-204.18,109s-221.7,57.27-228.38,37.56c-3.87-11.42,25.19-32.6,73.51-56.25l-.09-.65c-.17-.57-.35-1.13-.5-1.7-60,28-96.92,53.53-92.45,66.74,7.2,21.24,118.81,2.62,249.3-41.58S644.1,365.15,636.91,343.92Z" transform="translate(0)"/><path class="cls-44" d="M658.74,397.87c-1.41-13.88-47.37-21.6-116.23-22,.15.62.3,1.24.44,1.85,60.23.81,99.9,7.85,101.14,20.16,2.1,20.72-105.27,48.54-239.81,62.13S159,467.84,156.89,447.13c-1.26-12.47,37.16-27.51,97.27-40.48.06-.63.13-1.27.21-1.9C185.65,419,141.12,436,142.54,450c2.25,22.32,119.63,28.72,262.18,14.32S661,420.18,658.74,397.87Z" transform="translate(0)"/><path class="cls-45" d="M501.73,321.62c2.69,4.79-11.54,6.77-30.26-1.51s-44.18-36.22-42.61-41.79S483.08,288.46,501.73,321.62Z" transform="translate(0)"/><path class="cls-45" d="M506.13,328.21c5.64-3.14,13.4,6.48,13.67,13.15s-5.3,8-12.46-.14C502.92,336.21,501.47,330.8,506.13,328.21Z" transform="translate(0)"/><ellipse class="cls-46" cx="448.09" cy="310.75" rx="52.86" ry="82.45" transform="translate(87.58 719.87) rotate(-83.36)"/><path class="cls-47" d="M407.67,360.52a8.45,8.45,0,1,1-10-6.54A8.44,8.44,0,0,1,407.67,360.52Z" transform="translate(0)"/><path class="cls-47" d="M339,374.84a8.45,8.45,0,1,1-10-6.55A8.45,8.45,0,0,1,339,374.84Z" transform="translate(0)"/><path class="cls-48" d="M325.78,357.9a7.16,7.16,0,0,0-4,3.23,1.57,1.57,0,0,1-2.91-1.18,10.16,10.16,0,0,1,5.78-5,11.78,11.78,0,0,1,10.14.84,1.57,1.57,0,1,1-1.54,2.73A8.65,8.65,0,0,0,325.78,357.9Z" transform="translate(0)"/><path class="cls-48" d="M393.15,343a7.16,7.16,0,0,0-4,3.23,1.57,1.57,0,1,1-2.91-1.18c.79-1.94,3-3.93,5.78-5a11.78,11.78,0,0,1,10.14.84,1.56,1.56,0,1,1-1.53,2.73A8.67,8.67,0,0,0,393.15,343Z" transform="translate(0)"/><path class="cls-49" d="M374.25,376.28a15.62,15.62,0,0,1,9-1.64,73,73,0,0,1,9,1.65,26,26,0,0,0,9.13.6,11.33,11.33,0,0,0,7.77-4.47c1.11,3.59.11,7.63-2,10.83a24.74,24.74,0,0,1-8.74,7.51,29.73,29.73,0,0,1-10.58,3.68,18.48,18.48,0,0,1-10.87-1.74,15.55,15.55,0,0,1-7-8.28C368.76,381.35,371.64,377.77,374.25,376.28Z" transform="translate(0)"/><path class="cls-49" d="M364.12,378.5a15.57,15.57,0,0,0-8.82,2.26,73.75,73.75,0,0,0-7.5,5.27,26.25,26.25,0,0,1-8.05,4.37,11.35,11.35,0,0,1-8.93-.82,13,13,0,0,0,6.38,9,24.76,24.76,0,0,0,11.08,3.16,29.54,29.54,0,0,0,11.15-1.08,18.43,18.43,0,0,0,9.14-6.13,15.54,15.54,0,0,0,2.91-10.44C371.23,380.81,367.12,378.76,364.12,378.5Z" transform="translate(0)"/><rect class="cls-50" x="416.69" y="521.79" width="222.55" height="5.73" transform="translate(-81.27 952.24) rotate(-79.88)"/><path d="M537.29,362.48l.37.06a23.55,23.55,0,0,1,19,27.29l-5.52,30.91-9-1.61,5.52-30.92a14.36,14.36,0,0,0-11.6-16.64l-.37-.06A14.36,14.36,0,0,0,519,383.11l-1.72,9.68a4.59,4.59,0,1,1-9-1.61L510,381.5A23.53,23.53,0,0,1,537.29,362.48Z" transform="translate(0)"/><path d="M561.18,435c-5-2.66-4.57-11.36-4.57-11.36s-6.2,6.28-11.6,5.51-9-9.18-9-9.18-2.86,8.24-8.21,9.08-8-8.87-8-8.87S497.44,637.22,507.55,639,571.76,429.4,571.76,429.4,566.17,437.62,561.18,435Z" transform="translate(0)"/><path class="cls-51" d="M558.25,431.85a18.53,18.53,0,0,1-1.64-8.26s-6.2,6.28-11.6,5.51-9-9.18-9-9.18a20.32,20.32,0,0,1-4.38,7c-4.3,31.24-28.9,211.21-24.11,212.07S551.4,463.06,558.25,431.85Z" transform="translate(0)"/><path d="M505.58,633.69l5.68,1-3.08,11.86A1.92,1.92,0,0,1,506,648h0a1.92,1.92,0,0,1-1.58-2.09Z" transform="translate(0)"/><path d="M517.27,418.6a2.78,2.78,0,1,1,2.25,3.22A2.78,2.78,0,0,1,517.27,418.6Z" transform="translate(0)"/><path d="M569.2,427.86a2.78,2.78,0,1,1,2.25,3.23A2.79,2.79,0,0,1,569.2,427.86Z" transform="translate(0)"/><path d="M533,418.57a2.78,2.78,0,1,1,2.24,3.23A2.78,2.78,0,0,1,533,418.57Z" transform="translate(0)"/><path d="M553.75,422.28a2.78,2.78,0,1,1,2.25,3.23A2.78,2.78,0,0,1,553.75,422.28Z" transform="translate(0)"/><ellipse class="cls-52" cx="543.31" cy="389.32" rx="25.31" ry="25.18" transform="translate(64.44 855.63) rotate(-79.86)"/><rect x="249.58" y="299.53" width="207.77" height="3.19" transform="translate(-48.5 68.67) rotate(-10.39)"/><path d="M466.25,282c1.84,12.36-37.4,36-107.36,48.79s-115,4.67-117.69-7.53,46.71-27.35,109.2-38.8S464.41,269.5,466.25,282Z" transform="translate(0)"/><path class="cls-53" d="M465.67,278.75c1.83,12.36-37.41,36-107.37,48.78s-115,4.68-117.69-7.53,46.71-27.34,109.2-38.8S463.82,266.29,465.67,278.75Z" transform="translate(0)"/><path class="cls-54" d="M415.49,288.18,412,266.89l-125.45,23,4.3,21.15c1.41,6.91,30.33,7.4,64.61,1.12S416.63,295.15,415.49,288.18Z" transform="translate(0)"/><polygon points="412.02 266.89 286.57 289.88 268.08 234.9 409.8 208.92 412.02 266.89"/><path class="cls-53" d="M409.8,208.92c1.34,8.29-29.16,20.77-68.12,27.91s-71.92,6.29-73.6-1.93,28.79-20.85,68.1-28.05S408.46,200.58,409.8,208.92Z" transform="translate(0)"/><path d="M412,266.89c1.15,7.05-25.89,17.88-60.4,24.21s-63.63,5.79-65.05-1.22,25.59-17.93,60.37-24.31S410.86,259.8,412,266.89Z" transform="translate(0)"/><path d="M418.71,360.29a1,1,0,0,0,.27-.1,1.18,1.18,0,0,0,.31-.24,1.15,1.15,0,0,0-.08-1.62,11,11,0,0,0-1.19-.95,1.11,1.11,0,0,0-1-.15,2.66,2.66,0,0,0-.93,0,4,4,0,0,0-1.93,1.17,21.74,21.74,0,0,0-2.2,2.43,14.58,14.58,0,1,0,5.22,8.75,14.4,14.4,0,0,0-2.09-5.28l2.7-2.74A4.33,4.33,0,0,0,418.71,360.29Zm-3.8,9.73a12.3,12.3,0,1,1-17.9-8.65,12.63,12.63,0,0,1,3.59-1.25A12.32,12.32,0,0,1,414.91,370Zm1.24-10-2.48,2.51,0,0a19.52,19.52,0,0,1,2.1-2.37,3.19,3.19,0,0,1,.64-.5.67.67,0,0,1,.18-.07A3.44,3.44,0,0,1,416.15,360Z" transform="translate(0)"/><path d="M424.27,358.18a1.15,1.15,0,0,0,.24,1.61c.73.54,1.46,1.1,2.16,1.66a1.14,1.14,0,0,0,1.53-.09l.08-.08a1.17,1.17,0,0,0-.18-1.62c-.72-.57-1.47-1.15-2.23-1.71A1.15,1.15,0,0,0,424.27,358.18Z" transform="translate(0)"/><path d="M428.65,361.58a1.15,1.15,0,0,0,.09,1.62c.12.1.24.2.34.3l1.67,1.55a1.16,1.16,0,0,0,1.61,0v0a1.14,1.14,0,0,0-.05-1.62l-1.69-1.57-.36-.33A1.14,1.14,0,0,0,428.65,361.58Z" transform="translate(0)"/><path d="M432.73,365.5h0a1.14,1.14,0,0,0,0,1.62l1.89,2a1.14,1.14,0,0,0,1.62.06h0a1.14,1.14,0,0,0,.05-1.62c-.63-.68-1.26-1.35-1.9-2A1.14,1.14,0,0,0,432.73,365.5Z" transform="translate(0)"/><path d="M423.76,358.16a1.67,1.67,0,0,0,.08-.2,1.14,1.14,0,0,0-.82-1.4c-1-.26-1.9-.48-2.75-.66a1.14,1.14,0,1,0-.47,2.24c.81.17,1.7.38,2.63.63A1.13,1.13,0,0,0,423.76,358.16Z" transform="translate(0)"/><path d="M447.61,400.66h0a1.15,1.15,0,0,0-.89,1.34l.52,2.72a1.16,1.16,0,0,0,1.35.91h0a1.15,1.15,0,0,0,.89-1.34l-.53-2.71A1.14,1.14,0,0,0,447.61,400.66Z" transform="translate(0)"/><path d="M444.46,384.35h0a1.15,1.15,0,0,0-.88,1.34l.52,2.71a1.16,1.16,0,0,0,1.35.91h0a1.14,1.14,0,0,0,.88-1.34l-.52-2.72A1.15,1.15,0,0,0,444.46,384.35Z" transform="translate(0)"/><path d="M446.56,395.22h0a1.15,1.15,0,0,0-.89,1.34l.52,2.71a1.15,1.15,0,0,0,1.35.91h0a1.16,1.16,0,0,0,.89-1.34l-.53-2.72A1.15,1.15,0,0,0,446.56,395.22Z" transform="translate(0)"/><path d="M442.42,379.23h0a1.15,1.15,0,0,0-.6,1.49l1.07,2.56a1.14,1.14,0,0,0,1.49.62h0a1.15,1.15,0,0,0,.6-1.49l-1.06-2.56A1.15,1.15,0,0,0,442.42,379.23Z" transform="translate(0)"/><path d="M445.51,389.79a1.14,1.14,0,0,0-.91,1.34l.52,2.72a1.16,1.16,0,0,0,1.35.91h0a1.15,1.15,0,0,0,.89-1.34l-.53-2.71A1.14,1.14,0,0,0,445.51,389.79Z" transform="translate(0)"/><path d="M436.39,369.7h0a1.15,1.15,0,0,0-.22,1.6l1.67,2.2a1.14,1.14,0,0,0,1.6.23h0a1.15,1.15,0,0,0,.21-1.6L438,369.92A1.16,1.16,0,0,0,436.39,369.7Z" transform="translate(0)"/><path d="M439.64,374.34a1.14,1.14,0,0,0-.42,1.56c.45.8.91,1.6,1.37,2.4a1.14,1.14,0,0,0,1.56.43h0a1.14,1.14,0,0,0,.41-1.55l-1.38-2.41A1.13,1.13,0,0,0,439.64,374.34Z" transform="translate(0)"/><circle class="cls-55" cx="185.35" cy="465.98" r="19.83" transform="translate(-166.54 108.68) rotate(-22.87)"/><path class="cls-55" d="M164,469.77c-.74,7.21-4.46,14.22-6.55,14.87a13.47,13.47,0,0,1-8.44-1c-6.47-3.45-10.69-14.66-9.55-25.87s10.33-17.95,16.8-14.51S165.1,458.56,164,469.77Z" transform="translate(0)"/><path class="cls-56" d="M166.43,469.77c-1.15,11.2-7.33,17.49-13.8,14s-10.79-15.32-9.65-26.52,7.33-17.5,13.8-14.05S167.57,458.56,166.43,469.77Z" transform="translate(0)"/><path class="cls-57" d="M154.31,443.24a8,8,0,0,0-2.3-.82c-4.5.87-8.17,6.49-9,14.87-1.14,11.2,3.17,23.08,9.65,26.52a8,8,0,0,0,2.3.83c4.5-.87,8.17-6.5,9-14.87C165.1,458.56,160.79,446.69,154.31,443.24Z" transform="translate(0)"/><path class="cls-58" d="M156.78,443.24c-6.47-3.45-12.65,2.84-13.8,14.05s3.17,23.08,9.65,26.52,12.65-2.84,13.8-14S163.25,446.69,156.78,443.24Zm9.29,26.42c-1.09,11-7,17.18-13.18,13.8s-10.3-15.06-9.21-26.06,7-17.19,13.18-13.8S167.17,458.65,166.07,469.66Z" transform="translate(0)"/><path class="cls-57" d="M212.52,473.32a7.34,7.34,0,1,1,7.33-7.34A7.34,7.34,0,0,1,212.52,473.32Zm0-13.48a6.15,6.15,0,1,0,6.14,6.14A6.15,6.15,0,0,0,212.52,459.84Z" transform="translate(0)"/><rect class="cls-56" x="204.03" y="463.69" width="3.49" height="4.59"/><path class="cls-55" d="M207.35,463.16h3.91a.58.58,0,0,1,.58.58v4.5a.58.58,0,0,1-.58.58h-3.91a0,0,0,0,1,0,0v-5.66A0,0,0,0,1,207.35,463.16Z"/><circle class="cls-59" cx="185.35" cy="465.98" r="14.66" transform="translate(-165.93 108.08) rotate(-22.77)"/><path class="cls-56" d="M185.35,451.33A14.66,14.66,0,1,0,200,466,14.66,14.66,0,0,0,185.35,451.33Zm0,28.77A14.12,14.12,0,1,1,199.47,466,14.12,14.12,0,0,1,185.35,480.1Z" transform="translate(0)"/><path class="cls-56" d="M185.35,448.09A17.9,17.9,0,1,0,203.25,466,17.89,17.89,0,0,0,185.35,448.09Zm0,35.13A17.24,17.24,0,1,1,202.59,466,17.24,17.24,0,0,1,185.35,483.22Z" transform="translate(0)"/><path d="M185.12,452.32h.35l-.58,1.23.57,1.23h-.34l-.41-.86-.4.86H184l.59-1.23-.58-1.23h.35l.4.86Z" transform="translate(0)"/><path d="M186,454.78h-.31v-2.46H186Z" transform="translate(0)"/><path d="M186.71,454.78h-.32v-2.46h.32Z" transform="translate(0)"/><path d="M185.75,478l-.42,1.65H185l.61-2.46h.25l.61,2.46h-.32Z" transform="translate(0)"/><path d="M184.53,477.19h.31v2.46h-.31Z" transform="translate(0)"/><path d="M191.33,456.2l-.27-.16,1.24-2.12.27.16Z" transform="translate(0)"/><path d="M178.57,454.17l.31-.17.09,1.35,1.1.8-.3.17-.77-.56.06.95-.31.17-.09-1.36-1.1-.79.31-.17.76.56Z" transform="translate(0)"/><path d="M180.57,455.87l-.28.15-1.2-2.14.28-.16Z" transform="translate(0)"/><path d="M195,460.29l-.15-.28,2.14-1.2.16.28Z" transform="translate(0)"/><path d="M195.31,460.88l-.16-.28,2.15-1.2.16.28Z" transform="translate(0)"/><path d="M173.77,458.82l.18-.3.75,1.13,1.36.13-.18.3-.95-.09.53.79-.18.3-.76-1.13-1.34-.14.18-.3.94.1Z" transform="translate(0)"/><path d="M196.53,465.48v-.31H199v.31Z" transform="translate(0)"/><path d="M196.53,466.16v-.32H199v.32Z" transform="translate(0)"/><path d="M196.53,466.83v-.31H199v.31Z" transform="translate(0)"/><path d="M174.14,466.75v.32h-2.46v-.32Z" transform="translate(0)"/><path d="M171.68,465.33V465l1.23.58,1.23-.58v.35l-.86.4.86.41v.35l-1.23-.58-1.23.57v-.35l.86-.4Z" transform="translate(0)"/><path d="M195.48,471l.15-.28,2.14,1.22-.15.27Z" transform="translate(0)"/><path d="M195.69,472.23l1.23,1.18-.16.28-1.83-1.75.12-.21,2.44.68-.16.28Z" transform="translate(0)"/><path d="M191.46,476.45l.51,1.63-.27.17-.76-2.42.21-.13,1.8,1.78-.27.17Z" transform="translate(0)"/><path d="M180,476.88l-1.21,1.2-.28-.16,1.8-1.79.21.13-.75,2.42-.28-.17Z" transform="translate(0)"/><path d="M179.35,475.56l.27.16-1.27,2.11-.27-.16Z" transform="translate(0)"/><path d="M178.78,475.21l.27.16-1.28,2.11-.27-.16Z" transform="translate(0)"/><path d="M175.63,472.9l-1.65.44-.16-.28,2.45-.67.12.22-1.85,1.74-.16-.29Z" transform="translate(0)"/><path d="M175.74,471.44l.15.27-2.15,1.2-.15-.27Z" transform="translate(0)"/><path d="M175.41,470.85l.15.27-2.15,1.21-.15-.28Z" transform="translate(0)"/><path d="M175.08,470.26l.15.28-2.15,1.2-.15-.28Z" transform="translate(0)"/><path d="M186.25,466a.9.9,0,1,1-.9-.89A.9.9,0,0,1,186.25,466Z" transform="translate(0)"/><rect x="186.34" y="462.46" width="0.55" height="5.32" transform="translate(454.13 41.33) rotate(54.12)"/><rect x="188.14" y="463.38" width="1.22" height="0.39" transform="translate(453.91 39.06) rotate(54.14)"/><path d="M190.75,464.6a1,1,0,0,0,.25-1.06h.1a.44.44,0,0,0,.28-.07.42.42,0,0,0,.21-.27.39.39,0,0,0-.21-.43c-.12,0-.2,0-.19,0s.05.08.08.13a.31.31,0,0,1,0,.19.18.18,0,0,1-.08.1.24.24,0,0,1-.28,0,.4.4,0,0,1-.14-.43,1.67,1.67,0,0,1,.29-.56,5.53,5.53,0,0,1,.85-.88,3.19,3.19,0,0,0,.41-.39h0v0a2.34,2.34,0,0,0-.49.27,6.79,6.79,0,0,1-1.11.53,1.75,1.75,0,0,1-.62.1.41.41,0,0,1-.36-.27.23.23,0,0,1,.07-.27.15.15,0,0,1,.12,0,.25.25,0,0,1,.17.1s.06.09.09.11.11,0,.1-.17A.36.36,0,0,0,190,461a.44.44,0,0,0-.33.11.6.6,0,0,0-.16.24s0,.07,0,.1a1,1,0,0,0-1.09-.09,1.07,1.07,0,0,0-.53,1,.84.84,0,0,0,.49.76.67.67,0,0,0,.53,0,.52.52,0,0,0,.29-.34.42.42,0,0,0-.06-.36.26.26,0,0,0-.2-.13c-.06,0-.09,0-.09,0s0,.12,0,.21a.21.21,0,0,1-.14.23.31.31,0,0,1-.23,0,.49.49,0,0,1-.28-.43.74.74,0,0,1,.34-.67.73.73,0,0,1,.84.09.79.79,0,0,1,.14.86,1.71,1.71,0,0,1-.5.69c-.41.34-.73.51-.71.54s.08,0,.2-.07c-.09.09-.14.15-.13.16s.28-.22.73-.5a1.63,1.63,0,0,1,.82-.26.78.78,0,0,1,.77.41.72.72,0,0,1-.18.82.75.75,0,0,1-.74.11.48.48,0,0,1-.32-.4.26.26,0,0,1,.08-.21.21.21,0,0,1,.26-.07c.09,0,.13.1.18.11s.06,0,.07-.07a.27.27,0,0,0-.06-.23.41.41,0,0,0-.32-.18.53.53,0,0,0-.41.17.64.64,0,0,0-.18.5.87.87,0,0,0,.56.71A1.06,1.06,0,0,0,190.75,464.6Zm-.82-1.67a1.43,1.43,0,0,0-.42.09,1.45,1.45,0,0,0,.22-.37,1.27,1.27,0,0,0,.1-.56s0,0,0-.08a.55.55,0,0,0,.29.08,1.56,1.56,0,0,0,.71-.14,4,4,0,0,0,.55-.28c-.14.14-.29.28-.43.44a1.88,1.88,0,0,0-.36.63.65.65,0,0,0,0,.31l-.08,0A1.1,1.1,0,0,0,189.93,462.93Z" transform="translate(0)"/><path d="M184.62,467.73h0a.43.43,0,0,0,.21-.05.3.3,0,0,0,.17-.22.27.27,0,0,0-.17-.33c-.1,0-.16,0-.15.05a.36.36,0,0,0,0,.11.16.16,0,0,1,0,.1s0,0,0,0a.12.12,0,0,1-.15,0,.25.25,0,0,1-.09-.26,1.23,1.23,0,0,1,.19-.38c.38-.49.89-.86.86-.9h0s-.54.33-1.13.53a1.26,1.26,0,0,1-.42.06.24.24,0,0,1-.21-.16.13.13,0,0,1,0-.15l.05,0,.09,0,.1.07s.1,0,.1-.13a.28.28,0,0,0-.26-.26.35.35,0,0,0-.27.09.33.33,0,0,0-.11.18.09.09,0,0,0,0,.05h0a.48.48,0,0,0-.22.05.37.37,0,0,0-.17.22.31.31,0,0,0,.17.34c.11,0,.16,0,.16-.06s0-.07,0-.11a.16.16,0,0,1,0-.1s0,0,0,0a.13.13,0,0,1,.15,0,.27.27,0,0,1,.09.26,1.35,1.35,0,0,1-.19.38c-.38.49-.53.61-.51.65a4.31,4.31,0,0,0,.78-.27,1.35,1.35,0,0,1,.43-.06.24.24,0,0,1,.21.16.15.15,0,0,1,0,.15l-.05,0-.09,0s-.06-.05-.1-.07-.1,0-.1.13a.28.28,0,0,0,.26.26.3.3,0,0,0,.26-.09.34.34,0,0,0,.12-.18A.09.09,0,0,0,184.62,467.73Zm-1-.42-.21.1.17-.17a1.24,1.24,0,0,0,.26-.45.28.28,0,0,0,0-.09l.09,0a1.36,1.36,0,0,0,.51-.11l.21-.1-.16.17a1.18,1.18,0,0,0-.26.45.28.28,0,0,0,0,.09l-.1,0A1.45,1.45,0,0,0,183.64,467.31Z" transform="translate(0)"/><rect x="185.61" y="459.24" width="0.46" height="8.36" transform="translate(94.01 -27.36) rotate(11.25)"/><rect x="186.14" y="459.17" width="1.03" height="0.33" transform="translate(93.24 -27.6) rotate(11.25)"/><path d="M188.49,458.83A.87.87,0,0,0,188,458l.08,0a.63.63,0,0,0,.13-.2.43.43,0,0,0,0-.3.32.32,0,0,0-.38-.14c-.1,0-.12.12-.09.14s.07,0,.12,0a.23.23,0,0,1,.14.1.2.2,0,0,1,0,.1.23.23,0,0,1-.19.16.35.35,0,0,1-.33-.19,1.37,1.37,0,0,1-.14-.51,5,5,0,0,1,0-1,2.68,2.68,0,0,0,0-.47,0,0,0,0,0,0,0s0,0,0,0a3.19,3.19,0,0,0-.15.45,5.07,5.07,0,0,1-.38,1,1.4,1.4,0,0,1-.33.42.32.32,0,0,1-.37,0,.2.2,0,0,1-.11-.21.12.12,0,0,1,0-.09.21.21,0,0,1,.17,0c.05,0,.09,0,.12,0s0-.09,0-.17a.32.32,0,0,0-.4,0,.37.37,0,0,0-.14.26.41.41,0,0,0,0,.24.18.18,0,0,0,0,.07.86.86,0,0,0-.73.57.91.91,0,0,0,.22.92.74.74,0,0,0,.75.18.57.57,0,0,0,.32-.31.42.42,0,0,0,0-.38.39.39,0,0,0-.24-.19.29.29,0,0,0-.2,0s-.05.06,0,.08.09,0,.14.1a.19.19,0,0,1,.05.23.25.25,0,0,1-.14.13.4.4,0,0,1-.42-.1.65.65,0,0,1-.18-.61.63.63,0,0,1,.57-.43.68.68,0,0,1,.59.45,1.41,1.41,0,0,1,.09.72c-.06.44-.16.73-.13.74a.49.49,0,0,0,.08-.16.54.54,0,0,0,0,.18s0-.3.17-.73a1.31,1.31,0,0,1,.36-.63.67.67,0,0,1,.71-.2.62.62,0,0,1,.36.61.6.6,0,0,1-.4.5.41.41,0,0,1-.43-.06.25.25,0,0,1-.07-.18.19.19,0,0,1,.13-.19c.07,0,.14,0,.17,0s0,0,0-.09a.22.22,0,0,0-.17-.1.33.33,0,0,0-.29.07.43.43,0,0,0-.16.35.55.55,0,0,0,.17.41.74.74,0,0,0,.76.11A.9.9,0,0,0,188.49,458.83Zm-1.47-.57a1.17,1.17,0,0,0-.21.3,1.53,1.53,0,0,0-.07-.36,1.05,1.05,0,0,0-.27-.4s0,0-.05-.05a.54.54,0,0,0,.23-.11,1.59,1.59,0,0,0,.36-.5c.07-.17.13-.33.18-.49a4.42,4.42,0,0,0,0,.52,1.58,1.58,0,0,0,.13.6.52.52,0,0,0,.17.19l-.06,0A.91.91,0,0,0,187,458.26Z" transform="translate(0)"/><path d="M185.74,468.09l0,0a.47.47,0,0,0,.1-.16.3.3,0,0,0,0-.24.25.25,0,0,0-.3-.1c-.08,0-.09.1-.06.12l.09.05a.17.17,0,0,1,.06.06s0,0,0,0a.13.13,0,0,1-.1.09.24.24,0,0,1-.2-.11,1.11,1.11,0,0,1-.1-.35c-.05-.52,0-1.05,0-1.05h0s-.14.51-.39,1a.93.93,0,0,1-.23.28.22.22,0,0,1-.23,0,.11.11,0,0,1,0-.12,0,0,0,0,1,0,0l.08,0h.1s.05-.07,0-.14a.24.24,0,0,0-.31,0,.29.29,0,0,0-.11.21.3.3,0,0,0,0,.18l0,0,0,0a.39.39,0,0,0-.1.16.31.31,0,0,0,0,.23.26.26,0,0,0,.3.11c.08,0,.09-.1.06-.12s-.06,0-.08-.05l-.07-.06s0,0,0-.05a.12.12,0,0,1,.1-.08.22.22,0,0,1,.2.11,1.11,1.11,0,0,1,.1.35,4.59,4.59,0,0,0,.06.69s.08-.15.34-.62a1.05,1.05,0,0,1,.22-.28.22.22,0,0,1,.23,0,.13.13,0,0,1,.06.11s0,0,0,0l-.08,0h-.1s-.05.07,0,.13a.24.24,0,0,0,.31,0,.33.33,0,0,0,.08-.39S185.74,468.1,185.74,468.09Zm-.85.3a1.34,1.34,0,0,0-.07.18v-.2a1,1,0,0,0-.09-.43l0-.06.07-.05a1,1,0,0,0,.25-.36,1.34,1.34,0,0,0,.07-.18v.2a1.12,1.12,0,0,0,.1.43l0,.06-.06,0A1.14,1.14,0,0,0,184.89,468.39Z" transform="translate(0)"/><rect class="cls-56" x="207.79" y="463.63" width="3.15" height="0.49"/><rect class="cls-56" x="207.79" y="464.68" width="3.15" height="0.49"/><rect class="cls-56" x="207.79" y="465.74" width="3.15" height="0.49"/><rect class="cls-56" x="207.79" y="466.8" width="3.15" height="0.49"/><rect class="cls-56" x="207.79" y="467.85" width="3.15" height="0.49"/><path class="cls-60" d="M221.94,467.13a1.88,1.88,0,0,0-.64-1.22,3.32,3.32,0,0,0-.58-.4l-.33-.13a2,2,0,0,0-.35-.09,2.12,2.12,0,0,0-.71,0,2.38,2.38,0,0,0-.67.18,1.93,1.93,0,0,0-1,.94,1.39,1.39,0,0,0,.18,1.41,2.41,2.41,0,0,0,.66.6,2.74,2.74,0,0,0,1,.35,3.23,3.23,0,0,0,.53,0,2.53,2.53,0,0,0,.49-.06,2,2,0,0,0,.82-.35A1.39,1.39,0,0,0,221.94,467.13Zm-1,0a.82.82,0,0,1-.41.67,1.17,1.17,0,0,1-.43.17,1.57,1.57,0,0,1-.53,0,1.4,1.4,0,0,1-.86-.47.84.84,0,0,1-.16-.77.93.93,0,0,1,.52-.56,1.33,1.33,0,0,1,.82-.12,1.17,1.17,0,0,1,.41.14,1.12,1.12,0,0,1,.33.24A1,1,0,0,1,221,467.15Z" transform="translate(0)"/><path class="cls-61" d="M225.05,466.38a.71.71,0,0,0-.4-.36,1.79,1.79,0,0,0-.65-.13,9.2,9.2,0,0,0-1.62.1,7.56,7.56,0,0,0-.83.14,5.3,5.3,0,0,0-.76.18c-.47.16-.83.37-.89.75s.26.7.79.91a4.09,4.09,0,0,0,.93.22,4.65,4.65,0,0,0,1,0,4.13,4.13,0,0,0,1.85-.69,1.9,1.9,0,0,0,.5-.54A.67.67,0,0,0,225.05,466.38Zm-2.57.39a4.8,4.8,0,0,1,1.61,0,2.49,2.49,0,0,1-1.53.65,2.53,2.53,0,0,1-1.65-.23A4.88,4.88,0,0,1,222.48,466.77Z" transform="translate(0)"/><path class="cls-60" d="M227.06,465.18a1.89,1.89,0,0,0-1.22-.65,2.53,2.53,0,0,0-1.38.18,2.56,2.56,0,0,0-1.06.92,1.9,1.9,0,0,0-.31,1.35A1.42,1.42,0,0,0,224,468a2.51,2.51,0,0,0,1.87-.11,2.57,2.57,0,0,0,1.33-1.33A1.4,1.4,0,0,0,227.06,465.18Zm-.81.57a1.05,1.05,0,0,1-.67,1.45,1.33,1.33,0,0,1-1,.08.81.81,0,0,1-.56-.53,1,1,0,0,1,.11-.76,1.41,1.41,0,0,1,.62-.56A1.18,1.18,0,0,1,226.25,465.75Z" transform="translate(0)"/><path class="cls-61" d="M229.14,462.76c-.33-.19-.71,0-1.13.22a12,12,0,0,0-1.25,1,10.86,10.86,0,0,0-1.11,1.16,1.08,1.08,0,0,0-.32,1.11c.16.34.59.43,1.16.32a4,4,0,0,0,1.75-1,3.92,3.92,0,0,0,1.12-1.66C229.54,463.41,229.46,463,229.14,462.76Zm-1.84,1.82a5.17,5.17,0,0,1,1.28-1,3,3,0,0,1-2.36,2.16A5.09,5.09,0,0,1,227.3,464.58Z" transform="translate(0)"/><path class="cls-60" d="M230.06,460.6a1.92,1.92,0,0,0-1.37.2,2.36,2.36,0,0,0-1,1,2.43,2.43,0,0,0-.3,1.36,1.89,1.89,0,0,0,.53,1.27,1.4,1.4,0,0,0,1.39.31,2.55,2.55,0,0,0,1.46-1.21,2.49,2.49,0,0,0,.27-1.86A1.42,1.42,0,0,0,230.06,460.6Zm-.32.94a1.22,1.22,0,0,1-1.18,2.11,1.16,1.16,0,0,1-.19-1.49,1.27,1.27,0,0,1,.6-.57A.94.94,0,0,1,229.74,461.54Z" transform="translate(0)"/><path class="cls-61" d="M230.41,457.43c-.38,0-.63.37-.82.82a9.25,9.25,0,0,0-.46,1.56,9.7,9.7,0,0,0-.24,1.6c0,.49.07.9.4,1.09s.75,0,1.13-.43a4.42,4.42,0,0,0,.83-3.78C231.08,457.74,230.78,457.41,230.41,457.43ZM229.9,460a5.52,5.52,0,0,1,.14-.58c.05-.17.09-.32.14-.45a2.2,2.2,0,0,1,.23-.5,1.32,1.32,0,0,1,.16.54c0,.14,0,.31,0,.49s-.05.4-.09.63a3.35,3.35,0,0,1-.41,1,1.3,1.3,0,0,1-.37.43,2.45,2.45,0,0,1,0-.56A8.46,8.46,0,0,1,229.9,460Z" transform="translate(0)"/><path class="cls-60" d="M230,455.13a2,2,0,0,0-1,.93,3.35,3.35,0,0,0-.24.65,2.77,2.77,0,0,0-.05.71,2.42,2.42,0,0,0,.51,1.3,1.89,1.89,0,0,0,1.16.76,1.43,1.43,0,0,0,1.32-.53,2.47,2.47,0,0,0,.42-.79,3,3,0,0,0,.1-1,2.63,2.63,0,0,0-.26-1,2.19,2.19,0,0,0-.54-.71A1.39,1.39,0,0,0,230,455.13Zm.26.95a.8.8,0,0,1,.74.23,1.38,1.38,0,0,1,.41.9,1.36,1.36,0,0,1-.26.94.81.81,0,0,1-.7.34.92.92,0,0,1-.67-.36,1.32,1.32,0,0,1-.31-.77,1.37,1.37,0,0,1,.18-.81A1,1,0,0,1,230.22,456.08Z" transform="translate(0)"/><path class="cls-61" d="M228.42,452.33c-.3.24-.3.66-.2,1.14a4.92,4.92,0,0,0,.22.76,3.12,3.12,0,0,0,.15.39,3.12,3.12,0,0,0,.15.39c.12.25.21.52.34.76a5.45,5.45,0,0,0,.37.68c.26.41.55.71.93.68s.63-.42.7-1a3.47,3.47,0,0,0,0-1,4.51,4.51,0,0,0-.3-1c-.07-.17-.15-.33-.23-.49a4.55,4.55,0,0,0-.28-.43,2.89,2.89,0,0,0-.65-.69C229.15,452.2,228.71,452.1,228.42,452.33Zm1.05,2.38a5,5,0,0,1-.47-1.55,3.09,3.09,0,0,1,1.23,3A4.86,4.86,0,0,1,229.47,454.71Z" transform="translate(0)"/><path class="cls-60" d="M226.78,450.65a1.79,1.79,0,0,0-.37,1.34,2.37,2.37,0,0,0,.55,1.34,2.05,2.05,0,0,0,.53.49,2.35,2.35,0,0,0,.64.3,1.88,1.88,0,0,0,1.38-.06,1.42,1.42,0,0,0,.78-1.19,2.5,2.5,0,0,0-.11-.88,3,3,0,0,0-.49-.89,2.56,2.56,0,0,0-1.58-.93A1.46,1.46,0,0,0,226.78,450.65Zm.73.67a1.08,1.08,0,0,1,1.57.28,1.41,1.41,0,0,1,.32.92.8.8,0,0,1-.37.68.93.93,0,0,1-.76.09,1.29,1.29,0,0,1-.7-.46A1.15,1.15,0,0,1,227.51,451.32Z" transform="translate(0)"/><path class="cls-61" d="M224.11,448.88c-.33.67.64,1.56,1.55,2.28.22.18.47.34.7.5s.48.29.7.4c.46.19.87.28,1.16,0s.29-.7,0-1.2a4.38,4.38,0,0,0-1.27-1.48C225.9,448.57,224.44,448.2,224.11,448.88Zm2,1.65a4,4,0,0,1-1.14-1.15,2.81,2.81,0,0,1,1.51.67,5.11,5.11,0,0,1,.47.41c.12.14.23.27.31.38a1.59,1.59,0,0,1,.25.51,2.35,2.35,0,0,1-.52-.22,3.12,3.12,0,0,1-.39-.25A4.52,4.52,0,0,1,226.14,450.53Z" transform="translate(0)"/><path class="cls-60" d="M222,447.93a1.74,1.74,0,0,0,.13,1.39,2.57,2.57,0,0,0,1.08,1.06,2.46,2.46,0,0,0,1.48.26,1.76,1.76,0,0,0,1.21-.69,1.49,1.49,0,0,0,.14-1.41,2.49,2.49,0,0,0-1.22-1.29A2.46,2.46,0,0,0,223,447,1.52,1.52,0,0,0,222,447.93Zm.92.36A1.24,1.24,0,0,1,225,449.4a1.25,1.25,0,0,1-2.16-1.11Z" transform="translate(0)"/><path class="cls-61" d="M218.88,447c-.16.74,1.06,1.36,2.18,1.74s2.43.62,2.78,0-.8-1.62-2.08-2S219,446.31,218.88,447Zm2.44,1a3.66,3.66,0,0,1-1.45-.75,3.74,3.74,0,0,1,3,1A3.73,3.73,0,0,1,221.32,448Z" transform="translate(0)"/><path class="cls-60" d="M216.57,446.6a2.28,2.28,0,0,0,4.29,1,2.23,2.23,0,0,0-4.29-1Zm1,.17a1.24,1.24,0,0,1,2.37.52,1.12,1.12,0,0,1-1.38.67A1.13,1.13,0,0,1,217.54,446.77Z" transform="translate(0)"/><path class="cls-61" d="M213.4,446.13c-.11.75,1.2,1.27,2.43,1.46s2.59.12,2.75-.61-1.14-1.37-2.41-1.56S213.5,445.39,213.4,446.13Zm2.55.68a3.32,3.32,0,0,1-1.55-.54,3.19,3.19,0,0,1,1.64-.06,3.06,3.06,0,0,1,1.55.57A3.5,3.5,0,0,1,216,446.81Z" transform="translate(0)"/><path class="cls-60" d="M211.07,445.79a2,2,0,0,0,1.93,2.06,1.81,1.81,0,1,0-1.93-2.06Zm1,.15a1.24,1.24,0,0,1,2.4.34,1.12,1.12,0,0,1-1.34.79A1.1,1.1,0,0,1,212.05,445.94Z" transform="translate(0)"/><path class="cls-61" d="M207.92,445.18c-.19.73,1.12,1.39,2.39,1.59s2.68.06,2.78-.68-1.19-1.27-2.41-1.48S208.11,444.45,207.92,445.18Zm2.53.82a3.17,3.17,0,0,1-1.54-.6,3.48,3.48,0,0,1,1.64,0,3.52,3.52,0,0,1,1.54.55A3.08,3.08,0,0,1,210.45,446Z" transform="translate(0)"/><path class="cls-60" d="M205.66,444.52a2.23,2.23,0,0,0,4.27,1.07,2.28,2.28,0,0,0-4.27-1.07Zm.94.3a1.26,1.26,0,0,1,2.36.59,1.1,1.1,0,0,1-1.42.67A1.09,1.09,0,0,1,206.6,444.82Z" transform="translate(0)"/><path class="cls-61" d="M202.73,443.24c-.18.32,0,.75.38,1.13a4.56,4.56,0,0,0,1.62,1c1.26.48,2.72.49,2.89-.25s-1-1.38-2.12-1.8S203.1,442.59,202.73,443.24Zm2.28,1.37a2.79,2.79,0,0,1-1.38-.91,3.84,3.84,0,0,1,1.59.34,3.7,3.7,0,0,1,1.42.79A2.88,2.88,0,0,1,205,444.61Z" transform="translate(0)"/><path class="cls-60" d="M200.76,442a1.46,1.46,0,0,0-.2,1.4,2.35,2.35,0,0,0,.42.75,3.23,3.23,0,0,0,.75.61,2.55,2.55,0,0,0,1.75.29,1.49,1.49,0,0,0,1.1-.88,1.73,1.73,0,0,0-.09-1.39,2.43,2.43,0,0,0-1-1.1,2.59,2.59,0,0,0-.73-.27,2.25,2.25,0,0,0-.73,0A1.81,1.81,0,0,0,200.76,442Zm.8.58a.92.92,0,0,1,.67-.38,1.28,1.28,0,0,1,.84.17,1.13,1.13,0,0,1,.6,1.4,1.08,1.08,0,0,1-1.55.3,1.42,1.42,0,0,1-.63-.71A.85.85,0,0,1,201.56,442.53Z" transform="translate(0)"/><path class="cls-61" d="M198.55,439.65c-.32.22-.33.66-.13,1.2a4.31,4.31,0,0,0,.47.81,5,5,0,0,0,.71.75,4.28,4.28,0,0,0,1.69.94c.54.13,1,.07,1.17-.26s0-.73-.26-1.13a7.79,7.79,0,0,0-1.17-1.21c-.22-.18-.43-.38-.67-.54a3.79,3.79,0,0,0-.67-.43A1.06,1.06,0,0,0,198.55,439.65Zm1.57,2.16a3.63,3.63,0,0,1-.73-.84,1.66,1.66,0,0,1-.22-.53,1.57,1.57,0,0,1,.5.26,8.48,8.48,0,0,1,.85.65,4.44,4.44,0,0,1,1.08,1.2A2.56,2.56,0,0,1,200.12,441.81Z" transform="translate(0)"/><path class="cls-60" d="M197.44,437.58a1.43,1.43,0,0,0-.88,1.12,2.7,2.7,0,0,0,0,.89,2.85,2.85,0,0,0,.42.93,2.46,2.46,0,0,0,1.52,1.06,1.43,1.43,0,0,0,1.36-.39,1.85,1.85,0,0,0,.46-1.31,2.57,2.57,0,0,0-.43-1.36,2.25,2.25,0,0,0-.5-.52,2.13,2.13,0,0,0-.6-.36A1.88,1.88,0,0,0,197.44,437.58Zm.4.9a.9.9,0,0,1,.77,0,1.29,1.29,0,0,1,.65.51,1.18,1.18,0,0,1,0,1.51,1.08,1.08,0,0,1-1.55-.41,1.41,1.41,0,0,1-.25-.94A.83.83,0,0,1,197.84,438.48Z" transform="translate(0)"/><path class="cls-61" d="M196.74,434.46c-.37,0-.61.39-.73,1a4.64,4.64,0,0,0,0,.93,5,5,0,0,0,.65,2,3.43,3.43,0,0,0,.59.74,1.46,1.46,0,0,0,.62.39.67.67,0,0,0,.54-.07.69.69,0,0,0,.29-.46,2.76,2.76,0,0,0,0-.65,5.88,5.88,0,0,0-.16-.77,13.53,13.53,0,0,0-.53-1.62,4,4,0,0,0-.34-.72C197.42,434.74,197.12,434.44,196.74,434.46Zm.21,2.67a2.63,2.63,0,0,1-.09-1.66,4.16,4.16,0,0,1,.67,1.47,5.1,5.1,0,0,1,.27,1,1.36,1.36,0,0,1,.06.55,1.85,1.85,0,0,1-.41-.39A3.69,3.69,0,0,1,197,437.13Z" transform="translate(0)"/><path class="cls-60" d="M196.82,432.11a1.46,1.46,0,0,0-1.31.55,2.14,2.14,0,0,0-.42.76,3.49,3.49,0,0,0-.12,1,3.28,3.28,0,0,0,.23,1,2.45,2.45,0,0,0,.51.72,1.41,1.41,0,0,0,1.37.38,1.9,1.9,0,0,0,1.08-.87,2.67,2.67,0,0,0,.26-.66,2.05,2.05,0,0,0,.07-.74,1.89,1.89,0,0,0-.15-.72,2.39,2.39,0,0,0-.34-.63A1.86,1.86,0,0,0,196.82,432.11Zm-.09,1a.93.93,0,0,1,.67.37,1.39,1.39,0,0,1,.09,1.6,1,1,0,0,1-.62.45.85.85,0,0,1-.74-.26,1.48,1.48,0,0,1-.37-.89,1.51,1.51,0,0,1,.27-.93A.81.81,0,0,1,196.73,433.1Z" transform="translate(0)"/><path class="cls-61" d="M197.71,429a.7.7,0,0,0-.55,0,1.44,1.44,0,0,0-.55.48,3.14,3.14,0,0,0-.47.81,5.18,5.18,0,0,0-.3,1,6,6,0,0,0-.09,1,4.23,4.23,0,0,0,.14.92c.18.54.46.88.84.86s.64-.35.82-.81a4,4,0,0,0,.25-.76,10.8,10.8,0,0,0,.37-2.48,2.38,2.38,0,0,0-.11-.65A.68.68,0,0,0,197.71,429Zm-1.1,2.44a4.31,4.31,0,0,1,.37-1.05,1.42,1.42,0,0,1,.35-.44,1.69,1.69,0,0,1,0,.55,6.15,6.15,0,0,1-.13,1.06,4.23,4.23,0,0,1-.49,1.54A2.69,2.69,0,0,1,196.61,431.48Z" transform="translate(0)"/><path class="cls-60" d="M198.9,427a1.43,1.43,0,0,0-1.41-.16,2.33,2.33,0,0,0-.39.19,3,3,0,0,0-.35.29,2.48,2.48,0,0,0-.58.82A2.48,2.48,0,0,0,196,430a1.46,1.46,0,0,0,1,1,1.86,1.86,0,0,0,1.36-.26,2,2,0,0,0,.55-.46,2.18,2.18,0,0,0,.41-.61,2.34,2.34,0,0,0,.21-.7,2.17,2.17,0,0,0,0-.36c0-.12,0-.23,0-.35A1.92,1.92,0,0,0,198.9,427Zm-.56.81a1,1,0,0,1,.42.66,1.44,1.44,0,0,1-.11.83,1.17,1.17,0,0,1-1.33.71,1.08,1.08,0,0,1-.43-1.54,1.31,1.31,0,0,1,.68-.69A.83.83,0,0,1,198.34,427.83Z" transform="translate(0)"/><path class="cls-61" d="M201.24,424.85c-.21-.31-.67-.36-1.2-.16l-.41.18c-.14.08-.27.18-.41.28l-.41.32a4.51,4.51,0,0,0-.37.39,4.11,4.11,0,0,0-.59.86,3.19,3.19,0,0,0-.33.88c-.12.57,0,1,.31,1.16a1.12,1.12,0,0,0,1.12-.31c.18-.16.39-.33.58-.53s.39-.41.57-.62.17-.23.27-.33.18-.21.26-.32a3.39,3.39,0,0,0,.23-.34,2.27,2.27,0,0,0,.22-.32C201.32,425.56,201.45,425.16,201.24,424.85Zm-2.2,1.53a3.11,3.11,0,0,1,.86-.73,1.23,1.23,0,0,1,.52-.2,2.4,2.4,0,0,1-.26.49c-.14.24-.39.49-.66.84-.14.17-.28.3-.4.43s-.23.25-.33.34a2.16,2.16,0,0,1-.45.32,1.24,1.24,0,0,1,.13-.54,3,3,0,0,1,.21-.45A4.74,4.74,0,0,1,199,426.38Z" transform="translate(0)"/><path class="cls-60" d="M203.3,423.73a1.44,1.44,0,0,0-1.12-.86,2.66,2.66,0,0,0-2.88,1.9,1.42,1.42,0,0,0,.36,1.38,1.89,1.89,0,0,0,1.29.49,2.5,2.5,0,0,0,1.38-.41,2.56,2.56,0,0,0,.93-1.11A1.86,1.86,0,0,0,203.3,423.73Zm-.89.42a1.27,1.27,0,0,1-2,1.33,1.23,1.23,0,0,1,2-1.33Z" transform="translate(0)"/><path class="cls-61" d="M206.37,422.83c-.12-.75-1.61-.82-2.91-.34a5.22,5.22,0,0,0-.92.45,4,4,0,0,0-.72.58c-.38.43-.54.83-.33,1.15a1.09,1.09,0,0,0,1.12.31,3.91,3.91,0,0,0,.78-.17,8,8,0,0,0,.83-.26C205.3,424.14,206.5,423.56,206.37,422.83Zm-2.63.4c.21-.07.42-.13.6-.17a3.27,3.27,0,0,1,.48-.07,1.5,1.5,0,0,1,.56.05,2,2,0,0,1-.45.33,3.47,3.47,0,0,1-.43.21c-.16.08-.34.15-.55.23a4.37,4.37,0,0,1-1.58.36A2.67,2.67,0,0,1,203.74,423.23Z" transform="translate(0)"/><path class="cls-60" d="M208.71,422.53a1.53,1.53,0,0,0-.77-1.19,2.68,2.68,0,0,0-3.27.6,1.46,1.46,0,0,0-.28,1.39,1.75,1.75,0,0,0,1,1,2.44,2.44,0,0,0,1.5.19A2.11,2.11,0,0,0,208.71,422.53Zm-1,.09a1.25,1.25,0,0,1-2.38.44,1.23,1.23,0,0,1,2.38-.44Z" transform="translate(0)"/><path class="cls-61" d="M211.91,422.49c0-.76-1.35-1.17-2.68-1.1s-2.7.63-2.55,1.38,1.46.86,2.66.81S211.87,423.23,211.91,422.49Zm-2.64-.31a3,3,0,0,1,1.63.28,3.74,3.74,0,0,1-1.6.33,3.58,3.58,0,0,1-1.62-.17A3,3,0,0,1,209.27,422.18Z" transform="translate(0)"/><path class="cls-60" d="M214.26,422.65a2,2,0,0,0-2.12-1.92,2,2,0,0,0-2.28,1.74,2.28,2.28,0,0,0,4.4.18Zm-1-.08a1.11,1.11,0,0,1-1.25.89,1.13,1.13,0,0,1-1.17-1,1.23,1.23,0,0,1,2.42.11Z" transform="translate(0)"/><path class="cls-61" d="M217.45,423c.08-.75-1.23-1.25-2.51-1.37s-2.69.12-2.72.88,1.27,1.17,2.51,1.3S217.37,423.74,217.45,423Zm-2.58-.59a3.14,3.14,0,0,1,1.57.48,3.43,3.43,0,0,1-1.63.13,3.36,3.36,0,0,1-1.58-.45A3.14,3.14,0,0,1,214.87,422.4Z" transform="translate(0)"/><path class="cls-60" d="M219.79,423.22a2.26,2.26,0,0,0-4.38-.45,2.26,2.26,0,0,0,4.38.45Zm-1-.09A1.25,1.25,0,1,1,217.7,422,1.11,1.11,0,0,1,218.81,423.13Z" transform="translate(0)"/><path class="cls-61" d="M223,423.36c0-.75-1.31-1.09-2.54-1.19s-2.62.1-2.7.85,1.25,1.24,2.54,1.33S223,424.12,223,423.36Zm-2.6-.41a3.76,3.76,0,0,1,1.59.39,3,3,0,0,1-1.63.23,3.14,3.14,0,0,1-1.59-.45A3.49,3.49,0,0,1,220.39,423Z" transform="translate(0)"/><path class="cls-60" d="M225.34,423.25a1.71,1.71,0,0,0-.73-1.19,2.44,2.44,0,0,0-1.48-.46,2.08,2.08,0,0,0-2.19,1.7,2,2,0,0,0,2.22,1.83,2.62,2.62,0,0,0,1.63-.58A1.54,1.54,0,0,0,225.34,423.25Zm-1,.07a1.24,1.24,0,0,1-2.43,0,1.26,1.26,0,0,1,2.43,0Z" transform="translate(0)"/><path class="cls-61" d="M228.45,422.51c-.14-.34-.54-.48-1-.51a8,8,0,0,0-1.66.1c-1.14.16-2.46.51-2.46,1.26s1.41,1.1,2.77.91a4.39,4.39,0,0,0,1.84-.68C228.37,423.25,228.6,422.86,228.45,422.51Zm-2.57.37a4.53,4.53,0,0,1,1.61,0,2.5,2.5,0,0,1-1.53.64,2.76,2.76,0,0,1-1.64-.15A3.76,3.76,0,0,1,225.88,422.88Z" transform="translate(0)"/><path class="cls-60" d="M230.48,421.33a2.11,2.11,0,0,0-1.22-.64,2.39,2.39,0,0,0-1.36.14,2.48,2.48,0,0,0-1.09.91,1.84,1.84,0,0,0-.32,1.35,1.42,1.42,0,0,0,.93,1.06,2.52,2.52,0,0,0,1.86-.07,2.57,2.57,0,0,0,1.38-1.33A1.35,1.35,0,0,0,230.48,421.33Zm-.81.57a.82.82,0,0,1,0,.79,1.38,1.38,0,0,1-.72.66,1.07,1.07,0,0,1-1.52-.5,1.27,1.27,0,0,1,2.22-1Z" transform="translate(0)"/><path class="cls-61" d="M232.07,418.64c-.38-.05-.67.22-1,.51s-.63.67-1,1c-.65.72-1.66,1.51-1.38,2.21.15.35.59.46,1.16.35a3.58,3.58,0,0,0,1.8-1,3.29,3.29,0,0,0,.95-2,1.43,1.43,0,0,0-.13-.78A.55.55,0,0,0,232.07,418.64Zm-1.39,2.08a14.35,14.35,0,0,1,1.12-1.11,1.21,1.21,0,0,1-.07.57,2.94,2.94,0,0,1-.21.46,2.55,2.55,0,0,1-.4.51,2.88,2.88,0,0,1-.49.41,2.18,2.18,0,0,1-.44.24,1.33,1.33,0,0,1-.55.13A6,6,0,0,1,230.68,420.72Z" transform="translate(0)"/><path class="cls-60" d="M231.76,416.34a1.55,1.55,0,0,0-.57.4,2.57,2.57,0,0,0-.42.53,2.61,2.61,0,0,0-.43,1,2.25,2.25,0,0,0,.2,1.06,2.45,2.45,0,0,0,.74,1.14,1.25,1.25,0,0,0,1.44.06,2.49,2.49,0,0,0,1.13-1.88,2.43,2.43,0,0,0-.68-2.06A1.29,1.29,0,0,0,231.76,416.34Zm.29.94a.76.76,0,0,1,.73.28,1.46,1.46,0,0,1-.22,2,.71.71,0,0,1-.78.11,1.07,1.07,0,0,1-.52-.55,1.27,1.27,0,0,1-.13-.72,1.32,1.32,0,0,1,.28-.68A1.09,1.09,0,0,1,232.05,417.28Z" transform="translate(0)"/><path class="cls-61" d="M229.92,413.74c-.53.54.16,1.67.63,2.59.24.46.48.91.71,1.28s.47.69.85.72.7-.32.79-.95a3.42,3.42,0,0,0-.42-2.09,3.79,3.79,0,0,0-1.36-1.48C230.62,413.52,230.18,413.47,229.92,413.74Zm1.32,2.22a5.42,5.42,0,0,1-.64-1.47,2.31,2.31,0,0,1,1.18,1.18,2.17,2.17,0,0,1,.28,1.65A7.57,7.57,0,0,1,231.24,416Z" transform="translate(0)"/><path class="cls-60" d="M228.13,412.21a2.09,2.09,0,0,0,.45,2.68,2.4,2.4,0,0,0,1.28.66,2,2,0,0,0,1.36-.23,1.39,1.39,0,0,0,.61-1.29,2.56,2.56,0,0,0-.79-1.66,2.43,2.43,0,0,0-1.62-.73A1.53,1.53,0,0,0,228.13,412.21Zm.77.61a1.1,1.1,0,0,1,1.59.11,1.09,1.09,0,0,1,.14,1.59,1.26,1.26,0,0,1-1.73-1.7Z" transform="translate(0)"/><path class="cls-61" d="M225.49,410.39c-.39.64.56,1.61,1.52,2.35a6.35,6.35,0,0,0,1.52.86c.48.16.9.2,1.17-.08s.19-.71-.09-1.19a5.11,5.11,0,0,0-1.29-1.35C227.27,410.18,225.88,409.74,225.49,410.39Zm2,1.71a3.47,3.47,0,0,1-1.13-1.17,3.92,3.92,0,0,1,2.59,1.92A3.5,3.5,0,0,1,227.48,412.1Z" transform="translate(0)"/><path class="cls-60" d="M223.45,409.22a1.61,1.61,0,0,0,0,1.39,2.5,2.5,0,0,0,1,1.2,2.47,2.47,0,0,0,1.53.37,1.68,1.68,0,0,0,1.23-.66,1.53,1.53,0,0,0,.17-1.4,2.31,2.31,0,0,0-.39-.72,2.87,2.87,0,0,0-.69-.6,2.56,2.56,0,0,0-1.67-.37A1.55,1.55,0,0,0,223.45,409.22Zm.87.47a1.24,1.24,0,0,1,2.07,1.27,1.13,1.13,0,0,1-1.53.17A1.12,1.12,0,0,1,224.32,409.69Z" transform="translate(0)"/><path class="cls-61" d="M220.55,407.85c-.28.7.8,1.53,1.89,2.08s2.4.93,2.79.29-.63-1.66-1.8-2.25S220.83,407.15,220.55,407.85Zm2.25,1.37a4.65,4.65,0,0,1-.92-.57,1.81,1.81,0,0,1-.4-.39,1.49,1.49,0,0,1,.56,0,4.79,4.79,0,0,1,1,.38,3.09,3.09,0,0,1,1.29,1A3.52,3.52,0,0,1,222.8,409.22Z" transform="translate(0)"/><path class="cls-60" d="M218.35,407a2.28,2.28,0,0,0,4.07,1.68,2.24,2.24,0,0,0-4.07-1.68Zm.93.33a1.24,1.24,0,0,1,2.24.93,1.25,1.25,0,0,1-2.24-.93Z" transform="translate(0)"/><path class="cls-61" d="M215.28,406.08c-.18.73,1,1.4,2.18,1.79s2.51.56,2.8-.13-.87-1.55-2.11-1.95S215.47,405.35,215.28,406.08Zm2.42,1a3.52,3.52,0,0,1-1.44-.77,3.08,3.08,0,0,1,1.64.19,3,3,0,0,1,1.42.83A3.61,3.61,0,0,1,217.7,407.12Z" transform="translate(0)"/><path class="cls-60" d="M213,405.54a2.27,2.27,0,0,0,4.26,1.11,2.24,2.24,0,0,0-4.26-1.11Zm1,.22a1.1,1.1,0,0,1,1.42-.66,1.11,1.11,0,0,1,.93,1.27,1.14,1.14,0,0,1-1.42.62A1.13,1.13,0,0,1,214,405.76Z" transform="translate(0)"/><path class="cls-61" d="M209.83,405c-.1.75,1.18,1.27,2.38,1.51s2.58.22,2.78-.5-1.08-1.42-2.36-1.65S209.93,404.26,209.83,405Zm2.53.73a3.4,3.4,0,0,1-1.52-.58,4,4,0,0,1,3.16.62A3.5,3.5,0,0,1,212.36,405.73Z" transform="translate(0)"/><path class="cls-60" d="M207.49,404.73a2.27,2.27,0,0,0,4.37.59c.18-.95-.69-1.91-1.94-2.09A2,2,0,0,0,207.49,404.73Zm1,.1a1.1,1.1,0,0,1,1.33-.81c.68.1,1.16.6,1.07,1.14a1.25,1.25,0,0,1-2.4-.33Z" transform="translate(0)"/><path class="cls-61" d="M204.29,404.52c0,.75,1.3,1.14,2.53,1.25s2.6-.06,2.71-.81-1.23-1.27-2.52-1.37S204.32,403.76,204.29,404.52Zm2.6.47a3.54,3.54,0,0,1-1.58-.42,3.16,3.16,0,0,1,1.63-.2,3.08,3.08,0,0,1,1.58.47A3.61,3.61,0,0,1,206.89,405Z" transform="translate(0)"/><path class="cls-60" d="M201.94,404.46a2.27,2.27,0,0,0,4.4.17,2.25,2.25,0,0,0-4.4-.17Zm1,0a1.24,1.24,0,0,1,2.43.09,1.25,1.25,0,0,1-2.43-.09Z" transform="translate(0)"/><path class="cls-61" d="M198.73,404.51c0,.75,1.39,1.05,2.63,1.05s2.6-.31,2.63-1.05-1.34-1.15-2.63-1.15S198.7,403.76,198.73,404.51Zm2.63.26a3.39,3.39,0,0,1-1.61-.29,4.09,4.09,0,0,1,3.22,0A3.53,3.53,0,0,1,201.36,404.77Z" transform="translate(0)"/><path class="cls-60" d="M196.38,404.63a2.27,2.27,0,0,0,4.41-.16,2.25,2.25,0,0,0-4.41.16Zm1-.06a1.25,1.25,0,0,1,2.43-.09,1.25,1.25,0,0,1-2.43.09Z" transform="translate(0)"/><path class="cls-61" d="M193.19,404.87c.07.75,1.44,1,2.69.89s2.57-.48,2.55-1.24-1.42-1-2.7-.95S193.12,404.12,193.19,404.87Zm2.64.1a3.33,3.33,0,0,1-1.63-.19,4.25,4.25,0,0,1,3.21-.21A3.36,3.36,0,0,1,195.83,405Z" transform="translate(0)"/><path class="cls-60" d="M190.85,405.11a2.26,2.26,0,0,0,4.38-.41,2.25,2.25,0,0,0-4.38.41Zm1-.11a1.11,1.11,0,0,1,1.12-1.09,1,1,0,1,1-1.12,1.09Z" transform="translate(0)"/><path class="cls-61" d="M187.67,405.54c.12.74,1.5.87,2.73.72s2.55-.61,2.48-1.36-1.47-1-2.74-.81S187.54,404.8,187.67,405.54Zm2.64-.06a3.4,3.4,0,0,1-1.64-.09,3.06,3.06,0,0,1,1.56-.52,3.23,3.23,0,0,1,1.64.12A3.32,3.32,0,0,1,190.31,405.48Z" transform="translate(0)"/><path class="cls-60" d="M185.35,406a2.27,2.27,0,0,0,4.35-.72,2.25,2.25,0,0,0-4.35.72Zm1-.19a1.24,1.24,0,0,1,2.4-.4,1.25,1.25,0,0,1-2.4.4Z" transform="translate(0)"/><path class="cls-61" d="M182.24,406.74c.22.72,1.58.68,2.78.42s2.47-.83,2.35-1.57-1.55-.85-2.82-.57S182,406,182.24,406.74Zm2.61-.35a3.43,3.43,0,0,1-1.63.08,3,3,0,0,1,1.5-.68,3.17,3.17,0,0,1,1.65,0A3.51,3.51,0,0,1,184.85,406.39Z" transform="translate(0)"/><path class="cls-60" d="M180,407.47a2.28,2.28,0,0,0,4.22-1.25,2.24,2.24,0,0,0-4.22,1.25Zm.93-.32a1.24,1.24,0,0,1,2.33-.69,1.25,1.25,0,0,1-2.33.69Z" transform="translate(0)"/><path class="cls-61" d="M177.06,408.73c.33.66,1.66.4,2.8,0s2.3-1.15,2.09-1.87-1.66-.66-2.88-.18S176.71,408.05,177.06,408.73Zm2.51-.77a3.47,3.47,0,0,1-1.6.33,4,4,0,0,1,3-1.16A3.49,3.49,0,0,1,179.57,408Z" transform="translate(0)"/><path class="cls-60" d="M175,409.85a2.28,2.28,0,0,0,3.94-2,2.23,2.23,0,0,0-3.94,2Zm.86-.49a1.08,1.08,0,0,1,.64-1.43,1.1,1.1,0,0,1,1.53.34,1.25,1.25,0,0,1-2.17,1.09Z" transform="translate(0)"/><path class="cls-61" d="M172.36,411.69c.48.58,1.71,0,2.73-.6s2-1.55,1.69-2.22-1.75-.35-2.87.37S171.88,411.11,172.36,411.69Zm2.3-1.27a3.7,3.7,0,0,1-1.49.65,3,3,0,0,1,1.16-1.17,2.88,2.88,0,0,1,1.55-.56A3.78,3.78,0,0,1,174.66,410.42Z" transform="translate(0)"/><path class="cls-60" d="M170.61,413.26a1.76,1.76,0,0,0,1.32.46,2.55,2.55,0,0,0,2.27-1.86,1.66,1.66,0,0,0-.18-1.38,1.52,1.52,0,0,0-1.26-.65,2.47,2.47,0,0,0-1.63.59,2.57,2.57,0,0,0-.91,1.48A1.53,1.53,0,0,0,170.61,413.26Zm.72-.68a1.1,1.1,0,0,1,.3-1.55,1.11,1.11,0,0,1,1.58,0,1.26,1.26,0,0,1-1.88,1.54Z" transform="translate(0)"/><path class="cls-61" d="M168.54,415.7c.31.22.73.11,1.16-.16a4.68,4.68,0,0,0,.66-.49,6.25,6.25,0,0,0,.64-.62,6.34,6.34,0,0,0,.59-.69,4.07,4.07,0,0,0,.45-.69c.24-.45.32-.88.08-1.17s-.67-.27-1.18-.07a4.94,4.94,0,0,0-.79.45,5.64,5.64,0,0,0-1.36,1.45,4.33,4.33,0,0,0-.4.81C168.22,415.05,168.23,415.48,168.54,415.7Zm1.89-1.82a3.58,3.58,0,0,1-1.28,1,3,3,0,0,1,.83-1.43,2.9,2.9,0,0,1,1.38-.91A3.81,3.81,0,0,1,170.43,413.88Z" transform="translate(0)"/><path class="cls-60" d="M167.32,417.71a1.7,1.7,0,0,0,1.38.05,2.44,2.44,0,0,0,1.2-.92,2.56,2.56,0,0,0,.46-1.45,1.75,1.75,0,0,0-.54-1.29,1.5,1.5,0,0,0-1.38-.3,2.63,2.63,0,0,0-1.9,2.72A1.48,1.48,0,0,0,167.32,417.71Zm.48-.86a1.23,1.23,0,0,1,1.38-2,1.26,1.26,0,0,1-1.38,2Z" transform="translate(0)"/><path class="cls-61" d="M166.11,420.68c.72.19,1.42-.92,1.94-2s.93-2.3.32-2.74c-.31-.21-.75-.09-1.17.27a4.55,4.55,0,0,0-1.13,1.53C165.47,419,165.37,420.48,166.11,420.68Zm1.22-2.32a6.69,6.69,0,0,1-.53.94,1.77,1.77,0,0,1-.37.41,1.29,1.29,0,0,1,0-.56,3.59,3.59,0,0,1,.34-1,2.74,2.74,0,0,1,1-1.29A4,4,0,0,1,167.33,418.36Z" transform="translate(0)"/><path class="cls-60" d="M165.6,423a1.77,1.77,0,0,0,1.33-.41,2.59,2.59,0,0,0,.5-.54,2.72,2.72,0,0,0,.33-.71,3,3,0,0,0,.1-.77,2.43,2.43,0,0,0-.13-.73,1.76,1.76,0,0,0-.92-1.06,1.5,1.5,0,0,0-1.4.14,2.13,2.13,0,0,0-.62.58,3,3,0,0,0-.42.86,2.61,2.61,0,0,0-.1.95,2.16,2.16,0,0,0,.21.82A1.47,1.47,0,0,0,165.6,423Zm.17-1a1.09,1.09,0,0,1-.64-1.45,1.32,1.32,0,0,1,.55-.77.81.81,0,0,1,.76-.11,1.25,1.25,0,0,1-.67,2.33Z" transform="translate(0)"/><path class="cls-61" d="M165.48,426.17c.38,0,.62-.38.79-.85a7.26,7.26,0,0,0,.35-1.66c.11-1.15.11-2.47-.6-2.69s-1.44,1.1-1.58,2.46a4.59,4.59,0,0,0,.17,1.92C164.8,425.87,165.11,426.2,165.48,426.17Zm.35-2.59a5.52,5.52,0,0,1-.19,1.06,1.37,1.37,0,0,1-.2.51,1.61,1.61,0,0,1-.19-.53,4.27,4.27,0,0,1,0-1.11,3.53,3.53,0,0,1,.27-1.07,1.28,1.28,0,0,1,.29-.48,1.87,1.87,0,0,1,.09.55A7,7,0,0,1,165.83,423.58Z" transform="translate(0)"/><path class="cls-60" d="M165.87,428.49a1.79,1.79,0,0,0,1.07-.89,2,2,0,0,0,.26-.67,2.15,2.15,0,0,0,.05-.76,2.29,2.29,0,0,0-.18-.75,2.25,2.25,0,0,0-.38-.63,1.73,1.73,0,0,0-1.21-.67,1.49,1.49,0,0,0-1.28.62,2.41,2.41,0,0,0-.38.77,3,3,0,0,0-.08,1,3.08,3.08,0,0,0,.25.95,2.63,2.63,0,0,0,.51.69A1.47,1.47,0,0,0,165.87,428.49Zm-.21-1a.84.84,0,0,1-.74-.24,1.43,1.43,0,0,1-.16-1.8.86.86,0,0,1,.69-.37.89.89,0,0,1,.68.34,1.24,1.24,0,0,1,.33.79,1.31,1.31,0,0,1-.18.83A1,1,0,0,1,165.66,427.52Z" transform="translate(0)"/><path class="cls-61" d="M167.09,431.44c.31-.18.39-.61.35-1.1a8.48,8.48,0,0,0-.36-1.62c-.1-.27-.18-.56-.29-.82a6.19,6.19,0,0,0-.35-.73c-.25-.43-.55-.73-.93-.7s-.61.42-.71,1a4.05,4.05,0,0,0,0,.93,5.06,5.06,0,0,0,.2,1,4.39,4.39,0,0,0,1,1.7C166.35,431.47,166.75,431.64,167.09,431.44Zm-.77-2.49a4.2,4.2,0,0,1,.29,1.6,2.74,2.74,0,0,1-.87-1.41,3.7,3.7,0,0,1-.18-1.1,1.65,1.65,0,0,1,.09-.56,1.76,1.76,0,0,1,.29.47A7.39,7.39,0,0,1,166.32,429Z" transform="translate(0)"/><path class="cls-60" d="M168.45,433.36a1.81,1.81,0,0,0,.57-1.27,2.43,2.43,0,0,0-.34-1.42,2.47,2.47,0,0,0-.48-.58,3,3,0,0,0-.6-.4,1.91,1.91,0,0,0-1.39-.1,1.45,1.45,0,0,0-.9,1.09,2.12,2.12,0,0,0,0,.87,2.53,2.53,0,0,0,.35.92,2.46,2.46,0,0,0,1.41,1.15A1.45,1.45,0,0,0,168.45,433.36Zm-.62-.77a1.07,1.07,0,0,1-1.5-.52,1.31,1.31,0,0,1-.19-.94.81.81,0,0,1,.45-.63,1,1,0,0,1,.78,0,1.49,1.49,0,0,1,.63.57A1.16,1.16,0,0,1,167.83,432.59Z" transform="translate(0)"/><path class="cls-61" d="M170.84,435.48c.22-.32.08-.71-.17-1.15a7.22,7.22,0,0,0-.46-.65c-.18-.22-.38-.44-.57-.65-.8-.82-1.75-1.69-2.4-1.32-.31.19-.38.64-.21,1.18a3.32,3.32,0,0,0,.39.84l.28.42a4.4,4.4,0,0,0,.35.39,4.13,4.13,0,0,0,.78.67,3.09,3.09,0,0,0,.82.43C170.17,435.84,170.64,435.78,170.84,435.48Zm-1.78-1.91a4.29,4.29,0,0,1,1,1.31,2.65,2.65,0,0,1-1.4-.88,3.56,3.56,0,0,1-.65-.91,1.23,1.23,0,0,1-.16-.54,2,2,0,0,1,.47.3A7.54,7.54,0,0,1,169.06,433.57Z" transform="translate(0)"/><path class="cls-60" d="M172.92,436.58a1.91,1.91,0,0,0-.07-1.39,2.46,2.46,0,0,0-2.32-1.5,1.74,1.74,0,0,0-1.28.5,1.47,1.47,0,0,0-.34,1.38A2.54,2.54,0,0,0,170,437a2.49,2.49,0,0,0,1.79.41A1.44,1.44,0,0,0,172.92,436.58Zm-.9-.41a.85.85,0,0,1-.65.44,1.37,1.37,0,0,1-.93-.23,1.07,1.07,0,0,1-.45-1.53,1.15,1.15,0,0,1,1.51-.1,1.37,1.37,0,0,1,.53.65A.94.94,0,0,1,172,436.17Z" transform="translate(0)"/><path class="cls-61" d="M176,437.28c0-.38-.29-.68-.72-.91a4.24,4.24,0,0,0-.71-.33,5.36,5.36,0,0,0-.79-.3,8.46,8.46,0,0,0-.82-.24,3.73,3.73,0,0,0-.78-.16,1.07,1.07,0,0,0-1.11.31c-.21.32,0,.73.33,1.15a3.46,3.46,0,0,0,.74.58,5,5,0,0,0,.94.44,6.43,6.43,0,0,0,1,.22,4.21,4.21,0,0,0,1,0C175.65,437.9,176,437.66,176,437.28Zm-2.47-.79a4.2,4.2,0,0,1,1.46.68,2.58,2.58,0,0,1-1.66-.1,2.62,2.62,0,0,1-1.38-.92A4.42,4.42,0,0,1,173.56,436.49Z" transform="translate(0)"/><path class="cls-56" d="M224,465.89c-.11.26-.23.52-.33.79a1.34,1.34,0,0,1,.43.05,2.49,2.49,0,0,1-1.53.65,2.53,2.53,0,0,1-1.65-.23,1.44,1.44,0,0,1,.35-.14,2.13,2.13,0,0,1-.52-.68c-.44.16-.78.36-.84.73s.26.7.79.91a4.09,4.09,0,0,0,.93.22,4.65,4.65,0,0,0,1,0,4.13,4.13,0,0,0,1.85-.69,1.9,1.9,0,0,0,.5-.54.67.67,0,0,0,0-.55.68.68,0,0,0-.4-.36A1.94,1.94,0,0,0,224,465.89Z" transform="translate(0)"/><path class="cls-60" d="M218.57,466.75a1.12,1.12,0,0,1,1-.69c-.07-.26-.11-.53-.19-.77a2.12,2.12,0,0,0-1.69,1.12l.45.18a2,2,0,0,0,.32.11Z" transform="translate(0)"/><path class="cls-60" d="M220.33,465.37a3.81,3.81,0,0,1-.22.75,1.14,1.14,0,0,1,.85,1h.49a4.5,4.5,0,0,0,.49,0,1.78,1.78,0,0,0-.54-1.11,2,2,0,0,0-.49-.39A2.15,2.15,0,0,0,220.33,465.37Z" transform="translate(0)"/><path class="cls-56" d="M228,463c.07.28.13.56.2.84a2.2,2.2,0,0,1,.38-.22,3,3,0,0,1-2.36,2.16,1,1,0,0,1,.2-.3,2.3,2.3,0,0,1-.8-.28,1.05,1.05,0,0,0-.29,1.07c.16.34.59.43,1.16.32a4,4,0,0,0,1.75-1,3.92,3.92,0,0,0,1.12-1.66c.18-.55.1-1-.22-1.19S228.42,462.73,228,463Z" transform="translate(0)"/><path class="cls-60" d="M224.05,466.75a1.09,1.09,0,0,1,.41-1.11,6.09,6.09,0,0,0-.6-.54,2.45,2.45,0,0,0-.62.84,1.69,1.69,0,0,0-.15,1l.48-.1Z" transform="translate(0)"/><path class="cls-60" d="M224.74,464.61a3.36,3.36,0,0,1,.24.76,1.18,1.18,0,0,1,.72,0,.89.89,0,0,1,.55.39s.22-.13.42-.27l.39-.3a1.81,1.81,0,0,0-1.07-.62A2.52,2.52,0,0,0,224.74,464.61Z" transform="translate(0)"/><path class="cls-56" d="M229.58,458.26l.64.58a2,2,0,0,1,.19-.39,1.32,1.32,0,0,1,.16.54c0,.14,0,.31,0,.49s-.05.4-.09.63a3.35,3.35,0,0,1-.41,1,1.3,1.3,0,0,1-.37.43,1.9,1.9,0,0,1,0-.37,2.23,2.23,0,0,1-.82.25c0,.47.08.86.4,1s.75,0,1.13-.43a4.42,4.42,0,0,0,.83-3.78c-.17-.55-.47-.89-.84-.86S229.78,457.81,229.58,458.26Z" transform="translate(0)"/><path class="cls-60" d="M228.56,463.65a1.08,1.08,0,0,1-.33-1.13c-.26,0-.53-.08-.8-.09a2.14,2.14,0,0,0,.48,2,3.32,3.32,0,0,0,.33-.37l.22-.26Z" transform="translate(0)"/><path class="cls-60" d="M227.84,461.52a5,5,0,0,1,.64.46,1.14,1.14,0,0,1,1.26-.44l.06-.14.11-.33.11-.32,0-.15a1.89,1.89,0,0,0-1.24.13,3.06,3.06,0,0,0-.54.34A3.13,3.13,0,0,0,227.84,461.52Z" transform="translate(0)"/><path class="cls-56" d="M228.22,453.49l.86.11a1.7,1.7,0,0,1-.08-.44,3.09,3.09,0,0,1,1.23,3,1.89,1.89,0,0,1-.22-.29,2,2,0,0,1-.54.66c.27.39.54.67.91.64s.63-.42.7-1a3.47,3.47,0,0,0,0-1,4.51,4.51,0,0,0-.3-1c-.07-.17-.15-.33-.23-.49a4.55,4.55,0,0,0-.28-.43,2.89,2.89,0,0,0-.65-.69c-.45-.36-.89-.46-1.18-.23S228.12,453,228.22,453.49Z" transform="translate(0)"/><path class="cls-60" d="M230.41,458.49a1.08,1.08,0,0,1-.9-.76,8,8,0,0,0-.71.38,2.33,2.33,0,0,0,.58.87,1.73,1.73,0,0,0,.93.5s0-.06,0-.16,0-.21,0-.33A3.61,3.61,0,0,0,230.41,458.49Z" transform="translate(0)"/><path class="cls-60" d="M228.64,457.12a3.51,3.51,0,0,1,.79,0,1.38,1.38,0,0,1,.23-.68,1,1,0,0,1,.56-.39l-.12-.48a1.79,1.79,0,0,0-.09-.32l0-.15a1.87,1.87,0,0,0-1,.8A2.48,2.48,0,0,0,228.64,457.12Z" transform="translate(0)"/><path class="cls-56" d="M224.43,450l.82-.28a1.37,1.37,0,0,1-.25-.36,2.81,2.81,0,0,1,1.51.67,5.11,5.11,0,0,1,.47.41c.12.14.23.27.31.38a.29.29,0,1,1-.1.38,2.39,2.39,0,0,1-.08.85c.44.19.83.26,1.11,0s.29-.7,0-1.2a4.38,4.38,0,0,0-1.27-1.48c-1.09-.85-2.55-1.22-2.88-.54C223.94,449.22,224.11,449.62,224.43,450Z" transform="translate(0)"/><path class="cls-56" d="M219.51,448.05l.71-.5a1.56,1.56,0,0,1-.35-.27,3.74,3.74,0,0,1,3,1,1.35,1.35,0,0,1-.37,0,2.41,2.41,0,0,1,.24.82c.49,0,.88-.07,1.05-.4.36-.67-.8-1.62-2.08-2s-2.72-.39-2.88.34C218.8,447.42,219.08,447.75,219.51,448.05Z" transform="translate(0)"/><path class="cls-60" d="M225,449.4a1.06,1.06,0,0,1-1.12.41,5.59,5.59,0,0,0,0,.82,2,2,0,0,0,2-.68l-.13-.09a1.69,1.69,0,0,0-.28-.19Z" transform="translate(0)"/><path class="cls-60" d="M222.89,450.2a4,4,0,0,1,.46-.64,1.09,1.09,0,0,1-.47-1.27l-.46-.18-.46-.18A2,2,0,0,0,222.89,450.2Z" transform="translate(0)"/><path class="cls-56" d="M214.13,447.08c.23-.19.45-.38.66-.59a1.25,1.25,0,0,1-.39-.22,3.19,3.19,0,0,1,1.64-.06,3.06,3.06,0,0,1,1.55.57,1.39,1.39,0,0,1-.37.08,2.61,2.61,0,0,1,.43.76c.49-.09.85-.29.93-.64.17-.74-1.14-1.37-2.41-1.56s-2.67,0-2.77.71C213.34,446.51,213.65,446.83,214.13,447.08Z" transform="translate(0)"/><path class="cls-60" d="M219.91,447.29a1,1,0,0,1-1,.7,5.88,5.88,0,0,0,.23.79,1.88,1.88,0,0,0,1.69-1.22l-.47-.14Z" transform="translate(0)"/><path class="cls-60" d="M218,448.63a4.2,4.2,0,0,1,.29-.74,1.08,1.08,0,0,1-.77-1.12l-.48-.09-.49-.08A2,2,0,0,0,218,448.63Z" transform="translate(0)"/><path class="cls-56" d="M208.58,446.18a6.32,6.32,0,0,0,.71-.54,1.3,1.3,0,0,1-.38-.24,3.48,3.48,0,0,1,1.64,0,3.52,3.52,0,0,1,1.54.55,1.24,1.24,0,0,1-.36.1,2.86,2.86,0,0,1,.46.74c.5-.11.85-.33.9-.69.11-.75-1.19-1.27-2.41-1.48s-2.57-.16-2.76.57C207.83,445.55,208.11,445.9,208.58,446.18Z" transform="translate(0)"/><path class="cls-60" d="M214.45,446.28a1,1,0,0,1-.91.79,5.69,5.69,0,0,0,.32.77,1.84,1.84,0,0,0,1.57-1.42Z" transform="translate(0)"/><path class="cls-60" d="M212.64,447.77a5.43,5.43,0,0,1,.24-.75,1,1,0,0,1-.83-1.08l-1-.15A1.91,1.91,0,0,0,212.64,447.77Z" transform="translate(0)"/><path class="cls-56" d="M203.12,444.38a4.63,4.63,0,0,0,.82-.36,1.23,1.23,0,0,1-.31-.32,3.84,3.84,0,0,1,1.59.34,3.7,3.7,0,0,1,1.42.79.84.84,0,0,1-.37,0,3.69,3.69,0,0,1,.37.81c.52,0,.89-.22,1-.58.18-.73-1-1.38-2.12-1.8s-2.4-.71-2.77-.06C202.54,443.57,202.72,444,203.12,444.38Z" transform="translate(0)"/><path class="cls-60" d="M209,445.41a1,1,0,0,1-1,.72,4.15,4.15,0,0,0,.28.79,1.76,1.76,0,0,0,1.67-1.33Z" transform="translate(0)"/><path class="cls-60" d="M207,446.73a4.69,4.69,0,0,1,.33-.72,1,1,0,0,1-.71-1.19l-.47-.14c-.24-.07-.47-.16-.47-.16A1.87,1.87,0,0,0,207,446.73Z" transform="translate(0)"/><path class="cls-56" d="M198.43,440.86a5.41,5.41,0,0,0,.9,0,1.43,1.43,0,0,1-.16-.42,1.57,1.57,0,0,1,.5.26,8.48,8.48,0,0,1,.85.65,4.44,4.44,0,0,1,1.08,1.2.88.88,0,0,1-.37-.07,3.27,3.27,0,0,1,.11.88c.52.12.94.05,1.12-.27s0-.73-.26-1.13a7.79,7.79,0,0,0-1.17-1.21c-.22-.18-.43-.38-.67-.54a3.79,3.79,0,0,0-.67-.43,1.06,1.06,0,0,0-1.14-.13C198.23,439.87,198.22,440.32,198.43,440.86Z" transform="translate(0)"/><path class="cls-60" d="M203.67,443.72a1,1,0,0,1-1.13.45,3.51,3.51,0,0,0,.09.85,1.71,1.71,0,0,0,2-.9l-.46-.2Z" transform="translate(0)"/><path class="cls-60" d="M201.39,444.47a4.88,4.88,0,0,1,.52-.59,1,1,0,0,1-.35-1.35s-.21-.13-.4-.28l-.4-.3a1.45,1.45,0,0,0-.25,1.24A2.39,2.39,0,0,0,201.39,444.47Z" transform="translate(0)"/><path class="cls-60" d="M229,453.2a1.09,1.09,0,0,1-1.18-.1c-.12.24-.26.46-.36.71a2.07,2.07,0,0,0,2,.25l-.23-.43a2.67,2.67,0,0,0-.17-.3Z" transform="translate(0)"/><path class="cls-60" d="M226.78,453.07a4.14,4.14,0,0,1,.67-.41,1.1,1.1,0,0,1,.06-1.34s-.18-.18-.36-.34l-.37-.33A2.12,2.12,0,0,0,226.78,453.07Z" transform="translate(0)"/><path class="cls-56" d="M196,435.43a5.48,5.48,0,0,0,.78.48,1.36,1.36,0,0,1,.08-.44,4.16,4.16,0,0,1,.67,1.47,5.1,5.1,0,0,1,.27,1,1.36,1.36,0,0,1,.06.55,1.66,1.66,0,0,1-.28-.25,3.76,3.76,0,0,1-.32.83,1.32,1.32,0,0,0,.6.36.62.62,0,0,0,.52-.07.69.69,0,0,0,.29-.46,2.76,2.76,0,0,0,0-.65,5.88,5.88,0,0,0-.16-.77,13.53,13.53,0,0,0-.53-1.62,4,4,0,0,0-.34-.72c-.23-.43-.53-.73-.91-.71S196.12,434.86,196,435.43Z" transform="translate(0)"/><path class="cls-56" d="M196.6,429.55a5.85,5.85,0,0,0,.44.78,1.39,1.39,0,0,1,.29-.34,1.69,1.69,0,0,1,0,.55,6.15,6.15,0,0,1-.13,1.06,4.23,4.23,0,0,1-.49,1.54,1.23,1.23,0,0,1-.12-.35,3.75,3.75,0,0,1-.71.55c.19.51.46.83.83.81s.64-.35.82-.81a4,4,0,0,0,.25-.76,7.68,7.68,0,0,0,.19-.83,6.49,6.49,0,0,0,.13-.85,4.46,4.46,0,0,0,0-.8,2.38,2.38,0,0,0-.11-.65.68.68,0,0,0-.35-.41.63.63,0,0,0-.55,0A1.38,1.38,0,0,0,196.6,429.55Z" transform="translate(0)"/><path class="cls-60" d="M196.87,435.52a.83.83,0,0,1-.59-.14,1.19,1.19,0,0,1-.41-.56,3.44,3.44,0,0,0-.67.55,2.08,2.08,0,0,0,.82,1,1.37,1.37,0,0,0,1.06.15A3.2,3.2,0,0,1,197,436C196.92,435.76,196.87,435.52,196.87,435.52Z" transform="translate(0)"/><path class="cls-60" d="M195,434a5.29,5.29,0,0,1,.78.13,1.43,1.43,0,0,1,.32-.75.82.82,0,0,1,.64-.26s.07-1,.09-1a1.4,1.4,0,0,0-1.19.42,2.26,2.26,0,0,0-.43.63A2.6,2.6,0,0,0,195,434Z" transform="translate(0)"/><path class="cls-56" d="M200,424.7a3.88,3.88,0,0,0,0,.9,1.06,1.06,0,0,1,.42-.15,2.4,2.4,0,0,1-.26.49c-.14.24-.39.49-.66.84-.14.17-.28.3-.4.43s-.23.25-.33.34a2.16,2.16,0,0,1-.45.32,1,1,0,0,1,.06-.36,5.47,5.47,0,0,1-.87.15c-.1.53,0,.94.32,1.1a1.12,1.12,0,0,0,1.12-.31c.18-.16.39-.33.58-.53s.39-.41.57-.62.17-.23.27-.33.18-.21.26-.32a3.39,3.39,0,0,0,.23-.34,2.27,2.27,0,0,0,.22-.32c.24-.43.37-.83.16-1.14S200.56,424.49,200,424.7Z" transform="translate(0)"/><path class="cls-60" d="M197.32,430a.79.79,0,0,1-.46-.4,1.06,1.06,0,0,1-.1-.69,3.13,3.13,0,0,0-.85.17,2.21,2.21,0,0,0,.27,1.24,1.46,1.46,0,0,0,.86.63l.12-.48C197.23,430.26,197.32,430,197.32,430Z" transform="translate(0)"/><path class="cls-60" d="M196.38,427.78a4.26,4.26,0,0,1,.63.49,1,1,0,0,1,1.33-.44l.08-.12.2-.28.28-.41a1.35,1.35,0,0,0-1.24-.21A2.35,2.35,0,0,0,196.38,427.78Z" transform="translate(0)"/><path class="cls-60" d="M199.21,440.48a.8.8,0,0,1-.58.19,1.2,1.2,0,0,1-.65-.26,3.59,3.59,0,0,0-.27.82,2.08,2.08,0,0,0,1.2.39,1.43,1.43,0,0,0,1-.43l-.35-.34Z" transform="translate(0)"/><path class="cls-60" d="M196.8,440.14a3.67,3.67,0,0,1,.74-.29,1,1,0,0,1,.3-1.37l-.22-.44-.18-.46a1.39,1.39,0,0,0-.84,1,2.09,2.09,0,0,0,0,.76,3.43,3.43,0,0,0,.08.42A2.47,2.47,0,0,0,196.8,440.14Z" transform="translate(0)"/><path class="cls-56" d="M205.34,422.19a6.63,6.63,0,0,0-.4.8,1.13,1.13,0,0,1,.44.05,2,2,0,0,1-.45.33,3.47,3.47,0,0,1-.43.21c-.16.08-.34.15-.55.23a4.37,4.37,0,0,1-1.58.36,1.38,1.38,0,0,1,.24-.29,3.65,3.65,0,0,1-.83-.32c-.35.41-.49.8-.29,1.11a1.09,1.09,0,0,0,1.12.31,3.91,3.91,0,0,0,.78-.17,8,8,0,0,0,.83-.26c1.08-.41,2.28-1,2.15-1.72C206.31,422.46,205.9,422.24,205.34,422.19Z" transform="translate(0)"/><path class="cls-56" d="M211.07,421.62a7.44,7.44,0,0,0-.59.67,1.51,1.51,0,0,1,.42.17,3.74,3.74,0,0,1-1.6.33,3.58,3.58,0,0,1-1.62-.17,1.18,1.18,0,0,1,.32-.18,3.65,3.65,0,0,1-.65-.59c-.46.24-.74.56-.67.92.14.73,1.46.86,2.66.81s2.53-.35,2.57-1.09C211.93,422.1,211.59,421.82,211.07,421.62Z" transform="translate(0)"/><path class="cls-60" d="M205.34,423.06a1,1,0,0,1,.58-1.07,3.1,3.1,0,0,0-.6-.6,2,2,0,0,0-.85.88,1.35,1.35,0,0,0-.08,1.06l.47-.14.33-.1Z" transform="translate(0)"/><path class="cls-60" d="M206.61,421a4.28,4.28,0,0,1,0,.8,1,1,0,0,1,1.13.8l.49-.05.5,0A1.87,1.87,0,0,0,206.61,421Z" transform="translate(0)"/><path class="cls-56" d="M216.69,422.06c-.23.2-.44.4-.64.61a1.2,1.2,0,0,1,.39.21,3.43,3.43,0,0,1-1.63.13,3.36,3.36,0,0,1-1.58-.45,1.3,1.3,0,0,1,.35-.11,3.19,3.19,0,0,1-.51-.71c-.5.14-.84.4-.85.76,0,.75,1.27,1.17,2.51,1.3s2.64-.06,2.72-.81C217.49,422.61,217.17,422.3,216.69,422.06Z" transform="translate(0)"/><path class="cls-60" d="M210.85,422.46a1,1,0,0,1,.82-.89,4.07,4.07,0,0,0-.42-.73,1.75,1.75,0,0,0-1.39,1.63h1Z" transform="translate(0)"/><path class="cls-60" d="M212.53,420.78a4.13,4.13,0,0,1-.19.77,1,1,0,0,1,.93,1l1,.08A1.91,1.91,0,0,0,212.53,420.78Z" transform="translate(0)"/><path class="cls-56" d="M222.16,422.51c-.2.22-.4.43-.59.66a1.56,1.56,0,0,1,.41.17,3,3,0,0,1-1.63.23,3.14,3.14,0,0,1-1.59-.45,1.56,1.56,0,0,1,.36-.11,2.52,2.52,0,0,1-.5-.72c-.48.14-.83.37-.87.73-.08.75,1.25,1.24,2.54,1.33s2.72-.23,2.7-1C223,423,222.65,422.71,222.16,422.51Z" transform="translate(0)"/><path class="cls-60" d="M216.39,422.87a1,1,0,0,1,.89-.82,5.77,5.77,0,0,0-.35-.76,1.8,1.8,0,0,0-1.52,1.48Z" transform="translate(0)"/><path class="cls-60" d="M218.15,421.32a5.07,5.07,0,0,1-.22.76,1.07,1.07,0,0,1,.88,1.05l1,.09A2,2,0,0,0,218.15,421.32Z" transform="translate(0)"/><path class="cls-56" d="M227.4,422c-.12.27-.23.53-.35.79a1.67,1.67,0,0,1,.44,0,2.5,2.5,0,0,1-1.53.64,2.76,2.76,0,0,1-1.64-.15,1,1,0,0,1,.33-.17,2.5,2.5,0,0,1-.59-.63c-.45.2-.76.46-.76.83,0,.75,1.41,1.1,2.77.91a4.39,4.39,0,0,0,1.84-.68c.46-.34.69-.73.54-1.08S227.9,422,227.4,422Z" transform="translate(0)"/><path class="cls-60" d="M221.93,423.34a1,1,0,0,1,.8-.89,5.07,5.07,0,0,0-.4-.72,1.88,1.88,0,0,0-1.39,1.57l.5,0Z" transform="translate(0)"/><path class="cls-60" d="M223.48,421.62a4.88,4.88,0,0,1-.12.78,1.1,1.1,0,0,1,1,.92l.49,0,.49,0A2,2,0,0,0,223.48,421.62Z" transform="translate(0)"/><path class="cls-56" d="M231.08,419.16c.15.23.26.48.4.74a1.45,1.45,0,0,1,.32-.29,1.21,1.21,0,0,1-.07.57,2.94,2.94,0,0,1-.21.46,2.55,2.55,0,0,1-.4.51,2.88,2.88,0,0,1-.49.41,2.18,2.18,0,0,1-.44.24,1.33,1.33,0,0,1-.55.13,2.09,2.09,0,0,1,.2-.31,2,2,0,0,1-.79-.29,1.08,1.08,0,0,0-.32,1.06c.15.35.59.46,1.16.35a3.58,3.58,0,0,0,1.8-1,3.29,3.29,0,0,0,.95-2,1.43,1.43,0,0,0-.13-.78.55.55,0,0,0-.44-.32C231.69,418.58,231.39,418.86,231.08,419.16Z" transform="translate(0)"/><path class="cls-60" d="M227.45,422.85a1.07,1.07,0,0,1,.43-1.09,7.81,7.81,0,0,0-.59-.56,2.09,2.09,0,0,0-.8,1.89l.15,0L227,423A4.92,4.92,0,0,0,227.45,422.85Z" transform="translate(0)"/><path class="cls-60" d="M228.19,420.74a3.81,3.81,0,0,1,.22.75,1.14,1.14,0,0,1,1.26.41.55.55,0,0,0,.14-.08l.28-.19a2.1,2.1,0,0,0,.27-.2l.12-.1a2,2,0,0,0-1.08-.61A2.37,2.37,0,0,0,228.19,420.74Z" transform="translate(0)"/><path class="cls-60" d="M200.38,425.48a1,1,0,0,1,.1-1.22,2.79,2.79,0,0,0-.81-.29,2.57,2.57,0,0,0-.31.59,1.94,1.94,0,0,0-.1.61,1.33,1.33,0,0,0,.4,1S200.37,425.46,200.38,425.48Z" transform="translate(0)"/><path class="cls-60" d="M200.77,423.08a6.61,6.61,0,0,1,.28.74,1,1,0,0,1,1.36.33l.44-.22c.22-.11.45-.2.45-.2a1.45,1.45,0,0,0-1-.82,2.29,2.29,0,0,0-.75-.06A3.26,3.26,0,0,0,200.77,423.08Z" transform="translate(0)"/><path class="cls-56" d="M229.87,414.91h.86a2,2,0,0,1-.13-.42,2.31,2.31,0,0,1,1.18,1.18,2.17,2.17,0,0,1,.28,1.65,1.28,1.28,0,0,1-.22-.3,1.8,1.8,0,0,1-.24.35,1.58,1.58,0,0,1-.32.27,2.2,2.2,0,0,0,.37.47.72.72,0,0,0,.46.22c.37,0,.7-.32.79-.95a3.42,3.42,0,0,0-.42-2.09,3.79,3.79,0,0,0-1.36-1.48c-.5-.29-.94-.34-1.2-.07S229.7,414.44,229.87,414.91Z" transform="translate(0)"/><path class="cls-56" d="M225.75,411.54c.29-.07.57-.15.85-.24a1.38,1.38,0,0,1-.25-.37,3.92,3.92,0,0,1,2.59,1.92,1.86,1.86,0,0,1-.36-.1,2.26,2.26,0,0,1,0,.86c.46.15.86.18,1.12-.09s.19-.71-.09-1.19a5.11,5.11,0,0,0-1.29-1.35c-1-.8-2.44-1.24-2.83-.59C225.29,410.71,225.44,411.12,225.75,411.54Z" transform="translate(0)"/><path class="cls-60" d="M230.63,414.52a1.07,1.07,0,0,1-1.18,0,7.84,7.84,0,0,0-.27.77,2.17,2.17,0,0,0,2,0s-.13-.21-.28-.41S230.63,414.52,230.63,414.52Z" transform="translate(0)"/><path class="cls-60" d="M228.37,414.65a3.66,3.66,0,0,1,.62-.48,1.11,1.11,0,0,1-.09-1.35l-.77-.61A2,2,0,0,0,228.37,414.65Z" transform="translate(0)"/><path class="cls-56" d="M221,409c.27-.12.54-.24.8-.38a1.41,1.41,0,0,1-.31-.32,1.49,1.49,0,0,1,.56,0,4.79,4.79,0,0,1,1,.38,3,3,0,0,1,1.28,1,1.09,1.09,0,0,1-.36,0,2.6,2.6,0,0,1,.15.86c.5.07.9,0,1.09-.31.41-.64-.63-1.66-1.8-2.25s-2.6-.82-2.88-.12C220.4,408.21,220.62,408.59,221,409Z" transform="translate(0)"/><path class="cls-60" d="M226.39,411a1,1,0,0,1-1.15.34,5.56,5.56,0,0,0,0,.82,1.87,1.87,0,0,0,2-.6l-.4-.28Z" transform="translate(0)"/><path class="cls-60" d="M224.16,411.6a4.25,4.25,0,0,1,.51-.6,1.08,1.08,0,0,1-.35-1.31s-.21-.13-.43-.24l-.44-.23A2,2,0,0,0,224.16,411.6Z" transform="translate(0)"/><path class="cls-56" d="M215.88,407.11c.25-.15.5-.32.73-.48a1.52,1.52,0,0,1-.35-.28,3.08,3.08,0,0,1,1.64.19,3,3,0,0,1,1.42.83,1.25,1.25,0,0,1-.37,0,2.71,2.71,0,0,1,.29.81c.5,0,.88-.12,1-.46.3-.7-.87-1.55-2.11-1.95s-2.68-.44-2.87.29C215.19,406.45,215.45,406.81,215.88,407.11Z" transform="translate(0)"/><path class="cls-60" d="M221.52,408.28a1,1,0,0,1-1.08.51,5.7,5.7,0,0,0,.1.83,1.88,1.88,0,0,0,1.88-.92l-.45-.22Z" transform="translate(0)"/><path class="cls-60" d="M219.42,409.27a4.79,4.79,0,0,1,.42-.68,1.07,1.07,0,0,1-.56-1.24l-.46-.17-.47-.16A2,2,0,0,0,219.42,409.27Z" transform="translate(0)"/><path class="cls-56" d="M210.55,406c.23-.19.45-.37.67-.57a1.2,1.2,0,0,1-.38-.23,4,4,0,0,1,3.16.62,1.63,1.63,0,0,1-.37.06,2.83,2.83,0,0,1,.4.77c.49-.06.86-.24,1-.59.19-.73-1.08-1.42-2.36-1.65s-2.7-.11-2.8.64C209.78,405.38,210.08,405.7,210.55,406Z" transform="translate(0)"/><path class="cls-60" d="M216.31,406.37a1,1,0,0,1-1,.66,4.49,4.49,0,0,0,.21.8,1.87,1.87,0,0,0,1.73-1.18l-.47-.14C216.55,406.43,216.31,406.37,216.31,406.37Z" transform="translate(0)"/><path class="cls-60" d="M214.36,407.64a4.26,4.26,0,0,1,.32-.73,1.07,1.07,0,0,1-.72-1.15l-1-.22A2,2,0,0,0,214.36,407.64Z" transform="translate(0)"/><path class="cls-56" d="M205.1,405.39c.21-.2.42-.41.61-.63a1.48,1.48,0,0,1-.4-.19,3.16,3.16,0,0,1,1.63-.2,3.08,3.08,0,0,1,1.58.47,1.76,1.76,0,0,1-.36.11,2.48,2.48,0,0,1,.49.72c.48-.12.83-.35.88-.71.1-.75-1.23-1.27-2.52-1.37s-2.69.17-2.72.93C204.28,404.9,204.61,405.18,205.1,405.39Z" transform="translate(0)"/><path class="cls-60" d="M210.88,405.16a1,1,0,0,1-.91.78,4.27,4.27,0,0,0,.31.77,1.87,1.87,0,0,0,1.58-1.39Z" transform="translate(0)"/><path class="cls-60" d="M209.1,406.65a4.05,4.05,0,0,1,.23-.75,1.07,1.07,0,0,1-.85-1.07l-1-.1A2,2,0,0,0,209.1,406.65Z" transform="translate(0)"/><path class="cls-56" d="M199.61,405.32c.19-.22.38-.45.56-.68a1.3,1.3,0,0,1-.42-.16,4.09,4.09,0,0,1,3.22,0,1.32,1.32,0,0,1-.34.14,2.69,2.69,0,0,1,.55.67c.47-.17.79-.42.81-.78,0-.76-1.34-1.15-2.63-1.15s-2.66.4-2.63,1.15C198.75,404.89,199.1,405.15,199.61,405.32Z" transform="translate(0)"/><path class="cls-60" d="M205.36,404.57a1,1,0,0,1-.84.87,5.12,5.12,0,0,0,.39.73,1.83,1.83,0,0,0,1.43-1.54l-.49,0Z" transform="translate(0)"/><path class="cls-60" d="M203.72,406.23a4.32,4.32,0,0,1,.16-.78,1.05,1.05,0,0,1-.95-1l-1,0A2,2,0,0,0,203.72,406.23Z" transform="translate(0)"/><path class="cls-60" d="M231.78,419.65a1.25,1.25,0,0,1-.64-.94c-.25.05-.53.06-.77.09a1.94,1.94,0,0,0,0,.2l.06.21.09.23a1,1,0,0,0,.09.22,2.12,2.12,0,0,0,.62.84.73.73,0,0,0,.09-.12l.18-.29a1.48,1.48,0,0,0,.16-.3Z" transform="translate(0)"/><path class="cls-60" d="M230.39,418.09a4,4,0,0,1,.77.12,1.25,1.25,0,0,1,.89-.93l0-.15a3.09,3.09,0,0,0-.08-.33l-.11-.32-.06-.14a2.07,2.07,0,0,0-.91.82A3.08,3.08,0,0,0,230.39,418.09Z" transform="translate(0)"/><path class="cls-56" d="M194.11,405.63a8.58,8.58,0,0,0,.51-.72,1.48,1.48,0,0,1-.42-.13,4.25,4.25,0,0,1,3.21-.21,1.24,1.24,0,0,1-.33.16,3,3,0,0,1,.6.64c.45-.21.76-.48.75-.85,0-.75-1.42-1-2.7-.95s-2.61.55-2.54,1.3C193.22,405.25,193.59,405.49,194.11,405.63Z" transform="translate(0)"/><path class="cls-60" d="M199.8,404.48a1,1,0,0,1-.76.93,4.39,4.39,0,0,0,.44.71,1.85,1.85,0,0,0,1.31-1.65h-1Z" transform="translate(0)"/><path class="cls-60" d="M198.29,406.26a4.17,4.17,0,0,1,.1-.78,1.07,1.07,0,0,1-1-.91l-1,.06A2,2,0,0,0,198.29,406.26Z" transform="translate(0)"/><path class="cls-56" d="M188.63,406.24a8.5,8.5,0,0,0,.47-.75,1.49,1.49,0,0,1-.43-.1,3.06,3.06,0,0,1,1.56-.52,3.23,3.23,0,0,1,1.64.12,1.14,1.14,0,0,1-.32.19,2.72,2.72,0,0,1,.62.6c.45-.23.75-.52.71-.88-.07-.76-1.47-1-2.74-.81s-2.6.71-2.47,1.45C187.73,405.92,188.11,406.13,188.63,406.24Z" transform="translate(0)"/><path class="cls-60" d="M194.25,404.78a1,1,0,0,1-.71,1,5.23,5.23,0,0,0,.48.68,1.84,1.84,0,0,0,1.21-1.73Z" transform="translate(0)"/><path class="cls-60" d="M192.83,406.64a5.25,5.25,0,0,1,.06-.79,1.05,1.05,0,0,1-1.06-.85l-1,.11A1.94,1.94,0,0,0,192.83,406.64Z" transform="translate(0)"/><path class="cls-56" d="M183.28,407.32a8.17,8.17,0,0,0,.38-.79,1.34,1.34,0,0,1-.44-.06,3,3,0,0,1,1.5-.68,3.17,3.17,0,0,1,1.65,0,1.44,1.44,0,0,1-.31.21,2.73,2.73,0,0,1,.67.55c.43-.26.7-.58.64-.94-.12-.74-1.55-.85-2.82-.57s-2.53,1-2.31,1.72C182.35,407.11,182.76,407.28,183.28,407.32Z" transform="translate(0)"/><path class="cls-60" d="M188.72,405.38a1,1,0,0,1-.64,1,4.55,4.55,0,0,0,.52.64,1.85,1.85,0,0,0,1.1-1.79Z" transform="translate(0)"/><path class="cls-60" d="M187.45,407.34a5.34,5.34,0,0,1,0-.8,1.07,1.07,0,0,1-1.13-.76l-.48.09-.49.1A2,2,0,0,0,187.45,407.34Z" transform="translate(0)"/><path class="cls-56" d="M178.17,409.12c.09-.28.18-.56.25-.84a1.38,1.38,0,0,1-.45,0,4,4,0,0,1,3-1.16,1,1,0,0,1-.28.25,2.43,2.43,0,0,1,.74.46c.39-.32.61-.66.51-1-.21-.72-1.66-.66-2.88-.18s-2.36,1.4-2,2.08C177.22,409.07,177.65,409.16,178.17,409.12Z" transform="translate(0)"/><path class="cls-60" d="M183.27,406.46a1,1,0,0,1-.52,1.08,5.39,5.39,0,0,0,.59.58,1.88,1.88,0,0,0,.89-1.9l-.48.12Z" transform="translate(0)"/><path class="cls-60" d="M182.25,408.55a4.17,4.17,0,0,1-.1-.79,1.06,1.06,0,0,1-1.21-.61l-.47.16-.46.16A2,2,0,0,0,182.25,408.55Z" transform="translate(0)"/><path class="cls-56" d="M173.54,411.84c0-.29.05-.58.06-.88a1.31,1.31,0,0,1-.43.11,3,3,0,0,1,1.16-1.17,2.88,2.88,0,0,1,1.55-.56,1.2,1.2,0,0,1-.22.29,2.59,2.59,0,0,1,.81.32c.31-.38.48-.76.31-1.08-.33-.69-1.75-.35-2.87.37s-2,1.87-1.55,2.45C172.61,412,173,412,173.54,411.84Z" transform="translate(0)"/><path class="cls-60" d="M178,408.27a1,1,0,0,1-.33,1.16,5.46,5.46,0,0,0,.68.47,1.89,1.89,0,0,0,.56-2Z" transform="translate(0)"/><path class="cls-60" d="M177.39,410.5a3.28,3.28,0,0,1-.24-.75,1.08,1.08,0,0,1-1.3-.39l-.43.25-.43.24A2,2,0,0,0,177.39,410.5Z" transform="translate(0)"/><path class="cls-56" d="M169.71,415.53c-.05-.28-.1-.57-.17-.85a1.38,1.38,0,0,1-.39.21,2.93,2.93,0,0,1,.83-1.42,2.87,2.87,0,0,1,1.38-.92,1.4,1.4,0,0,1-.15.34,2.43,2.43,0,0,1,.85.12,1,1,0,0,0,.06-1.13c-.24-.29-.67-.27-1.18-.07a4.94,4.94,0,0,0-.79.45,5.64,5.64,0,0,0-1.36,1.45,4.33,4.33,0,0,0-.4.81c-.17.53-.16,1,.15,1.18S169.28,415.81,169.71,415.53Z" transform="translate(0)"/><path class="cls-56" d="M167.16,420.15c-.14-.26-.28-.52-.43-.76a1.6,1.6,0,0,1-.3.32,1.29,1.29,0,0,1,0-.56,3.59,3.59,0,0,1,.34-1,2.74,2.74,0,0,1,1-1.29,1.23,1.23,0,0,1,0,.37,2.34,2.34,0,0,1,.86-.13c.07-.48,0-.88-.26-1.09s-.75-.09-1.17.27a4.55,4.55,0,0,0-1.13,1.53c-.6,1.22-.7,2.72,0,2.92C166.47,420.78,166.83,420.54,167.16,420.15Z" transform="translate(0)"/><path class="cls-60" d="M169.18,414.86a1,1,0,0,1,.25,1.16,4.61,4.61,0,0,0,.82.11,2,2,0,0,0-.43-2s-.17.18-.32.38Z" transform="translate(0)"/><path class="cls-60" d="M169.69,417.09a4.11,4.11,0,0,1-.57-.53,1.12,1.12,0,0,1-1.32.29,4.6,4.6,0,0,0-.25.43c-.12.21-.23.43-.23.43a1.66,1.66,0,0,0,1.24.09A2.36,2.36,0,0,0,169.69,417.09Z" transform="translate(0)"/><path class="cls-56" d="M166.28,425.3l-.67-.55a1.27,1.27,0,0,1-.17.41,1.81,1.81,0,0,1-.19-.54,4.27,4.27,0,0,1,0-1.11,3.53,3.53,0,0,1,.27-1.07,1.28,1.28,0,0,1,.29-.48,1.81,1.81,0,0,1,.08.36,2.06,2.06,0,0,1,.76-.4c-.08-.48-.25-.85-.6-.95-.73-.23-1.44,1.1-1.58,2.46a4.59,4.59,0,0,0,.17,1.92c.19.52.5.85.87.82S166.11,425.78,166.28,425.3Z" transform="translate(0)"/><path class="cls-60" d="M166.44,419.67a1,1,0,0,1,.61,1,5.5,5.5,0,0,0,.81-.15,2.35,2.35,0,0,0-.28-1.06,1.61,1.61,0,0,0-.77-.73l-.18.46-.13.31Z" transform="translate(0)"/><path class="cls-60" d="M167.64,421.62a4.64,4.64,0,0,1-.72-.32,1.1,1.1,0,0,1-1.15.7.8.8,0,0,0,0,.15l-.06.33c-.05.25-.08.49-.08.49a1.72,1.72,0,0,0,1.21-.32A2.5,2.5,0,0,0,167.64,421.62Z" transform="translate(0)"/><path class="cls-56" d="M167.44,430.32l-.84-.22a1.38,1.38,0,0,1,0,.45,2.74,2.74,0,0,1-.87-1.41,3.7,3.7,0,0,1-.18-1.1,1.65,1.65,0,0,1,.09-.56,1.22,1.22,0,0,1,.21.31,2.36,2.36,0,0,1,.55-.66c-.24-.41-.54-.69-.9-.66s-.61.42-.71,1a4.05,4.05,0,0,0,0,.93,5.06,5.06,0,0,0,.2,1,4.39,4.39,0,0,0,1,1.7c.4.4.8.57,1.14.37S167.49,430.82,167.44,430.32Z" transform="translate(0)"/><path class="cls-60" d="M165.45,425.11a1,1,0,0,1,.92.74,6.82,6.82,0,0,0,.7-.42,2.19,2.19,0,0,0-.63-.89,1.71,1.71,0,0,0-1-.42l0,.49Z" transform="translate(0)"/><path class="cls-60" d="M167.26,426.49a4.14,4.14,0,0,1-.79,0,1.29,1.29,0,0,1-.25.7.87.87,0,0,1-.56.37s.05.25.09.49l.12.48a1.75,1.75,0,0,0,1-.76A2.4,2.4,0,0,0,167.26,426.49Z" transform="translate(0)"/><path class="cls-56" d="M170.67,434.32l-.86.17a1.53,1.53,0,0,1,.21.39,2.65,2.65,0,0,1-1.4-.88,3.56,3.56,0,0,1-.65-.91,1.23,1.23,0,0,1-.16-.54,1.58,1.58,0,0,1,.32.19,2.31,2.31,0,0,1,.21-.84c-.41-.25-.78-.39-1.1-.19s-.38.64-.21,1.18a3.32,3.32,0,0,0,.39.84l.28.42a4.4,4.4,0,0,0,.35.39,4.13,4.13,0,0,0,.78.67,3.09,3.09,0,0,0,.82.43c.52.2,1,.14,1.19-.16S170.92,434.76,170.67,434.32Z" transform="translate(0)"/><path class="cls-60" d="M166.59,430.5a1.07,1.07,0,0,1,1.16.27,7.25,7.25,0,0,0,.46-.67,2.59,2.59,0,0,0-.94-.53,1.74,1.74,0,0,0-1.06,0l.06.15.13.31C166.49,430.28,166.59,430.5,166.59,430.5Z" transform="translate(0)"/><path class="cls-60" d="M168.82,431a4.6,4.6,0,0,1-.72.31,1.44,1.44,0,0,1,.08.73.93.93,0,0,1-.35.59s.62.77.62.77a1.8,1.8,0,0,0,.56-1.12,2.84,2.84,0,0,0,0-.65A2.38,2.38,0,0,0,168.82,431Z" transform="translate(0)"/><path class="cls-56" d="M175.3,436.37c-.21.18-.43.36-.65.56a1.22,1.22,0,0,1,.37.24,2.58,2.58,0,0,1-1.66-.1,2.62,2.62,0,0,1-1.38-.92,1.28,1.28,0,0,1,.37,0,2,2,0,0,1-.18-.84,1,1,0,0,0-1.07.32c-.21.32,0,.73.33,1.15a3.46,3.46,0,0,0,.74.58,5,5,0,0,0,.94.44,6.43,6.43,0,0,0,1,.22,4.21,4.21,0,0,0,1,0c.57-.12.93-.36.95-.74S175.73,436.59,175.3,436.37Z" transform="translate(0)"/><path class="cls-60" d="M170,434.85a1.07,1.07,0,0,1,1.15-.27c0-.26.1-.52.12-.8a2,2,0,0,0-2,.41l.36.34.26.22Z" transform="translate(0)"/><path class="cls-60" d="M172.18,434.28a3.73,3.73,0,0,1-.52.6,1.11,1.11,0,0,1,.36,1.29s.89.43.9.41a1.79,1.79,0,0,0,0-1.25,1.76,1.76,0,0,0-.29-.56A2,2,0,0,0,172.18,434.28Z" transform="translate(0)"/><path class="cls-60" d="M173.21,411a1,1,0,0,1-.07,1.2,6.26,6.26,0,0,0,.75.32,1.91,1.91,0,0,0,.13-2.08l-.41.28C173.4,410.89,173.21,411,173.21,411Z" transform="translate(0)"/><path class="cls-60" d="M173.08,413.35a4.76,4.76,0,0,1-.4-.69,1.09,1.09,0,0,1-1.35-.08l-.36.34c-.19.16-.36.34-.36.34A2,2,0,0,0,173.08,413.35Z" transform="translate(0)"/><path class="cls-57" d="M217.77,469.15c.32.23.64.47,1,.67a7.3,7.3,0,0,0,1-2.82,7.69,7.69,0,0,0-1.17-.18A6.19,6.19,0,0,1,217.77,469.15Z" transform="translate(0)"/><path class="cls-57" d="M179.16,444.72a5.64,5.64,0,1,1,5.64-5.64A5.65,5.65,0,0,1,179.16,444.72Zm0-10.36a4.73,4.73,0,1,0,4.73,4.72A4.73,4.73,0,0,0,179.16,434.36Z" transform="translate(0)"/><path class="cls-56" d="M173.5,437.11a1.48,1.48,0,0,1-.13.35c-.06.13-.11.26-.16.39a5.19,5.19,0,0,0,.92.19,4.56,4.56,0,0,0,.74,0c0-.28,0-.56,0-.83A2.84,2.84,0,0,1,173.5,437.11Z" transform="translate(0)"/><rect class="cls-57" x="165.62" y="459.11" width="1.11" height="13.69"/><rect class="cls-62" x="165.62" y="465.54" width="1.11" height="0.84"/><path class="cls-49" d="M377.52,421s-23.52-10.75-25.79-3.49c-1,3.22.95,4.87,2.83,11.8s.47,9.9,2.6,11.58c6,4.78,22.39-11.16,22.39-11.16Z" transform="translate(0)"/><path class="cls-49" d="M384.65,419.35s16.38-20,21.61-14.49c2.33,2.45,1.29,4.79,2.66,11.84s3.94,9.09,2.77,11.54c-3.32,6.95-25-.15-25-.15Z" transform="translate(0)"/><rect class="cls-49" x="374.49" y="417.48" width="15.54" height="15.54" rx="1.27" transform="translate(-86.27 97.47) rotate(-13.07)"/></g></g></svg>