<svg width="375" height="275" viewBox="0 0 375 275" fill="none" xmlns="http://www.w3.org/2000/svg">
<path style="mix-blend-mode:screen" d="M217.136 206.992C373.346 169.947 493.89 114.112 486.377 82.2807C478.865 50.4494 346.142 54.6756 189.932 91.7202C33.7213 128.765 -86.8222 184.6 -79.3099 216.431C-71.7976 248.262 60.9258 244.036 217.136 206.992Z" fill="url(#paint0_radial_851_17323)"/>
<path style="mix-blend-mode:screen" d="M91.9259 171.934C130.421 155.982 156.034 129.486 149.134 112.753C142.233 96.0209 105.433 95.3885 66.9371 111.341C28.4416 127.293 2.82872 153.789 9.72917 170.522C16.6296 187.254 53.4303 187.887 91.9259 171.934Z" fill="url(#paint1_radial_851_17323)"/>
<path d="M199.602 249.001C263.682 249.001 315.63 196.928 315.63 132.692C315.63 68.4568 263.682 16.3838 199.602 16.3838C135.521 16.3838 83.5737 68.4568 83.5737 132.692C83.5737 196.928 135.521 249.001 199.602 249.001Z" fill="#2FF270"/>
<g style="mix-blend-mode:multiply">
<path d="M311.93 146.814C312.401 141.84 313.527 132.086 313.013 123.691C312.498 115.293 310.111 107.579 307.558 106.952C305.008 106.328 294.688 119.488 288.194 121.608C281.703 123.727 277.676 122.74 277.104 128.59C276.532 134.44 287.191 140.47 292.761 144.688C298.331 148.905 310.762 159.214 311.93 146.814Z" fill="#9BDCE0"/>
</g>
<g style="mix-blend-mode:multiply">
<path d="M130.713 211.567C134.237 219.717 167.937 239.276 175.679 239.276C183.421 239.276 201.846 236.32 204.428 227.453C207.007 218.585 209.218 202.909 204.428 196.526C199.639 190.138 202.587 174.624 187.474 176.47C172.36 178.315 162.044 189.771 149.512 193.465C136.981 197.16 125.923 200.483 130.716 211.567H130.713Z" fill="#C0E3CC"/>
</g>
<g style="mix-blend-mode:multiply">
<path d="M222.357 68.6572C225.187 66.5701 228.912 61.3904 234.079 61.3435C239.25 61.2931 246.19 60.5974 248.61 54.8445C251.03 49.0916 249.89 33.5776 235.241 32.4025C220.591 31.2274 214.658 28.6934 208.678 40.5344C202.698 52.3754 199.394 58.4527 203.885 62.5078C208.376 66.5665 220.843 69.7746 222.357 68.6536V68.6572Z" fill="#C0E3CC"/>
</g>
<g style="mix-blend-mode:multiply">
<path d="M270.452 48.3095C274.89 49.4557 278.953 56.9352 279.902 62.2916C280.851 67.6479 289.927 75.56 288.299 81.1867C286.67 86.817 283.786 97.263 276.105 96.3907C268.424 95.5148 254.709 92.3212 253.882 87.7614C253.055 83.2016 253.455 79.7016 250.215 77.7011C246.975 75.7005 240.258 73.8009 242.455 70.647C244.652 67.493 250.858 68.9095 252.275 66.3791C253.695 63.8451 258.633 45.2636 270.452 48.3131V48.3095Z" fill="#C0E3CC"/>
</g>
<g style="mix-blend-mode:multiply">
<path d="M219.808 183.664C221.401 185.942 228.651 188.725 233.077 189.392C237.5 190.055 247.453 188.635 247.727 183.664C248.004 178.693 245.792 174.537 242.75 173.431C239.708 172.324 214.555 176.166 219.808 183.664Z" fill="#CFB4E8"/>
</g>
<g style="mix-blend-mode:multiply">
<path d="M180.573 29.5697C182.166 31.8478 189.415 34.6305 193.842 35.2973C198.264 35.9606 208.218 34.5404 208.491 29.5697C208.768 24.599 206.557 20.443 203.514 19.3364C200.472 18.2297 175.319 22.0722 180.573 29.5697Z" fill="#9BDCE0"/>
</g>
<g style="mix-blend-mode:multiply">
<path d="M139.983 103.582C138.249 98.6546 118.303 90.9661 109.989 92.6278C101.676 94.2895 99.8633 109.724 100.654 113.707C101.449 117.694 100.284 134.502 97.864 143.12C95.444 151.739 101.277 169.715 104.671 177.324C108.066 184.933 123.172 181.534 125.775 179.509C128.379 177.483 126.217 164.726 124.556 156.396C122.898 148.062 130.648 132.988 138.519 128.363C147.268 123.223 141.709 108.513 139.975 103.586L139.983 103.582ZM124.29 174.181C122.809 180.94 111.079 177.144 110.406 175.554C109.734 173.965 110.827 170.4 113.29 166.9C115.754 163.4 120.345 164.975 121.773 166.604C123.201 168.233 124.74 172.126 124.29 174.181ZM107.451 107.461C105.523 104.858 105.962 100.165 108.921 96.1711C111.884 92.1772 120.968 96.4847 124.297 99.4837C127.623 102.483 132.143 108.809 132.223 111.591C132.485 120.751 109.378 110.067 107.451 107.464V107.461Z" fill="#C0E3CC"/>
</g>
<g style="mix-blend-mode:multiply">
<path d="M113.51 173.597C114.038 174.88 116.451 176.455 117.918 176.83C119.386 177.205 122.697 176.405 122.787 173.597C122.881 170.793 122.144 168.446 121.133 167.819C120.123 167.192 111.762 169.362 113.506 173.597H113.51Z" fill="#E1CACA"/>
</g>
<g style="mix-blend-mode:multiply">
<path d="M130.191 183.326C130.719 184.609 133.132 186.184 134.599 186.559C136.07 186.934 139.378 186.133 139.468 183.326C139.561 180.521 138.824 178.175 137.814 177.547C136.803 176.92 128.443 179.09 130.187 183.326H130.191Z" fill="#E1CACA"/>
</g>
<path d="M242.09 228.007C243.633 228.043 248.674 225.639 251.479 223.822C254.284 222.006 259.832 216.931 258.696 215.121C257.559 213.312 255.157 212.926 253.061 213.953C250.965 214.981 237.009 227.892 242.094 228.007H242.09Z" fill="#C0E3CC"/>
<g style="mix-blend-mode:multiply">
<path d="M250.605 112.607C250.159 107.918 239.375 102.547 231.723 97.9872C224.071 93.4275 224.765 91.9712 218.66 86.1535C212.554 80.3357 201.482 71.9263 195.937 69.1183C190.396 66.3068 183.186 89.8193 181.708 94.6927C180.227 99.5661 153.733 118.796 153.955 124.063C154.178 129.329 149.252 141.768 157.325 144.897C165.398 148.022 198.041 140.453 205.182 150.07C212.32 159.687 230.159 151.594 232.802 150.217C241.022 145.932 249.904 134.39 250.494 131.827C251.084 129.264 251.058 117.3 250.613 112.611L250.605 112.607ZM209.371 105.474C205.171 107.092 196.261 107.128 192.316 104.566C179.324 96.1273 194.125 75.1415 197.793 75.037C201.457 74.9289 208.12 80.0257 213.834 87.8656C219.548 95.7056 213.575 103.852 209.371 105.474Z" fill="#C0E3CC"/>
</g>
<path d="M145.018 177.014C145.661 178.264 149.2 180.243 151.44 180.943C153.68 181.642 158.955 181.79 159.495 179.378C160.034 176.967 159.218 174.743 157.729 173.942C156.24 173.142 142.893 172.894 145.018 177.01V177.014Z" fill="#C0E3CC"/>
<g style="mix-blend-mode:multiply">
<path d="M304.342 170.479C303.932 168.774 299.664 160.343 298.197 159.658C296.73 158.977 290.591 159.002 287.028 158.696C283.464 158.389 277.305 152.575 272.299 152.698C267.294 152.824 255.406 152.355 253.781 158.332C252.155 164.308 258.567 180.157 257.085 184.483C255.604 188.805 240.799 206.161 240.217 209.729C239.634 213.294 235.334 224.605 231.267 226.757C227.196 228.909 213.899 231.933 213.733 233.869C213.568 235.801 223.126 240.797 235.78 238.829C238.966 238.335 258.894 231.364 269.361 222.532C279.829 213.701 297.352 193.797 299.682 189.27C302.012 184.742 304.756 172.184 304.346 170.483L304.342 170.479ZM257.909 203.107C254.809 205.955 249.099 210.032 247.225 210.356C241.062 211.42 255.877 192.604 258.25 190.874C260.623 189.143 263.586 189.039 265.248 190.946C266.909 192.853 261.008 200.263 257.909 203.107Z" fill="#9BDCE0"/>
</g>
<path opacity="0.5" d="M92.4195 141.559C92.4195 77.3225 144.369 25.251 208.448 25.251C238.236 25.251 265.399 36.5081 285.946 55.0067C264.705 31.2995 233.892 16.3838 199.602 16.3838C135.52 16.3838 83.5737 68.4589 83.5737 132.692C83.5737 167.065 98.4534 197.953 122.103 219.245C103.649 198.648 92.4195 171.42 92.4195 141.559Z" fill="white"/>
<g style="mix-blend-mode:lighten">
<path d="M396.483 92.4941C392.596 77.0089 355.149 71.9409 301.466 76.9549C302.94 79.6511 304.303 82.4122 305.562 85.2345C343.06 83.0646 368.277 87.5342 371.125 98.8922C374.11 110.78 351.992 127.61 315.08 144.216C287.791 156.5 252.393 168.648 213.069 178.56C171.935 188.938 133.431 195.12 102.898 196.976C64.782 199.294 39.0895 194.853 36.2128 183.38C33.4583 172.418 52.0634 157.243 83.9444 141.931C83.7035 138.885 83.5812 135.807 83.5812 132.696V132.562C36.0725 153.148 7.06101 174.667 10.8547 189.778C14.8173 205.544 53.5377 210.511 108.763 205.039C139.972 201.947 176.441 195.516 214.892 185.823C251.699 176.542 285.486 165.472 313.699 153.941C367.123 132.119 400.543 108.65 396.487 92.4941H396.483Z" fill="#ABFF84"/>
</g>
<path style="mix-blend-mode:screen" d="M337.762 177.612C352.579 162.759 352.579 138.679 337.762 123.827C322.946 108.974 298.924 108.974 284.107 123.827C269.291 138.679 269.291 162.759 284.107 177.612C298.924 192.464 322.946 192.464 337.762 177.612Z" fill="url(#paint2_radial_851_17323)"/>
<g clip-path="url(#clip0_851_17323)">
<path d="M159.68 20.131L166.293 42.7429C166.476 43.4903 165.437 44.4057 163.946 44.8375C162.455 45.2693 161.078 45.0789 160.832 44.3469L154.219 21.735L159.618 20.1464L159.68 20.131Z" fill="url(#paint3_linear_851_17323)"/>
<path d="M154.204 21.6726C154.387 22.4201 155.765 22.6104 157.318 22.1632C158.809 21.7314 159.848 20.816 159.665 20.0686C159.482 19.3212 158.104 19.1309 156.551 19.5781C155.06 20.0099 154.021 20.9252 154.204 21.6726Z" fill="#24995C"/>
<mask id="mask0_851_17323" style="mask-type:luminance" maskUnits="userSpaceOnUse" x="142" y="19" width="14" height="11">
<path d="M155.275 23.3249C155.125 22.173 155.038 21.0057 154.889 19.8537C154.638 19.9153 149.913 21.5368 142.933 25.6266L143.319 29.0977C150.314 25.0702 155.039 23.4487 155.275 23.3249Z" fill="white"/>
</mask>
<g mask="url(#mask0_851_17323)">
<path d="M142.918 25.5646L143.304 29.0357C150.299 25.0082 155.024 23.3867 155.26 23.2628L154.874 19.7917C154.874 19.7917 149.898 21.4748 142.918 25.5646Z" fill="#2D501F"/>
</g>
<mask id="mask1_851_17323" style="mask-type:luminance" maskUnits="userSpaceOnUse" x="137" y="25" width="7" height="8">
<path d="M138.346 32.9592C138.254 32.5855 139.059 31.5295 143.319 29.0976L142.933 25.6265C138.689 28.1206 137.931 29.099 137.96 29.4881C138.079 30.5154 138.227 31.9319 138.346 32.9592Z" fill="white"/>
</mask>
<g mask="url(#mask1_851_17323)">
<path d="M137.96 29.4881L138.346 32.9592C138.254 32.5855 139.059 31.5295 143.319 29.0976L142.933 25.6265C138.689 28.1206 137.931 29.099 137.96 29.4881Z" fill="#2D501F"/>
</g>
<path d="M154.889 19.8538C154.889 19.8538 149.913 21.5369 142.933 25.6267C137.462 28.8179 137.771 29.5345 138.083 29.7221C138.474 29.9565 139.758 30.0377 145.087 26.815C150.59 23.4838 154.668 20.04 154.889 19.8538Z" fill="#0E9940"/>
<mask id="mask2_851_17323" style="mask-type:luminance" maskUnits="userSpaceOnUse" x="137" y="19" width="19" height="15">
<path d="M137.96 29.4881L138.346 32.9592C138.346 32.9592 138.391 33.146 138.532 33.1775C138.922 33.412 140.206 33.4932 145.536 30.2705C151.039 26.9393 155.117 23.4955 155.338 23.3093L154.952 19.8382C154.952 19.8382 150.653 23.4682 145.15 26.7993C139.82 30.022 138.536 29.9409 138.146 29.7064C138.131 29.6441 137.99 29.6126 137.96 29.4881Z" fill="white"/>
</mask>
<g mask="url(#mask2_851_17323)">
<path d="M137.96 29.4881L138.346 32.9592C138.346 32.9592 138.391 33.146 138.532 33.1775C138.922 33.412 140.206 33.4932 145.536 30.2705C151.039 26.9393 155.117 23.4955 155.338 23.3093L154.952 19.8382C154.952 19.8382 150.653 23.4682 145.15 26.7993C139.82 30.022 138.536 29.9409 138.146 29.7064C138.131 29.6441 137.99 29.6126 137.96 29.4881Z" fill="#15301A"/>
</g>
<mask id="mask3_851_17323" style="mask-type:luminance" maskUnits="userSpaceOnUse" x="149" y="19" width="8" height="18">
<path d="M149.124 32.6919L149.51 36.163C156.622 30.9843 156.937 23.049 156.971 22.6445L156.585 19.1734C156.551 19.5779 156.236 27.5132 149.124 32.6919Z" fill="white"/>
</mask>
<g mask="url(#mask3_851_17323)">
<path d="M149.124 32.6919L149.51 36.163C156.622 30.9843 156.937 23.049 156.971 22.6445L156.585 19.1734C156.551 19.5779 156.236 27.5132 149.124 32.6919Z" fill="#0E9940"/>
</g>
<mask id="mask4_851_17323" style="mask-type:luminance" maskUnits="userSpaceOnUse" x="125" y="32" width="25" height="10">
<path d="M125.467 33.3457L125.791 36.8322C125.955 38.0464 126.607 39.0752 127.84 39.7631C131.742 42.1075 141.051 41.2761 147.78 37.2479C148.362 36.9071 148.866 36.5194 149.447 36.1786L149.061 32.7074C148.558 33.0951 147.976 33.436 147.394 33.7768C140.665 37.805 131.356 38.6364 127.454 36.292C126.206 35.5418 125.554 34.513 125.405 33.3611L125.467 33.3457Z" fill="white"/>
</mask>
<g mask="url(#mask4_851_17323)">
<path d="M125.467 33.3457L125.791 36.8322C125.955 38.0464 126.607 39.0752 127.84 39.7631C131.742 42.1075 141.051 41.2761 147.78 37.2479C148.362 36.9071 148.866 36.5194 149.447 36.1786L149.061 32.7074C148.558 33.0951 147.976 33.436 147.394 33.7768C140.665 37.805 131.356 38.6364 127.454 36.292C126.206 35.5418 125.554 34.513 125.405 33.3611" fill="#0E9940"/>
</g>
<path d="M156.585 19.1734C156.551 19.5779 156.236 27.5132 149.124 32.6919C148.62 33.0796 148.039 33.4204 147.457 33.7612C140.728 37.7894 131.419 38.6208 127.517 36.2764C123.459 33.8382 125.498 28.3194 132.651 24.1212C132.997 23.9043 133.343 23.6873 133.767 23.5173C144.045 17.9579 156.052 19.172 156.663 19.2203L156.585 19.1734ZM138.083 29.7219C138.083 29.7219 139.758 30.0375 145.087 26.8148C150.59 23.4836 154.668 20.0398 154.889 19.8537C154.638 19.9152 149.913 21.5367 142.933 25.6265C137.462 28.8177 137.771 29.5343 138.083 29.7219Z" fill="#23D75A"/>
<mask id="mask5_851_17323" style="mask-type:luminance" maskUnits="userSpaceOnUse" x="173" y="10" width="1" height="4">
<path d="M173.554 13.2272C173.435 12.1999 173.301 11.1103 173.182 10.0829C173.26 10.1298 173.338 10.1767 173.368 10.3013L173.741 13.4456C173.741 13.4456 173.695 13.2587 173.554 13.2272Z" fill="white"/>
</mask>
<g mask="url(#mask5_851_17323)">
<path d="M166.9 12.6804L167.288 15.887C172.099 12.9898 173.242 13.0394 173.632 13.2739C173.71 13.3208 173.788 13.3677 173.819 13.4922L173.446 10.3479C173.446 10.3479 173.401 10.1611 173.26 10.1296C172.885 9.95743 171.789 9.83007 166.915 12.7427" fill="#2D501F"/>
</g>
<mask id="mask6_851_17323" style="mask-type:luminance" maskUnits="userSpaceOnUse" x="166" y="9" width="8" height="7">
<path d="M167.272 15.8245C172.083 12.9273 173.227 12.9769 173.617 13.2114C173.498 12.184 173.363 11.0944 173.244 10.0671C172.87 9.89493 171.774 9.76757 166.9 12.6802C167.004 13.6453 167.184 14.9218 167.288 15.8868L167.272 15.8245Z" fill="white"/>
</mask>
<g mask="url(#mask6_851_17323)">
<path d="M166.9 12.68L167.288 15.8865C172.099 12.9893 173.242 13.039 173.632 13.2734C173.71 13.3203 173.788 13.3672 173.819 13.4917L173.446 10.3474C173.446 10.3474 173.4 10.1606 173.26 10.1291C172.885 9.95694 171.789 9.82958 166.915 12.7422" fill="#2D501F"/>
</g>
<mask id="mask7_851_17323" style="mask-type:luminance" maskUnits="userSpaceOnUse" x="157" y="12" width="11" height="11">
<path d="M157.948 19.0369L158.321 22.1812C158.321 22.1812 162.226 18.8458 167.272 15.8247L166.885 12.6181C161.838 15.6392 158.153 18.7884 157.933 18.9746L157.948 19.0369Z" fill="white"/>
</mask>
<g mask="url(#mask7_851_17323)">
<path d="M157.948 19.0369L158.321 22.1812C158.321 22.1812 162.226 18.8458 167.272 15.8247L166.885 12.6181C161.838 15.6392 158.153 18.7884 157.933 18.9746" fill="#2D501F"/>
</g>
<path d="M173.229 10.0051C173.229 10.0051 171.759 9.70554 166.885 12.6182C161.838 15.6393 158.153 18.7886 157.933 18.9747C158.184 18.9131 162.485 17.4617 168.82 13.7281C173.772 10.8623 173.541 10.1926 173.166 10.0205L173.229 10.0051Z" fill="#0E9940"/>
<mask id="mask8_851_17323" style="mask-type:luminance" maskUnits="userSpaceOnUse" x="157" y="10" width="17" height="13">
<path d="M173.741 13.4453L173.368 10.301C173.46 10.6747 172.687 11.5908 168.836 13.7904C162.5 17.5239 158.199 18.9754 157.948 19.0369L158.321 22.1812C158.321 22.1812 162.872 20.6682 169.208 16.9347C173.044 14.6728 173.77 13.8344 173.741 13.4453Z" fill="white"/>
</mask>
<g mask="url(#mask8_851_17323)">
<path d="M157.948 19.0369L158.321 22.1812C158.321 22.1812 162.872 20.6682 169.208 16.9347C173.044 14.6728 173.77 13.8344 173.741 13.4453L173.368 10.301C173.46 10.6747 172.687 11.5908 168.836 13.7904C162.5 17.5239 158.199 18.9754 157.948 19.0369Z" fill="#15301A"/>
</g>
<mask id="mask9_851_17323" style="mask-type:luminance" maskUnits="userSpaceOnUse" x="156" y="6" width="30" height="17">
<path d="M185.166 9.84961L184.779 6.64303C185.045 9.08681 182.785 12.3487 178.258 15.0444C177.912 15.2613 177.613 15.4006 177.267 15.6176C167.917 20.6192 157.021 19.5947 156.395 19.4841L156.782 22.6907C157.33 22.7544 168.304 23.8258 177.64 18.7619C177.986 18.5449 178.347 18.3902 178.63 18.1887C183.158 15.493 185.418 12.2311 185.151 9.78733L185.166 9.84961Z" fill="white"/>
</mask>
<g mask="url(#mask9_851_17323)">
<path d="M156.41 19.5464L156.798 22.753C157.346 22.8167 168.319 23.8881 177.655 18.8241C178.001 18.6072 178.362 18.4525 178.645 18.251C183.173 15.5553 185.433 12.2934 185.166 9.84961L184.779 6.64303C185.045 9.08681 182.785 12.3487 178.258 15.0444C177.912 15.2613 177.613 15.4006 177.267 15.6176C167.917 20.6192 157.021 19.5947 156.395 19.4841" fill="#0E9940"/>
</g>
<path d="M178.273 15.1068C177.927 15.3237 177.629 15.463 177.283 15.68C167.932 20.6816 157.036 19.6571 156.41 19.5465C156.444 19.142 156.739 11.938 163.174 7.25553C163.678 6.86782 164.134 6.5578 164.668 6.29467C170.815 2.6073 179.279 1.85147 182.868 4.00832C186.536 6.21205 184.641 11.2333 178.21 15.1222L178.273 15.1068ZM166.885 12.6183C161.838 15.6394 158.153 18.7886 157.933 18.9747C158.184 18.9132 162.485 17.4617 168.82 13.7282C173.772 10.8624 173.541 10.1927 173.166 10.0205C172.792 9.84835 171.696 9.72098 166.822 12.6336" fill="#23D75A"/>
</g>
<rect width="16.1723" height="3.23446" rx="1.61723" transform="matrix(0.939693 -0.34202 -0.34202 -0.939693 203.621 97.5576)" fill="#26AB66"/>
<rect width="16.1723" height="3.23446" rx="1.61723" transform="matrix(0.84042 -0.541936 -0.541936 -0.84042 150.772 122.132)" fill="#26AB66"/>
<circle cx="215.143" cy="104.479" r="6.76303" transform="rotate(-23.0497 215.143 104.479)" fill="black"/>
<circle cx="163.441" cy="126.477" r="6.76303" transform="rotate(-23.0497 163.441 126.477)" fill="black"/>
<path fill-rule="evenodd" clip-rule="evenodd" d="M208.848 112.698C209.579 113.536 209.492 114.809 208.654 115.541C203.399 120.125 198.93 123.203 193.978 125.285C189.032 127.364 183.729 128.397 176.888 129.064C175.78 129.172 174.795 128.361 174.687 127.254C174.579 126.146 175.389 125.161 176.497 125.053C183.153 124.404 188.002 123.425 192.416 121.57C196.825 119.716 200.927 116.934 206.004 112.504C206.843 111.772 208.116 111.859 208.848 112.698Z" fill="black"/>
<g filter="url(#filter0_d_851_17323)">
<path d="M142.162 177.863C142.162 177.863 129.564 188.779 138.542 199.979C138.542 199.979 151.492 192.951 142.162 177.863Z" fill="#61D616"/>
<path d="M138.542 199.979L142.162 177.863C142.162 177.863 129.564 188.779 138.542 199.979Z" fill="#7EE515"/>
<path d="M34.5906 187.932C34.5758 187.858 34.5891 187.776 34.6273 187.709C34.7142 187.567 34.9009 187.523 35.0465 187.609C35.0678 187.623 36.5026 188.492 39.0708 189.353C41.4476 190.149 45.3088 191.097 50.2095 191.106C54.9796 191.113 58.0149 191.362 60.6829 191.968C63.7119 192.655 66.3045 193.862 68.8475 195.769C68.9791 195.87 69.0092 196.061 68.9081 196.192C68.807 196.327 68.6166 196.354 68.4815 196.253C63.3458 192.405 58.495 191.721 50.2048 191.71C45.2123 191.702 41.2767 190.734 38.8538 189.92C36.2184 189.035 34.787 188.163 34.7266 188.124C34.6556 188.079 34.6055 188.009 34.5906 187.932Z" fill="#17AF4A"/>
<path d="M25.332 186.009C25.332 186.009 34.2944 182.158 37.9059 189.746C37.9059 189.746 30.9003 194.771 25.332 186.009Z" fill="#61D616"/>
<path d="M37.9024 189.746L25.332 186.009C25.332 186.009 34.2944 182.158 37.9059 189.746L37.9024 189.746Z" fill="#7EE515"/>
<path d="M31.8036 178.345C31.8036 178.345 40.7115 181.242 38.5095 189.002C38.5095 189.002 30.2716 188.196 31.8036 178.345Z" fill="#61D616"/>
<path d="M38.5096 189.002L31.8001 178.345C31.8001 178.345 40.708 181.242 38.506 189.002L38.5096 189.002Z" fill="#7EE515"/>
<path d="M37.9825 199.458C37.9825 199.458 47.9245 200.139 48.8338 191.603C48.8338 191.603 40.382 189.129 37.9825 199.458Z" fill="#17AF4A"/>
<path d="M48.8374 191.603L37.9861 199.458C37.9861 199.458 47.9281 200.138 48.8374 191.603Z" fill="#0E9940"/>
<path d="M60.6453 184.815C60.6453 184.815 60.49 194.279 68.6326 194.719C68.6326 194.719 70.5625 186.579 60.6453 184.815Z" fill="#17AF4A"/>
<path d="M68.6326 194.719L60.6453 184.815C60.6453 184.815 60.49 194.279 68.6326 194.719Z" fill="#0E9940"/>
<path d="M53.3809 200.65C53.3809 200.65 54.9844 191.981 62.4978 193.076C62.4978 193.076 62.757 200.863 53.3809 200.65Z" fill="#61D616"/>
<path d="M62.4978 193.08L53.3809 200.654C53.3809 200.654 54.9844 191.985 62.4978 193.08Z" fill="#7EE515"/>
<path d="M45.8788 179.977C45.8788 179.977 55.6945 182.918 53.486 191.459C53.486 191.459 44.4549 190.784 45.8788 179.977Z" fill="#61D616"/>
<path d="M53.486 191.459L45.8788 179.977C45.8788 179.977 55.6945 182.918 53.486 191.459Z" fill="#7EE515"/>
<path d="M383.161 101.06C383.132 100.99 383.082 100.93 383.007 100.896C382.858 100.827 382.682 100.892 382.613 101.041C382.603 101.062 381.897 102.548 380.258 104.637C378.744 106.569 376.096 109.43 372.086 112.081C368.185 114.661 365.837 116.502 363.981 118.437C361.873 120.633 360.403 123.02 359.347 125.953C359.292 126.106 359.372 126.278 359.524 126.333C359.68 126.388 359.849 126.309 359.904 126.153C362.032 120.232 365.631 117.059 372.412 112.576C376.495 109.878 379.193 106.96 380.738 104.989C382.415 102.843 383.118 101.357 383.149 101.293C383.183 101.219 383.186 101.134 383.157 101.06L383.161 101.06Z" fill="#17AF4A"/>
<path d="M380.27 91.7142C380.27 91.7142 374.542 98.8877 380.531 104.051C380.531 104.051 386.837 98.9449 380.27 91.7142Z" fill="#61D616"/>
<path d="M380.527 104.052L380.27 91.7107C380.27 91.7107 374.542 98.8843 380.531 104.052L380.527 104.052Z" fill="#7EE515"/>
<path d="M386.599 112.325C386.599 112.325 378.829 118.244 373.481 111.75C373.481 111.75 379.062 105.167 386.599 112.325Z" fill="#17AF4A"/>
<path d="M373.481 111.75L386.599 112.325C386.599 112.325 378.829 118.244 373.481 111.75Z" fill="#0E9940"/>
<path d="M360.157 112.564C360.157 112.564 365.386 120.225 358.964 124.979C358.964 124.979 352.995 119.36 360.157 112.564Z" fill="#17AF4A"/>
<path d="M358.964 124.979L360.157 112.564C360.157 112.564 365.386 120.225 358.964 124.979Z" fill="#0E9940"/>
<path d="M374.643 121.607C374.643 121.607 368.654 115.38 363.095 120.328C363.095 120.328 367.081 126.842 374.643 121.607Z" fill="#61D616"/>
<path d="M363.095 120.328L374.643 121.607C374.643 121.607 368.654 115.38 363.095 120.328Z" fill="#7EE515"/>
<path d="M369.63 100.641C369.63 100.641 363.184 108.34 369.599 114.139C369.599 114.139 376.625 108.718 369.63 100.641Z" fill="#61D616"/>
<path d="M369.599 114.139L369.63 100.641C369.63 100.641 363.184 108.34 369.599 114.139Z" fill="#7EE515"/>
<path d="M164.186 177.409C164.186 177.409 142.209 178.381 142.326 197.33C142.326 197.33 161.481 200.66 164.186 177.409Z" fill="#17AF4A"/>
<path d="M142.33 197.333L164.189 177.412C164.189 177.412 142.213 178.385 142.33 197.333Z" fill="#0E9940"/>
<path d="M48.41 152.677C48.3779 152.646 48.3563 152.6 48.3558 152.551C48.3548 152.449 48.4352 152.367 48.5376 152.366C48.5517 152.365 49.5683 152.345 51.1604 151.952C52.6327 151.588 54.9167 150.821 57.4222 149.236C59.8646 147.69 61.4981 146.838 63.0568 146.282C64.8266 145.651 66.5475 145.429 68.4661 145.577C68.5686 145.586 68.6436 145.674 68.6339 145.773C68.6243 145.875 68.5368 145.95 68.4378 145.941C64.5653 145.639 61.862 146.862 57.6194 149.545C55.0647 151.158 52.7385 151.94 51.2345 152.308C49.6001 152.708 48.5835 152.729 48.5411 152.729C48.4881 152.73 48.442 152.709 48.4099 152.674L48.41 152.677Z" fill="#17AF4A"/>
<path d="M64.7013 145.828C64.7013 145.828 67.1969 145.408 67.1277 141.91C67.1277 141.91 64.2459 142.563 64.7013 145.828Z" fill="#17AF4A"/>
<path d="M68.0896 145.714C68.0896 145.714 69.6693 147.69 72.6922 145.931C72.6922 145.931 70.7219 143.729 68.0896 145.714Z" fill="#17AF4A"/>
<path d="M59.1579 148.361C59.1579 148.361 61.4568 147.308 60.4815 143.945C60.4815 143.945 57.868 145.326 59.1579 148.361Z" fill="#17AF4A"/>
<path d="M53.6041 151.264C53.6041 151.264 55.9029 150.211 54.9276 146.849C54.9276 146.849 52.3141 148.23 53.6041 151.264Z" fill="#17AF4A"/>
<path d="M65.5209 149.895C65.5209 149.895 65.5564 147.366 62.105 146.803C62.105 146.803 62.229 149.757 65.5209 149.895Z" fill="#17AF4A"/>
<path d="M60.1592 152.945C60.1592 152.945 60.1947 150.416 56.7397 149.853C56.7397 149.853 56.8638 152.807 60.1592 152.945Z" fill="#17AF4A"/>
<path d="M54.1724 155.245C54.1724 155.245 54.2078 152.716 50.7529 152.153C50.7529 152.153 50.8769 155.107 54.1724 155.245Z" fill="#17AF4A"/>
<path d="M164.165 193.05C164.123 193.083 164.091 193.136 164.085 193.192C164.068 193.313 164.154 193.421 164.274 193.438C164.292 193.438 165.49 193.602 167.319 194.28C169.009 194.91 171.605 196.124 174.353 198.336C177.029 200.488 178.841 201.721 180.611 202.586C182.619 203.569 184.619 204.065 186.908 204.149C187.028 204.155 187.129 204.059 187.135 203.939C187.138 203.818 187.045 203.717 186.925 203.711C182.305 203.544 179.279 201.734 174.628 197.991C171.828 195.737 169.182 194.502 167.456 193.862C165.582 193.167 164.383 193.009 164.33 192.999C164.27 192.993 164.21 193.008 164.165 193.047L164.165 193.05Z" fill="#17AF4A"/>
<path d="M182.487 203.341C182.487 203.341 185.376 204.174 184.826 208.296C184.826 208.296 181.507 207.139 182.487 203.341Z" fill="#17AF4A"/>
<path d="M186.475 203.938C186.475 203.938 188.608 201.816 191.944 204.305C191.944 204.305 189.315 206.643 186.475 203.938Z" fill="#17AF4A"/>
<path d="M176.282 199.598C176.282 199.598 178.857 201.155 177.249 204.994C177.249 204.994 174.345 203.01 176.282 199.598Z" fill="#17AF4A"/>
<path d="M170.109 195.422C170.109 195.422 172.684 196.978 171.075 200.818C171.075 200.818 168.172 198.833 170.109 195.422Z" fill="#17AF4A"/>
<path d="M184.009 198.648C184.009 198.648 183.709 201.641 179.552 201.841C179.552 201.841 180.097 198.368 184.009 198.648Z" fill="#17AF4A"/>
<path d="M178.081 194.324C178.081 194.324 177.782 197.317 173.624 197.516C173.624 197.516 174.17 194.044 178.081 194.324Z" fill="#17AF4A"/>
<path d="M171.317 190.795C171.317 190.795 171.018 193.789 166.861 193.988C166.861 193.988 167.406 190.516 171.317 190.795Z" fill="#17AF4A"/>
<path d="M130.763 197.721C130.806 197.802 130.821 197.897 130.794 197.993C130.739 198.187 130.539 198.299 130.348 198.248C130.32 198.241 128.376 197.72 125.134 197.585C122.135 197.462 117.374 197.66 111.734 199.286C106.241 200.872 102.665 201.595 99.3935 201.789C95.6813 202.009 92.2938 201.484 88.7289 200.142C88.541 200.069 88.4472 199.862 88.516 199.674C88.5883 199.486 88.7957 199.392 88.9835 199.461C96.1772 202.174 101.984 201.341 111.529 198.589C117.275 196.93 122.132 196.735 125.19 196.861C128.518 196.998 130.458 197.526 130.539 197.547C130.638 197.574 130.716 197.637 130.763 197.721Z" fill="#17AF4A"/>
<path d="M96.0319 201.737C96.0319 201.737 91.062 201.156 89.2556 207.84C89.2556 207.84 95.0954 208.196 96.0319 201.737Z" fill="#17AF4A"/>
<path d="M89.5265 200.088C89.5265 200.088 87.6173 195.46 80.897 197.135C80.897 197.135 83.4268 202.41 89.5265 200.088Z" fill="#17AF4A"/>
<path d="M107.956 199.983C107.956 199.983 103.006 200.716 103.002 207.64C103.002 207.64 108.732 206.461 107.956 199.983Z" fill="#17AF4A"/>
<path d="M120.117 197.538C120.117 197.538 115.167 198.271 115.163 205.195C115.163 205.195 120.893 204.016 120.117 197.538Z" fill="#17AF4A"/>
<path d="M96.7114 193.557C96.7114 193.557 95.2468 198.344 101.497 201.32C101.497 201.32 102.893 195.64 96.7114 193.557Z" fill="#17AF4A"/>
<path d="M108.59 190.726C108.59 190.726 107.125 195.514 113.375 198.49C113.375 198.49 114.771 192.81 108.59 190.726Z" fill="#17AF4A"/>
<path d="M121.233 189.661C121.233 189.661 119.769 194.445 126.022 197.421C126.022 197.421 127.418 191.741 121.233 189.661Z" fill="#17AF4A"/>
<path d="M294.071 152.386C294.142 152.442 294.196 152.523 294.214 152.618C294.244 152.815 294.112 153.004 293.915 153.037C293.887 153.041 291.902 153.378 288.902 154.615C286.128 155.758 281.887 157.928 277.444 161.766C273.116 165.505 270.175 167.659 267.284 169.202C264.003 170.953 260.708 171.896 256.908 172.166C256.707 172.178 256.532 172.028 256.52 171.831C256.507 171.63 256.657 171.455 256.855 171.443C264.526 170.899 269.452 167.712 276.969 161.22C281.496 157.31 285.821 155.1 288.652 153.936C291.733 152.67 293.714 152.337 293.798 152.322C293.901 152.307 293.996 152.33 294.074 152.39L294.071 152.386Z" fill="#17AF4A"/>
<path d="M264.204 170.567C264.204 170.567 259.446 172.117 260.603 178.945C260.603 178.945 266.055 176.823 264.204 170.567Z" fill="#17AF4A"/>
<path d="M257.607 171.788C257.607 171.788 253.937 168.385 248.535 172.717C248.535 172.717 253.041 176.447 257.607 171.788Z" fill="#17AF4A"/>
<path d="M274.302 163.982C274.302 163.982 270.113 166.721 273.006 173.009C273.006 173.009 277.717 169.542 274.302 163.982Z" fill="#17AF4A"/>
<path d="M284.325 156.675C284.325 156.675 280.136 159.413 283.029 165.702C283.029 165.702 287.74 162.235 284.325 156.675Z" fill="#17AF4A"/>
<path d="M261.4 162.851C261.4 162.851 262.073 167.812 268.994 167.897C268.994 167.897 267.887 162.152 261.4 162.851Z" fill="#17AF4A"/>
<path d="M271.005 155.311C271.005 155.311 271.678 160.272 278.599 160.357C278.599 160.357 277.491 154.613 271.005 155.311Z" fill="#17AF4A"/>
<path d="M282.045 149.053C282.045 149.053 282.718 154.011 289.642 154.099C289.642 154.099 288.534 148.355 282.045 149.053Z" fill="#17AF4A"/>
<path d="M340.998 126.944C341.009 126.986 341.037 127.025 341.08 127.052C341.165 127.101 341.278 127.075 341.326 126.99C341.333 126.976 341.844 126.12 342.955 124.955C343.983 123.875 345.744 122.301 348.315 120.934C350.819 119.603 352.342 118.625 353.575 117.564C354.972 116.361 355.997 115.002 356.803 113.296C356.844 113.207 356.808 113.098 356.716 113.057C356.623 113.015 356.518 113.052 356.476 113.144C354.85 116.595 352.498 118.302 348.146 120.618C345.525 122.013 343.73 123.616 342.685 124.721C341.549 125.918 341.038 126.774 341.017 126.813C340.993 126.856 340.987 126.909 340.998 126.951L340.998 126.944Z" fill="#17AF4A"/>
<path d="M354.753 116.38C354.753 116.38 356.323 114.455 359.274 116.213C359.274 116.213 357.318 118.354 354.753 116.38Z" fill="#17AF4A"/>
<path d="M356.501 113.546C356.501 113.546 355.586 111.239 358.556 109.515C358.556 109.515 359.476 112.267 356.501 113.546Z" fill="#17AF4A"/>
<path d="M349.901 119.874C349.901 119.874 351.917 118.424 354.31 120.89C354.31 120.89 351.86 122.45 349.901 119.874Z" fill="#17AF4A"/>
<path d="M344.729 123.2C344.729 123.2 346.745 121.751 349.138 124.217C349.138 124.217 346.692 125.776 344.729 123.2Z" fill="#17AF4A"/>
<path d="M351.687 113.702C351.687 113.702 353.859 114.903 352.662 118.12C352.662 118.12 350.204 116.58 351.687 113.702Z" fill="#17AF4A"/>
<path d="M346.481 116.796C346.481 116.796 348.657 117.993 347.456 121.214C347.456 121.214 344.998 119.674 346.481 116.796Z" fill="#17AF4A"/>
<path d="M341.609 120.784C341.609 120.784 343.781 121.984 342.584 125.202C342.584 125.202 340.125 123.662 341.609 120.784Z" fill="#17AF4A"/>
<path d="M47.7687 153.195C47.7369 153.188 47.712 153.171 47.6906 153.143C47.6512 153.087 47.6681 153.009 47.7242 152.97C47.7312 152.963 48.303 152.583 49.0648 151.774C49.7708 151.029 50.7894 149.759 51.6368 147.939C52.4634 146.166 53.0778 145.083 53.7613 144.197C54.5388 143.191 55.4354 142.437 56.5804 141.818C56.6401 141.786 56.7145 141.81 56.7504 141.87C56.7827 141.929 56.7588 142.007 56.6991 142.04C54.3844 143.284 53.2956 144.968 51.8602 148.043C50.9956 149.898 49.9595 151.19 49.2396 151.952C48.4567 152.779 47.8849 153.159 47.8604 153.177C47.8323 153.195 47.797 153.202 47.7652 153.195L47.7687 153.195Z" fill="#17AF4A"/>
<path d="M54.5335 143.346C54.5335 143.346 55.8004 142.197 54.482 140.229C54.482 140.229 53.08 141.655 54.5335 143.346Z" fill="#17AF4A"/>
<path d="M56.4202 142.039C56.4202 142.039 58.0426 142.585 59.1166 140.477C59.1166 140.477 57.1907 139.945 56.4202 142.039Z" fill="#17AF4A"/>
<path d="M52.3074 146.814C52.3074 146.814 53.229 145.372 51.4451 143.818C51.4451 143.818 50.4628 145.561 52.3074 146.814Z" fill="#17AF4A"/>
<path d="M50.207 150.496C50.207 150.496 51.1287 149.057 49.3447 147.499C49.3447 147.499 48.3624 149.242 50.207 150.496Z" fill="#17AF4A"/>
<path d="M56.4878 145.357C56.4878 145.357 55.5839 143.904 53.4146 144.847C53.4146 144.847 54.5638 146.481 56.4878 145.357Z" fill="#17AF4A"/>
<path d="M54.5499 149.051C54.5499 149.051 53.646 147.599 51.4732 148.541C51.4732 148.541 52.6224 150.175 54.5499 149.051Z" fill="#17AF4A"/>
<path d="M51.9853 152.551C51.9853 152.551 51.0815 151.098 48.9086 152.041C48.9086 152.041 50.0579 153.675 51.9853 152.551Z" fill="#17AF4A"/>
<path d="M238.405 189.403C238.411 190.084 237.862 190.64 237.184 190.643C236.503 190.65 235.947 190.101 235.944 189.419C235.937 188.738 236.486 188.182 237.167 188.179C237.849 188.172 238.405 188.721 238.408 189.403L238.405 189.403Z" fill="#7EE515"/>
<path d="M231.438 187.493C231.442 187.91 231.106 188.252 230.69 188.256C230.273 188.26 229.931 187.925 229.927 187.508C229.923 187.091 230.258 186.749 230.675 186.745C231.091 186.741 231.434 187.077 231.438 187.493Z" fill="#7EE515"/>
<path d="M235 183.059C235.003 183.37 234.751 183.627 234.44 183.63C234.129 183.633 233.873 183.381 233.87 183.07C233.867 182.76 234.119 182.503 234.429 182.5C234.74 182.497 234.997 182.749 235 183.059Z" fill="#7EE515"/>
<path d="M317.591 141.393C317.598 142.074 317.049 142.63 316.368 142.633C315.686 142.64 315.13 142.091 315.127 141.41C315.121 140.728 315.67 140.172 316.351 140.169C317.032 140.163 317.588 140.711 317.591 141.393Z" fill="#7EE515"/>
<path d="M366.148 95.0185C366.156 95.9399 365.412 96.6957 364.49 96.7046C363.565 96.7136 362.813 95.9689 362.804 95.0439C362.795 94.1225 363.54 93.3667 364.461 93.3578C365.386 93.3488 366.139 94.0935 366.147 95.015L366.148 95.0185Z" fill="#7EE515"/>
<path d="M217.641 170.873C217.65 171.795 216.905 172.551 215.983 172.56C215.058 172.569 214.306 171.824 214.297 170.899C214.288 169.977 215.033 169.222 215.954 169.213C216.879 169.204 217.632 169.949 217.641 170.87L217.641 170.873Z" fill="#7EE515"/>
<path d="M41.1104 165.964C41.0195 166.42 40.5776 166.721 40.1177 166.63C39.6614 166.54 39.3605 166.098 39.4514 165.638C39.5423 165.181 39.9842 164.88 40.4441 164.971C40.9004 165.062 41.2013 165.504 41.1104 165.964Z" fill="#7EE515"/>
<path d="M310.628 139.484C310.632 139.9 310.297 140.242 309.88 140.246C309.463 140.25 309.121 139.915 309.121 139.498C309.117 139.082 309.452 138.739 309.869 138.735C310.285 138.731 310.628 139.067 310.632 139.484L310.628 139.484Z" fill="#7EE515"/>
<path d="M314.19 135.053C314.193 135.364 313.941 135.62 313.631 135.623C313.32 135.626 313.063 135.375 313.06 135.064C313.057 134.753 313.309 134.497 313.62 134.494C313.93 134.491 314.187 134.742 314.19 135.053Z" fill="#7EE515"/>
<path d="M332.871 71.0576C332.876 71.5483 332.481 71.9511 331.99 71.9558C331.499 71.9606 331.097 71.5655 331.092 71.0713C331.087 70.5806 331.482 70.1778 331.976 70.173C332.467 70.1682 332.87 70.5633 332.875 71.054L332.871 71.0576Z" fill="#7EE515"/>
<path d="M358.866 79.254C359.2 79.4802 359.286 79.9348 359.059 80.2689C358.833 80.603 358.378 80.6886 358.044 80.4624C357.71 80.2361 357.625 79.7815 357.851 79.4474C358.077 79.1133 358.532 79.0277 358.866 79.254Z" fill="#7EE515"/>
<path d="M327.84 69.6802C327.843 69.9803 327.602 70.2262 327.298 70.2292C326.998 70.2321 326.752 69.9908 326.749 69.6872C326.747 69.3872 326.988 69.1412 327.291 69.1382C327.591 69.1353 327.837 69.3766 327.84 69.6802Z" fill="#7EE515"/>
<path d="M330.411 66.4773C330.414 66.7032 330.232 66.8886 330.006 66.8873C329.78 66.8895 329.595 66.7077 329.596 66.4817C329.594 66.2557 329.776 66.0739 330.001 66.0717C330.227 66.0695 330.413 66.2513 330.411 66.4773Z" fill="#7EE515"/>
<path d="M85.9531 190.974C85.9597 191.656 85.4108 192.212 84.7329 192.215C84.0515 192.222 83.4954 191.673 83.4923 190.991C83.4857 190.31 84.0346 189.754 84.716 189.751C85.3974 189.744 85.9535 190.293 85.9566 190.971L85.9531 190.974Z" fill="#7EE515"/>
<path d="M78.9896 189.065C78.9936 189.481 78.658 189.823 78.2414 189.827C77.8248 189.831 77.4826 189.496 77.4786 189.079C77.4745 188.663 77.8102 188.32 78.2268 188.316C78.6433 188.312 78.9855 188.648 78.9896 189.065Z" fill="#7EE515"/>
<path d="M82.5515 184.634C82.5545 184.945 82.3028 185.202 81.9921 185.205C81.6814 185.208 81.4248 184.956 81.4218 184.645C81.4187 184.335 81.6705 184.078 81.9811 184.075C82.2918 184.072 82.5485 184.324 82.5515 184.634Z" fill="#7EE515"/>
<path d="M70.1718 151.068C70.1749 151.39 69.9161 151.65 69.5949 151.653C69.2736 151.656 69.0133 151.397 69.0102 151.076C69.0071 150.755 69.2659 150.495 69.5871 150.491C69.9084 150.488 70.1686 150.747 70.1718 151.068Z" fill="#7EE515"/>
<path d="M66.8902 150.168C66.8922 150.365 66.7348 150.526 66.5371 150.528C66.3394 150.529 66.179 150.372 66.1771 150.174C66.1752 149.977 66.3325 149.816 66.5302 149.814C66.7279 149.812 66.8883 149.97 66.8902 150.168Z" fill="#7EE515"/>
<path d="M68.5681 148.079C68.5695 148.227 68.4506 148.345 68.3023 148.346C68.154 148.348 68.0364 148.229 68.0349 148.081C68.0335 147.932 68.1524 147.815 68.3007 147.813C68.4489 147.812 68.5666 147.931 68.5681 148.079Z" fill="#7EE515"/>
<path d="M341.898 152.119C340.145 152.994 338.013 152.288 337.138 150.535C336.259 148.781 336.969 146.649 338.723 145.77C340.472 144.895 342.608 145.602 343.483 147.355C344.362 149.109 343.652 151.237 341.898 152.116L341.898 152.119Z" fill="#7EE515"/>
<path d="M353.986 135.27C353.182 135.674 352.204 135.348 351.804 134.543C351.401 133.739 351.727 132.761 352.532 132.361C353.333 131.958 354.314 132.284 354.714 133.089C355.114 133.893 354.791 134.871 353.986 135.27Z" fill="#7EE515"/>
<path d="M323.822 87.8419C324.236 87.8909 324.532 88.2693 324.48 88.6829C324.431 89.0965 324.053 89.3932 323.639 89.3407C323.225 89.2918 322.929 88.9134 322.981 88.4998C323.03 88.0862 323.409 87.7895 323.822 87.8419Z" fill="#7EE515"/>
<path d="M318.643 86.8225C318.954 86.8619 319.173 87.1422 319.137 87.4497C319.101 87.7608 318.817 87.9789 318.506 87.9431C318.195 87.9073 317.977 87.6234 318.013 87.3159C318.052 87.0048 318.332 86.7867 318.643 86.8225Z" fill="#7EE515"/>
<path d="M59.4021 153.139C59.4021 153.139 52.2967 164.973 41.8784 159.244C41.8784 159.244 45.7665 147.682 59.4021 153.139Z" fill="#17AF4A"/>
<path d="M41.8819 159.241L59.4021 153.135C59.4021 153.135 52.2967 164.969 41.8784 159.241L41.8819 159.241Z" fill="#0E9940"/>
<path d="M31.587 198.218C31.587 198.218 54.2785 187.998 63.8212 207.19C63.8212 207.19 46.1751 220.323 31.587 198.218Z" fill="#61D616"/>
<path d="M63.8177 207.19L31.587 198.218C31.587 198.218 54.2785 187.998 63.8212 207.19L63.8177 207.19Z" fill="#7EE515"/>
<path d="M76.1486 133.9C76.1486 133.9 69.4804 136.217 71.2563 142.033C71.2563 142.033 77.4527 141.298 76.1486 133.9Z" fill="#61D616"/>
<path d="M71.2563 142.033L76.1486 133.9C76.1486 133.9 69.4804 136.217 71.2563 142.033Z" fill="#7EE515"/>
<path d="M39.924 221.242C39.924 221.242 60.6989 224.525 64.2018 206.749C64.2018 206.749 46.892 199.972 39.924 221.242Z" fill="#17AF4A"/>
<path d="M64.2019 206.752L39.9242 221.245C39.9242 221.245 60.699 224.528 64.2019 206.752Z" fill="#0E9940"/>
<path d="M52.3905 202.641C52.3905 202.641 67.6724 188.19 80.612 200.873C80.612 200.873 70.1656 216.249 52.3905 202.641Z" fill="#17AF4A"/>
<path d="M80.6124 200.87L52.3945 202.637C52.3945 202.637 67.6763 188.186 80.6159 200.87L80.6124 200.87Z" fill="#0E9940"/>
<path d="M150.354 193.23C154.751 189.356 159.862 187.075 165.652 186.249C170.652 185.537 175.779 185.943 180.792 186.29C185.113 186.59 189.437 186.866 193.75 186.326C198.5 185.729 203.137 184.007 207.151 181.412C207.284 181.326 207.166 181.133 207.029 181.205C202.392 183.644 197.746 185.507 192.501 186.035C188.018 186.488 183.487 186.03 179.011 185.738C168.804 185.078 157.879 185.336 150.251 193.136C150.188 193.203 150.284 193.294 150.354 193.233L150.354 193.23Z" fill="#17AF4A"/>
<path d="M206.205 181.834C207.036 180.545 206.846 178.071 210.651 177.198C216.813 175.786 211.915 184.046 206.205 181.834Z" fill="#17AF4A"/>
<path d="M204.327 182.947C204.864 181.83 206.207 179.486 205.126 176.877C202.906 171.529 200.156 180.626 204.327 182.947Z" fill="#17AF4A"/>
<path d="M204.204 183.019C204.615 184.187 205.321 186.796 207.93 187.876C213.283 190.087 208.796 181.71 204.204 183.019Z" fill="#17AF4A"/>
<path d="M198.199 185.224C198.82 184.152 200.345 181.923 199.475 179.238C197.685 173.729 194.222 182.579 198.199 185.224Z" fill="#17AF4A"/>
<path d="M198.069 185.288C198.384 186.486 198.883 189.143 201.399 190.425C206.558 193.055 202.748 184.346 198.069 185.288Z" fill="#17AF4A"/>
<path d="M192.771 186.23C193.418 185.175 194.992 182.981 194.182 180.274C192.518 174.726 188.854 183.497 192.771 186.23Z" fill="#17AF4A"/>
<path d="M192.638 186.291C192.928 187.496 193.364 190.161 195.852 191.499C200.948 194.246 197.343 185.455 192.638 186.291Z" fill="#17AF4A"/>
<path d="M186.419 186.539C187.14 185.529 188.864 183.45 188.244 180.695C186.971 175.044 182.704 183.538 186.419 186.539Z" fill="#17AF4A"/>
<path d="M186.285 186.59C186.491 187.813 186.74 190.501 189.127 192.01C194.022 195.105 191.036 186.085 186.285 186.59Z" fill="#17AF4A"/>
<path d="M180.901 186.239C181.672 185.268 183.499 183.28 183.017 180.495C182.029 174.789 177.339 183.057 180.901 186.239Z" fill="#17AF4A"/>
<path d="M180.764 186.283C180.906 187.513 181.021 190.213 183.328 191.84C188.063 195.18 185.531 186.017 180.764 186.283Z" fill="#17AF4A"/>
<path d="M174.427 185.617C175.197 184.646 177.025 182.658 176.542 179.873C175.555 174.167 170.865 182.435 174.427 185.617Z" fill="#17AF4A"/>
<path d="M174.289 185.661C174.432 186.891 174.546 189.591 176.854 191.218C181.585 194.554 179.057 185.395 174.289 185.661Z" fill="#17AF4A"/>
<path d="M167.83 185.875C168.601 184.904 170.428 182.916 169.946 180.132C168.958 174.425 164.272 182.69 167.83 185.875Z" fill="#17AF4A"/>
<path d="M167.697 185.919C167.839 187.15 167.954 189.85 170.261 191.476C174.993 194.813 172.464 185.654 167.697 185.919Z" fill="#17AF4A"/>
<path d="M45.9173 162.482C45.0496 165.114 43.51 167.268 41.3411 168.987C39.4702 170.474 37.2808 171.534 35.1515 172.592C33.3173 173.503 31.4832 174.425 29.8536 175.677C28.0593 177.057 26.5763 178.865 25.5579 180.887C25.5232 180.955 25.619 181.003 25.6573 180.943C26.9679 178.84 28.4185 176.969 30.4344 175.498C32.1558 174.242 34.1137 173.344 36.011 172.393C40.3327 170.222 44.7304 167.507 45.981 162.499C45.9912 162.456 45.9311 162.443 45.9174 162.485L45.9173 162.482Z" fill="#17AF4A"/>
<path d="M25.8434 180.486C25.8116 181.21 26.4812 182.174 25.1377 183.441C22.9615 185.488 22.9845 180.948 25.8434 180.486Z" fill="#17AF4A"/>
<path d="M26.3431 179.584C26.3912 180.169 26.4036 181.447 27.4671 182.253C29.651 183.905 28.5987 179.533 26.3431 179.584Z" fill="#17AF4A"/>
<path d="M26.3778 179.524C25.9292 179.143 25.0202 178.248 23.6945 178.434C20.9795 178.81 24.8154 181.156 26.3778 179.524Z" fill="#17AF4A"/>
<path d="M28.3006 177.188C28.3027 177.775 28.2127 179.05 29.2099 179.937C31.2577 181.757 30.5544 177.318 28.3006 177.188Z" fill="#17AF4A"/>
<path d="M28.3389 177.132C27.9218 176.719 27.0862 175.753 25.7524 175.833C23.0176 175.994 26.6552 178.638 28.3389 177.132Z" fill="#17AF4A"/>
<path d="M30.2752 175.482C30.2633 176.068 30.145 177.34 31.1213 178.252C33.1272 180.118 32.5261 175.665 30.2752 175.482Z" fill="#17AF4A"/>
<path d="M30.3171 175.425C29.9105 175.002 29.096 174.018 27.7618 174.066C25.0229 174.163 28.5978 176.889 30.3171 175.425Z" fill="#17AF4A"/>
<path d="M32.7944 173.837C32.7436 174.42 32.5334 175.682 33.4468 176.659C35.3163 178.66 35.0291 174.175 32.7944 173.837Z" fill="#17AF4A"/>
<path d="M32.8398 173.783C32.4647 173.331 31.7202 172.293 30.3852 172.25C27.648 172.156 31.0239 175.125 32.8398 173.783Z" fill="#17AF4A"/>
<path d="M35.1201 172.639C35.0374 173.218 34.7671 174.467 35.6315 175.49C37.3995 177.584 37.3346 173.087 35.1201 172.639Z" fill="#17AF4A"/>
<path d="M35.1655 172.588C34.8114 172.119 34.1195 171.045 32.7909 170.934C30.0594 170.703 33.2851 173.839 35.1655 172.588Z" fill="#17AF4A"/>
<path d="M37.9109 171.344C37.8283 171.923 37.558 173.172 38.4223 174.195C40.1904 176.289 40.1255 171.792 37.9109 171.344Z" fill="#17AF4A"/>
<path d="M37.9563 171.294C37.6022 170.824 36.9104 169.751 35.5818 169.64C32.8503 169.409 36.076 172.544 37.9563 171.294Z" fill="#17AF4A"/>
<path d="M40.5426 169.662C40.46 170.242 40.1897 171.491 41.0505 172.513C42.8185 174.608 42.7537 170.11 40.5426 169.662Z" fill="#17AF4A"/>
<path d="M40.5845 169.612C40.2304 169.143 39.5386 168.069 38.21 167.958C35.4785 167.727 38.7042 170.863 40.5845 169.612Z" fill="#17AF4A"/>
<path d="M349.186 86.6567C347.089 84.1597 344.467 82.4833 341.351 81.5497C338.66 80.7426 335.809 80.5408 333.021 80.3136C330.621 80.118 328.219 79.9154 325.889 79.2601C323.326 78.5365 320.919 77.2076 318.925 75.4439C318.861 75.3881 318.941 75.2884 319.008 75.3407C321.355 77.0656 323.759 78.4758 326.598 79.2038C329.026 79.8263 331.555 79.9501 334.043 80.1589C339.711 80.6406 345.699 81.6911 349.249 86.6138C349.278 86.6558 349.218 86.6988 349.186 86.6603L349.186 86.6567Z" fill="#17AF4A"/>
<path d="M319.411 75.7536C319.061 74.9731 319.37 73.632 317.349 72.836C314.078 71.5473 316.089 76.499 319.411 75.7536Z" fill="#17AF4A"/>
<path d="M320.351 76.5212C320.15 75.8629 319.604 74.463 320.417 73.117C322.081 70.361 322.842 75.5897 320.351 76.5212Z" fill="#17AF4A"/>
<path d="M320.415 76.5737C320.093 77.1841 319.488 78.5564 317.963 78.9348C314.835 79.7067 318 75.4709 320.415 76.5737Z" fill="#17AF4A"/>
<path d="M323.535 78.2841C323.282 77.644 322.626 76.291 323.329 74.886C324.77 72.0051 325.939 77.1592 323.535 78.2841Z" fill="#17AF4A"/>
<path d="M323.599 78.3292C323.326 78.9638 322.832 80.3809 321.339 80.8791C318.285 81.8973 321.101 77.4248 323.599 78.3292Z" fill="#17AF4A"/>
<path d="M326.436 79.2865C326.169 78.6535 325.482 77.315 326.153 75.8927C327.526 72.9771 328.815 78.1053 326.436 79.2865Z" fill="#17AF4A"/>
<path d="M326.504 79.3318C326.245 79.9699 325.782 81.4008 324.305 81.9306C321.272 83.0192 323.985 78.4807 326.504 79.3318Z" fill="#17AF4A"/>
<path d="M329.903 79.9838C329.59 79.369 328.815 78.0843 329.383 76.617C330.551 73.6152 332.196 78.6411 329.903 79.9838Z" fill="#17AF4A"/>
<path d="M329.974 80.0218C329.758 80.6771 329.402 82.1352 327.96 82.7671C325.011 84.0633 327.401 79.3477 329.974 80.0218Z" fill="#17AF4A"/>
<path d="M332.964 80.2755C332.623 79.6751 331.781 78.4298 332.278 76.9386C333.294 73.8817 335.188 78.8169 332.964 80.2755Z" fill="#17AF4A"/>
<path d="M333.035 80.3135C332.854 80.9791 332.568 82.4541 331.163 83.1563C328.282 84.6001 330.434 79.7703 333.035 80.3135Z" fill="#17AF4A"/>
<path d="M336.578 80.4697C336.236 79.8728 335.395 78.6276 335.888 77.1364C336.904 74.0795 338.798 79.0147 336.578 80.4697Z" fill="#17AF4A"/>
<path d="M336.649 80.5079C336.468 81.1734 336.182 82.6485 334.777 83.3506C331.895 84.7944 334.048 79.9647 336.649 80.5079Z" fill="#17AF4A"/>
<path d="M340.182 81.1587C339.841 80.5618 338.999 79.3166 339.497 77.8253C340.512 74.7685 342.406 79.7037 340.182 81.1587Z" fill="#17AF4A"/>
<path d="M340.253 81.1968C340.072 81.8624 339.786 83.3374 338.381 84.0396C335.5 85.4834 337.653 80.6536 340.253 81.1968Z" fill="#17AF4A"/>
<path d="M376.279 74.0786C376.279 74.0786 366.861 84.4655 375.494 92.9119C375.494 92.9119 385.596 85.7348 376.279 74.0786Z" fill="#61D616"/>
<path d="M375.494 92.9155L376.279 74.0786C376.279 74.0786 366.861 84.4691 375.494 92.9155Z" fill="#7EE515"/>
<path d="M335.764 124.672C335.764 124.672 320.954 126.959 322.438 139.782C322.438 139.782 335.654 140.617 335.764 124.672Z" fill="#61D616"/>
<path d="M322.438 139.782L335.764 124.672C335.764 124.672 320.954 126.959 322.438 139.782Z" fill="#7EE515"/>
<path d="M368.015 80.0479C368.015 80.0479 363.314 91.9355 373.391 96.3711C373.391 96.3711 379.705 87.0029 368.015 80.0479Z" fill="#61D616"/>
<path d="M373.391 96.3711L368.015 80.0479C368.015 80.0479 363.314 91.9355 373.391 96.3711Z" fill="#7EE515"/>
<path d="M13.1788 201.585C13.1788 201.585 23.937 202.324 24.9277 193.089C24.9277 193.089 15.7818 190.406 13.1788 201.585Z" fill="#61D616"/>
<path d="M24.9279 193.088L13.179 201.584C13.179 201.584 23.9372 202.324 24.9279 193.088Z" fill="#7EE515"/>
<path d="M314.653 152.525C314.653 152.525 304.273 141.713 294.629 150.291C294.629 150.291 301.536 161.592 314.653 152.525Z" fill="#61D616"/>
<path d="M294.63 150.294L314.653 152.529C314.653 152.529 304.273 141.717 294.63 150.294Z" fill="#7EE515"/>
<path d="M50.8066 164.959C50.8066 164.959 48.3432 157.798 42.0981 159.684C42.0981 159.684 42.8652 166.332 50.8066 164.959Z" fill="#61D616"/>
<path d="M42.0981 159.684L50.8066 164.959C50.8066 164.959 48.3432 157.798 42.0981 159.684Z" fill="#7EE515"/>
<path d="M236.073 162.037C236.073 162.037 248.751 172.859 258.482 162.3C258.482 162.3 249.594 150.551 236.073 162.037Z" fill="#61D616"/>
<path d="M258.482 162.304L236.074 162.041C236.074 162.041 248.751 172.863 258.482 162.304Z" fill="#7EE515"/>
<path d="M355.564 82.4568C355.564 82.4568 349.283 79.1601 346.238 84.4575C346.238 84.4575 351.033 88.496 355.564 82.4568Z" fill="#61D616"/>
<path d="M346.234 84.4614L355.564 82.4607C355.564 82.4607 349.283 79.164 346.238 84.4614L346.234 84.4614Z" fill="#7EE515"/>
<path d="M221.889 178.632C221.889 178.632 228.582 180.996 230.836 175.315C230.836 175.315 225.511 172.005 221.889 178.632Z" fill="#61D616"/>
<path d="M230.836 175.318L221.889 178.636C221.889 178.636 228.582 181 230.836 175.318Z" fill="#7EE515"/>
<path d="M356.209 86.6977C356.209 86.6977 360.239 87.9085 361.416 84.4793C361.416 84.4793 358.168 82.6678 356.209 86.6977Z" fill="#61D616"/>
<path d="M361.416 84.4829L356.209 86.7013C356.209 86.7013 360.239 87.9121 361.416 84.4829Z" fill="#7EE515"/>
<path d="M80.6967 211.412C80.6967 211.412 74.1382 214.12 76.2558 219.854C76.2558 219.854 82.431 218.763 80.6967 211.412Z" fill="#61D616"/>
<path d="M76.2558 219.854L80.6967 211.412C80.6967 211.412 74.1382 214.12 76.2558 219.854Z" fill="#7EE515"/>
<path d="M292.19 147.087C292.19 147.087 285.269 145.52 283.695 151.424C283.695 151.424 289.37 154.091 292.19 147.087Z" fill="#61D616"/>
<path d="M283.695 151.428L292.19 147.091C292.19 147.091 285.269 145.523 283.695 151.428Z" fill="#7EE515"/>
<path d="M247.007 168.841C247.007 168.841 237.563 168.551 237.006 176.67C237.006 176.67 245.101 178.714 247.007 168.841Z" fill="#61D616"/>
<path d="M237.006 176.667L247.01 168.838C247.01 168.838 237.567 168.548 237.01 176.667L237.006 176.667Z" fill="#7EE515"/>
<path d="M130.94 197.045C130.94 197.045 115.925 192.392 111.427 205.161C111.427 205.161 123.502 212.027 130.94 197.045Z" fill="#61D616"/>
<path d="M111.427 205.164L130.937 197.048C130.937 197.048 115.922 192.396 111.424 205.164L111.427 205.164Z" fill="#7EE515"/>
<path d="M341.987 73.2465C341.987 73.2465 346.195 81.5664 353.496 78.2155C353.496 78.2155 351.442 70.2349 341.987 73.2465Z" fill="#61D616"/>
<path d="M353.496 78.219L341.987 73.25C341.987 73.25 346.196 81.5699 353.496 78.219Z" fill="#7EE515"/>
<path d="M34.4703 161.721C34.4703 161.721 31.035 165.366 34.0589 168.44C34.0589 168.44 37.7173 165.947 34.4703 161.721Z" fill="#61D616"/>
<path d="M34.0589 168.44L34.4703 161.721C34.4703 161.721 31.035 165.366 34.0589 168.44Z" fill="#7EE515"/>
<path d="M326.586 143.72C326.586 143.72 316.871 141.753 314.861 150.052C314.861 150.052 322.872 153.593 326.586 143.72Z" fill="#61D616"/>
<path d="M314.862 150.048L326.586 143.717C326.586 143.717 316.871 141.749 314.862 150.048Z" fill="#7EE515"/>
<path d="M305.977 78.6449C305.949 78.684 305.935 78.7336 305.946 78.7794C305.965 78.878 306.071 78.9406 306.177 78.9184C306.195 78.9182 307.284 78.6958 309.067 78.6996C310.715 78.7048 313.316 78.9055 316.326 79.8473C319.259 80.765 321.18 81.2054 322.965 81.3752C324.99 81.5673 326.873 81.3761 328.894 80.7809C329 80.7481 329.062 80.6451 329.033 80.5501C329.004 80.455 328.894 80.4031 328.788 80.4324C324.708 81.6372 321.567 81.0921 316.475 79.4998C313.408 78.541 310.758 78.3337 309.074 78.3324C307.245 78.329 306.152 78.5514 306.106 78.5589C306.05 78.57 306.004 78.6023 305.977 78.6414L305.977 78.6449Z" fill="#17AF4A"/>
<path d="M300.003 77.1741C300.003 77.1741 303.769 81.7734 308.382 78.7699C308.382 78.7699 306.123 74.1065 300.003 77.1741Z" fill="#61D616"/>
<path d="M308.379 78.7701L300.003 77.1743C300.003 77.1743 303.769 81.7736 308.382 78.7701L308.379 78.7701Z" fill="#7EE515"/>
<path d="M303.27 84.5747C303.27 84.5747 309.238 82.8644 308.066 78.1799C308.066 78.1799 302.612 78.6354 303.27 84.5747Z" fill="#61D616"/>
<path d="M308.066 78.1799L303.27 84.5747C303.27 84.5747 309.237 82.8644 308.066 78.1799Z" fill="#7EE515"/>
<path d="M310.83 72.716C310.83 72.716 317.098 74.2475 315.604 79.2933C315.604 79.2933 309.819 79.074 310.83 72.716Z" fill="#17AF4A"/>
<path d="M315.604 79.2965L310.83 72.7192C310.83 72.7192 317.098 74.2507 315.604 79.2965Z" fill="#0E9940"/>
<path d="M321.225 85.449C321.225 85.449 323.407 80.0153 328.511 81.3356C328.511 81.3356 327.737 86.3532 321.225 85.449Z" fill="#17AF4A"/>
<path d="M328.511 81.3356L321.225 85.449C321.225 85.449 323.407 80.0153 328.511 81.3356Z" fill="#0E9940"/>
<path d="M320.573 75.0076C320.573 75.0076 319.473 80.265 324.35 81.0897C324.35 81.0897 326.383 76.6954 320.573 75.0076Z" fill="#61D616"/>
<path d="M324.35 81.0897L320.573 75.0076C320.573 75.0076 319.473 80.265 324.35 81.0897Z" fill="#7EE515"/>
<path d="M310.996 85.3645C310.996 85.3645 317.727 85.5781 318.428 80.2752C318.428 80.2752 312.723 78.9183 310.996 85.3645Z" fill="#61D616"/>
<path d="M318.428 80.2755L310.996 85.3648C310.996 85.3648 317.727 85.5784 318.428 80.2755Z" fill="#7EE515"/>
<path d="M6.40211 190.186C6.40211 190.186 15.5816 200.696 24.9282 193.142C24.9282 193.142 19.001 182.325 6.40211 190.186Z" fill="#61D616"/>
<path d="M24.9283 193.142L6.40224 190.187C6.40224 190.187 15.5817 200.697 24.9283 193.142Z" fill="#7EE515"/>
<path d="M343.732 135.158C343.732 135.158 333.988 148.302 322.355 140.347C322.355 140.347 328.268 127.149 343.732 135.158Z" fill="#17AF4A"/>
<path d="M322.355 140.347L343.732 135.158C343.732 135.158 333.988 148.302 322.355 140.347Z" fill="#0E9940"/>
</g>
<defs>
<filter id="filter0_d_851_17323" x="0.402107" y="60.0718" width="395.3" height="167.412" filterUnits="userSpaceOnUse" color-interpolation-filters="sRGB">
<feFlood flood-opacity="0" result="BackgroundImageFix"/>
<feColorMatrix in="SourceAlpha" type="matrix" values="0 0 0 0 0 0 0 0 0 0 0 0 0 0 0 0 0 0 127 0" result="hardAlpha"/>
<feOffset/>
<feGaussianBlur stdDeviation="3"/>
<feComposite in2="hardAlpha" operator="out"/>
<feColorMatrix type="matrix" values="0 0 0 0 1 0 0 0 0 1 0 0 0 0 1 0 0 0 1 0"/>
<feBlend mode="normal" in2="BackgroundImageFix" result="effect1_dropShadow_851_17323"/>
<feBlend mode="normal" in="SourceGraphic" in2="effect1_dropShadow_851_17323" result="shape"/>
</filter>
<radialGradient id="paint0_radial_851_17323" cx="0" cy="0" r="1" gradientUnits="userSpaceOnUse" gradientTransform="translate(208.444 165.19) rotate(-13.2085) scale(225.54 46.5752)">
<stop stop-color="#00FFFF"/>
<stop offset="0.09" stop-color="#00F2F2"/>
<stop offset="0.25" stop-color="#00D2D2"/>
<stop offset="0.46" stop-color="#009D9D"/>
<stop offset="0.72" stop-color="#005454"/>
<stop offset="1"/>
</radialGradient>
<radialGradient id="paint1_radial_851_17323" cx="0" cy="0" r="1" gradientUnits="userSpaceOnUse" gradientTransform="translate(78.836 138.342) rotate(-22.5088) scale(75.3156 32.6925)">
<stop stop-color="#D8FF24"/>
<stop offset="0.15" stop-color="#ADCD1C"/>
<stop offset="0.38" stop-color="#708512"/>
<stop offset="0.59" stop-color="#404B0A"/>
<stop offset="0.77" stop-color="#1D2204"/>
<stop offset="0.92" stop-color="#070901"/>
<stop offset="1"/>
</radialGradient>
<radialGradient id="paint2_radial_851_17323" cx="0" cy="0" r="1" gradientUnits="userSpaceOnUse" gradientTransform="translate(310.934 150.718) scale(37.9401 38.0317)">
<stop stop-color="#D91C5C"/>
<stop offset="0.1" stop-color="#D11B59"/>
<stop offset="0.24" stop-color="#BE1850"/>
<stop offset="0.41" stop-color="#9E1443"/>
<stop offset="0.61" stop-color="#710E30"/>
<stop offset="0.81" stop-color="#380718"/>
<stop offset="1"/>
</radialGradient>
<linearGradient id="paint3_linear_851_17323" x1="157.421" y1="20.6852" x2="163.382" y2="44.9813" gradientUnits="userSpaceOnUse">
<stop offset="0.536458" stop-color="#0E9940"/>
<stop offset="1" stop-color="#275A31" stop-opacity="0"/>
</linearGradient>
<clipPath id="clip0_851_17323">
<rect width="64.4825" height="38.2865" fill="white" transform="translate(120.686 16.0293) rotate(-13.7855)"/>
</clipPath>
</defs>
</svg>
