<svg xmlns="http://www.w3.org/2000/svg" xmlns:xlink="http://www.w3.org/1999/xlink" viewBox="0 0 800 800"><defs><style>.cls-1,.cls-15,.cls-4{fill:#fff;}.cls-2{fill:none;}.cls-15,.cls-3{isolation:isolate;}.cls-4{opacity:0;}.cls-17,.cls-5,.cls-6{mix-blend-mode:screen;}.cls-5{fill:url(#radial-gradient);}.cls-6{fill:url(#radial-gradient-2);}.cls-7{fill:#2ff270;}.cls-13,.cls-14,.cls-8{mix-blend-mode:multiply;}.cls-9{fill:#9bdce0;}.cls-10,.cls-14{fill:#c0e3cc;}.cls-11{fill:#cfb4e8;}.cls-12,.cls-13{fill:#e1caca;}.cls-15{opacity:0.5;}.cls-16{fill:#abff84;}.cls-17{fill:url(#radial-gradient-3);}.cls-18{clip-path:url(#clip-path);}.cls-19{fill:url(#linear-gradient);}.cls-20{fill:#24995c;}.cls-21{mask:url(#mask);}.cls-22{fill:#2d501f;}.cls-23{mask:url(#mask-2);}.cls-24{fill:#0e9940;}.cls-25{mask:url(#mask-3);}.cls-26{fill:#15301a;}.cls-27{mask:url(#mask-4);}.cls-28{mask:url(#mask-5);}.cls-29{fill:#23d75a;}.cls-30{mask:url(#mask-6);}.cls-31{mask:url(#mask-7);}.cls-32{mask:url(#mask-8);}.cls-33{mask:url(#mask-9);}.cls-34{mask:url(#mask-10);}.cls-35{fill:#26ab66;}.cls-36{fill-rule:evenodd;}.cls-37{fill:#61d616;}.cls-38{fill:#7ee515;}.cls-39{fill:#17af4a;}</style><radialGradient id="radial-gradient" cx="-1591.95" cy="1354.38" r="2.76" gradientTransform="matrix(138, -32.73, -6.76, -28.5, 229251.11, -13056.3)" gradientUnits="userSpaceOnUse"><stop offset="0" stop-color="aqua"/><stop offset="0.09" stop-color="#00f2f2"/><stop offset="0.25" stop-color="#00d2d2"/><stop offset="0.46" stop-color="#009d9d"/><stop offset="0.72" stop-color="#005454"/><stop offset="1"/></radialGradient><radialGradient id="radial-gradient-2" cx="-1580.65" cy="1310.63" r="2.76" gradientTransform="matrix(33.99, -14.08, -6.11, -14.75, 61974.53, -2517.48)" gradientUnits="userSpaceOnUse"><stop offset="0" stop-color="#d8ff24"/><stop offset="0.15" stop-color="#adcd1c"/><stop offset="0.38" stop-color="#708512"/><stop offset="0.59" stop-color="#404b0a"/><stop offset="0.77" stop-color="#1d2204"/><stop offset="0.92" stop-color="#070901"/><stop offset="1"/></radialGradient><radialGradient id="radial-gradient-3" cx="-1524.76" cy="1342.57" r="2.76" gradientTransform="matrix(18.53, 0, 0, -18.58, 28810.02, 25368.34)" gradientUnits="userSpaceOnUse"><stop offset="0" stop-color="#d91c5c"/><stop offset="0.1" stop-color="#d11b59"/><stop offset="0.24" stop-color="#be1850"/><stop offset="0.41" stop-color="#9e1443"/><stop offset="0.61" stop-color="#710e30"/><stop offset="0.81" stop-color="#380718"/><stop offset="1"/></radialGradient><clipPath id="clip-path" transform="translate(0)"><rect class="cls-2" x="299.14" y="232.87" width="86.99" height="51.65" transform="translate(-51.77 89.1) rotate(-13.79)"/></clipPath><linearGradient id="linear-gradient" x1="343.79" y1="551.74" x2="351.84" y2="518.97" gradientTransform="matrix(1, 0, 0, -1, 0, 802)" gradientUnits="userSpaceOnUse"><stop offset="0.54" stop-color="#0e9940"/><stop offset="1" stop-color="#275a31" stop-opacity="0"/></linearGradient><mask id="mask" x="324.23" y="249.05" width="16.67" height="12.55" maskUnits="userSpaceOnUse"><g transform="translate(0)"><g id="mask0_272_19261" data-name="mask0 272 19261"><path class="cls-1" d="M340.9,253.82c-.2-1.56-.32-3.13-.52-4.69a91.81,91.81,0,0,0-16.13,7.79l.52,4.68A110.1,110.1,0,0,1,340.9,253.82Z"/></g></g></mask><mask id="mask-2" x="317.54" y="256.92" width="7.23" height="9.89" maskUnits="userSpaceOnUse"><g transform="translate(0)"><g id="mask1_272_19261" data-name="mask1 272 19261"><path class="cls-1" d="M318.06,266.81c-.12-.5,1-1.93,6.71-5.21l-.52-4.68c-5.72,3.37-6.75,4.69-6.71,5.21C317.7,263.52,317.9,265.43,318.06,266.81Z"/></g></g></mask><mask id="mask-3" x="317.54" y="249.11" width="23.44" height="18.13" maskUnits="userSpaceOnUse"><g transform="translate(0)"><g id="mask2_272_19261" data-name="mask2 272 19261"><path class="cls-1" d="M317.54,262.13l.52,4.68s.06.26.25.3c.53.31,2.26.42,9.45-3.92A111.84,111.84,0,0,0,341,253.8l-.52-4.69a115.89,115.89,0,0,1-13.22,9.39c-7.19,4.35-8.92,4.24-9.45,3.93C317.77,262.34,317.58,262.3,317.54,262.13Z"/></g></g></mask><mask id="mask-4" x="332.6" y="248.22" width="10.59" height="22.92" maskUnits="userSpaceOnUse"><g transform="translate(0)"><g id="mask3_272_19261" data-name="mask3 272 19261"><path class="cls-1" d="M332.6,266.45l.52,4.69a25.11,25.11,0,0,0,10.07-18.24l-.52-4.68A25.08,25.08,0,0,1,332.6,266.45Z"/></g></g></mask><mask id="mask-5" x="300.61" y="266.47" width="32.43" height="11.27" maskUnits="userSpaceOnUse"><g transform="translate(0)"><g id="mask4_272_19261" data-name="mask4 272 19261"><path class="cls-1" d="M300.69,267.33l.44,4.71a5.17,5.17,0,0,0,2.76,3.95c5.26,3.16,17.82,2,26.9-3.39.78-.46,1.46-1,2.25-1.44l-.52-4.69a21.15,21.15,0,0,1-2.25,1.45c-9.08,5.43-21.64,6.55-26.9,3.39a5.35,5.35,0,0,1-2.76-3.95Z"/></g></g></mask><mask id="mask-6" x="356.58" y="235.92" width="9.33" height="7.87" maskUnits="userSpaceOnUse"><g transform="translate(0)"><g id="mask5_272_19261" data-name="mask5 272 19261"><path class="cls-1" d="M365.56,240.2c-.16-1.39-.34-2.86-.5-4.25a.48.48,0,0,1,.25.3l.5,4.24S365.75,240.24,365.56,240.2Z"/></g></g></mask><mask id="mask-7" x="356.58" y="235.83" width="9.33" height="7.95" maskUnits="userSpaceOnUse"><g transform="translate(0)"><g id="mask6_272_19261" data-name="mask6 272 19261"><path class="cls-1" d="M357.08,243.7c6.49-3.91,8-3.84,8.56-3.53-.16-1.38-.34-2.85-.5-4.24-.51-.23-2-.4-8.56,3.53.14,1.3.38,3,.52,4.32Z"/></g></g></mask><mask id="mask-8" x="344.49" y="239.37" width="12.6" height="12.9" maskUnits="userSpaceOnUse"><g transform="translate(0)"><g id="mask7_272_19261" data-name="mask7 272 19261"><path class="cls-1" d="M344.51,248l.5,4.24a99.38,99.38,0,0,1,12.07-8.57l-.52-4.33A95.39,95.39,0,0,0,344.49,248Z"/></g></g></mask><mask id="mask-9" x="344.51" y="236.25" width="21.31" height="16.03" maskUnits="userSpaceOnUse"><g transform="translate(0)"><g id="mask8_272_19261" data-name="mask8 272 19261"><path class="cls-1" d="M365.81,240.49l-.5-4.24c.12.5-.92,1.74-6.12,4.71A79.83,79.83,0,0,1,344.51,248l.5,4.24a85.2,85.2,0,0,0,14.68-7.07C364.87,242.15,365.85,241,365.81,240.49Z"/></g></g></mask><mask id="mask-10" x="342.41" y="231.31" width="38.84" height="21.92" maskUnits="userSpaceOnUse"><g transform="translate(0)"><g id="mask9_272_19261" data-name="mask9 272 19261"><path class="cls-1" d="M381.22,235.64l-.52-4.33c.36,3.3-2.69,7.7-8.8,11.34-.46.29-.87.48-1.33.77-12.62,6.75-27.32,5.36-28.16,5.22l.52,4.32c.74.09,15.55,1.53,28.14-5.3.47-.29.95-.5,1.33-.77,6.11-3.64,9.16-8,8.8-11.33Z"/></g></g></mask></defs><title>2.비건행성</title><g class="cls-3"><g id="레이어_1" data-name="레이어 1"><rect class="cls-4" width="800" height="800"/><path class="cls-5" d="M424.35,501.58c210.72-50,373.33-125.29,363.2-168.23s-189.17-37.24-399.9,12.73S14.32,471.37,24.45,514.31,213.62,551.55,424.35,501.58Z" transform="translate(0)"/><path class="cls-6" d="M255.44,454.29c51.93-21.52,86.48-57.26,77.18-79.84s-59-23.42-110.89-1.9-86.48,57.26-77.17,79.83S203.51,475.81,255.44,454.29Z" transform="translate(0)"/><path class="cls-7" d="M400.7,558.25c86.44,0,156.52-70.25,156.52-156.9s-70.08-156.9-156.52-156.9S244.18,314.7,244.18,401.35,314.25,558.25,400.7,558.25Z" transform="translate(0)"/><g class="cls-8"><path class="cls-9" d="M552.22,420.4c.64-6.71,2.16-19.87,1.46-31.19s-3.91-21.74-7.35-22.58S529,383.54,520.2,386.4s-14.18,1.53-15,9.42,13.61,16,21.13,21.71S550.65,437.13,552.22,420.4Z" transform="translate(0)"/></g><g class="cls-8"><path class="cls-10" d="M307.77,507.75c4.75,11,50.21,37.38,60.65,37.38s35.3-4,38.79-16,6.46-33.11,0-41.72-2.49-29.54-22.87-27S350,478.35,333.13,483.33s-31.83,9.47-25.36,24.42Z" transform="translate(0)"/></g><g class="cls-8"><path class="cls-10" d="M431.39,315c3.82-2.82,8.84-9.8,15.81-9.87s16.34-1,19.61-8.76,1.72-28.69-18-30.28-27.76-5-35.83,11-12.52,24.17-6.47,29.64,22.88,9.81,24.92,8.29Z" transform="translate(0)"/></g><g class="cls-8"><path class="cls-10" d="M496.27,287.52c6,1.55,11.47,11.64,12.75,18.86s13.52,17.9,11.33,25.49-6.09,21.69-16.45,20.51-28.86-5.49-30-11.64-.58-10.87-4.95-13.57-13.43-5.26-10.47-9.52,11.34-2.34,13.25-5.75,8.58-28.49,24.52-24.37Z" transform="translate(0)"/></g><g class="cls-8"><path class="cls-11" d="M428,470.11c2.15,3.07,11.93,6.83,17.9,7.73s19.4-1,19.77-7.73-2.61-12.31-6.72-13.8S420.87,460,428,470.11Z" transform="translate(0)"/></g><g class="cls-8"><path class="cls-10" d="M375,262.24c2.14,3.07,11.92,6.83,17.9,7.73s19.39-1,19.76-7.73-2.61-12.31-6.72-13.8S367.94,252.13,375,262.24Z" transform="translate(0)"/></g><g class="cls-8"><path class="cls-10" d="M320.27,362.08c-2.34-6.64-29.25-17-40.46-14.77s-13.66,23.06-12.59,28.43-.5,28.05-3.77,39.68,4.61,35.87,9.19,46.14,24.95,5.68,28.46,2.95.6-19.95-1.64-31.18,8.22-31.58,18.84-37.82c11.8-6.93,4.3-26.78,2-33.42ZM299.1,457.32c-2,9.12-17.82,4-18.73,1.85s.57-6.95,3.89-11.67,9.52-2.6,11.45-.4S299.71,454.55,299.1,457.32Zm-22.71-90c-2.61-3.51-2-9.84,2-15.22s16.25.42,20.74,4.46,10.59,12.58,10.69,16.34c.36,12.35-30.81-2.06-33.41-5.57Z" transform="translate(0)"/></g><g class="cls-8"><path class="cls-12" d="M284.56,456.53c.71,1.73,4,3.86,5.95,4.36s6.44-.57,6.56-4.36-.86-6.95-2.23-7.79-12.64,2.08-10.29,7.79Z" transform="translate(0)"/></g><path class="cls-13" d="M307.06,469.65c.71,1.74,4,3.86,5.95,4.37s6.44-.58,6.57-4.37-.87-6.94-2.24-7.79-12.64,2.08-10.28,7.79Z" transform="translate(0)"/><path class="cls-10" d="M458,529.93c2.08.05,8.88-3.2,12.67-5.65s11.26-9.29,9.73-11.73-4.77-3-7.6-1.58-21.65,18.8-14.79,19Z" transform="translate(0)"/><g class="cls-8"><path class="cls-10" d="M469.5,374.26c-.6-6.33-15.15-13.57-25.47-19.73s-9.39-8.11-17.63-16-23.17-19.19-30.65-23-17.2,27.93-19.19,34.5-37.74,32.52-37.44,39.62-6.35,23.88,4.54,28.11,54.93-6,64.56,7,33.7,2.06,37.26.2c11.09-5.78,23.07-21.35,23.87-24.81s.76-19.59.16-25.92Zm-55.62-9.63c-5.67,2.19-17.69,2.24-23-1.22-17.53-11.38,2.44-39.69,7.39-39.83s13.93,6.73,21.63,17.3S419.55,362.45,413.88,364.63Z" transform="translate(0)"/></g><path class="cls-14" d="M327.06,461.14c.87,1.69,5.64,4.36,8.67,5.3s10.14,1.14,10.86-2.11-.37-6.25-2.38-7.33-20-1.42-17.15,4.14Z" transform="translate(0)"/><g class="cls-8"><path class="cls-9" d="M542,452.33c-.56-2.3-6.31-13.68-8.29-14.6s-10.26-.89-15.07-1.3-13.11-8.26-19.87-8.09-22.79-.46-25,7.6,6.46,29.44,4.46,35.28-22,29.24-22.76,34-6.58,20.07-12.07,23-23.43,7-23.65,9.6,12.67,9.34,29.74,6.69c4.3-.67,31.18-10.07,45.3-22s37.76-38.76,40.9-44.87,6.85-23,6.29-25.34Zm-62.64,44c-4.18,3.84-11.88,9.34-14.41,9.78-8.32,1.43,11.67-23.95,14.87-26.28s7.2-2.48,9.44.09S483.53,492.5,479.35,496.34Z" transform="translate(0)"/></g><path class="cls-15" d="M256.11,413.31c0-86.65,70.08-156.89,156.52-156.89a155.69,155.69,0,0,1,104.54,40.14A155.92,155.92,0,0,0,400.7,244.45c-86.45,0-156.52,70.25-156.52,156.9a156.67,156.67,0,0,0,52,116.76A156.56,156.56,0,0,1,256.11,413.31Z" transform="translate(0)"/><path class="cls-16" d="M666.29,347.12c-5.25-20.88-55.76-27.72-128.18-21q3,5.46,5.52,11.17c50.59-2.93,84.61,3.1,88.45,18.43,4,16-25.81,38.74-75.61,61.14-36.81,16.57-84.56,33-137.61,46.33-55.49,14-107.43,22.33-148.62,24.84-51.41,3.13-86.07-2.86-90-18.34-3.72-14.79,21.38-35.26,64.39-55.92-.33-4.1-.49-8.26-.49-12.45v-.18C180.1,429,141,458,146.08,478.36c5.34,21.27,57.58,28,132.08,20.59,42.1-4.18,91.29-12.85,143.16-25.93,49.65-12.52,95.23-27.45,133.29-43,72.07-29.44,117.15-61.1,111.68-82.9Z" transform="translate(0)"/><path class="cls-17" d="M587.07,462a51.24,51.24,0,1,0-72.38,0A51.39,51.39,0,0,0,587.07,462Z" transform="translate(0)"/><g class="cls-18"><path class="cls-19" d="M346.84,249.51l8.92,30.5c.25,1-1.15,2.24-3.16,2.83s-3.87.32-4.2-.66l-8.92-30.51,7.28-2.14Z" transform="translate(0)"/><path class="cls-20" d="M339.45,251.59c.25,1,2.11,1.26,4.21.66s3.41-1.82,3.16-2.83-2.1-1.26-4.2-.66S339.21,250.58,339.45,251.59Z" transform="translate(0)"/><g class="cls-21"><path class="cls-22" d="M324.23,256.84l.52,4.68a112.22,112.22,0,0,1,16.13-7.79l-.52-4.68A97.21,97.21,0,0,0,324.23,256.84Z" transform="translate(0)"/></g><g class="cls-23"><path class="cls-22" d="M317.54,262.13l.52,4.68c-.12-.5,1-1.93,6.71-5.21l-.52-4.68C318.53,260.29,317.5,261.61,317.54,262.13Z" transform="translate(0)"/></g><path class="cls-24" d="M340.38,249.13a97.21,97.21,0,0,0-16.13,7.79c-7.38,4.31-7,5.27-6.54,5.53s2.26.42,9.45-3.92A111.91,111.91,0,0,0,340.38,249.13Z" transform="translate(0)"/><g class="cls-25"><path class="cls-26" d="M317.54,262.13l.52,4.68s.06.26.25.3c.53.31,2.26.42,9.45-3.92A111.84,111.84,0,0,0,341,253.8l-.52-4.69a115.89,115.89,0,0,1-13.22,9.39c-7.19,4.35-8.92,4.24-9.45,3.93C317.77,262.34,317.58,262.3,317.54,262.13Z" transform="translate(0)"/></g><g class="cls-27"><path class="cls-24" d="M332.6,266.45l.52,4.69a25.11,25.11,0,0,0,10.07-18.24l-.52-4.68A25.08,25.08,0,0,1,332.6,266.45Z" transform="translate(0)"/></g><g class="cls-28"><path class="cls-24" d="M300.69,267.33l.44,4.71a5.17,5.17,0,0,0,2.76,3.95c5.26,3.16,17.82,2,26.9-3.39.78-.46,1.46-1,2.25-1.44l-.52-4.69a21.15,21.15,0,0,1-2.25,1.45c-9.08,5.43-21.64,6.55-26.9,3.39a5.35,5.35,0,0,1-2.76-3.95" transform="translate(0)"/></g><path class="cls-29" d="M342.67,248.22a25.08,25.08,0,0,1-10.07,18.23,20.18,20.18,0,0,1-2.25,1.45c-9.07,5.43-21.63,6.55-26.9,3.39-5.47-3.29-2.72-10.74,6.93-16.4a9.34,9.34,0,0,1,1.51-.81c13.86-7.5,30.06-5.87,30.88-5.8Zm-25,14.23s2.26.42,9.45-3.93a111.18,111.18,0,0,0,13.22-9.39,91.81,91.81,0,0,0-16.13,7.79C316.87,261.23,317.29,262.19,317.71,262.45Z" transform="translate(0)"/><g class="cls-30"><path class="cls-22" d="M356.58,239.46l.52,4.32c6.49-3.9,8-3.84,8.56-3.52a.41.41,0,0,1,.25.29l-.5-4.24s-.06-.25-.25-.29c-.51-.24-2-.41-8.56,3.52" transform="translate(0)"/></g><g class="cls-31"><path class="cls-22" d="M356.58,239.46l.52,4.32c6.49-3.91,8-3.84,8.56-3.52a.41.41,0,0,1,.25.29l-.5-4.24s-.06-.25-.25-.29c-.51-.24-2-.41-8.56,3.52" transform="translate(0)"/></g><g class="cls-32"><path class="cls-22" d="M344.51,248l.5,4.24a99.38,99.38,0,0,1,12.07-8.57l-.52-4.33A95.39,95.39,0,0,0,344.49,248" transform="translate(0)"/></g><path class="cls-24" d="M365.12,235.85s-2-.41-8.56,3.52A95.39,95.39,0,0,0,344.49,248a79.54,79.54,0,0,0,14.68-7.08c6.68-3.86,6.37-4.77,5.87-5Z" transform="translate(0)"/><g class="cls-33"><path class="cls-26" d="M344.51,248l.5,4.24a85.2,85.2,0,0,0,14.68-7.07c5.18-3,6.16-4.19,6.12-4.71l-.5-4.24c.12.5-.92,1.74-6.12,4.71A79.83,79.83,0,0,1,344.51,248Z" transform="translate(0)"/></g><g class="cls-34"><path class="cls-24" d="M342.43,248.72l.52,4.33c.74.08,15.55,1.53,28.14-5.3.47-.3,1-.51,1.34-.78,6.1-3.63,9.15-8,8.79-11.33l-.52-4.33c.36,3.3-2.69,7.7-8.8,11.34-.46.29-.87.48-1.33.77-12.62,6.75-27.32,5.36-28.16,5.22" transform="translate(0)"/></g><path class="cls-29" d="M371.92,242.73c-.46.29-.87.48-1.33.77-12.62,6.75-27.32,5.37-28.16,5.22a22.78,22.78,0,0,1,9.13-16.58,11.85,11.85,0,0,1,2-1.3c8.29-5,19.71-6,24.55-3.08s2.39,9.75-6.28,15Zm-15.36-3.36A95.39,95.39,0,0,0,344.49,248a79.54,79.54,0,0,0,14.68-7.08c6.68-3.86,6.37-4.77,5.87-5s-2-.4-8.56,3.52" transform="translate(0)"/></g><path class="cls-35" d="M408.17,353.21l16.4-6a2.18,2.18,0,0,0,1.3-2.8h0a2.18,2.18,0,0,0-2.79-1.3l-16.41,6a2.18,2.18,0,0,0-1.3,2.8h0A2.19,2.19,0,0,0,408.17,353.21Z" transform="translate(0)"/><path class="cls-35" d="M336.66,385.92l14.67-9.45a2.19,2.19,0,0,0,.65-3h0a2.19,2.19,0,0,0-3-.65l-14.67,9.46a2.18,2.18,0,0,0-.65,3h0A2.18,2.18,0,0,0,336.66,385.92Z" transform="translate(0)"/><circle cx="421.66" cy="363.29" r="9.12"/><circle cx="351.92" cy="392.97" r="9.12"/><path class="cls-36" d="M413.17,374.38a2.72,2.72,0,0,1-.26,3.83c-7.09,6.19-13.12,10.34-19.8,13.15s-13.83,4.2-23.06,5.1a2.72,2.72,0,0,1-.52-5.41c9-.88,15.52-2.2,21.47-4.7s11.48-6.26,18.33-12.23A2.72,2.72,0,0,1,413.17,374.38Z" transform="translate(0)"/><path class="cls-37" d="M323.21,462.29s-17,14.72-4.88,29.83C318.33,492.12,335.8,482.64,323.21,462.29Z" transform="translate(0)"/><path class="cls-38" d="M318.33,492.12l4.88-29.83S306.22,477,318.33,492.12Z" transform="translate(0)"/><path class="cls-39" d="M178.1,475.87a.45.45,0,0,1,.05-.3.42.42,0,0,1,.56-.14,29.69,29.69,0,0,0,5.43,2.36,48.1,48.1,0,0,0,15,2.36c6.43,0,10.53.35,14.13,1.16a28.25,28.25,0,0,1,11,5.13.41.41,0,0,1-.49.65c-6.93-5.19-13.47-6.11-24.66-6.12a48.92,48.92,0,0,1-15.31-2.42,28.83,28.83,0,0,1-5.57-2.42A.43.43,0,0,1,178.1,475.87Z" transform="translate(0)"/><path class="cls-37" d="M165.61,473.27s12.09-5.19,17,5.05C182.57,478.32,173.12,485.09,165.61,473.27Z" transform="translate(0)"/><path class="cls-38" d="M182.57,478.32l-17-5.05s12.09-5.19,17,5.05Z" transform="translate(0)"/><path class="cls-37" d="M174.34,462.94s12,3.9,9,14.37C183.39,477.31,172.27,476.22,174.34,462.94Z" transform="translate(0)"/><path class="cls-38" d="M183.39,477.31l-9.06-14.37s12,3.9,9,14.37Z" transform="translate(0)"/><path class="cls-39" d="M182.67,491.42s13.42.92,14.64-10.6C197.31,480.82,185.91,477.48,182.67,491.42Z" transform="translate(0)"/><path class="cls-24" d="M197.32,480.82l-14.64,10.6S196.09,492.33,197.32,480.82Z" transform="translate(0)"/><path class="cls-39" d="M213.25,471.66S213,484.43,224,485C224,485,226.62,474,213.25,471.66Z" transform="translate(0)"/><path class="cls-24" d="M224,485l-10.77-13.36S213,484.43,224,485Z" transform="translate(0)"/><path class="cls-37" d="M203.45,493s2.16-11.7,12.3-10.22C215.75,482.81,216.09,493.31,203.45,493Z" transform="translate(0)"/><path class="cls-38" d="M215.75,482.81,203.45,493S205.61,481.34,215.75,482.81Z" transform="translate(0)"/><path class="cls-37" d="M193.33,465.14s13.24,4,10.26,15.49C203.59,480.63,191.41,479.72,193.33,465.14Z" transform="translate(0)"/><path class="cls-38" d="M203.59,480.63l-10.26-15.49S206.57,469.11,203.59,480.63Z" transform="translate(0)"/><path class="cls-39" d="M648.31,358.68a.39.39,0,0,0-.2-.22.4.4,0,0,0-.54.19,28,28,0,0,1-3.17,4.86,47.34,47.34,0,0,1-11,10c-5.26,3.48-8.43,6-10.93,8.57a27.61,27.61,0,0,0-6.25,10.14.4.4,0,0,0,.24.51.39.39,0,0,0,.51-.24c2.87-8,7.73-12.27,16.87-18.31A47.84,47.84,0,0,0,645,364a28.3,28.3,0,0,0,3.26-5,.42.42,0,0,0,0-.31Z" transform="translate(0)"/><path class="cls-37" d="M657.13,349.82s-12.7,2.27-11.16,13.27C646,363.09,657.37,363.55,657.13,349.82Z" transform="translate(0)"/><path class="cls-38" d="M646,363.09l11.16-13.27S644.43,352.09,646,363.09Z" transform="translate(0)"/><path class="cls-37" d="M644.41,346.07s-7.72,9.68.36,16.65C644.77,362.72,653.27,355.83,644.41,346.07Z" transform="translate(0)"/><path class="cls-38" d="M644.76,362.72l-.35-16.65s-7.72,9.68.36,16.65Z" transform="translate(0)"/><path class="cls-39" d="M653,373.88s-10.48,8-17.69-.78C635.26,373.1,642.78,364.22,653,373.88Z" transform="translate(0)"/><path class="cls-24" d="M635.26,373.1l17.69.78S642.47,381.86,635.26,373.1Z" transform="translate(0)"/><path class="cls-39" d="M617.28,374.2s7.06,10.33-1.61,16.75C615.67,391,607.62,383.37,617.28,374.2Z" transform="translate(0)"/><path class="cls-24" d="M615.67,391l1.61-16.75S624.34,384.53,615.67,391Z" transform="translate(0)"/><path class="cls-37" d="M636.82,386.4s-8.08-8.4-15.58-1.73C621.24,384.67,626.62,393.46,636.82,386.4Z" transform="translate(0)"/><path class="cls-38" d="M621.24,384.67l15.58,1.73S628.74,378,621.24,384.67Z" transform="translate(0)"/><path class="cls-37" d="M630.06,358.11s-8.7,10.39,0,18.21C630,376.32,639.5,369,630.06,358.11Z" transform="translate(0)"/><path class="cls-38" d="M630,376.32l0-18.21S621.36,368.5,630,376.32Z" transform="translate(0)"/><path class="cls-39" d="M352.92,461.67s-29.65,1.31-29.49,26.88C323.43,488.55,349.27,493,352.92,461.67Z" transform="translate(0)"/><path class="cls-24" d="M323.44,488.55l29.49-26.87S323.28,463,323.44,488.55Z" transform="translate(0)"/><path class="cls-39" d="M196.74,428.31a.25.25,0,0,1,.17-.42,17.81,17.81,0,0,0,3.54-.56,28.86,28.86,0,0,0,8.45-3.66,38.07,38.07,0,0,1,7.6-4,17.13,17.13,0,0,1,7.3-.95.24.24,0,0,1,.22.27.24.24,0,0,1-.26.22c-5.23-.4-8.87,1.25-14.6,4.86a29.1,29.1,0,0,1-8.61,3.73,17.9,17.9,0,0,1-3.63.57.27.27,0,0,1-.18-.07Z" transform="translate(0)"/><path class="cls-39" d="M218.72,419.07s3.36-.57,3.27-5.28A4.47,4.47,0,0,0,218.72,419.07Z" transform="translate(0)"/><path class="cls-39" d="M223.29,418.92s2.13,2.66,6.21.29A4.48,4.48,0,0,0,223.29,418.92Z" transform="translate(0)"/><path class="cls-39" d="M211.24,422.49s3.1-1.42,1.79-6A4.48,4.48,0,0,0,211.24,422.49Z" transform="translate(0)"/><path class="cls-39" d="M203.75,426.4s3.1-1.42,1.78-5.95A4.48,4.48,0,0,0,203.75,426.4Z" transform="translate(0)"/><path class="cls-39" d="M219.82,424.56s.05-3.41-4.61-4.17A4.49,4.49,0,0,0,219.82,424.56Z" transform="translate(0)"/><path class="cls-39" d="M212.59,428.67s0-3.41-4.61-4.17A4.47,4.47,0,0,0,212.59,428.67Z" transform="translate(0)"/><path class="cls-39" d="M204.51,431.77s.05-3.41-4.61-4.17A4.48,4.48,0,0,0,204.51,431.77Z" transform="translate(0)"/><path class="cls-39" d="M352.89,482.77a.37.37,0,0,0-.11.19.31.31,0,0,0,.26.34,20.2,20.2,0,0,1,4.11,1.13,34.7,34.7,0,0,1,9.49,5.47,45.3,45.3,0,0,0,8.44,5.74,20.54,20.54,0,0,0,8.49,2.11.32.32,0,0,0,.31-.29.31.31,0,0,0-.29-.31c-6.23-.22-10.31-2.66-16.58-7.71a35,35,0,0,0-9.68-5.57,22.13,22.13,0,0,0-4.22-1.17.29.29,0,0,0-.22.07Z" transform="translate(0)"/><path class="cls-39" d="M377.61,496.66s3.9,1.12,3.15,6.68A5.32,5.32,0,0,1,377.61,496.66Z" transform="translate(0)"/><path class="cls-39" d="M383,497.46s2.87-2.86,7.38.5A5.33,5.33,0,0,1,383,497.46Z" transform="translate(0)"/><path class="cls-39" d="M369.24,491.61s3.47,2.1,1.3,7.28A5.32,5.32,0,0,1,369.24,491.61Z" transform="translate(0)"/><path class="cls-39" d="M360.91,486s3.47,2.1,1.3,7.28A5.33,5.33,0,0,1,360.91,486Z" transform="translate(0)"/><path class="cls-39" d="M379.66,490.32s-.4,4-6,4.31A5.33,5.33,0,0,1,379.66,490.32Z" transform="translate(0)"/><path class="cls-39" d="M371.66,484.49s-.4,4-6,4.31A5.33,5.33,0,0,1,371.66,484.49Z" transform="translate(0)"/><path class="cls-39" d="M362.54,479.73s-.4,4-6,4.31A5.33,5.33,0,0,1,362.54,479.73Z" transform="translate(0)"/><path class="cls-39" d="M307.83,489.07a.52.52,0,0,1,.05.37.5.5,0,0,1-.61.34,36.19,36.19,0,0,0-7-.89,57.15,57.15,0,0,0-18.08,2.3c-7.41,2.13-12.23,3.11-16.64,3.37a33.79,33.79,0,0,1-14.39-2.22.5.5,0,0,1-.29-.63.49.49,0,0,1,.63-.29c9.71,3.66,17.54,2.54,30.42-1.18a58.6,58.6,0,0,1,18.43-2.33,35.23,35.23,0,0,1,7.21.93A.5.5,0,0,1,307.83,489.07Z" transform="translate(0)"/><path class="cls-39" d="M261,494.49s-6.7-.78-9.14,8.23C251.84,502.72,259.72,503.2,261,494.49Z" transform="translate(0)"/><path class="cls-39" d="M252.21,492.27s-2.58-6.25-11.65-4C240.56,488.28,244,495.4,252.21,492.27Z" transform="translate(0)"/><path class="cls-39" d="M277.07,492.13s-6.68,1-6.69,10.32C270.38,502.45,278.11,500.86,277.07,492.13Z" transform="translate(0)"/><path class="cls-39" d="M293.47,488.83s-6.68,1-6.68,10.33C286.79,499.16,294.52,497.57,293.47,488.83Z" transform="translate(0)"/><path class="cls-39" d="M261.9,483.46s-2,6.45,6.45,10.47C268.35,493.93,270.24,486.27,261.9,483.46Z" transform="translate(0)"/><path class="cls-39" d="M277.92,479.64s-2,6.46,6.46,10.47C284.38,490.11,286.26,482.45,277.92,479.64Z" transform="translate(0)"/><path class="cls-39" d="M295,478.2s-2,6.45,6.46,10.47C301.44,488.67,303.32,481,295,478.2Z" transform="translate(0)"/><path class="cls-39" d="M528.13,427.92a.51.51,0,0,1,.2.31.5.5,0,0,1-.41.57,34.56,34.56,0,0,0-6.76,2.12,57.71,57.71,0,0,0-15.46,9.65c-5.84,5.05-9.8,7.95-13.7,10a33.8,33.8,0,0,1-14,4,.48.48,0,0,1-.52-.45.48.48,0,0,1,.45-.52c10.35-.74,17-5,27.13-13.8A58.48,58.48,0,0,1,520.82,430a35.38,35.38,0,0,1,6.94-2.18.51.51,0,0,1,.38.09Z" transform="translate(0)"/><path class="cls-39" d="M487.84,452.44s-6.42,2.09-4.86,11.31C483,463.75,490.34,460.88,487.84,452.44Z" transform="translate(0)"/><path class="cls-39" d="M478.94,454.09s-4.95-4.59-12.23,1.25C466.71,455.34,472.78,460.38,478.94,454.09Z" transform="translate(0)"/><path class="cls-39" d="M501.46,443.56s-5.65,3.69-1.74,12.18C499.72,455.74,506.07,451.06,501.46,443.56Z" transform="translate(0)"/><path class="cls-39" d="M515,433.7s-5.66,3.7-1.75,12.18C513.24,445.88,519.59,441.2,515,433.7Z" transform="translate(0)"/><path class="cls-39" d="M484.06,442s.91,6.69,10.25,6.8C494.31,448.84,492.81,441.09,484.06,442Z" transform="translate(0)"/><path class="cls-39" d="M497,431.86s.9,6.7,10.24,6.81C507.26,438.67,505.77,430.92,497,431.86Z" transform="translate(0)"/><path class="cls-39" d="M511.91,423.42s.91,6.69,10.25,6.81C522.16,430.23,520.66,422.48,511.91,423.42Z" transform="translate(0)"/><path class="cls-39" d="M591.44,393.6a.21.21,0,0,0,.11.14.24.24,0,0,0,.33-.08,17.35,17.35,0,0,1,2.2-2.75,28.37,28.37,0,0,1,7.23-5.42,37.44,37.44,0,0,0,7.09-4.55,16.75,16.75,0,0,0,4.36-5.75.26.26,0,0,0-.12-.33.25.25,0,0,0-.32.12c-2.2,4.66-5.37,7-11.24,10.08a29,29,0,0,0-7.37,5.54,17.43,17.43,0,0,0-2.25,2.82.25.25,0,0,0,0,.19Z" transform="translate(0)"/><path class="cls-39" d="M610,379.35s2.12-2.6,6.1-.23A4.4,4.4,0,0,1,610,379.35Z" transform="translate(0)"/><path class="cls-39" d="M612.35,375.52s-1.23-3.11,2.77-5.43A4.39,4.39,0,0,1,612.35,375.52Z" transform="translate(0)"/><path class="cls-39" d="M603.45,384.06s2.72-2,5.94,1.37A4.39,4.39,0,0,1,603.45,384.06Z" transform="translate(0)"/><path class="cls-39" d="M596.47,388.55s2.72-2,5.95,1.37A4.41,4.41,0,0,1,596.47,388.55Z" transform="translate(0)"/><path class="cls-39" d="M605.86,375.73s2.93,1.62,1.31,6A4.39,4.39,0,0,1,605.86,375.73Z" transform="translate(0)"/><path class="cls-39" d="M598.83,379.91s2.94,1.61,1.32,6A4.4,4.4,0,0,1,598.83,379.91Z" transform="translate(0)"/><path class="cls-39" d="M592.26,385.29s2.93,1.62,1.32,6A4.4,4.4,0,0,1,592.26,385.29Z" transform="translate(0)"/><path class="cls-39" d="M195.88,429a.16.16,0,0,1-.06-.3,13.73,13.73,0,0,0,1.8-1.62,19.27,19.27,0,0,0,3.47-5.17,26.66,26.66,0,0,1,2.87-5.05,11.69,11.69,0,0,1,3.8-3.21.18.18,0,0,1,.23.07.17.17,0,0,1-.07.23c-3.12,1.68-4.59,4-6.53,8.1a19.94,19.94,0,0,1-3.53,5.27A13,13,0,0,1,196,429a.2.2,0,0,1-.13,0Z" transform="translate(0)"/><path class="cls-39" d="M205,415.72s1.71-1.55-.07-4.2A3,3,0,0,0,205,415.72Z" transform="translate(0)"/><path class="cls-39" d="M207.55,414s2.19.74,3.63-2.11A3,3,0,0,0,207.55,414Z" transform="translate(0)"/><path class="cls-39" d="M202,420.4s1.24-1.95-1.17-4A3,3,0,0,0,202,420.4Z" transform="translate(0)"/><path class="cls-39" d="M199.16,425.37s1.25-1.94-1.16-4A3,3,0,0,0,199.16,425.37Z" transform="translate(0)"/><path class="cls-39" d="M207.64,418.44s-1.22-2-4.15-.69A3,3,0,0,0,207.64,418.44Z" transform="translate(0)"/><path class="cls-39" d="M205,423.42s-1.22-2-4.15-.69A3,3,0,0,0,205,423.42Z" transform="translate(0)"/><path class="cls-39" d="M201.56,428.14s-1.21-2-4.15-.69A3,3,0,0,0,201.56,428.14Z" transform="translate(0)"/><path class="cls-38" d="M453,477.85a1.66,1.66,0,1,1-1.67-1.65,1.66,1.66,0,0,1,1.67,1.65Z" transform="translate(0)"/><path class="cls-38" d="M443.64,475.28a1,1,0,1,1-1-1A1,1,0,0,1,443.64,475.28Z" transform="translate(0)"/><path class="cls-38" d="M448.45,469.3a.77.77,0,1,1-.77-.76A.78.78,0,0,1,448.45,469.3Z" transform="translate(0)"/><path class="cls-38" d="M559.86,413.09a1.66,1.66,0,1,1-1.67-1.65A1.65,1.65,0,0,1,559.86,413.09Z" transform="translate(0)"/><path class="cls-38" d="M625.36,350.53a2.26,2.26,0,1,1-2.27-2.24,2.25,2.25,0,0,1,2.27,2.24Z" transform="translate(0)"/><path class="cls-38" d="M425,452.86a2.26,2.26,0,1,1-2.27-2.24,2.26,2.26,0,0,1,2.27,2.24Z" transform="translate(0)"/><path class="cls-38" d="M186.89,446.23a1.14,1.14,0,1,1-.9-1.34A1.13,1.13,0,0,1,186.89,446.23Z" transform="translate(0)"/><path class="cls-38" d="M550.47,410.51a1,1,0,1,1-1-1,1,1,0,0,1,1,1Z" transform="translate(0)"/><path class="cls-38" d="M555.27,404.54a.76.76,0,1,1-1.52,0,.75.75,0,0,1,.75-.77A.77.77,0,0,1,555.27,404.54Z" transform="translate(0)"/><path class="cls-38" d="M580.47,318.21a1.2,1.2,0,1,1-2.4,0,1.21,1.21,0,0,1,2.41,0Z" transform="translate(0)"/><path class="cls-38" d="M615.54,329.26a1,1,0,1,1-1.37.27A1,1,0,0,1,615.54,329.26Z" transform="translate(0)"/><path class="cls-38" d="M573.69,316.35a.74.74,0,1,1-1.47,0,.72.72,0,0,1,.73-.74A.74.74,0,0,1,573.69,316.35Z" transform="translate(0)"/><path class="cls-38" d="M577.16,312a.55.55,0,0,1-.55.55.55.55,0,0,1,0-1.1A.55.55,0,0,1,577.16,312Z" transform="translate(0)"/><path class="cls-38" d="M247.39,480a1.68,1.68,0,0,1-1.65,1.68,1.67,1.67,0,1,1,1.65-1.68Z" transform="translate(0)"/><path class="cls-38" d="M238,477.4a1,1,0,1,1-1-1A1,1,0,0,1,238,477.4Z" transform="translate(0)"/><path class="cls-38" d="M242.8,471.42a.77.77,0,1,1-.77-.75A.76.76,0,0,1,242.8,471.42Z" transform="translate(0)"/><path class="cls-38" d="M226.1,426.14a.79.79,0,1,1-.79-.78A.79.79,0,0,1,226.1,426.14Z" transform="translate(0)"/><path class="cls-38" d="M221.67,424.92a.48.48,0,1,1-.49-.47A.48.48,0,0,1,221.67,424.92Z" transform="translate(0)"/><path class="cls-38" d="M223.93,422.11a.35.35,0,0,1-.36.36.36.36,0,0,1-.36-.36.36.36,0,1,1,.72,0Z" transform="translate(0)"/><path class="cls-38" d="M592.65,427.56a4.79,4.79,0,1,1,2.14-6.43,4.78,4.78,0,0,1-2.14,6.43Z" transform="translate(0)"/><path class="cls-38" d="M609,404.83a2.2,2.2,0,1,1,1-2.94A2.2,2.2,0,0,1,609,404.83Z" transform="translate(0)"/><path class="cls-38" d="M568.27,340.85a1,1,0,1,1-1.14.89A1,1,0,0,1,568.27,340.85Z" transform="translate(0)"/><path class="cls-38" d="M561.28,339.47a.77.77,0,1,1-.19,1.52.77.77,0,0,1,.19-1.52Z" transform="translate(0)"/><path class="cls-39" d="M211.57,428.93s-9.59,16-23.64,8.24C187.93,437.17,193.18,421.57,211.57,428.93Z" transform="translate(0)"/><path class="cls-24" d="M187.93,437.17l23.64-8.24s-9.59,16-23.64,8.24Z" transform="translate(0)"/><path class="cls-37" d="M174.05,489.74s30.61-13.78,43.48,12.11C217.53,501.85,193.73,519.56,174.05,489.74Z" transform="translate(0)"/><path class="cls-38" d="M217.53,501.85l-43.48-12.11s30.61-13.78,43.48,12.11Z" transform="translate(0)"/><path class="cls-37" d="M234.16,403s-9,3.13-6.6,11C227.56,414,235.92,413,234.16,403Z" transform="translate(0)"/><path class="cls-38" d="M227.56,414l6.6-11S225.16,406.11,227.56,414Z" transform="translate(0)"/><path class="cls-39" d="M185.29,520.8s28,4.43,32.75-19.55C218,501.25,194.69,492.11,185.29,520.8Z" transform="translate(0)"/><path class="cls-24" d="M218,501.26l-32.75,19.55S213.32,525.24,218,501.26Z" transform="translate(0)"/><path class="cls-39" d="M202.11,495.71s20.61-19.49,38.07-2.38C240.18,493.33,226.09,514.07,202.11,495.71Z" transform="translate(0)"/><path class="cls-24" d="M240.18,493.32l-38.06,2.39s20.61-19.5,38.07-2.39Z" transform="translate(0)"/><path class="cls-39" d="M334.26,483a38.74,38.74,0,0,1,20.64-9.42c6.74-1,13.66-.41,20.42,0,5.83.41,11.66.78,17.48.05a43.52,43.52,0,0,0,18.08-6.63c.18-.11,0-.37-.17-.28-6.25,3.29-12.52,5.81-19.59,6.52-6.05.61-12.16,0-18.2-.4-13.77-.89-28.51-.54-38.8,10-.08.09.05.21.14.13Z" transform="translate(0)"/><path class="cls-39" d="M409.6,467.64c1.13-1.74.87-5.07,6-6.25C423.91,459.48,417.31,470.63,409.6,467.64Z" transform="translate(0)"/><path class="cls-39" d="M407.07,469.14c.72-1.5,2.54-4.66,1.08-8.18C405.15,453.74,401.44,466,407.07,469.14Z" transform="translate(0)"/><path class="cls-39" d="M406.9,469.24c.56,1.58,1.51,5.1,5,6.55C419.15,478.78,413.1,467.48,406.9,469.24Z" transform="translate(0)"/><path class="cls-39" d="M398.8,472.22c.84-1.45,2.9-4.46,1.72-8.08C398.11,456.71,393.44,468.65,398.8,472.22Z" transform="translate(0)"/><path class="cls-39" d="M398.63,472.3c.42,1.62,1.1,5.2,4.49,6.93C410.08,482.78,404.94,471,398.63,472.3Z" transform="translate(0)"/><path class="cls-39" d="M391.48,473.57c.87-1.42,3-4.38,1.9-8C391.14,458.05,386.2,469.88,391.48,473.57Z" transform="translate(0)"/><path class="cls-39" d="M391.3,473.66c.39,1.62,1,5.22,4.34,7C402.51,484.39,397.65,472.53,391.3,473.66Z" transform="translate(0)"/><path class="cls-39" d="M382.91,474c1-1.36,3.3-4.17,2.46-7.88C383.66,458.48,377.9,469.94,382.91,474Z" transform="translate(0)"/><path class="cls-39" d="M382.73,474.06c.28,1.65.62,5.27,3.84,7.31C393.17,485.55,389.14,473.38,382.73,474.06Z" transform="translate(0)"/><path class="cls-39" d="M375.47,473.59c1-1.31,3.5-4,2.85-7.75C377,458.14,370.66,469.29,375.47,473.59Z" transform="translate(0)"/><path class="cls-39" d="M375.28,473.64c.2,1.66.35,5.31,3.46,7.5C385.13,485.65,381.71,473.29,375.28,473.64Z" transform="translate(0)"/><path class="cls-39" d="M366.74,472.75c1-1.31,3.5-4,2.85-7.75C368.26,457.3,361.93,468.45,366.74,472.75Z" transform="translate(0)"/><path class="cls-39" d="M366.55,472.8c.19,1.66.35,5.31,3.46,7.5C376.39,484.8,373,472.45,366.55,472.8Z" transform="translate(0)"/><path class="cls-39" d="M357.84,473.09c1-1.31,3.5-4,2.85-7.74C359.36,457.65,353,468.8,357.84,473.09Z" transform="translate(0)"/><path class="cls-39" d="M357.66,473.15c.19,1.66.34,5.31,3.46,7.5C367.5,485.15,364.09,472.8,357.66,473.15Z" transform="translate(0)"/><path class="cls-39" d="M193.38,441.54a18.27,18.27,0,0,1-6.18,8.77,46,46,0,0,1-8.34,4.87,41.8,41.8,0,0,0-7.15,4.16,20.67,20.67,0,0,0-5.8,7,.08.08,0,0,0,.14.07,25,25,0,0,1,6.44-7.34,51.68,51.68,0,0,1,7.52-4.19c5.83-2.93,11.77-6.59,13.45-13.35,0-.06-.06-.08-.08,0Z" transform="translate(0)"/><path class="cls-39" d="M166.3,465.82c0,1,.86,2.28-1,4C162.41,472.57,162.44,466.45,166.3,465.82Z" transform="translate(0)"/><path class="cls-39" d="M167,464.61a4.56,4.56,0,0,0,1.52,3.6C171.44,470.44,170,464.54,167,464.61Z" transform="translate(0)"/><path class="cls-39" d="M167,464.53a4.52,4.52,0,0,0-3.62-1.47C159.74,463.56,164.91,466.73,167,464.53Z" transform="translate(0)"/><path class="cls-39" d="M169.61,461.38a4.58,4.58,0,0,0,1.23,3.7C173.6,467.54,172.65,461.55,169.61,461.38Z" transform="translate(0)"/><path class="cls-39" d="M169.67,461.3a4.56,4.56,0,0,0-3.49-1.75C162.49,459.76,167.39,463.33,169.67,461.3Z" transform="translate(0)"/><path class="cls-39" d="M172.28,459.07a4.54,4.54,0,0,0,1.14,3.74C176.12,465.33,175.31,459.32,172.28,459.07Z" transform="translate(0)"/><path class="cls-39" d="M172.33,459a4.53,4.53,0,0,0-3.44-1.84C165.19,457.29,170,461,172.33,459Z" transform="translate(0)"/><path class="cls-39" d="M175.68,456.85a4.53,4.53,0,0,0,.88,3.81C179.08,463.36,178.69,457.31,175.68,456.85Z" transform="translate(0)"/><path class="cls-39" d="M175.74,456.78a4.54,4.54,0,0,0-3.31-2.07C168.73,454.59,173.29,458.59,175.74,456.78Z" transform="translate(0)"/><path class="cls-39" d="M178.81,455.24a4.55,4.55,0,0,0,.69,3.84C181.89,461.91,181.8,455.84,178.81,455.24Z" transform="translate(0)"/><path class="cls-39" d="M178.87,455.17a4.53,4.53,0,0,0-3.2-2.23C172,452.63,176.34,456.86,178.87,455.17Z" transform="translate(0)"/><path class="cls-39" d="M182.58,453.49a4.54,4.54,0,0,0,.69,3.85C185.65,460.16,185.57,454.1,182.58,453.49Z" transform="translate(0)"/><path class="cls-39" d="M182.64,453.42a4.56,4.56,0,0,0-3.2-2.23C175.75,450.88,180.1,455.11,182.64,453.42Z" transform="translate(0)"/><path class="cls-39" d="M186.13,451.22a4.56,4.56,0,0,0,.68,3.85C189.2,457.89,189.11,451.83,186.13,451.22Z" transform="translate(0)"/><path class="cls-39" d="M186.18,451.16a4.51,4.51,0,0,0-3.2-2.24C179.3,448.61,183.65,452.84,186.18,451.16Z" transform="translate(0)"/><path class="cls-39" d="M602.48,339.25a21.52,21.52,0,0,0-10.57-6.89,54.49,54.49,0,0,0-11.23-1.67,49.75,49.75,0,0,1-9.63-1.42,24.17,24.17,0,0,1-9.39-5.15.09.09,0,1,1,.11-.13A29.91,29.91,0,0,0,572,329.2a60.61,60.61,0,0,0,10,1.28c7.65.65,15.73,2.07,20.52,8.71a.06.06,0,0,1-.09.07Z" transform="translate(0)"/><path class="cls-39" d="M562.32,324.54c-.48-1.05-.06-2.86-2.79-3.93C555.12,318.87,557.83,325.55,562.32,324.54Z" transform="translate(0)"/><path class="cls-39" d="M563.58,325.58c-.27-.89-1-2.78.09-4.59C565.92,317.27,566.94,324.32,563.58,325.58Z" transform="translate(0)"/><path class="cls-39" d="M563.67,325.65c-.43.82-1.25,2.67-3.31,3.18C556.14,329.87,560.41,324.16,563.67,325.65Z" transform="translate(0)"/><path class="cls-39" d="M567.88,328c-.34-.87-1.23-2.69-.28-4.59C569.54,319.49,571.12,326.44,567.88,328Z" transform="translate(0)"/><path class="cls-39" d="M568,328c-.37.85-1,2.76-3.05,3.44C560.8,332.83,564.6,326.8,568,328Z" transform="translate(0)"/><path class="cls-39" d="M571.79,329.31c-.36-.86-1.28-2.66-.38-4.58C573.26,320.8,575,327.71,571.79,329.31Z" transform="translate(0)"/><path class="cls-39" d="M571.88,329.37c-.35.86-1,2.79-3,3.5C564.83,334.34,568.49,328.22,571.88,329.37Z" transform="translate(0)"/><path class="cls-39" d="M576.47,330.25c-.42-.83-1.47-2.56-.7-4.54C577.34,321.66,579.56,328.44,576.47,330.25Z" transform="translate(0)"/><path class="cls-39" d="M576.56,330.3c-.29.88-.77,2.85-2.71,3.7C569.87,335.75,573.09,329.39,576.56,330.3Z" transform="translate(0)"/><path class="cls-39" d="M580.6,330.64c-.46-.81-1.6-2.49-.93-4.5C581,322,583.6,328.67,580.6,330.64Z" transform="translate(0)"/><path class="cls-39" d="M580.69,330.69c-.24.9-.63,2.89-2.52,3.84C574.28,336.48,577.19,330,580.69,330.69Z" transform="translate(0)"/><path class="cls-39" d="M585.47,330.9c-.46-.8-1.59-2.48-.93-4.49C585.91,322.28,588.47,328.94,585.47,330.9Z" transform="translate(0)"/><path class="cls-39" d="M585.57,331c-.24.89-.63,2.88-2.53,3.83C579.16,336.74,582.06,330.22,585.57,331Z" transform="translate(0)"/><path class="cls-39" d="M590.34,331.83c-.46-.8-1.6-2.48-.93-4.49C590.78,323.21,593.34,329.87,590.34,331.83Z" transform="translate(0)"/><path class="cls-39" d="M590.43,331.88c-.24.9-.63,2.89-2.52,3.84C584,337.67,586.92,331.15,590.43,331.88Z" transform="translate(0)"/><path class="cls-37" d="M639,322.28s-12.71,14-1.06,25.41C638,347.69,651.6,338,639,322.28Z" transform="translate(0)"/><path class="cls-38" d="M638,347.69,639,322.28S626.32,336.3,638,347.69Z" transform="translate(0)"/><path class="cls-37" d="M584.38,390.53s-20,3.09-18,20.39C566.4,410.92,584.23,412,584.38,390.53Z" transform="translate(0)"/><path class="cls-38" d="M566.4,410.92l18-20.39S564.4,393.62,566.4,410.92Z" transform="translate(0)"/><path class="cls-37" d="M627.88,330.34s-6.34,16,7.26,22C635.14,352.35,643.65,339.72,627.88,330.34Z" transform="translate(0)"/><path class="cls-38" d="M635.14,352.35l-7.26-22S621.54,346.37,635.14,352.35Z" transform="translate(0)"/><path class="cls-37" d="M149.21,494.29s14.52,1,15.85-11.47C165.06,482.82,152.73,479.21,149.21,494.29Z" transform="translate(0)"/><path class="cls-38" d="M165.06,482.82l-15.85,11.47S163.73,495.28,165.06,482.82Z" transform="translate(0)"/><path class="cls-37" d="M555.9,428.11s-14-14.59-27-3C528.89,425.09,538.2,440.34,555.9,428.11Z" transform="translate(0)"/><path class="cls-38" d="M528.89,425.1l27,3S541.89,413.52,528.89,425.1Z" transform="translate(0)"/><path class="cls-37" d="M200,444.88s-3.32-9.66-11.74-7.12C188.23,437.76,189.26,446.73,200,444.88Z" transform="translate(0)"/><path class="cls-38" d="M188.23,437.76,200,444.88S196.65,435.22,188.23,437.76Z" transform="translate(0)"/><path class="cls-37" d="M449.89,440.94s17.11,14.6,30.23.35C480.12,441.29,468.13,425.44,449.89,440.94Z" transform="translate(0)"/><path class="cls-38" d="M480.12,441.3l-30.22-.36S467,455.54,480.12,441.3Z" transform="translate(0)"/><path class="cls-37" d="M611.09,333.58s-8.48-4.44-12.59,2.7C598.5,336.28,605,341.73,611.09,333.58Z" transform="translate(0)"/><path class="cls-38" d="M598.5,336.29l12.59-2.7s-8.48-4.45-12.59,2.7Z" transform="translate(0)"/><path class="cls-37" d="M430.76,463.32s9,3.19,12.07-4.47C442.83,458.85,435.65,454.38,430.76,463.32Z" transform="translate(0)"/><path class="cls-38" d="M442.83,458.85l-12.07,4.48S439.79,466.52,442.83,458.85Z" transform="translate(0)"/><path class="cls-37" d="M612,339.31s5.43,1.63,7-3C619,336.31,614.6,333.87,612,339.31Z" transform="translate(0)"/><path class="cls-38" d="M619,336.32l-7,3S617.39,340.94,619,336.32Z" transform="translate(0)"/><path class="cls-37" d="M240.3,507.54s-8.85,3.66-6,11.39C234.3,518.93,242.63,517.46,240.3,507.54Z" transform="translate(0)"/><path class="cls-38" d="M234.3,518.93l6-11.39S231.45,511.2,234.3,518.93Z" transform="translate(0)"/><path class="cls-37" d="M525.6,420.77s-9.34-2.11-11.46,5.85C514.14,426.62,521.79,430.22,525.6,420.77Z" transform="translate(0)"/><path class="cls-38" d="M514.14,426.63l11.46-5.85S516.26,418.66,514.14,426.63Z" transform="translate(0)"/><path class="cls-37" d="M464.64,450.12s-12.74-.4-13.49,10.56C451.15,460.68,462.07,463.43,464.64,450.12Z" transform="translate(0)"/><path class="cls-38" d="M451.15,460.67l13.5-10.56s-12.74-.39-13.49,10.56Z" transform="translate(0)"/><path class="cls-37" d="M308.07,488.16s-20.25-6.27-26.32,10.95C281.75,499.11,298,508.37,308.07,488.16Z" transform="translate(0)"/><path class="cls-38" d="M281.75,499.11l26.32-10.94s-20.26-6.28-26.32,10.94Z" transform="translate(0)"/><path class="cls-37" d="M592.77,321.16s5.68,11.22,15.53,6.7C608.3,327.86,605.52,317.1,592.77,321.16Z" transform="translate(0)"/><path class="cls-38" d="M608.3,327.87l-15.53-6.71S598.45,332.39,608.3,327.87Z" transform="translate(0)"/><path class="cls-37" d="M177.94,440.51s-4.64,4.92-.56,9.06C177.38,449.57,182.32,446.21,177.94,440.51Z" transform="translate(0)"/><path class="cls-38" d="M177.38,449.57l.56-9.06S173.3,445.43,177.38,449.57Z" transform="translate(0)"/><path class="cls-37" d="M572,416.23s-13.1-2.66-15.81,8.54C556.18,424.77,567,429.55,572,416.23Z" transform="translate(0)"/><path class="cls-38" d="M556.18,424.76,572,416.22S558.89,413.57,556.18,424.76Z" transform="translate(0)"/><path class="cls-39" d="M544.19,328.44a.3.3,0,0,0,0,.18.26.26,0,0,0,.31.19,21.87,21.87,0,0,1,3.9-.29,33.16,33.16,0,0,1,9.79,1.54,43.61,43.61,0,0,0,9,2.07,20.63,20.63,0,0,0,8-.81.25.25,0,1,0-.14-.47c-5.51,1.63-9.75.89-16.61-1.25a33.78,33.78,0,0,0-10-1.58,21.89,21.89,0,0,0-4,.31.28.28,0,0,0-.18.11Z" transform="translate(0)"/><path class="cls-37" d="M536.13,326.46s5.08,6.2,11.31,2.15C547.44,328.61,544.39,322.32,536.13,326.46Z" transform="translate(0)"/><path class="cls-38" d="M547.43,328.61l-11.3-2.15s5.08,6.2,11.31,2.15Z" transform="translate(0)"/><path class="cls-37" d="M540.54,336.44s8.05-2.31,6.47-8.62C547,327.82,539.65,328.43,540.54,336.44Z" transform="translate(0)"/><path class="cls-38" d="M547,327.82l-6.47,8.62S548.59,334.13,547,327.82Z" transform="translate(0)"/><path class="cls-39" d="M550.74,320.44s8.46,2.07,6.44,8.88C557.18,329.32,549.38,329,550.74,320.44Z" transform="translate(0)"/><path class="cls-24" d="M557.18,329.32l-6.44-8.87S559.2,322.51,557.18,329.32Z" transform="translate(0)"/><path class="cls-39" d="M564.76,337.62s3-7.33,9.83-5.55C574.59,332.07,573.55,338.84,564.76,337.62Z" transform="translate(0)"/><path class="cls-24" d="M574.59,332.07l-9.83,5.55S567.71,330.29,574.59,332.07Z" transform="translate(0)"/><path class="cls-37" d="M563.88,323.54s-1.48,7.09,5.1,8.2C569,331.74,571.72,325.81,563.88,323.54Z" transform="translate(0)"/><path class="cls-38" d="M569,331.74l-5.1-8.2S562.4,330.63,569,331.74Z" transform="translate(0)"/><path class="cls-37" d="M551,337.51s9.08.29,10-6.87C561,330.64,553.29,328.81,551,337.51Z" transform="translate(0)"/><path class="cls-38" d="M561,330.64l-10,6.87S560,337.8,561,330.64Z" transform="translate(0)"/><path class="cls-37" d="M140.07,478.91s12.39,14.18,25,4C165.06,482.9,157.07,468.31,140.07,478.91Z" transform="translate(0)"/><path class="cls-38" d="M165.06,482.9l-25-4S152.46,493.09,165.06,482.9Z" transform="translate(0)"/><path class="cls-39" d="M595.12,404.68s-13.14,17.73-28.83,7C566.29,411.68,574.26,393.87,595.12,404.68Z" transform="translate(0)"/><path class="cls-24" d="M566.29,411.68l28.84-7S582,422.41,566.29,411.68Z" transform="translate(0)"/></g></g></svg>