<svg width="282" height="241" viewBox="0 0 282 241" fill="none" xmlns="http://www.w3.org/2000/svg">
<g clip-path="url(#clip0_2198_28510)">
<path d="M70.2899 95.5528L63.6295 97.6522L60.5507 103.907L54.8119 107.875L53.7191 114.768L49.3996 120.252L50.385 127.152L47.881 133.666L50.8517 139.974L50.3746 146.935L55.0815 152.086L56.673 158.884L62.6883 162.415L66.2171 168.439L73.0021 170.047L78.1425 174.759L85.1081 174.288L91.4089 177.284L97.929 174.787L104.838 175.785L110.32 171.472L117.219 170.395L121.192 164.658L127.463 161.596L129.564 154.941L134.655 150.165L134.709 143.187L138.157 137.126L136.154 130.445L137.674 123.633L133.785 117.841L133.225 110.885L127.798 106.49L125.209 100.008L118.739 97.4121L114.355 91.9815L107.4 91.4031L101.617 87.5123L94.7989 89.0081L88.118 86.9955L82.0466 90.4342L75.0694 90.4708L70.2899 95.5528Z" fill="#00FF41"/>
<path d="M102.447 160.836L108.047 185.567L126.6 189.722L100.376 195.916L93.2411 165.706" fill="#00FF41"/>
<path d="M81.8252 159.85L73.5649 183.823L54.6742 185.925L80.0589 194.947L90.4521 165.697" fill="#00FF41"/>
<path d="M146.634 149.589L145.911 153.97L142.893 155.221L145.813 156.432L147.636 163.626L147.946 156.401L151.087 154.449L147.739 153.914L146.634 149.589Z" fill="#00FF41"/>
<path d="M58.8238 171.999L59.7157 174.575L61.6624 175.03L60.0257 176.057L59.6561 180.599L58.7294 176.254L56.6318 175.394L58.6003 174.724L58.8238 171.999Z" fill="#00FF41"/>
<path d="M54.9424 167.042L55.6758 169.179L57.2967 169.559L55.9315 170.408L55.6239 174.181L54.8565 170.576L53.1085 169.86L54.747 169.307L54.9424 167.042Z" fill="#00FF41"/>
<path d="M126.232 83.4487L127.499 86.1995L130.484 86.6129L127.924 87.7927L127.174 92.7263L125.914 88.0616L122.715 87.2025L125.777 86.4065L126.232 83.4487Z" fill="#00FF41"/>
<path d="M142.575 161.146L142.126 163.838L140.278 164.6L142.068 165.344L143.183 169.758L143.376 165.326L145.303 164.128L143.247 163.797L142.575 161.146Z" fill="#00FF41"/>
<path d="M136.588 155.459C136.63 155.996 137.108 156.394 137.643 156.343C138.178 156.291 138.589 155.829 138.537 155.294C138.486 154.759 138.017 154.359 137.482 154.41C136.945 154.453 136.536 154.924 136.588 155.459Z" fill="#00FF41"/>
<path d="M138.332 152.799C138.062 152.822 137.825 152.621 137.803 152.352C137.78 152.082 137.98 151.846 138.25 151.823C138.519 151.801 138.756 152.001 138.779 152.27C138.801 152.54 138.601 152.776 138.332 152.799Z" fill="#00FF41"/>
<path d="M152.007 158.55C152.026 158.764 152.217 158.932 152.44 158.912C152.663 158.891 152.823 158.702 152.804 158.487C152.785 158.273 152.594 158.104 152.371 158.125C152.147 158.146 151.988 158.335 152.007 158.55Z" fill="#00FF41"/>
<path d="M150.565 161.455C150.598 161.821 150.92 162.089 151.288 162.064C151.656 162.04 151.931 161.707 151.908 161.348C151.885 160.989 151.553 160.714 151.185 160.739C150.817 160.763 150.542 161.096 150.565 161.455Z" fill="#00FF41"/>
<path d="M45.3529 109.539L44.829 112.73L42.63 113.64L44.7488 114.514L46.0781 119.755L46.3026 114.498L48.5919 113.076L46.1571 112.68L45.3529 109.539Z" fill="#00FF41"/>
<path d="M50.8057 107.709C50.822 107.869 50.9565 107.986 51.1169 107.969C51.2773 107.953 51.394 107.819 51.3864 107.656C51.3788 107.494 51.2356 107.379 51.0752 107.396C50.9148 107.412 50.7981 107.546 50.8057 107.709Z" fill="#00FF41"/>
<path d="M49.7574 109.82C49.7788 110.088 50.0122 110.284 50.2895 110.261C50.5668 110.237 50.7624 110.004 50.7323 109.737C50.7022 109.471 50.4775 109.273 50.2002 109.296C49.9229 109.32 49.7273 109.553 49.7574 109.82Z" fill="#00FF41"/>
<path d="M95.4371 117.339C96.6372 117.372 97.6454 116.472 97.6722 115.328L97.8958 107.994C97.9313 106.848 96.9864 105.886 95.7863 105.853C94.5862 105.82 93.5779 106.72 93.5511 107.864L93.3275 115.198C93.2921 116.344 94.237 117.306 95.4371 117.339Z" fill="#043309"/>
<path d="M119.47 132.008C113.941 135.175 107.593 136.824 101.225 136.812C95.2317 136.809 88.1403 135.258 84.3066 130.228C83.2667 128.868 82.5589 127.527 82.613 125.748C82.6568 124.218 83.3949 122.401 84.5777 121.382C86.9279 119.355 91.3036 118.868 93.4157 121.655C93.4923 121.757 94.4125 122.943 94.4989 122.879C93.7658 122.308 93.6756 122.227 94.2089 122.631C94.4348 122.792 94.6569 122.936 94.8877 123.077C95.1186 123.219 95.3649 123.348 95.6094 123.468C94.7534 123.088 94.6427 123.039 95.2716 123.295C95.6735 123.427 96.0529 123.582 96.4616 123.703C96.9965 123.861 97.55 123.979 98.0967 124.107C98.7883 124.231 98.6484 124.216 97.6819 124.042C97.9723 124.079 98.2627 124.117 98.5619 124.153C99.7353 124.273 100.913 124.329 102.093 124.312C102.647 124.302 103.194 124.266 103.735 124.241C104.45 124.178 104.363 124.196 103.471 124.279C103.781 124.24 104.091 124.2 104.408 124.15C105.572 123.972 106.731 123.732 107.867 123.423C108.401 123.281 108.923 123.123 109.449 122.946C109.746 122.846 110.043 122.745 110.338 122.636C109.557 122.941 109.498 122.963 110.144 122.705C111.287 122.177 112.412 121.652 113.515 121.023C116.36 119.39 120.533 120.541 122.006 123.529C123.531 126.634 122.538 130.272 119.499 132.02L119.47 132.008Z" fill="#043309"/>
<mask id="mask0_2198_28510" style="mask-type:luminance" maskUnits="userSpaceOnUse" x="82" y="119" width="41" height="18">
<path d="M119.47 132.008C113.941 135.175 107.593 136.824 101.225 136.812C95.2317 136.809 88.1403 135.258 84.3066 130.228C83.2667 128.868 82.5589 127.527 82.613 125.748C82.6568 124.218 83.3949 122.401 84.5777 121.382C86.9279 119.355 91.3036 118.868 93.4157 121.655C93.4923 121.757 94.4125 122.943 94.4989 122.879C93.7658 122.308 93.6756 122.227 94.2089 122.631C94.4348 122.792 94.6569 122.936 94.8877 123.077C95.1186 123.219 95.3649 123.348 95.6094 123.468C94.7534 123.088 94.6427 123.039 95.2716 123.295C95.6735 123.427 96.0529 123.582 96.4616 123.703C96.9965 123.861 97.55 123.979 98.0967 124.107C98.7883 124.231 98.6484 124.216 97.6819 124.042C97.9723 124.079 98.2627 124.117 98.5619 124.153C99.7353 124.273 100.913 124.329 102.093 124.312C102.647 124.302 103.194 124.266 103.735 124.241C104.45 124.178 104.363 124.196 103.471 124.279C103.781 124.24 104.091 124.2 104.408 124.15C105.572 123.972 106.731 123.732 107.867 123.423C108.401 123.281 108.923 123.123 109.449 122.946C109.746 122.846 110.043 122.745 110.338 122.636C109.557 122.941 109.498 122.963 110.144 122.705C111.287 122.177 112.412 121.652 113.515 121.023C116.36 119.39 120.533 120.541 122.006 123.529C123.531 126.634 122.538 130.272 119.499 132.02L119.47 132.008Z" fill="white"/>
</mask>
<g mask="url(#mask0_2198_28510)">
<path d="M108.124 146.646C104.605 142.741 100.807 142.484 96.9885 146.066C92.3364 150.428 88.4528 139.417 93.0758 135.088C99.2523 129.304 106.971 129.581 112.701 135.933C116.971 140.66 112.443 151.435 108.126 146.654L108.124 146.646Z" fill="#CF8CBD"/>
</g>
<path d="M109.701 117.773C110.901 117.806 111.91 116.906 111.936 115.762L112.16 108.428C112.195 107.282 111.251 106.32 110.05 106.287C108.85 106.254 107.842 107.154 107.815 108.298L107.592 115.632C107.556 116.778 108.501 117.74 109.701 117.773Z" fill="#043309"/>
<path d="M76.2515 83.6136C75.7858 83.6502 75.3415 83.3634 75.1968 82.9028C75.0265 82.3657 75.3306 81.7902 75.8695 81.6286C76.4066 81.4583 76.982 81.7624 77.1437 82.3013C77.2884 82.7619 77.0843 83.2521 76.6879 83.4832C78.5422 86.5536 80.2096 88.0796 81.669 88.6396L75.2011 90.5335C76.0217 89.2275 76.4647 87.0557 76.2534 83.6223L76.2515 83.6136Z" fill="url(#paint0_linear_2198_28510)"/>
<path d="M81.7492 88.6315L81.6789 88.6011C80.0827 87.9978 78.4089 86.2728 76.7246 83.4845C77.1347 83.2322 77.3127 82.7477 77.1767 82.2852C77.0924 82.021 76.9094 81.8054 76.663 81.6764C76.4167 81.5473 76.1368 81.5165 75.8639 81.6026C75.7856 81.6195 75.7129 81.6624 75.647 81.6948C75.2263 81.9403 75.0328 82.4373 75.1795 82.9066C75.3242 83.3672 75.7529 83.6665 76.2292 83.6367C76.4221 86.7735 76.0633 89.0821 75.1762 90.5026L75.1421 90.5555L81.7473 88.6228L81.7492 88.6315ZM75.6738 81.7346C75.7378 81.6935 75.8056 81.6698 75.882 81.6442C76.1375 81.5619 76.4067 81.5858 76.6338 81.71C76.8696 81.8322 77.0421 82.041 77.1244 82.2964C77.2654 82.7396 77.0769 83.2174 76.6804 83.4485L76.6543 83.4541L76.6618 83.4889C78.3424 86.2598 79.9988 87.9885 81.5919 88.6198L75.2527 90.477C76.1273 89.0409 76.4669 86.7275 76.2777 83.6081L76.272 83.582L76.2546 83.5857C75.7889 83.6223 75.3727 83.3386 75.2317 82.8954C75.0907 82.4522 75.2792 81.9744 75.6757 81.7433L75.6738 81.7346Z" fill="url(#paint1_linear_2198_28510)"/>
<path d="M66.842 89.1009C67.1052 88.7163 67.073 88.1859 66.743 87.8381C66.3546 87.43 65.7116 87.4045 65.3035 87.7929C64.8954 88.1814 64.87 88.8244 65.2584 89.2325C65.5902 89.589 66.1132 89.6494 66.5184 89.4164C68.2757 92.5441 68.7867 94.7473 68.5458 96.2927L73.3798 91.5905C71.8371 91.6587 69.7248 90.9844 66.8439 89.1096L66.842 89.1009Z" fill="url(#paint2_linear_2198_28510)"/>
<path d="M68.5048 96.3564L73.4368 91.5602L73.3759 91.5733C71.6953 91.6348 69.5125 90.8026 66.8767 89.0935C67.1362 88.6916 67.0884 88.1737 66.7566 87.8171C66.4248 87.4605 65.8894 87.3846 65.4687 87.6301C65.4047 87.6712 65.3407 87.7123 65.2804 87.7708C64.8636 88.1611 64.8419 88.8215 65.2341 89.247C65.564 89.5949 66.082 89.6745 66.4978 89.4484C68.0938 92.2921 68.7721 94.5958 68.5159 96.2811L68.5048 96.3564ZM73.3119 91.6144L68.5761 96.2226C68.8112 94.5236 68.1174 92.2324 66.5338 89.4042L66.5282 89.3781L66.4934 89.3856C66.0882 89.6186 65.5894 89.5438 65.2701 89.2028C64.8922 88.8015 64.9127 88.1778 65.314 87.8C65.3674 87.752 65.4296 87.7022 65.4954 87.6698C65.9006 87.4368 66.3994 87.5116 66.7187 87.8526C67.0381 88.1936 67.0753 88.7047 66.8207 89.0874L66.8071 89.1085L66.8282 89.1222C69.4447 90.8263 71.6275 91.6585 73.3119 91.6144Z" fill="url(#paint3_linear_2198_28510)"/>
<path d="M60.659 92.063C61.1437 91.7764 61.7713 91.9418 62.0491 92.4284C62.2067 92.695 62.227 93.0002 62.1383 93.2652C65.1826 94.3763 73.8367 96.6287 70.306 84.6758C69.8628 84.8167 69.3677 84.632 69.1241 84.22C68.8376 83.7353 69.0029 83.1077 69.4895 82.8299C69.9742 82.5433 70.6018 82.7087 70.8796 83.1953C71.1251 83.616 71.0367 84.1359 70.6957 84.4552C79.3631 93.4076 81.6665 84.7789 82.1973 81.5773C81.9224 81.5272 81.6666 81.3546 81.509 81.088C81.2225 80.6033 81.3879 79.9757 81.8744 79.6979C82.361 79.4201 82.9867 79.5767 83.2645 80.0633C83.5424 80.5499 83.3857 81.1756 82.8991 81.4534C82.8109 81.5088 82.7102 81.5487 82.6058 81.5712L84.9973 91.1103L69.0416 100.412L61.9167 93.6317C61.8515 93.7095 61.7651 93.7736 61.6769 93.8291C61.1922 94.1156 60.5646 93.9502 60.2868 93.4637C60.009 92.9771 60.1656 92.3514 60.6522 92.0735L60.659 92.063Z" fill="url(#paint4_linear_2198_28510)"/>
<path d="M69.0471 100.438L85.0338 91.1116L85.03 91.0942L82.6441 81.5812C82.7399 81.5606 82.8319 81.5226 82.9201 81.4672C83.4135 81.1788 83.5857 80.5406 83.2954 80.0385C83.0051 79.5364 82.3689 79.3729 81.8667 79.6632C81.3646 79.9535 81.2011 80.5897 81.4914 81.0919C81.6366 81.3429 81.8855 81.5261 82.171 81.583C82.0301 82.4512 81.7485 83.7231 81.2443 84.9336C80.6439 86.3743 79.8764 87.3775 78.9622 87.9113C76.8985 89.1117 74.1259 87.9512 70.7303 84.4478C71.0676 84.1111 71.1385 83.5949 70.9037 83.181C70.6153 82.6876 69.9771 82.5154 69.475 82.8057C68.9729 83.096 68.8094 83.7323 69.0997 84.2344C69.3432 84.6464 69.8316 84.8418 70.2872 84.7163C71.6694 89.4001 71.3188 92.3808 69.255 93.5812C68.3409 94.115 67.0863 94.2942 65.5415 94.0987C64.2418 93.9415 62.9928 93.5548 62.1729 93.2578C62.2578 92.9754 62.2289 92.672 62.0751 92.4228C61.7866 91.9294 61.1485 91.7572 60.6464 92.0475C60.1443 92.3378 59.9808 92.9741 60.2711 93.4762C60.5614 93.9783 61.1976 94.1418 61.6997 93.8515C61.7899 93.8048 61.8675 93.7425 61.9327 93.6647L69.0471 100.438ZM84.9741 91.088L69.0513 100.373L61.9246 93.5845L61.9109 93.6057C61.8457 93.6835 61.7593 93.7476 61.6692 93.7944C61.2 94.0684 60.583 93.9099 60.309 93.4407C60.0349 92.9716 60.1934 92.3546 60.6626 92.0805C61.1318 91.8064 61.7487 91.9649 62.0228 92.4341C62.168 92.6852 62.195 92.9799 62.1083 93.2535L62.112 93.2709L62.1139 93.2797C62.9443 93.5835 64.2039 93.977 65.5123 94.1323C67.0745 94.324 68.3291 94.1449 69.2606 93.6073C71.3486 92.3926 71.7005 89.3752 70.3108 84.6566L70.3052 84.6305L70.279 84.6361C69.8359 84.7771 69.3581 84.5886 69.127 84.1921C68.8529 83.7229 69.0115 83.1059 69.4806 82.8318C69.9498 82.5577 70.5668 82.7163 70.8409 83.1855C71.0739 83.5906 70.9991 84.0894 70.6581 84.4087L70.6407 84.4125L70.6656 84.4435C74.0861 87.978 76.8799 89.1522 78.9766 87.9356C79.9081 87.398 80.6824 86.3843 81.2809 84.9348C81.792 83.7137 82.068 82.4157 82.2088 81.5475L82.2032 81.5214L82.1839 81.5164C81.8985 81.4595 81.662 81.2919 81.5169 81.0408C81.2428 80.5717 81.4013 79.9547 81.8705 79.6806C82.3397 79.4065 82.9567 79.565 83.2307 80.0342C83.5048 80.5034 83.3463 81.1204 82.8771 81.3945C82.7889 81.4499 82.695 81.4792 82.5925 81.5104L82.5664 81.516L82.572 81.5421L84.9597 91.0638L84.9741 91.088Z" fill="url(#paint5_linear_2198_28510)"/>
<path d="M84.9975 91.0987L85.4819 91.9292L69.6324 101.174L69.1479 100.344L84.9975 91.0987Z" fill="url(#paint6_linear_2198_28510)"/>
<path d="M69.6223 101.207L85.5208 91.9356L85.0137 91.0612L69.1152 100.332L69.6223 101.207ZM85.4524 91.9139L69.644 101.138L69.1837 100.354L84.9921 91.1296L85.4524 91.9139Z" fill="url(#paint7_linear_2198_28510)"/>
<path d="M68.7249 100.507C68.7946 100.62 68.9402 100.661 69.0527 100.591L85.1537 91.204C85.2662 91.1342 85.3077 90.9887 85.238 90.8762C85.1682 90.7637 85.0227 90.7222 84.9102 90.792L68.8091 100.179C68.6966 100.249 68.6551 100.395 68.7249 100.507Z" fill="url(#paint8_linear_2198_28510)"/>
<path d="M69.2449 101.397C69.3147 101.51 69.4602 101.551 69.5727 101.482L85.6738 92.0941C85.7862 92.0243 85.8277 91.8788 85.758 91.7663C85.6882 91.6538 85.5427 91.6123 85.4302 91.6821L69.3291 101.07C69.2166 101.139 69.1751 101.285 69.2449 101.397Z" fill="url(#paint9_linear_2198_28510)"/>
<path d="M122.5 64L126.5 31.5M155 112.5L188.5 112.5" stroke="#00FF41" stroke-width="2"/>
</g>
<path d="M156.759 57.9808L157.403 59.4673L155.223 60.4116L158.442 67.8445L156.658 68.6171L150.363 54.0817L152.147 53.3091L154.579 58.925L156.759 57.9808ZM145.981 68.965L141.86 59.451L143.644 58.6784L147.121 66.7059C149.063 65.8452 151.049 64.7693 153.06 63.3885L153.902 64.7892C151.662 66.3671 149.391 67.5079 147.203 68.4357L145.981 68.965ZM167.578 46.6258L173.888 61.1942L172.17 61.9382L165.86 47.3698L167.578 46.6258ZM157.89 58.315C156.502 55.1106 156.875 52.5755 158.782 51.7693C160.559 50.9802 162.463 52.1169 163.842 54.7564L165.262 54.1412L163.002 48.9217L164.72 48.1777L170.614 61.7881L168.896 62.5321L165.892 55.5947L164.488 56.2028C165.577 59.1247 165.106 61.3884 163.289 62.1753C161.389 62.998 159.285 61.5359 157.89 58.315ZM159.542 57.5996C160.529 59.879 161.62 60.8581 162.545 60.4575C163.519 60.0354 163.568 58.5628 162.581 56.2833C161.594 54.0039 160.479 53.0155 159.512 53.4541C158.579 53.8382 158.554 55.3202 159.542 57.5996ZM181.854 40.4432L188.163 55.0116L186.478 55.7413L180.169 41.1729L181.854 40.4432ZM173.603 56.178C175.846 53.0685 176.247 50.1882 175.245 47.1502L171.33 48.8456L170.701 47.392L176.416 44.9169C177.024 46.3209 177.421 47.7375 177.554 49.1314L179.586 48.2515L177.254 42.8669L178.939 42.1372L184.805 55.6815L183.12 56.4112L180.201 49.672L177.592 50.8023C177.455 52.8426 176.721 54.9064 175.171 56.9898L173.603 56.178ZM195.326 35.746L198.073 42.0887L191.169 45.0789L188.422 38.7362L195.326 35.746ZM194.56 50.5541C196.97 49.0985 198.086 47.2814 197.849 45.8736L193.967 47.5547L193.338 46.1012L203.083 41.8805L203.713 43.3341L199.831 45.0152C200.681 46.1181 202.834 46.5589 205.528 45.8041L205.468 47.4777C203.053 48.1511 200.906 47.904 199.491 46.9475C199.221 48.6337 197.918 50.3357 195.774 51.6367L194.56 50.5541ZM192.305 42.9002L195.674 41.4408L194.172 37.9722L190.802 39.4315L192.305 42.9002ZM200.753 42.0265L197.191 33.8008L199.008 33.0139L200.424 36.2844L202.472 35.3973L203.116 36.8839L201.068 37.771L202.57 41.2396L200.753 42.0265ZM215.369 30.832L215.984 32.2525L205.875 36.6305L203.701 31.6092L205.484 30.8366L207.044 34.4374L215.369 30.832ZM205.502 40.4797L204.887 39.0592L218.233 33.2791L218.848 34.6996L205.502 40.4797ZM209.539 45.3616L207.679 41.067L209.463 40.2944L210.693 43.1354L219.216 39.4442L219.846 40.8977L209.539 45.3616ZM163.537 76.7098L167.514 85.8935L165.829 86.6232L164.113 82.659L162.659 83.2885L164.161 86.7572L162.51 87.4725L158.876 79.0817L160.527 78.3663L162.015 81.8019L163.469 81.1724L161.852 77.4395L163.537 76.7098ZM152.286 85.1527L151.67 83.7322L154.445 82.5304L153.816 81.0769L155.567 80.3186L156.196 81.7721L158.938 80.5846L159.553 82.0051L152.286 85.1527ZM154.159 88.0291C153.477 86.5001 154.362 84.9203 156.196 84.1262C158.029 83.3322 159.787 83.7674 160.469 85.2964C161.103 86.8067 160.211 88.37 158.385 89.1806C156.544 89.9581 154.793 89.5393 154.159 88.0291ZM155.745 87.3423C156.067 88.0856 156.902 88.2928 157.827 87.8922C158.735 87.4987 159.155 86.7479 158.817 86.0118C158.504 85.2448 157.669 85.0376 156.768 85.4476C155.836 85.8317 155.416 86.5825 155.745 87.3423ZM158.806 92.9606C158.067 91.2995 159.558 89.5353 162.664 88.1905C165.785 86.8384 168.06 86.9716 168.782 88.6398C169.505 90.3081 168.046 92.0579 164.924 93.41C161.819 94.7548 159.512 94.636 158.806 92.9606ZM160.589 92.188C160.94 92.9974 162.266 92.9332 164.323 92.0225C166.412 91.1377 167.332 90.2289 166.998 89.4124C166.617 88.5772 165.331 88.6435 163.25 89.5449C161.186 90.4391 160.225 91.3456 160.589 92.188ZM171.578 75.6988C172.444 77.6974 174.387 79.0136 176.974 78.7366L176.631 80.572C174.795 80.6807 173.214 80.11 172.002 78.9872C172.044 80.8519 171.382 82.6294 169.88 84.006L168.306 83.0004C170.367 81.1466 170.729 78.6754 169.837 76.5705L169.236 75.183L171.02 74.4104L171.578 75.6988ZM172.764 86.68C171.982 84.9198 173.438 83.073 176.503 81.7259C179.599 80.4047 181.925 80.6133 182.707 82.3735C183.471 84.1811 182.024 86.0041 178.935 87.3419C175.863 88.6724 173.527 88.4875 172.764 86.68ZM174.548 85.9074C174.925 86.823 176.295 86.8178 178.32 85.9214C180.359 85.058 181.3 84.0617 180.923 83.1461C180.513 82.2448 179.15 82.2665 177.118 83.1464C175.087 84.0263 174.138 85.0061 174.548 85.9074ZM174.717 76.9679L174.073 75.4813L176.98 74.2223L175.764 71.4143L177.548 70.6417L181.268 79.2308L179.484 80.0034L177.624 75.7088L174.717 76.9679ZM186.374 67.094C189.677 65.6633 191.972 65.7089 192.666 67.3111C193.381 68.9628 191.845 70.6681 188.548 72.1153C185.205 73.5438 182.893 73.5054 182.161 71.8608C181.484 70.2514 183.037 68.539 186.374 67.094ZM182.867 77.2044L182.237 75.7509L195.517 69.9994L196.147 71.4529L182.867 77.2044ZM187.453 83.5353L185.836 79.8024L194.128 76.2113L193.713 75.2533L185.421 78.8444L184.834 77.49L194.91 73.1263L196.455 76.694L188.163 80.2851L188.636 81.3753L197.324 77.6125L197.925 79L187.453 83.5353ZM184.044 71.0453C184.402 71.8711 185.715 71.7338 187.962 70.7609C190.191 69.7951 191.19 68.931 190.816 68.1123C190.518 67.3784 189.176 67.4497 186.946 68.4154C184.699 69.3883 183.729 70.3185 184.044 71.0453ZM204.366 62.597C205.038 64.1496 206.886 65.1542 209.437 64.7947L209.231 66.4925C207.353 66.7762 205.725 66.3238 204.551 65.3805C204.477 67.0211 203.729 68.6004 202.21 69.8471L200.75 68.8316C202.79 67.2024 203.312 65.0544 202.582 63.3696L202.553 63.3035L199.514 64.6198L198.899 63.1993L201.938 61.883L201.251 60.2974L203.068 59.5105L203.755 61.0961L206.761 59.7942L207.377 61.2147L204.337 62.5309L204.366 62.597ZM204.893 74.4127C207.228 73.0093 208.367 71.2015 208.194 69.8054L204.329 71.4793L203.714 70.0588L213.459 65.8382L214.074 67.2587L210.209 68.9326C211.095 69.981 213.224 70.4125 215.861 69.6627L215.801 71.3363C213.386 72.0096 211.239 71.7626 209.824 70.806C209.554 72.4922 208.251 74.1942 206.107 75.4953L204.893 74.4127ZM211.143 66.0172L207.524 57.6594L209.341 56.8725L210.814 60.2751L212.862 59.388L213.492 60.8415L211.444 61.7286L212.96 65.2303L211.143 66.0172ZM216.476 55.0377C218.68 54.1028 221.131 55.4146 222.507 58.5458C223.864 61.7243 223.144 64.4096 220.94 65.3446C218.75 66.3125 216.282 65.0078 214.942 61.8221C213.549 58.6981 214.286 56.0056 216.476 55.0377ZM216.66 61.0782C217.616 63.3317 219.023 64.2717 220.239 63.7258C221.501 63.1987 221.745 61.5433 220.789 59.2898C219.814 57.0836 218.432 56.1127 217.177 56.6564C215.955 57.1857 215.684 58.872 216.66 61.0782ZM228.042 66.0738L221.733 51.5054L223.517 50.7328L225.949 56.3487L228.195 55.3759L228.839 56.8624L226.593 57.8353L229.826 65.3012L228.042 66.0738ZM243.195 51.8613L243.824 53.3149L238.043 55.8186L240.204 60.8069L238.42 61.5795L236.259 56.5912L230.544 59.0664L229.915 57.6128L243.195 51.8613ZM229.578 54.9339C232.262 53.3401 233.52 50.9906 232.967 49.3075L228.59 51.2033L227.975 49.7828L238.811 45.09L239.426 46.5105L235.049 48.4062C235.882 49.9677 238.439 50.6646 241.471 49.7833L241.425 51.4899C238.79 52.1996 236.364 51.8968 234.802 50.6903C234.597 52.6623 233.158 54.6389 230.854 56.0682L229.578 54.9339ZM246.889 45.1613C247.888 47.514 249.763 49.6245 252.282 50.0049L251.892 51.8216C250.227 51.601 248.791 50.5949 247.618 49.2002C247.848 51.18 247.55 53.0743 246.537 54.4939L244.874 53.6446C246.414 51.4478 246.247 48.4798 245.167 45.9857L244.036 43.3759L245.787 42.6176L246.889 45.1613ZM249.27 47.3078L248.626 45.8212L250.707 44.9199L248.647 40.1628L250.332 39.4332L256.227 53.0435L254.542 53.7732L251.351 46.4064L249.27 47.3078ZM257.815 53.1793L251.506 38.6109L253.224 37.8669L259.533 52.4353L257.815 53.1793ZM273.166 42.6863L273.81 44.1728L260.497 49.9387L259.853 48.4521L262.925 47.1215L261.337 43.4546C259.888 43.2782 258.727 42.5452 258.185 41.2497C257.16 38.9279 258.774 36.4045 261.929 35.0382C265.051 33.6862 268.012 34.2279 269.021 36.5569C269.572 37.8287 269.321 39.1533 268.492 40.3169L270.094 44.0168L273.166 42.6863ZM259.936 40.4914C260.564 41.9851 262.458 42.2828 264.662 41.3479C266.802 40.4014 267.897 38.8089 267.27 37.3152C266.588 35.7862 264.692 35.5287 262.544 36.4587C260.348 37.4101 259.254 38.9624 259.936 40.4914ZM264.709 46.3489L268.277 44.8037L266.968 41.7811C266.473 42.1327 265.89 42.4635 265.263 42.7353C264.635 43.0072 263.995 43.2058 263.4 43.3262L264.709 46.3489ZM272.857 31.0901L276.235 39.4347L274.418 40.2216L270.643 32.0487L272.857 31.0901ZM275.057 42.6914C274.763 42.0142 275.098 41.2022 275.768 40.8924C276.453 40.6156 277.274 40.9269 277.567 41.6041C277.868 42.2978 277.533 43.1098 276.856 43.4031C276.178 43.6964 275.357 43.3852 275.057 42.6914Z" fill="#00FF41"/>
<defs>
<linearGradient id="paint0_linear_2198_28510" x1="78.7365" y1="85.0762" x2="66.5628" y2="92.1771" gradientUnits="userSpaceOnUse">
<stop stop-color="#62310C"/>
<stop offset="0.04" stop-color="#69370D"/>
<stop offset="0.1" stop-color="#7F4910"/>
<stop offset="0.18" stop-color="#A36716"/>
<stop offset="0.26" stop-color="#D48F1D"/>
<stop offset="0.28" stop-color="#DD971F"/>
<stop offset="0.5" stop-color="#FCF487"/>
<stop offset="0.76" stop-color="#DD971F"/>
<stop offset="1" stop-color="#62310C"/>
</linearGradient>
<linearGradient id="paint1_linear_2198_28510" x1="79.4639" y1="84.6624" x2="73.6962" y2="88.0266" gradientUnits="userSpaceOnUse">
<stop stop-color="#EAA129"/>
<stop offset="0.04" stop-color="#966014"/>
<stop offset="0.16" stop-color="#F1C658"/>
<stop offset="0.4" stop-color="#B77E19"/>
<stop offset="0.6" stop-color="#F0C048"/>
<stop offset="0.66" stop-color="#F5DA7D"/>
<stop offset="0.72" stop-color="#FBF1A9"/>
<stop offset="0.75" stop-color="#FDFABB"/>
<stop offset="0.87" stop-color="#966014"/>
<stop offset="1" stop-color="#F1C528"/>
</linearGradient>
<linearGradient id="paint2_linear_2198_28510" x1="78.7365" y1="85.0761" x2="66.5629" y2="92.177" gradientUnits="userSpaceOnUse">
<stop stop-color="#62310C"/>
<stop offset="0.04" stop-color="#69370D"/>
<stop offset="0.1" stop-color="#7F4910"/>
<stop offset="0.18" stop-color="#A36716"/>
<stop offset="0.26" stop-color="#D48F1D"/>
<stop offset="0.28" stop-color="#DD971F"/>
<stop offset="0.5" stop-color="#FCF487"/>
<stop offset="0.76" stop-color="#DD971F"/>
<stop offset="1" stop-color="#62310C"/>
</linearGradient>
<linearGradient id="paint3_linear_2198_28510" x1="71.9966" y1="89.018" x2="66.2212" y2="92.3867" gradientUnits="userSpaceOnUse">
<stop stop-color="#EAA129"/>
<stop offset="0.04" stop-color="#966014"/>
<stop offset="0.16" stop-color="#F1C658"/>
<stop offset="0.4" stop-color="#B77E19"/>
<stop offset="0.6" stop-color="#F0C048"/>
<stop offset="0.66" stop-color="#F5DA7D"/>
<stop offset="0.72" stop-color="#FBF1A9"/>
<stop offset="0.75" stop-color="#FDFABB"/>
<stop offset="0.87" stop-color="#966014"/>
<stop offset="1" stop-color="#F1C528"/>
</linearGradient>
<linearGradient id="paint4_linear_2198_28510" x1="84.1558" y1="82.8636" x2="62.6616" y2="95.4011" gradientUnits="userSpaceOnUse">
<stop stop-color="#62310C"/>
<stop offset="0.04" stop-color="#69370D"/>
<stop offset="0.1" stop-color="#7F4910"/>
<stop offset="0.18" stop-color="#A36716"/>
<stop offset="0.26" stop-color="#D48F1D"/>
<stop offset="0.28" stop-color="#DD971F"/>
<stop offset="0.5" stop-color="#FCF487"/>
<stop offset="0.76" stop-color="#DD971F"/>
<stop offset="1" stop-color="#62310C"/>
</linearGradient>
<linearGradient id="paint5_linear_2198_28510" x1="84.7632" y1="82.5094" x2="61.7463" y2="95.935" gradientUnits="userSpaceOnUse">
<stop stop-color="#EAA129"/>
<stop offset="0.04" stop-color="#966014"/>
<stop offset="0.16" stop-color="#F1C658"/>
<stop offset="0.4" stop-color="#B77E19"/>
<stop offset="0.6" stop-color="#F0C048"/>
<stop offset="0.66" stop-color="#F5DA7D"/>
<stop offset="0.72" stop-color="#FBF1A9"/>
<stop offset="0.75" stop-color="#FDFABB"/>
<stop offset="0.87" stop-color="#966014"/>
<stop offset="1" stop-color="#F1C528"/>
</linearGradient>
<linearGradient id="paint6_linear_2198_28510" x1="88.1697" y1="89.8049" x2="66.6755" y2="102.342" gradientUnits="userSpaceOnUse">
<stop stop-color="#62310C"/>
<stop offset="0.04" stop-color="#69370D"/>
<stop offset="0.1" stop-color="#7F4910"/>
<stop offset="0.18" stop-color="#A36716"/>
<stop offset="0.26" stop-color="#D48F1D"/>
<stop offset="0.28" stop-color="#DD971F"/>
<stop offset="0.5" stop-color="#FCF487"/>
<stop offset="0.76" stop-color="#DD971F"/>
<stop offset="1" stop-color="#62310C"/>
</linearGradient>
<linearGradient id="paint7_linear_2198_28510" x1="85.2633" y1="91.442" x2="69.3676" y2="100.714" gradientUnits="userSpaceOnUse">
<stop stop-color="#EAA129"/>
<stop offset="0.04" stop-color="#966014"/>
<stop offset="0.16" stop-color="#F1C658"/>
<stop offset="0.4" stop-color="#B77E19"/>
<stop offset="0.6" stop-color="#F0C048"/>
<stop offset="0.66" stop-color="#F5DA7D"/>
<stop offset="0.72" stop-color="#FBF1A9"/>
<stop offset="0.75" stop-color="#FDFABB"/>
<stop offset="0.87" stop-color="#966014"/>
<stop offset="1" stop-color="#F1C528"/>
</linearGradient>
<linearGradient id="paint8_linear_2198_28510" x1="85.2389" y1="90.8171" x2="68.728" y2="100.448" gradientUnits="userSpaceOnUse">
<stop stop-color="#EAA129"/>
<stop offset="0.04" stop-color="#966014"/>
<stop offset="0.16" stop-color="#F1C658"/>
<stop offset="0.4" stop-color="#B77E19"/>
<stop offset="0.6" stop-color="#F0C048"/>
<stop offset="0.66" stop-color="#F5DA7D"/>
<stop offset="0.72" stop-color="#FBF1A9"/>
<stop offset="0.75" stop-color="#FDFABB"/>
<stop offset="0.87" stop-color="#966014"/>
<stop offset="1" stop-color="#F1C528"/>
</linearGradient>
<linearGradient id="paint9_linear_2198_28510" x1="85.7598" y1="91.7094" x2="69.2488" y2="101.34" gradientUnits="userSpaceOnUse">
<stop stop-color="#EAA129"/>
<stop offset="0.04" stop-color="#966014"/>
<stop offset="0.16" stop-color="#F1C658"/>
<stop offset="0.4" stop-color="#B77E19"/>
<stop offset="0.6" stop-color="#F0C048"/>
<stop offset="0.66" stop-color="#F5DA7D"/>
<stop offset="0.72" stop-color="#FBF1A9"/>
<stop offset="0.75" stop-color="#FDFABB"/>
<stop offset="0.87" stop-color="#966014"/>
<stop offset="1" stop-color="#F1C528"/>
</linearGradient>
<clipPath id="clip0_2198_28510">
<rect width="162.655" height="169.297" fill="white" transform="matrix(-0.977582 0.210555 0.210555 0.977582 159.009 41)"/>
</clipPath>
</defs>
</svg>
