<svg width="40" height="41" viewBox="0 0 40 41" fill="none" xmlns="http://www.w3.org/2000/svg">
<g id="Frame" clip-path="url(#clip0_1456_18385)">
<path id="Vector" d="M28.3334 6.12573C30.8472 7.57716 32.9383 9.65994 34.3997 12.1679C35.8612 14.6759 36.6423 17.522 36.6658 20.4246C36.6892 23.3272 35.9542 26.1857 34.5334 28.7169C33.1127 31.2481 31.0554 33.3644 28.5654 34.8563C26.0754 36.3481 23.239 37.1638 20.3369 37.2225C17.4348 37.2812 14.5676 36.581 12.0193 35.1911C9.47097 33.8013 7.32983 31.7699 5.80782 29.2983C4.28581 26.8266 3.43572 24.0002 3.34171 21.0991L3.33337 20.5591L3.34171 20.0191C3.43505 17.1407 4.27262 14.3357 5.77277 11.8774C7.27293 9.41911 9.38446 7.39149 11.9015 5.9922C14.4186 4.59292 17.2553 3.86973 20.1351 3.89313C23.0148 3.91653 25.8394 4.68573 28.3334 6.12573ZM26.1784 16.0474C25.8914 15.7604 25.5096 15.5881 25.1045 15.5626C24.6995 15.5371 24.299 15.6603 23.9784 15.9091L23.8217 16.0474L18.3334 21.5341L16.1784 19.3807L16.0217 19.2424C15.701 18.9938 15.3007 18.8708 14.8957 18.8963C14.4908 18.9219 14.1091 19.0943 13.8221 19.3812C13.5352 19.6681 13.3628 20.0498 13.3373 20.4547C13.3117 20.8597 13.4348 21.26 13.6834 21.5807L13.8217 21.7374L17.155 25.0707L17.3117 25.2091C17.604 25.4358 17.9634 25.5589 18.3334 25.5589C18.7033 25.5589 19.0628 25.4358 19.355 25.2091L19.5117 25.0707L26.1784 18.4041L26.3167 18.2474C26.5655 17.9267 26.6887 17.5263 26.6632 17.1213C26.6377 16.7162 26.4653 16.3344 26.1784 16.0474Z" fill="#00FF41"/>
</g>
<defs>
<clipPath id="clip0_1456_18385">
<rect width="40" height="40" fill="white" transform="translate(0 0.559082)"/>
</clipPath>
</defs>
</svg>
