<svg width="19" height="19" viewBox="0 0 19 19" fill="none" xmlns="http://www.w3.org/2000/svg">
<path id="X" d="M14.8355 10.1843L13.7787 11.3195C13.3921 11.6757 12.7735 11.2305 13.1859 10.8298C15.1448 8.75964 16.6655 6.80076 18.444 4.64155C19.4493 3.41725 19.0627 1.81453 17.5161 0.768315C15.9954 -0.277902 14.1396 -0.255641 12.9539 0.835096C11.794 1.92583 10.6083 3.28369 9.62888 4.55251C8.31433 3.08335 6.87092 1.59194 6.07188 0.835096C4.86044 -0.255641 3.00461 -0.277902 1.48387 0.768315C-0.0626552 1.81453 -0.449286 3.41725 0.555953 4.64155C1.50964 5.84359 2.74686 7.31274 4.11295 8.8932L4.91199 8.09184C5.29862 7.71342 6.02033 8.2254 5.55637 8.69286C3.82942 10.4514 2.23135 12.3658 0.63328 14.2356C-0.449285 15.4154 -0.0884304 17.0626 1.35499 18.1533C2.87574 19.2441 4.75734 19.2886 5.96878 18.2424C7.206 17.1516 8.49476 15.9051 9.5 14.703C10.299 15.727 11.9487 17.2852 13.0312 18.2424C14.2427 19.2886 16.0985 19.2441 17.645 18.1533C19.0884 17.0626 19.4235 15.4376 18.3925 14.2356L14.8355 10.1843Z" fill="white"/>
</svg>
