<svg xmlns="http://www.w3.org/2000/svg" viewBox="0 0 45.24 45"><defs><style>.a{fill:none;stroke:#fff;}.b{fill:#fff;}</style></defs><title>무제-1</title><path class="a" d="M45,23A22.12,22.12,0,1,1,22.88,1,22.06,22.06,0,0,1,45,23Z" transform="translate(-0.26 -0.5)"/><path class="b" d="M28.6,23.73l-1.13,1.21c-.42.38-1.08-.09-.64-.52,2.1-2.21,3.73-4.3,5.64-6.6,1.08-1.31.66-3-1-4.13a3.91,3.91,0,0,0-4.89.07,35.28,35.28,0,0,0-3.56,4c-1.41-1.56-3-3.15-3.82-4a4,4,0,0,0-4.92-.07c-1.66,1.11-2.07,2.82-1,4.13s2.35,2.85,3.81,4.53L18,21.5c.41-.41,1.19.14.69.64-1.85,1.87-3.57,3.92-5.28,5.91-1.16,1.26-.78,3,.77,4.18a4,4,0,0,0,4.95.09,36.49,36.49,0,0,0,3.79-3.77,35.42,35.42,0,0,0,3.78,3.77,4,4,0,0,0,4.95-.09c1.55-1.16,1.91-2.9.8-4.18Z" transform="translate(-0.26 -0.5)"/></svg>