<svg width="62" height="71" viewBox="0 0 62 71" fill="none" xmlns="http://www.w3.org/2000/svg">
<g id="_?&#235;&#141;&#137;&#236;&#148;&#160;??1" clip-path="url(#clip0_1456_18388)">
<g id="Group">
<g id="Group_2">
<path id="Vector" d="M35.9066 3.69054L39.9997 2.76017L43.4805 5.14159L47.6575 5.48301L50.2911 8.7948L54.1829 10.3824L55.743 14.3344L59.0057 17.0145L59.3496 21.2652L61.6897 24.8075L60.7922 28.9728L62 33.0528L59.9367 36.7658L59.9115 41.025L56.8585 43.9527L55.6004 48.0156L51.8344 49.902L49.4524 53.4101L45.3174 54.0759L42.0211 56.7133L37.8777 56.1073L33.9608 57.6437L30.178 55.8256L25.9927 56.1159L22.8977 53.2394L18.8214 52.2663L16.6994 48.5875L13.0844 46.4366L12.1198 42.2797L9.28489 39.1387L9.57006 34.888L7.77515 31.0299L9.2765 27.0523L8.6726 22.8272L11.2643 19.4728L11.9102 15.2647L15.3574 12.8321L17.1942 8.99965L21.1951 7.71079L24.0636 4.60385L28.2489 4.56971L31.8974 2.46143L35.9066 3.69054Z" fill="#FF391D"/>
<path id="Vector_2" d="M40.6037 49.1763L45.9632 63.6782L57.3366 64.6512L42.2392 70.5834L35.5209 52.8892L40.6037 49.1763Z" fill="#FF391D"/>
<path id="Vector_3" d="M24.5081 49.1763L19.1485 63.6782L7.77515 64.6512L22.8642 70.5834L29.5825 52.8892L24.5081 49.1763Z" fill="#FF391D"/>
</g>
<g id="Group_3">
<path id="Vector_4" d="M34.8834 19.6009C34.1621 19.6009 33.575 19.029 33.575 18.3291V13.848C33.575 13.1481 34.1621 12.5762 34.8834 12.5762C35.6047 12.5762 36.1918 13.1481 36.1918 13.848V18.3291C36.1918 19.029 35.6047 19.6009 34.8834 19.6009Z" fill="#6F0000"/>
<path id="Vector_5" d="M20.2053 28.1022C20.9434 28.6656 21.7905 29.0753 22.6461 29.4337C25.1288 30.4751 27.754 31.1921 30.438 31.3542C33.122 31.5164 35.8563 31.1067 38.297 29.98C39.3287 29.502 40.3268 28.896 41.0901 28.0425C41.8533 27.1889 42.3733 26.0707 42.365 24.9184C42.3482 23.621 41.5765 22.4005 40.5029 21.7347C39.1777 20.9153 37.6848 21.1287 36.4518 22.0164C35.7389 22.5285 35.0763 23.1431 34.2543 23.4589C33.7091 23.6637 33.122 23.7235 32.5433 23.7491C31.1342 23.8088 29.7251 23.6893 28.3495 23.382C27.7708 23.254 27.2005 23.0918 26.6469 22.8614C25.2294 22.281 23.9461 21.2567 22.428 21.1031C21.3125 20.9921 20.1466 21.4103 19.3666 22.2212C18.5865 23.0321 18.2007 24.2441 18.4104 25.3708C18.5949 26.3866 19.224 27.2743 20.0124 27.9315C20.0795 27.9912 20.1466 28.0425 20.2221 28.1022H20.2053Z" fill="#6F0000"/>
<g id="Clip path group">
<mask id="mask0_1456_18388" style="mask-type:luminance" maskUnits="userSpaceOnUse" x="18" y="20" width="25" height="12">
<g id="clippath">
<path id="Vector_6" d="M20.1885 28.1193C23.4513 30.1593 27.234 31.2775 31.0503 31.397C34.6485 31.5079 38.9345 30.6885 41.3333 27.6925C41.9791 26.8817 42.4321 26.0793 42.4321 24.9868C42.4321 24.0479 42.0211 22.9297 41.3333 22.281C39.9578 21.0007 37.3409 20.6251 36.024 22.281C35.9737 22.3407 35.4034 23.0492 35.353 23.0065C35.7976 22.6736 35.8563 22.6224 35.5292 22.8614C35.395 22.9553 35.2524 23.0407 35.1098 23.1175C34.9672 23.2028 34.8162 23.2711 34.6737 23.3479C35.1937 23.1345 35.2608 23.1004 34.8834 23.2455C34.6401 23.3138 34.4053 23.4077 34.162 23.4674C33.8349 23.5528 33.5078 23.6125 33.1723 23.6808C32.7529 23.7491 32.8368 23.732 33.4239 23.6467C33.2478 23.6638 33.0717 23.6808 32.8955 23.6979C32.191 23.7491 31.478 23.7576 30.7735 23.732C30.4464 23.715 30.1193 23.6808 29.7838 23.6552C29.356 23.604 29.4063 23.6125 29.9431 23.6808C29.7586 23.6552 29.5741 23.6211 29.3812 23.5869C28.685 23.4589 27.9973 23.2882 27.3179 23.0748C26.9991 22.9809 26.6888 22.8699 26.3785 22.759C26.2023 22.6907 26.0262 22.6224 25.8501 22.5541C26.3114 22.759 26.3533 22.7675 25.9675 22.5968C25.2881 22.2554 24.6255 21.9054 23.9797 21.5043C22.3022 20.4544 19.7692 21.0775 18.8382 22.8785C17.9072 24.6795 18.3936 26.9926 20.1885 28.1108V28.1193Z" fill="white"/>
</g>
</mask>
<g mask="url(#mask0_1456_18388)">
<g id="Group_4">
<path id="Vector_7" d="M26.7308 37.2692C28.9199 34.9476 31.2013 34.8622 33.424 37.1241C36.1331 39.8726 38.6661 33.2234 35.9738 30.4835C32.3756 26.8388 27.7289 26.8644 24.181 30.6286C21.5306 33.4368 24.0552 40.103 26.7308 37.2692Z" fill="#E494C4"/>
</g>
</g>
</g>
<path id="Vector_8" d="M26.3198 19.6009C25.5985 19.6009 25.0114 19.029 25.0114 18.3291V13.848C25.0114 13.1481 25.5985 12.5762 26.3198 12.5762C27.0411 12.5762 27.6282 13.1481 27.6282 13.848V18.3291C27.6282 19.029 27.0411 19.6009 26.3198 19.6009Z" fill="#6F0000"/>
</g>
</g>
<g id="Group_5">
<path id="Vector_9" d="M8.31193 45.8647L9.2681 49.7313L12.0108 50.619L9.5365 51.9164L8.4629 58.4803L7.65771 52.053L4.76404 50.5422L7.65771 49.8082L8.31193 45.8647Z" fill="white"/>
<path id="Vector_10" d="M57.7727 52.9575L57.3701 54.5793L56.2294 54.9463L57.261 55.4926L57.7056 58.241L58.0494 55.5438L59.2572 54.9122L58.0494 54.6049L57.7727 52.9575Z" fill="white"/>
<path id="Vector_11" d="M59.8527 49.7397L59.5172 51.0798L58.5695 51.3956L59.425 51.8395L59.8024 54.127L60.0792 51.8907L61.0857 51.3615L60.0792 51.114L59.8527 49.7397Z" fill="white"/>
<path id="Vector_12" d="M12.9921 2.46143L12.3715 4.20268L10.6101 4.60385L12.2037 5.1928L12.8915 8.16317L13.4115 5.25255L15.2819 4.56971L13.4115 4.24535L12.9921 2.46143Z" fill="white"/>
<path id="Vector_13" d="M4.94023 55.4414L5.33444 57.0546L6.48352 57.4302L5.45186 57.9679L4.99894 60.7164L4.66345 58.0277L3.44727 57.396L4.66345 57.0888L4.94023 55.4414Z" fill="white"/>
<path id="Vector_14" d="M4.95696 45.2757C4.95696 45.6001 4.69695 45.8732 4.36984 45.8732C4.04273 45.8732 3.78271 45.6086 3.78271 45.2757C3.78271 44.9428 4.04273 44.6782 4.36984 44.6782C4.69695 44.6782 4.95696 44.9428 4.95696 45.2757Z" fill="white"/>
<path id="Vector_15" d="M3.7827 43.7479C3.94483 43.7479 4.07626 43.6141 4.07626 43.4491C4.07626 43.2841 3.94483 43.1504 3.7827 43.1504C3.62057 43.1504 3.48914 43.2841 3.48914 43.4491C3.48914 43.6141 3.62057 43.7479 3.7827 43.7479Z" fill="white"/>
<path id="Vector_16" d="M59.0979 9.75076C59.0979 10.4677 58.5191 11.0567 57.8062 11.0567C57.0933 11.0567 56.5145 10.4763 56.5145 9.75076C56.5145 9.02524 57.0933 8.44482 57.8062 8.44482C58.5191 8.44482 59.0979 9.02524 59.0979 9.75076Z" fill="white"/>
<path id="Vector_17" d="M56.2294 1.60776C56.512 1.60776 56.741 1.37847 56.741 1.09563C56.741 0.812786 56.512 0.583496 56.2294 0.583496C55.9468 0.583496 55.7178 0.812786 55.7178 1.09563C55.7178 1.37847 55.9468 1.60776 56.2294 1.60776Z" fill="white"/>
<path id="Vector_18" d="M54.4009 6.60949C54.8595 6.60949 55.2313 6.23498 55.2313 5.77301C55.2313 5.31103 54.8595 4.93652 54.4009 4.93652C53.9423 4.93652 53.5706 5.31103 53.5706 5.77301C53.5706 6.23498 53.9423 6.60949 54.4009 6.60949Z" fill="white"/>
<path id="Vector_19" d="M0.478049 52.676C0.478049 52.8126 0.369012 52.915 0.234813 52.915C0.100614 52.915 -0.00842285 52.804 -0.00842285 52.676C-0.00842285 52.548 0.100614 52.437 0.234813 52.437C0.369012 52.437 0.478049 52.548 0.478049 52.676Z" fill="white"/>
<path id="Vector_20" d="M1.49294 54.3658C1.49294 54.5877 1.30842 54.7755 1.09034 54.7755C0.872268 54.7755 0.687744 54.5962 0.687744 54.3658C0.687744 54.1353 0.872268 53.9561 1.09034 53.9561C1.30842 53.9561 1.49294 54.1353 1.49294 54.3658Z" fill="white"/>
</g>
</g>
<defs>
<clipPath id="clip0_1456_18388">
<rect width="62" height="70" fill="white" transform="translate(0 0.583496)"/>
</clipPath>
</defs>
</svg>
