<svg width="29" height="27" viewBox="0 0 29 27" fill="none" xmlns="http://www.w3.org/2000/svg">
<path d="M4.69865 1.20117V8.4803M1.05908 4.84074H8.33821M5.42656 19.399V25.2223M2.51491 22.3107H8.33821M13.4453 10.3481C10.3618 11.2304 8.82009 11.67 8.59735 12.4489C8.52307 12.7096 8.52307 12.9859 8.59735 13.2467C8.82009 14.0255 10.3618 14.4652 13.4453 15.3474C14.064 15.5236 14.3726 15.6124 14.607 15.8046C14.6913 15.8744 14.7675 15.9535 14.8341 16.0404C15.019 16.2806 15.0976 16.5936 15.2534 17.2182C16.1487 20.7966 16.5957 22.5858 17.4226 22.8085C17.6701 22.8755 17.9321 22.8755 18.1796 22.8085C19.0065 22.5873 19.4535 20.7966 20.3488 17.2182C20.5046 16.5922 20.5817 16.2806 20.7681 16.039C20.8348 15.9531 20.911 15.8749 20.9952 15.806C21.2281 15.6124 21.5382 15.5236 22.1555 15.3474C25.2418 14.4652 26.7821 14.0255 27.0034 13.2467C27.0777 12.9859 27.0777 12.7096 27.0034 12.4489C26.7821 11.67 25.2418 11.2304 22.1555 10.3481C21.5382 10.172 21.2296 10.0832 20.9952 9.891C20.9108 9.82117 20.8347 9.74206 20.7681 9.65516C20.5817 9.41494 20.5046 9.10194 20.3488 8.47739C19.4535 4.89897 19.0065 3.1083 18.1796 2.88702C17.9317 2.82026 17.6705 2.82026 17.4226 2.88702C16.5957 3.1083 16.1487 4.89897 15.2534 8.47739C15.0976 9.1034 15.0205 9.41494 14.8341 9.65661C14.7673 9.7425 14.6912 9.82063 14.607 9.88954C14.3741 10.0832 14.0625 10.172 13.4453 10.3481Z" stroke="black" stroke-width="2" stroke-linecap="round" stroke-linejoin="round"/>
</svg>
