<svg width="30" height="43" viewBox="0 0 30 43" fill="none" xmlns="http://www.w3.org/2000/svg">
<g clip-path="url(#clip0_851_17773)">
<path d="M11.666 0.484375H10V2.16361H11.666V0.484375Z" fill="#00FF41"/>
<path d="M13.3319 0.484375H11.666V2.16361H13.3319V0.484375Z" fill="#00FF41"/>
<path d="M10 2.16357H8.33405V24.0021H10V2.16357Z" fill="#00FF41"/>
<path d="M15 2.16357H13.334V17.2831H15V2.16357Z" fill="#00FF41"/>
<path d="M16.666 10.564H15V12.2432H16.666V10.564Z" fill="#00FF41"/>
<path d="M18.3319 10.564H16.666V12.2432H18.3319V10.564Z" fill="#00FF41"/>
<path d="M20 12.2432H18.334V18.9622H20V12.2432Z" fill="#00FF41"/>
<path d="M21.666 12.2432H20V13.9224H21.666V12.2432Z" fill="#00FF41"/>
<path d="M23.3319 12.2432H21.666V13.9224H23.3319V12.2432Z" fill="#00FF41"/>
<path d="M25 13.9246H23.334V20.6436H25V13.9246Z" fill="#00FF41"/>
<path d="M26.666 13.9246H25V15.6038H26.666V13.9246Z" fill="#00FF41"/>
<path d="M28.3319 15.6038H26.666V17.283H28.3319V15.6038Z" fill="#00FF41"/>
<path d="M30 17.2832H28.334V30.7235H30V17.2832Z" fill="#00FF41"/>
<path d="M28.3319 30.7234H26.666V37.4425H28.3319V30.7234Z" fill="#00FF41"/>
<path d="M26.666 37.4446H25V42.4844H26.666V37.4446Z" fill="#00FF41"/>
<path d="M6.66596 17.2832H5V18.9624H6.66596V17.2832Z" fill="#00FF41"/>
<path d="M4.99999 15.6038H1.66595V17.283H4.99999V15.6038Z" fill="#00FF41"/>
<path d="M1.66596 17.2832H0V22.323H1.66596V17.2832Z" fill="#00FF41"/>
<path d="M3.33191 22.323H1.66595V24.0022H3.33191V22.323Z" fill="#00FF41"/>
<path d="M5.00001 24.0044H3.33405V27.365H5.00001V24.0044Z" fill="#00FF41"/>
<path d="M6.66596 27.3628H5V32.4026H6.66596V27.3628Z" fill="#00FF41"/>
<path d="M8.33191 32.4026H6.66595V35.7632H8.33191V32.4026Z" fill="#00FF41"/>
<path d="M10 35.7632H8.33405V42.4822H10V35.7632Z" fill="#00FF41"/>
<path d="M26.6681 40.803H8.33405V42.4822H26.6681V40.803Z" fill="#00FF41"/>
<path d="M8.33191 18.9644H6.66595V20.6436H8.33191V18.9644Z" fill="#00FF41"/>
</g>
<defs>
<clipPath id="clip0_851_17773">
<rect width="30" height="42" fill="white" transform="translate(0 0.484375)"/>
</clipPath>
</defs>
</svg>
