<svg width="33" height="28" viewBox="0 0 33 28" fill="none" xmlns="http://www.w3.org/2000/svg">
<path d="M16.4804 27.1337C14.2694 27.0449 12.053 27.2857 9.84665 27.0083C4.90631 26.3876 0.832187 21.9341 0.607915 16.9138C0.314637 10.3438 5.13331 5.26771 11.6699 5.26222C12.6414 5.26222 13.613 5.24574 14.5836 5.27046C14.9468 5.27961 15.0421 5.16335 15.0303 4.81C15.0049 4.05934 15.0122 3.30686 15.0249 2.55529C15.043 1.52909 15.6387 0.871812 16.5122 0.891036C17.3602 0.91026 17.9168 1.54832 17.9359 2.55071C17.9495 3.2794 17.9622 4.00991 17.9295 4.73676C17.9114 5.14413 18.0067 5.28785 18.4416 5.27229C19.4567 5.23659 20.4746 5.25764 21.4915 5.26131C27.092 5.28419 31.789 9.50525 32.3283 14.9978C32.894 20.755 29.1358 25.864 23.5172 26.9515C21.8402 27.2765 20.1377 27.0953 18.4462 27.13C17.7915 27.1438 17.1359 27.1319 16.4804 27.1319V27.1337ZM16.4441 24.2437C18.4752 24.1613 20.5118 24.3609 22.5384 24.1348C26.4718 23.6963 29.499 20.2222 29.4945 16.1824C29.49 12.1765 26.4727 8.64199 22.5766 8.2804C19.2461 7.97098 15.8947 8.21815 12.5524 8.16872C11.8306 8.15773 11.1097 8.16688 10.3878 8.25293C6.49982 8.71797 3.4726 12.1728 3.46715 16.176C3.4608 20.2158 6.48983 23.6963 10.4169 24.1338C12.4208 24.3572 14.4356 24.1604 16.4441 24.2437Z" fill="#020202"/>
<path d="M15.0152 16.1907C15.018 17.0146 14.4468 17.5831 13.5561 17.6664C13.0948 17.7094 12.4829 17.4467 12.2159 17.7909C11.9944 18.0774 12.1623 18.6633 12.1387 19.1146C12.0961 19.944 11.4968 20.5537 10.725 20.5692C9.92417 20.5857 9.31128 19.9705 9.26588 19.1018C9.24227 18.6514 9.38755 18.0783 9.166 17.7826C8.92085 17.4558 8.32339 17.7021 7.8812 17.6682C6.97231 17.5986 6.33763 16.9826 6.35761 16.1678C6.37668 15.3686 6.98593 14.7956 7.87122 14.7278C8.31522 14.694 8.88362 14.9292 9.17054 14.6217C9.45202 14.3205 9.23592 13.7529 9.26315 13.3025C9.31491 12.4274 9.91055 11.8149 10.7141 11.8241C11.4859 11.8333 12.0834 12.442 12.1424 13.2659C12.1769 13.7373 11.9372 14.3562 12.2441 14.6381C12.4956 14.8697 13.0976 14.7022 13.5425 14.7315C14.4396 14.791 15.0116 15.3641 15.0143 16.1889L15.0152 16.1907Z" fill="#020202"/>
<path d="M25.1274 12.5502C25.8883 12.5319 26.562 13.1699 26.6019 13.9471C26.6428 14.7344 25.9754 15.4512 25.1846 15.4704C24.4019 15.4896 23.7055 14.7985 23.7091 14.0048C23.7127 13.234 24.361 12.5694 25.1274 12.5502Z" fill="#020202"/>
<path d="M23.6904 18.3813C23.6913 19.2006 23.0275 19.867 22.2312 19.846C21.4585 19.8249 20.8239 19.1676 20.8221 18.3877C20.8202 17.5803 21.4994 16.9047 22.293 16.9257C23.072 16.9459 23.6895 17.5876 23.6904 18.3813Z" fill="#020202"/>
</svg>
