<svg width="33" height="30" viewBox="0 0 33 30" fill="none" xmlns="http://www.w3.org/2000/svg">
<g clip-path="url(#clip0_851_17926)">
<path d="M30.8022 5.08716V2.85863H28.6007V0.626465H19.8022V2.85863H17.5971V5.08716H15.3993V2.85863H13.2014V0.626465H4.39928V2.85863H2.20144V5.08716H0V14.0122H2.20144V16.2407H4.39928V18.4693H6.60072V20.7014H8.80215V22.93H11V25.1621H13.2014V27.3943H15.3993V29.6228H17.5971V27.3979H19.7986V25.1658H21.9964V22.9336H24.1978V20.7051H26.3993V18.4693H28.5971V16.2407H30.7986V14.0122H32.9964V5.08716H30.8022ZM8.80215 7.31933H6.60072V9.5515H4.39928V7.31933H6.60072V5.08716H8.80215V7.31933Z" fill="#00FF41"/>
</g>
<defs>
<clipPath id="clip0_851_17926">
<rect width="33" height="29" fill="white" transform="translate(0 0.626465)"/>
</clipPath>
</defs>
</svg>
