<svg width="23" height="20" viewBox="0 0 23 20" fill="none" xmlns="http://www.w3.org/2000/svg">
<path d="M19.9578 3.00221C19.4691 2.51172 18.8889 2.12263 18.2503 1.85717C17.6117 1.59171 16.9272 1.45508 16.2359 1.45508C15.5446 1.45508 14.8601 1.59171 14.2215 1.85717C13.5829 2.12263 13.0026 2.51172 12.5139 3.00221L11.4997 4.01966L10.4855 3.00221C9.49842 2.01193 8.1596 1.45559 6.76361 1.45559C5.36761 1.45559 4.02879 2.01193 3.04168 3.00221C2.05456 3.99249 1.5 5.33559 1.5 6.73606C1.5 8.13653 2.05456 9.47964 3.04168 10.4699L4.05588 11.4874L11.4997 18.9551L18.9436 11.4874L19.9578 10.4699C20.4467 9.97966 20.8346 9.39757 21.0992 8.75691C21.3638 8.11624 21.5 7.42955 21.5 6.73606C21.5 6.04257 21.3638 5.35588 21.0992 4.71521C20.8346 4.07455 20.4467 3.49246 19.9578 3.00221V3.00221Z" stroke="#00FF41" stroke-width="1.5" stroke-linecap="round" stroke-linejoin="round"/>
</svg>
