<svg width="60" height="33" viewBox="0 0 60 33" fill="none" xmlns="http://www.w3.org/2000/svg">
<g id="Group 7134">
<path id="Vector" d="M12.1291 3.104C11.5188 6.08436 10.9542 8.8343 10.4072 11.5057C11.7138 10.9487 12.9343 10.2396 14.251 9.90034C17.3859 9.09511 19.4774 10.7891 19.2369 14.005C19.0875 16.0079 18.576 17.9855 18.186 19.9657C17.6087 22.8979 16.9655 25.8175 16.4084 28.7548C16.2236 29.7247 15.9147 30.2893 14.7803 30.3678C13.2027 30.4767 11.6404 30.8211 9.87545 31.0946C10.4528 28.2813 10.9871 25.6605 11.529 23.0448C11.8784 21.3559 12.2759 19.672 12.5823 17.9754C12.7393 17.1069 13.1445 16.0383 11.7999 15.6939C10.7668 15.4281 9.36648 16.408 9.14112 17.4918C8.36628 21.2014 7.5889 24.9085 6.83938 28.6206C6.21394 31.7149 6.22913 31.7276 3.09937 32.2037C2.11689 32.3531 1.12681 32.4442 4.76432e-07 32.5784C0.898919 28.2206 1.75226 24.0627 2.6132 19.9075C3.38044 16.1978 4.1325 12.4831 4.93519 8.78112C5.44922 6.41354 5.39858 6.74273 3.33739 6.14007C3.09431 4.91197 3.58808 4.35489 4.85669 4.1979C7.2268 3.9067 9.58425 3.49396 12.1316 3.104L12.1291 3.104ZM11.3745 14.8102C9.49562 14.7039 8.45997 15.4838 8.12066 17.1297C7.26985 21.2444 6.38106 25.3541 5.57836 29.479C5.38339 30.4767 4.9276 30.9047 3.95271 30.9958C3.05126 31.0794 2.15994 31.2794 1.26608 31.4313C2.26122 31.563 3.20066 31.3275 4.14769 31.2794C5.2112 31.2262 5.66192 30.8008 5.8645 29.7247C6.5811 25.9264 7.518 22.1662 8.16624 18.3578C8.50048 16.3928 9.37408 15.2103 11.3745 14.8127L11.3745 14.8102ZM18.6798 12.7693C18.6291 12.7693 18.5785 12.7743 18.5279 12.7769C17.4542 18.0033 16.3907 23.2347 15.274 28.451C15.2031 28.7776 14.7448 29.1727 14.3979 29.2613C13.3141 29.5373 12.1974 29.6816 11.096 29.8766C12.2987 29.9728 13.4787 29.8893 14.5954 29.5879C15.0259 29.4714 15.5475 28.9042 15.6463 28.4561C16.4743 24.7186 17.2314 20.9634 17.9708 17.2056C18.2594 15.737 18.4468 14.2481 18.6798 12.7668L18.6798 12.7693ZM11.1441 4.24348C11.0276 4.23588 10.9086 4.22575 10.7921 4.21816C10.235 6.94277 9.67541 9.66738 9.11833 12.392L9.43992 12.4553C10.0071 9.71802 10.5769 6.98075 11.1441 4.24348Z" fill="white"/>
<path id="Vector_2" d="M50.0889 16.4305C49.9926 14.8935 50.2864 13.9718 51.5423 13.3995C53.5655 12.4752 54.2391 10.7458 53.9909 8.60609C53.8593 7.45902 53.049 7.03362 52.145 7.75782C51.5778 8.21108 51.003 8.8745 50.8232 9.55059C50.1319 12.141 49.4356 14.7517 49.0557 17.4028C48.7747 19.3627 49.866 20.4237 51.8437 20.1933C53.5579 19.9958 55.219 19.3399 56.9814 18.8664C56.7561 20.054 56.513 21.4037 56.2243 22.7432C56.1787 22.9483 55.9432 23.1635 55.7432 23.2775C53.0692 24.7664 50.2408 25.645 47.149 25.2222C44.589 24.8702 43.0216 23.2597 42.8519 20.6769C42.5304 15.8253 43.7914 11.3839 46.7996 7.54258C48.8532 4.91926 51.6259 3.52151 54.981 3.35945C58.3615 3.19739 60.0226 4.77746 59.9998 8.14271C59.9972 8.60356 59.9491 9.06695 59.901 9.5278C59.6832 11.6599 58.8046 13.1741 56.5636 13.8679C54.4062 14.5339 52.3501 15.5265 50.0863 16.4406L50.0889 16.4305ZM53.054 6.55757C51.5525 6.26637 50.5826 7.09946 50.18 8.27945C49.3697 10.647 48.7418 13.0855 48.1695 15.524C47.9619 16.4052 48.1366 17.3775 48.1366 18.3068C48.2632 15.2809 48.9038 12.3765 49.9699 9.56832C50.5168 8.13005 51.3372 6.86903 53.054 6.55504L53.054 6.55757ZM51.046 14.9264C51.0992 15.053 51.1524 15.1796 51.2056 15.3062C53.4972 14.2933 55.7938 13.2855 58.0753 12.2524C58.2754 12.1613 58.4881 11.9106 58.5336 11.6979C58.8654 10.1279 59.1566 8.55039 59.4604 6.97538C59.3566 6.95765 59.2502 6.93993 59.1464 6.91967C59.0021 7.91481 58.8603 8.90742 58.7134 9.90003C58.5185 11.2041 57.8854 12.0853 56.5763 12.5715C54.6999 13.2703 52.8844 14.1338 51.0435 14.9264L51.046 14.9264Z" fill="white"/>
<path id="Vector_3" d="M40.5881 6.50169C41.8264 6.33456 42.9329 6.18516 44.2319 6.00791C43.9179 7.52215 43.6622 8.95282 43.29 10.3531C43.2191 10.6215 42.7025 10.8874 42.3556 10.9482C39.5373 11.4445 39.5373 11.4293 38.9422 14.2805C38.5725 16.053 38.1902 17.8255 37.8129 19.598C37.2811 22.0922 37.8838 22.6417 40.3248 21.8871C40.5527 21.8162 40.7831 21.7555 41.1807 21.644C40.9173 23.095 40.7071 24.4142 40.4134 25.7158C40.3526 25.9816 40.0209 26.3058 39.7525 26.3817C38.337 26.7742 36.919 27.2705 35.4732 27.3971C32.9562 27.6174 31.3609 26.2247 31.4597 23.6672C31.5534 21.206 32.1079 18.7599 32.4928 16.3113C32.6371 15.3972 32.7916 14.4679 33.0879 13.5968C33.5259 12.313 32.9891 11.7914 31.804 11.6167C31.5204 11.5736 31.247 11.4774 30.933 11.3964C30.9938 11.1355 31.0621 10.938 31.0824 10.7329C31.2875 8.69961 32.156 7.39807 34.4476 7.46897C34.7768 7.4791 35.1668 7.03344 35.4428 6.72198C35.6555 6.48143 35.7871 6.13199 35.858 5.80787C36.5113 2.88069 38.4409 1.82478 41.4136 2.16409C41.1579 3.5036 40.8895 4.91655 40.5881 6.49915L40.5881 6.50169ZM36.5417 21.0946L36.7772 21.1376C37.2988 18.5852 37.9648 16.053 38.2915 13.4753C38.5548 11.409 39.3119 10.2417 41.5352 10.3177C41.9201 10.3303 42.5531 10.0543 42.662 9.76058C42.9658 8.9351 43.057 8.03365 43.2317 7.16005C42.9127 7.27653 42.857 7.45884 42.8114 7.64622C42.2492 9.93783 42.2568 9.99101 39.9602 10.2341C38.9574 10.3404 38.494 10.7152 38.3092 11.7154C37.861 14.159 37.3039 16.5822 36.8152 19.0182C36.6785 19.6993 36.6278 20.3982 36.5367 21.0895L36.5417 21.0946ZM39.4309 6.59284C39.5348 6.62829 39.636 6.66374 39.7399 6.69919C39.9829 5.52427 40.226 4.34934 40.4691 3.17695L40.1475 3.11365C39.9095 4.27338 39.6715 5.43311 39.4309 6.59284Z" fill="white"/>
<path id="Vector_4" d="M30.0493 8.23389C29.439 11.2598 28.8667 14.1364 28.2818 17.0129C27.8438 19.1602 27.3854 21.3024 26.9474 23.4471C26.6055 25.1184 26.8866 25.5336 28.53 25.84C28.654 27.2429 28.1704 28.1418 26.6435 28.3393C25.4357 28.4963 24.2506 28.8432 23.0428 28.9951C20.8043 29.2762 19.9282 28.3114 20.346 26.0224C20.7258 23.951 21.1918 21.8949 21.6197 19.8337C22.04 17.8131 22.4578 15.7924 22.8782 13.7692C23.1415 12.5065 22.6866 11.6633 21.5133 11.2396C21.3158 10.0393 21.7716 9.4392 23.0402 9.28474C25.3268 9.0062 27.5981 8.60865 30.0467 8.23389L30.0493 8.23389ZM25.7193 24.4524C25.8079 24.4701 25.8965 24.4879 25.9877 24.5056C27.0056 19.5122 28.0235 14.5187 29.0415 9.52529C28.9452 9.50757 28.8516 9.48731 28.7553 9.46958C27.7425 14.463 26.7321 19.459 25.7193 24.4524Z" fill="white"/>
<path id="Vector_5" d="M31.437 2.24033C31.4016 4.62563 29.1201 6.84127 26.7348 6.80582C25.3598 6.78556 24.4685 5.68154 24.6736 4.22048C24.9395 2.33148 26.6715 -0.0943306 29.3227 0.0753244C30.8394 0.174079 31.4598 0.718494 31.437 2.24033ZM30.5255 1.42497C30.3533 4.00778 28.9428 5.3397 26.7069 5.95501C29.3632 5.7727 30.8876 4.01537 30.5255 1.42497Z" fill="white"/>
</g>
</svg>
