<svg width="21" height="22" viewBox="0 0 21 22" fill="none" xmlns="http://www.w3.org/2000/svg">
<path d="M7.65722 19.9765V16.9097C7.6572 16.1297 8.29312 15.4959 9.08101 15.4907H11.9671C12.7587 15.4907 13.4005 16.126 13.4005 16.9097V16.9097V19.986C13.4003 20.6483 13.9343 21.1896 14.603 21.2051H16.5271C18.4451 21.2051 20 19.6658 20 17.7669V17.7669V9.04291C19.9898 8.29591 19.6355 7.59443 19.038 7.13811L12.4577 1.89038C11.3049 0.976644 9.6662 0.976644 8.51342 1.89038L1.96203 7.14763C1.36226 7.6021 1.00739 8.30474 1 9.05244V17.7669C1 19.6658 2.55488 21.2051 4.47291 21.2051H6.39696C7.08235 21.2051 7.63797 20.655 7.63797 19.9765V19.9765" stroke="#00FF41" stroke-width="1.5" stroke-linecap="round" stroke-linejoin="round"/>
</svg>
