<svg width="116" height="40" viewBox="0 0 116 40" fill="none" xmlns="http://www.w3.org/2000/svg">
<g id="&#235;&#160;&#136;&#236;&#157;&#180;&#236;&#150;&#180;_1" clip-path="url(#clip0_425_15149)">
<path id="Vector" d="M11.93 0.890137C19.27 0.890137 23.93 3.63014 23.01 7.89014L14.01 8.29014C21.28 8.54014 23.63 10.1101 23.63 13.2901C23.63 17.0801 18.38 19.0801 11.81 19.0801C4.5 19.0801 -0.39 17.0201 0.06 12.0801L9.28 11.4601C2.09 11.1601 0 9.37014 0 6.74014C0 2.89014 5.43 0.890137 11.93 0.890137ZM12 13.4501C13.16 13.4501 14.08 13.0901 14.08 12.3501C14.08 11.6101 13.32 11.5001 11.93 11.5001H11.37H9.67C9.31 12.8001 10.5 13.4501 12 13.4501ZM13.77 8.27014C14.2 6.99014 13 6.43014 11.6 6.43014C10.41 6.43014 9.6 6.90014 9.6 7.51014C9.6 8.12014 10.1 8.25014 11.31 8.25014H11.87C12.54 8.25014 13.17 8.25014 13.75 8.27014H13.77Z" fill="white"/>
<path id="Vector_2" d="M24.14 9.95014C24.14 4.66014 28.24 0.890137 36.47 0.890137C44.7 0.890137 48.81 4.66014 48.81 9.95014C48.81 14.7101 45.38 19.0601 36.47 19.0601C27.56 19.0601 24.14 14.7101 24.14 9.95014ZM36.5 11.8901C38.5 11.8901 39.28 10.8901 39.28 9.89014C39.28 8.89014 38.58 7.96014 36.5 7.96014C34.42 7.96014 33.67 8.96014 33.67 9.96014C33.67 10.9601 34.41 11.8901 36.5 11.8901Z" fill="white"/>
<path id="Vector_3" d="M71.62 5.49006C71.62 7.49006 70.08 9.49006 66.94 9.49006C70.55 9.49006 72.3 11.7101 72.3 13.9301C72.3 16.1501 70.55 18.3501 67.14 18.3501H49.49V1.56006H67.14C70.12 1.56006 71.62 3.51006 71.62 5.49006ZM58.35 9.26006H61.42C61.5661 9.27958 61.7146 9.26871 61.8563 9.22814C61.998 9.18756 62.1297 9.11815 62.2433 9.02427C62.3569 8.93038 62.4499 8.81404 62.5165 8.68254C62.583 8.55103 62.6216 8.4072 62.63 8.26006C62.63 7.99484 62.5246 7.74049 62.3371 7.55295C62.1496 7.36542 61.8952 7.26006 61.63 7.26006H58.35V9.26006ZM58.35 12.4001H61.53C61.6761 12.4196 61.8246 12.4087 61.9663 12.3681C62.108 12.3276 62.2397 12.2582 62.3533 12.1643C62.4669 12.0704 62.5599 11.954 62.6265 11.8225C62.693 11.691 62.7316 11.5472 62.74 11.4001C62.74 11.1348 62.6346 10.8805 62.4471 10.693C62.2596 10.5054 62.0052 10.4001 61.74 10.4001H58.35V12.4001Z" fill="white"/>
<path id="Vector_4" d="M82 7.22006V8.45006H91.42V11.6201H82.06V12.8801H92V18.3901H73V1.56006H91.81V7.22006H82Z" fill="white"/>
<path id="Vector_5" d="M114.9 6.43006C114.9 9.01006 112.77 11.6301 108.5 11.6301H106.84V11.7201H111.94L115.39 18.3901H104.74L102.11 11.5201H104.71C104.934 11.5465 105.162 11.526 105.378 11.4598C105.594 11.3936 105.794 11.2831 105.965 11.1355C106.137 10.9878 106.275 10.8062 106.372 10.6021C106.47 10.3981 106.523 10.176 106.53 9.95006C106.522 9.72462 106.467 9.5033 106.369 9.29995C106.272 9.09659 106.133 8.91558 105.962 8.76823C105.791 8.62087 105.592 8.51034 105.377 8.44355C105.161 8.37676 104.934 8.35515 104.71 8.38006H102.16V18.3801H92.8V1.56006H109C113 1.56006 114.9 3.96006 114.9 6.43006Z" fill="white"/>
<path id="Vector_6" d="M115.39 20.9302H0V39.1002H115.39V20.9302Z" fill="white"/>
<path id="Vector_7" d="M24.65 36.4001H17.72V28.8901L15.96 36.3701H11.34L9.57 28.9701V36.4001H3V22.8901H12.59L14.14 29.5601L15.58 22.8901H24.65V36.4001Z" fill="black"/>
<path id="Vector_8" d="M43.8 36.4001H35.8L35.5 34.6401H33L32.69 36.4001H25L28.82 22.8901H40C41.27 27.4101 42.53 31.8901 43.8 36.4001ZM33.26 33.4001H35.26L34.26 27.4001L33.26 33.4001C33.26 33.4001 33.25 33.3801 33.26 33.3801V33.4001Z" fill="black"/>
<path id="Vector_9" d="M61.92 26.8101C61.92 28.8801 60.21 30.9901 56.79 30.9901H55.46V31.0601H59.54L62.31 36.4001H53.77L51.67 30.8901H53.75C53.9288 30.9127 54.1103 30.897 54.2826 30.844C54.4548 30.791 54.6138 30.7019 54.749 30.5827C54.8842 30.4636 54.9924 30.317 55.0666 30.1527C55.1407 29.9885 55.1791 29.8103 55.1791 29.6301C55.1791 29.4499 55.1407 29.2718 55.0666 29.1075C54.9924 28.9433 54.8842 28.7967 54.749 28.6775C54.6138 28.5584 54.4548 28.4693 54.2826 28.4163C54.1103 28.3633 53.9288 28.3476 53.75 28.3701H51.75V36.3701H44.2V22.8901H57.2C60.35 22.8901 61.92 24.8901 61.92 26.8101Z" fill="black"/>
<path id="Vector_10" d="M70.19 29.7801V36.4001H62.73V22.8901H70.19V29.7601V29.7801ZM73 22.8901H81.1L77.95 29.1901C77.95 29.1901 80.16 33.9901 81.28 36.3801H72.8L70.19 29.6401C71.13 27.4101 72.05 25.1601 73 22.8901Z" fill="black"/>
<path id="Vector_11" d="M88.88 27.4401V28.4401H96.44V30.9801H88.9V31.9801H96.9V36.3301H81.6V22.8901H96.73V27.4201H88.88V27.4401Z" fill="black"/>
<path id="Vector_12" d="M113.6 28.3801H109.27V36.3801H101.8V28.3801H97.39V22.8901H113.6V28.3801Z" fill="black"/>
</g>
<defs>
<clipPath id="clip0_425_15149">
<rect width="115.39" height="38.22" fill="white" transform="translate(0 0.890137)"/>
</clipPath>
</defs>
</svg>
