<svg width="46" height="50" viewBox="0 0 46 50" fill="none" xmlns="http://www.w3.org/2000/svg">
<g id="Frame 7119">
<path id="X" d="M28.4072 25.6465L27.3464 26.8335C26.9583 27.2058 26.3374 26.7404 26.7513 26.3215C28.7176 24.1571 30.2441 22.1091 32.0294 19.8516C33.0384 18.5716 32.6503 16.8959 31.0979 15.8021C29.5714 14.7082 27.7086 14.7315 26.5185 15.8719C25.3542 17.0123 24.1641 18.4319 23.1809 19.7585C21.8614 18.2225 20.4125 16.6632 19.6105 15.8719C18.3944 14.7315 16.5316 14.7082 15.0051 15.8021C13.4528 16.8959 13.0647 18.5716 14.0737 19.8516C15.031 21.1083 16.2729 22.6443 17.6441 24.2967L18.4462 23.4589C18.8343 23.0632 19.5587 23.5985 19.093 24.0873C17.3595 25.9258 15.7554 27.9273 14.1513 29.8822C13.0647 31.1157 13.4269 32.8379 14.8758 33.9783C16.4023 35.1187 18.291 35.1652 19.507 34.0714C20.7489 32.931 22.0425 31.6277 23.0515 30.371C23.8536 31.4415 25.5094 33.0706 26.5961 34.0714C27.8121 35.1652 29.6749 35.1187 31.2273 33.9783C32.6762 32.8379 33.0125 31.139 31.9776 29.8822L28.4072 25.6465Z" fill="white"/>
</g>
</svg>
