<svg width="117" height="40" viewBox="0 0 117 40" fill="none" xmlns="http://www.w3.org/2000/svg">
<g id="Vector">
<path d="M12.735 0.890137C20.075 0.890137 24.735 3.63014 23.815 7.89014L14.815 8.29014C22.085 8.54014 24.435 10.1101 24.435 13.2901C24.435 17.0801 19.185 19.0801 12.615 19.0801C5.30499 19.0801 0.414993 17.0201 0.864993 12.0801L10.085 11.4601C2.89499 11.1601 0.804993 9.37014 0.804993 6.74014C0.804993 2.89014 6.23499 0.890137 12.735 0.890137ZM12.805 13.4501C13.965 13.4501 14.885 13.0901 14.885 12.3501C14.885 11.6101 14.125 11.5001 12.735 11.5001H10.475C10.115 12.8001 11.305 13.4501 12.805 13.4501ZM14.575 8.27014C15.005 6.99014 13.805 6.43014 12.405 6.43014C11.215 6.43014 10.405 6.90014 10.405 7.51014C10.405 8.12014 10.905 8.25014 12.115 8.25014H12.675C13.345 8.25014 13.975 8.25014 14.555 8.27014H14.575Z" fill="#00FF41"/>
<path d="M24.945 9.95014C24.945 4.66014 29.045 0.890137 37.275 0.890137C45.505 0.890137 49.615 4.66014 49.615 9.95014C49.615 14.7101 46.185 19.0601 37.275 19.0601C28.365 19.0601 24.945 14.7101 24.945 9.95014ZM37.305 11.8901C39.305 11.8901 40.085 10.8901 40.085 9.89014C40.085 8.89014 39.385 7.96014 37.305 7.96014C35.225 7.96014 34.475 8.96014 34.475 9.96014C34.475 10.9601 35.215 11.8901 37.305 11.8901Z" fill="#00FF41"/>
<path d="M72.425 5.49014C72.425 7.49014 70.885 9.49014 67.745 9.49014C71.355 9.49014 73.105 11.7101 73.105 13.9301C73.105 16.1501 71.355 18.3501 67.945 18.3501H50.295V1.56014H67.945C70.925 1.56014 72.425 3.51014 72.425 5.49014ZM59.155 9.26014H62.225C62.3711 9.27966 62.5196 9.26879 62.6613 9.22821C62.803 9.18764 62.9347 9.11823 63.0483 9.02435C63.162 8.93046 63.2549 8.81412 63.3215 8.68261C63.388 8.55111 63.4267 8.40728 63.435 8.26014C63.435 7.99492 63.3296 7.74057 63.1421 7.55303C62.9546 7.36549 62.7002 7.26014 62.435 7.26014H59.155V9.26014ZM59.155 12.4001H62.335C62.4811 12.4197 62.6296 12.4088 62.7713 12.3682C62.913 12.3276 63.0447 12.2582 63.1583 12.1643C63.272 12.0705 63.3649 11.9541 63.4315 11.8226C63.498 11.6911 63.5367 11.5473 63.545 11.4001C63.545 11.1349 63.4396 10.8806 63.2521 10.693C63.0646 10.5055 62.8102 10.4001 62.545 10.4001H59.155V12.4001Z" fill="#00FF41"/>
<path d="M82.805 7.22014V8.45014H92.225V11.6201H82.865V12.8801H92.805V18.3901H73.805V1.56014H92.615V7.22014H82.805Z" fill="#00FF41"/>
<path d="M115.705 6.43014C115.705 9.01014 113.575 11.6301 109.305 11.6301H107.645V11.7201H112.745L116.195 18.3901H105.545L102.915 11.5201H105.515C105.739 11.5466 105.967 11.5261 106.183 11.4599C106.399 11.3936 106.599 11.2832 106.77 11.1356C106.942 10.9879 107.08 10.8063 107.177 10.6022C107.275 10.3981 107.328 10.1761 107.335 9.95014C107.327 9.72469 107.272 9.50338 107.174 9.30002C107.077 9.09667 106.938 8.91566 106.767 8.7683C106.596 8.62095 106.397 8.51042 106.182 8.44363C105.966 8.37684 105.739 8.35523 105.515 8.38014H102.965V18.3801H93.605V1.56014H109.805C113.805 1.56014 115.705 3.96014 115.705 6.43014Z" fill="#00FF41"/>
<path d="M116.195 20.9301H0.804993V39.1001H116.195V20.9301Z" fill="#00FF41"/>
<path d="M25.455 36.4001H18.525V28.8901L16.765 36.3701H12.145L10.375 28.9701V36.4001H3.80499V22.8901H13.395L14.945 29.5601L16.385 22.8901H25.455V36.4001Z" fill="black"/>
<path d="M44.605 36.4001H36.605L36.305 34.6401H33.805L33.495 36.4001H25.805L29.625 22.8901H40.805C42.075 27.4101 43.335 31.8901 44.605 36.4001ZM34.065 33.4001H36.065L35.065 27.4001L34.065 33.4001C34.065 33.4001 34.055 33.3801 34.065 33.3801V33.4001Z" fill="black"/>
<path d="M62.725 26.8101C62.725 28.8801 61.015 30.9901 57.595 30.9901H56.265V31.0601H60.345L63.115 36.4001H54.575L52.475 30.8901H54.555C54.7338 30.9127 54.9153 30.897 55.0876 30.844C55.2598 30.791 55.4188 30.7019 55.554 30.5827C55.6891 30.4636 55.7974 30.317 55.8715 30.1527C55.9457 29.9885 55.9841 29.8103 55.9841 29.6301C55.9841 29.4499 55.9457 29.2718 55.8715 29.1075C55.7974 28.9433 55.6891 28.7967 55.554 28.6775C55.4188 28.5584 55.2598 28.4693 55.0876 28.4163C54.9153 28.3633 54.7338 28.3476 54.555 28.3701H52.555V36.3701H45.005V22.8901H58.005C61.155 22.8901 62.725 24.8901 62.725 26.8101Z" fill="black"/>
<path d="M70.995 36.4001H63.535V22.8901H70.995V36.4001ZM73.805 22.8901H81.905L78.755 29.1901C78.755 29.1901 80.965 33.9901 82.085 36.3801H73.605L70.995 29.6401C71.935 27.4101 72.855 25.1601 73.805 22.8901Z" fill="black"/>
<path d="M89.685 28.4401H97.245V30.9801H89.705V31.9801H97.705V36.3301H82.405V22.8901H97.535V27.4201H89.685V28.4401Z" fill="black"/>
<path d="M114.405 28.3801H110.075V36.3801H102.605V28.3801H98.195V22.8901H114.405V28.3801Z" fill="black"/>
</g>
</svg>
