<svg width="23" height="14" viewBox="0 0 23 14" fill="none" xmlns="http://www.w3.org/2000/svg">
<path id="Vector" d="M22.0485 6.75188C22.0485 5.14069 19.6016 4.02591 16.4257 3.45111C15.3028 1.65702 13.3671 0.463867 11.1548 0.463867C8.94253 0.463867 6.99842 1.65702 5.88391 3.45111C2.70797 4.02591 0.261078 5.14069 0.261078 6.75188C0.261078 8.36308 2.54876 9.40818 5.57386 10.0004C6.62133 12.0993 8.72465 13.5363 11.1548 13.5363C13.5849 13.5363 15.6882 12.0993 16.7357 10.0004C19.7608 9.40818 22.0485 8.31082 22.0485 6.75188ZM1.09906 6.75188C1.09906 5.90709 2.74987 5.00134 5.37274 4.43525C5.05431 5.21907 4.86996 6.08999 4.86996 6.99574C4.86996 7.70118 4.97889 8.3805 5.18001 9.01626C2.67445 8.45017 1.09906 7.57054 1.09906 6.74317V6.75188ZM17.1296 9.02497C17.3307 8.3892 17.4396 7.70989 17.4396 7.00445C17.4396 6.0987 17.2636 5.22778 16.9368 4.44395C19.5597 5.01005 21.2105 5.9158 21.2105 6.76059C21.2105 7.60538 19.6351 8.45888 17.1296 9.03368V9.02497Z" fill="black"/>
</svg>
