<svg width="21" height="22" viewBox="0 0 21 22" fill="none" xmlns="http://www.w3.org/2000/svg">
<g id="Group 15">
<rect id="Rectangle 45" opacity="0.7" y="0.568359" width="21" height="21" rx="4.2" fill="white"/>
<path id="Vector" d="M14.7 11.7685H11.2V15.2685C11.2 15.6535 10.885 15.9685 10.5 15.9685C10.115 15.9685 9.80001 15.6535 9.80001 15.2685V11.7685H6.30001C5.91501 11.7685 5.60001 11.4535 5.60001 11.0685C5.60001 10.6835 5.91501 10.3685 6.30001 10.3685H9.80001V6.86846C9.80001 6.48346 10.115 6.16846 10.5 6.16846C10.885 6.16846 11.2 6.48346 11.2 6.86846V10.3685H14.7C15.085 10.3685 15.4 10.6835 15.4 11.0685C15.4 11.4535 15.085 11.7685 14.7 11.7685Z" fill="#242424"/>
</g>
</svg>
