<?xml version="1.0" encoding="utf-8"?>
<!-- Generator: Adobe Illustrator 24.0.1, SVG Export Plug-In . SVG Version: 6.00 Build 0)  -->
<svg version="1.1" id="레이어_1" xmlns="http://www.w3.org/2000/svg" xmlns:xlink="http://www.w3.org/1999/xlink" x="0px"
	 y="0px" viewBox="0 0 58 58" style="enable-background:new 0 0 58 58;" xml:space="preserve">
<style type="text/css">
	.st0{fill:#FFFFFF;}
	.st1{fill:#C4C4C4;}
</style>
<g id="_x40__x40_btn_x5F_x">
	<g id="Ellipse_7">
		<path class="st0" d="M58,29.3C58,45.1,45,58,29,58S0,45.1,0,29.3S13,0.5,29,0.5S58,13.4,58,29.3z"/>
	</g>
	<path id="X" class="st1" d="M36.1,30.2l-1.4,1.5c-0.5,0.5-1.3-0.1-0.8-0.6c2.6-2.7,4.6-5.3,7-8.2c1.3-1.6,0.8-3.7-1.2-5.1
		c-2-1.4-4.5-1.4-6.1,0.1c-1.5,1.4-3.1,3.2-4.4,4.9c-1.8-1.9-3.7-3.9-4.8-4.9c-1.6-1.4-4.1-1.5-6.1-0.1c-2.1,1.4-2.6,3.5-1.2,5.1
		c1.3,1.6,2.9,3.5,4.8,5.6l1.1-1.1c0.5-0.5,1.5,0.2,0.9,0.8c-2.3,2.3-4.4,4.9-6.6,7.3c-1.4,1.6-1,3.7,1,5.2c2,1.4,4.5,1.5,6.2,0.1
		c1.7-1.4,3.4-3.1,4.7-4.7c1.1,1.4,3.3,3.4,4.7,4.7c1.6,1.4,4.1,1.3,6.2-0.1c1.9-1.4,2.4-3.6,1-5.2L36.1,30.2z"/>
</g>
</svg>
