<svg width="321" height="148" viewBox="0 0 321 148" fill="none" xmlns="http://www.w3.org/2000/svg">
<path opacity="0.6" d="M-1.49945 0.0688208H321.5V0.0880832H313.097L316.635 0.600463H321.5V0.621652H316.781L320.496 1.15715H321.5V1.1793H320.648L321.5 1.30354V1.35459L320.294 1.18026H311.477L315.156 1.74465H321.5V1.7668H315.306L319.177 2.36008H321.5V2.38416H319.334L321.5 2.71644V2.77326L318.965 2.38416H309.689L313.518 3.00923H321.5V3.03427H313.675L317.714 3.69304H321.5V3.72001H317.879L321.5 4.31233V4.37878L317.487 3.72097H307.707L311.697 4.41731H321.5V4.4462H311.86L316.083 5.18203H321.5V5.21188H316.255L320.729 5.99297H321.5V6.02476H320.911L321.5 6.12685V6.20197L320.487 6.02476H309.83L314.25 6.854H321.5V6.88675H314.431L319.133 7.76801H321.5V7.8046H319.325L321.5 8.21104V8.29676L318.873 7.8046H307.541L312.177 8.74172H321.5V8.78024H312.37L317.32 9.78189H321.5V9.82427H317.523L321.5 10.6275V10.7277L317.04 9.8233H304.943L309.817 10.8943H321.5V10.9396H310.018L315.246 12.0886H321.5V12.1367H315.463L321.084 13.3724H321.5V13.4234H321.317L321.5 13.4639V13.5824L320.777 13.4234H307.313L312.847 14.7554H321.5V14.8113H313.077L319.061 16.2531H321.5V16.3138H319.312L321.5 16.8396V16.9822L318.73 16.3128H304.166L310.043 17.876H321.5V17.9405H310.286L316.682 19.6423H321.5V19.7126H316.951L321.5 20.9223V21.0966L316.315 19.7117H300.462L306.717 21.5705H321.5V21.6485H306.979L313.84 23.6894H321.5V23.7751H314.129L321.5 25.9671V26.1848L321.281 26.1183H302.994L310.39 28.6099H321.5V28.714H310.701L318.938 31.4887H321.5V31.6062H319.285L321.5 32.3517V32.631L318.47 31.6052H298.102L306.104 34.7132H321.5V34.8452H306.442L315.473 38.3529H321.5V38.5021H315.857L321.5 40.6952V41.0679L314.939 38.5031H291.95L300.644 42.4924H321.5V42.6628H301.015L310.992 47.2396H321.5V47.436H311.419L321.5 52.0629V52.583L310.365 47.437H283.984L293.452 52.7419H321.5V52.9701H293.859L304.963 59.1909H321.5V59.4616H305.444L318.647 66.8603H321.5V67.1829H319.224L321.5 68.4581V69.2363L317.868 67.1839H283.99L296.419 76.1274H321.5V76.5223H296.967L312.294 87.55H321.5V88.0431H312.979L321.5 94.1763V95.4601L311.307 88.0431H269.509L283.375 101.983H321.5V102.614H284.004L302.087 120.793H321.5V121.631H302.92L321.5 140.309V142.823L300.74 121.631H246.19L261.006 146.329H321.5V147.495H-1.49945V146.329H58.9954L73.8119 121.631H19.2609L-1.49945 142.823V140.308L17.081 121.631H-1.49945V120.793H17.9132L35.9967 102.614H-1.49945V101.983H36.6258L50.4913 88.0431H8.69391L-1.49945 95.4601V94.1763L7.02209 88.0431H-1.49945V87.55H7.70636L23.0338 76.5223H-1.49945V76.1274H23.5818L36.0108 67.1839H2.13223L-1.49945 69.2363V68.4581L0.776123 67.1829H-1.49945V66.8603H1.35345L14.5567 59.4616H-1.49945V59.1909H15.0378L26.1416 52.9701H-1.49945V52.7419H26.549L36.017 47.437H9.63531L-1.49945 52.583V52.0629L8.58194 47.436H-1.49945V47.2396H9.01126L18.9851 42.6628H-1.5V42.4924H19.3565L28.0503 38.5031H5.06113L-1.5 41.0679V40.6952L4.14337 38.5031H-1.5V38.3538H4.52655L13.5585 34.8461H-1.5V34.7142H13.8961L21.8983 31.6062H1.52957L-1.5 32.6319V32.3526L0.715363 31.6062H-1.5V31.4887H1.06482L9.29993 28.714H-1.5V28.6099H9.61108L17.0067 26.1183H-1.28052L-1.5 26.1848V25.9671L5.8714 23.776H-1.5V23.6903H6.15952L13.0211 21.6495H-1.5V21.5724H13.2827L19.5371 19.7117H3.68475L-1.5 21.0976V20.9233L3.0517 19.7117H-1.5V19.6414H3.31787L9.7135 17.9395H-1.5V17.875H9.95776L15.8346 16.3118H1.27075L-1.49945 16.9812V16.8387L0.688904 16.3118H-1.49945V16.2512H0.93988L6.92365 14.8094H-1.49887V14.7535H7.15494L12.6885 13.4215H-0.776367L-1.49887 13.5804V13.462L-1.31543 13.4215H-1.49887V13.3705H-1.08246L4.53891 12.1348H-1.49832V12.0866H4.7561L9.98361 10.9376H-1.49832V10.8924H10.1851L15.0592 9.82138H2.96167L-1.49832 10.7257V10.6256L2.47827 9.82234H-1.49832V9.77996H2.68146L7.63208 8.77832H-1.49832V8.73979H7.82394L12.4606 7.80268H1.12839L-1.49887 8.29483V8.20911L0.676514 7.80171H-1.49887V7.76512H0.870667L5.57034 6.88386H-1.49887V6.85111H5.75156L10.1716 6.02187H-0.485443L-1.49887 6.19908V6.12396L-0.910278 6.02187H-1.49887V5.99009H-0.726837L3.74606 5.20899H-1.49945V5.17914H3.91992L8.14078 4.44331H-1.5V4.41442H8.30396L12.2941 3.71808H2.51263L-1.49945 4.3759V4.30944L2.12155 3.71808H-1.49945V3.69112H2.28699L6.32605 3.03234H-1.49945V3.0073H6.48306L10.3123 2.38224H1.0361L-1.49945 2.77134V2.71451L0.666412 2.38224H-1.49945V2.35816H0.825104L4.69479 1.76488H-1.49945V1.74272H4.845L8.52396 1.17834H-0.292419L-1.49887 1.35266V1.30161L-0.645813 1.17834H-1.49887V1.15715H-0.493866L3.22052 0.619726H-1.49887V0.598537H3.36566L6.90396 0.0861569H-1.49887V0.0668945L-1.49945 0.0688208ZM15.9775 0.0880832L12.6497 0.600463H21.245L24.3826 0.0880832H15.9775ZM155.24 3.03427L155.115 3.69304H164.886L164.762 3.03427H155.24ZM164.756 3.00923L164.638 2.38416H155.364L155.245 3.00923H164.756ZM178.637 76.1274L176.94 67.1839H143.06L141.364 76.1274H178.637ZM141.288 76.5223L139.193 87.55H180.805L178.713 76.5223H141.288ZM175.423 59.1909L174.242 52.9701H145.759L144.577 59.1909H175.423ZM144.527 59.4616L143.123 66.8603H176.878L175.475 59.4616H144.527ZM173.154 47.2396L172.283 42.6628H147.717L146.846 47.2396H173.154ZM146.811 47.436L145.803 52.7409H174.197L173.19 47.436H146.811ZM171.466 38.3538L170.8 34.8461H149.2L148.534 38.3538H171.466ZM148.507 38.5031L147.748 42.4924H172.252L171.493 38.5031H148.507ZM170.162 31.4887L169.636 28.714H150.365L149.838 31.4887H170.162ZM149.817 31.6062L149.226 34.7142H170.775L170.185 31.6062H149.817ZM169.126 26.024L168.699 23.776H151.302L150.875 26.024H169.126ZM150.857 26.1183L150.385 28.6099H169.616L169.144 26.1183H150.857ZM168.683 23.6903L168.296 21.6495H151.706L151.318 23.6903H168.683ZM167.914 19.6414L167.591 17.9395H152.41L152.088 19.6414H167.914ZM152.075 19.7117L151.721 21.5724H168.281L167.928 19.7117H152.075ZM167.271 16.2521L166.998 14.8103H153.005L152.73 16.2521H167.271ZM152.719 16.3128L152.424 17.876H167.58L167.283 16.3128H152.719ZM142.002 8.74172H153.69L153.883 7.8046H142.551L142.002 8.74172ZM142.647 6.88675H131.663L130.799 7.76801H142.118L142.647 6.88675ZM166.723 13.3724L166.49 12.1367H153.511L153.278 13.3724H166.723ZM153.267 13.4234L153.014 14.7554H166.987L166.735 13.4234H153.267ZM166.526 9.78189H178.608L178.024 8.78024H166.32L166.526 9.78189ZM153.681 8.78024H141.977L141.393 9.78189H153.475L153.681 8.78024ZM153.52 12.0886H166.481L166.261 10.9396H153.739L153.52 12.0886ZM166.31 8.74172H178.001L177.45 7.8046H166.118L166.31 8.74172ZM177.882 7.76897H189.201L188.337 6.88771H177.355L177.882 7.76897ZM189.653 7.76897H200.972L199.761 6.88771H188.778L189.653 7.76897ZM189.237 7.80557H177.905L178.466 8.74268H190.155L189.237 7.80557ZM178.491 8.78121L179.091 9.78285H191.175L190.193 8.78121H178.491ZM178.632 9.82523H166.532L166.754 10.8962H179.258L178.632 9.82523ZM166.762 10.9415L166.997 12.0905H179.956L179.285 10.9415H166.762ZM167.006 12.1386L167.261 13.3743H180.706L179.983 12.1386H167.006ZM152.738 13.3743L152.994 12.1386H140.017L139.294 13.3743H152.738ZM153.002 12.0905L153.237 10.9415H140.715L140.044 12.0905H153.002ZM153.246 10.8972L153.467 9.82619H141.368L140.741 10.8972H153.246ZM141.509 8.78313H129.807L128.825 9.78478H140.909L141.509 8.78313ZM141.534 8.74461L142.095 7.80749H130.763L129.846 8.74461H141.534ZM131.224 6.88964H120.239L119.028 7.77089H130.346L131.224 6.88964ZM131.258 6.85689L132.081 6.02765H121.425L120.285 6.85689H131.258ZM131.696 6.85689H142.666L143.163 6.02765H132.507L131.696 6.85689ZM142.569 7.77186H153.888L154.069 6.8906H143.084L142.569 7.77186ZM153.748 10.8981H166.252L166.048 9.82716H153.951L153.748 10.8981ZM166.111 7.77186H177.431L176.916 6.8906H165.931L166.111 7.77186ZM177.334 6.85689H188.306L187.493 6.02765H176.837L177.334 6.85689ZM188.742 6.85689H199.714L198.577 6.02765H187.918L188.742 6.85689ZM200.152 6.85689H211.124L209.659 6.02765H199.002L200.152 6.85689ZM200.2 6.88964L201.424 7.77089H212.743L211.185 6.88964H200.2ZM201.021 7.80749H189.689L190.622 8.74461H202.31L201.021 7.80749ZM190.66 8.78313L191.658 9.78478H203.74L202.363 8.78313H190.66ZM191.215 9.82716H179.115L179.76 10.8981H192.264L191.215 9.82716ZM179.784 10.9434L180.474 12.0924H193.433L192.307 10.9434H179.784ZM180.502 12.1406L181.245 13.3763H194.69L193.479 12.1406H180.502ZM180.738 13.4273H167.27L167.543 14.7593H181.516L180.738 13.4273ZM167.555 14.8152L167.85 16.257H182.391L181.547 14.8152H167.555ZM152.445 14.8152H138.452L137.608 16.257H152.149L152.445 14.8152ZM152.456 14.7593L152.73 13.4273H139.262L138.484 14.7593H152.456ZM139.497 12.1406H126.52L125.309 13.3763H138.757L139.497 12.1406ZM139.526 12.0924L140.216 10.9434H127.692L126.567 12.0924H139.526ZM140.242 10.8991L140.884 9.82812H128.784L127.736 10.8991H140.242ZM129.339 8.78506H117.635L116.259 9.78671H128.344L129.339 8.78506ZM129.378 8.74654L130.31 7.80942H118.978L117.689 8.74654H129.378ZM119.8 6.89157H108.814L107.257 7.77282H118.576L119.8 6.89157ZM119.846 6.85882L120.997 6.02957H110.34L108.874 6.85882H119.846ZM111.363 5.21766H101.015L99.3282 5.99875H109.971L111.363 5.21766ZM110.396 5.99875H121.042L122.127 5.21766H111.777L110.396 5.99875ZM121.468 5.99875H132.113L132.889 5.21766H122.539L121.468 5.99875ZM132.538 5.99875H143.183L143.65 5.21766H133.302L132.538 5.99875ZM143.105 6.85882H154.077L154.247 6.02957H143.588L143.105 6.85882ZM153.958 9.78671H166.042L165.852 8.78506H154.148L153.958 9.78671ZM165.923 6.85882H176.895L176.412 6.02957H165.753L165.923 6.85882ZM176.817 5.99875H187.462L186.699 5.21766H176.349L176.817 5.99875ZM187.887 5.99875H198.532L197.461 5.21766H187.111L187.887 5.99875ZM198.958 5.99875H209.603L208.222 5.21766H197.872L198.958 5.99875ZM210.028 5.99875H220.671L218.984 5.21766H208.636L210.028 5.99875ZM221.098 5.99875H231.741L229.745 5.21766H219.397L221.098 5.99875ZM220.74 6.03054H210.084L211.563 6.85978H222.533L220.74 6.03054ZM211.624 6.89253L213.195 7.77378H224.514L222.607 6.89253H211.624ZM212.805 7.81038H201.475L202.778 8.7475H214.465L212.805 7.81038ZM202.831 8.78602L204.223 9.78767H216.307L214.535 8.78602H202.831ZM203.798 9.83005H191.698L192.764 10.901H205.27L203.798 9.83005ZM192.809 10.9463L193.952 12.0953H206.911L205.331 10.9463H192.809ZM193.999 12.1435L195.228 13.3791H208.675L206.977 12.1435H193.999ZM194.743 13.4302H181.275L182.074 14.7622H196.047L194.743 13.4302ZM182.108 14.818L182.974 16.2598H197.513L196.101 14.818H182.108ZM182.427 16.3196H167.863L168.184 17.8827H183.34L182.427 16.3196ZM168.197 17.9472L168.546 19.6491H184.374L183.378 17.9472H168.197ZM151.803 17.9472H136.622L135.626 19.6491H151.454L151.803 17.9472ZM151.816 17.8827L152.137 16.3196H137.573L136.66 17.8827H151.816ZM137.893 14.818H123.9L122.487 16.2598H137.029L137.893 14.818ZM137.926 14.7622L138.725 13.4302H125.258L123.953 14.7622H137.926ZM126.001 12.1435H113.024L111.326 13.3791H124.773L126.001 12.1435ZM126.048 12.0953L127.191 10.9463H114.669L113.089 12.0953H126.048ZM127.236 10.902L128.301 9.83101H116.201L114.729 10.902H127.236ZM117.168 8.78795H105.464L103.692 9.7896H115.776L117.168 8.78795ZM117.222 8.74942L118.526 7.81231H107.194L105.534 8.74942H117.222ZM108.376 6.89446H97.3931L95.486 7.77571H106.805L108.376 6.89446ZM108.437 6.86171L109.916 6.03246H99.2595L97.4673 6.86171H108.437ZM100.603 5.22055H90.2546L88.2587 6.00164H98.9039L100.603 5.22055ZM100.67 5.1907L102.274 4.45487H92.2179L90.3334 5.1907H100.67ZM101.082 5.1907H111.42L112.734 4.45487H102.675L101.082 5.1907ZM111.832 5.1907H122.171L123.193 4.45487H113.135L111.832 5.1907ZM122.582 5.1907H132.919L133.653 4.45487H123.594L122.582 5.1907ZM133.333 5.1907H143.669L144.11 4.45487H134.053L133.333 5.1907ZM143.609 6.00164H154.255L154.413 5.22055H144.066L143.609 6.00164ZM154.156 8.74942H165.846L165.667 7.81231H154.334L154.156 8.74942ZM165.747 6.00164H176.392L175.936 5.22055H165.588L165.747 6.00164ZM176.332 5.1907H186.669L185.948 4.45487H175.892L176.332 5.1907ZM187.083 5.1907H197.419L196.408 4.45487H186.351L187.083 5.1907ZM197.833 5.1907H208.169L206.867 4.45487H196.807L197.833 5.1907ZM208.583 5.1907H218.92L217.327 4.45487H207.267L208.583 5.1907ZM219.331 5.1907H229.668L227.787 4.45487H217.728L219.331 5.1907ZM230.082 5.1907H240.418L238.243 4.45487H228.186L230.082 5.1907ZM230.16 5.22055L232.167 6.00164H242.812L240.508 5.22055H230.16ZM231.825 6.03246H221.169L222.973 6.86171H233.944L231.825 6.03246ZM223.046 6.89446L224.966 7.77571H236.285L234.031 6.89446H223.046ZM224.592 7.81231H213.26L214.933 8.74942H226.622L224.592 7.81231ZM215.003 8.78795L216.789 9.7896H228.873L226.706 8.78795H215.003ZM216.379 9.83197H204.281L205.769 10.903H218.276L216.379 9.83197ZM205.832 10.9482L207.428 12.0972H220.387L218.355 10.9482H205.832ZM207.495 12.1454L209.212 13.3811H222.659L220.473 12.1454H207.495ZM208.746 13.4321H195.279L196.606 14.7641H210.576L208.746 13.4321ZM196.66 14.82L198.094 16.2618H212.633L210.652 14.82H196.66ZM197.57 16.3215H183.009L183.947 17.8846H199.101L197.57 16.3215ZM183.984 17.9492L185.005 19.651H200.833L199.166 17.9492H183.984ZM184.414 19.7213H168.56L168.942 21.582H185.502L184.414 19.7213ZM168.958 21.6581L169.377 23.699H186.739L185.546 21.6581H168.958ZM169.395 23.7847L169.855 26.0326H188.104L186.791 23.7847H169.395ZM150.606 23.7847H133.21L131.896 26.0326H150.145L150.606 23.7847ZM150.624 23.699L151.042 21.6581H134.454L133.261 23.699H150.624ZM151.058 21.582L151.44 19.7213H135.586L134.498 21.582H151.058ZM136.015 17.9492H120.834L119.167 19.651H134.994L136.015 17.9492ZM136.053 17.8846L136.991 16.3215H122.429L120.899 17.8846H136.053ZM123.34 14.82H109.348L107.367 16.2618H121.909L123.34 14.82ZM123.396 14.7641L124.721 13.4321H111.253L109.423 14.7641H123.396ZM112.505 12.1454H99.5279L97.3418 13.3811H110.789L112.505 12.1454ZM112.572 12.0972L114.168 10.9482H101.645L99.6135 12.0972H112.572ZM114.23 10.9039L115.719 9.83294H103.621L101.724 10.9039H114.23ZM104.997 8.78988H93.2932L91.1273 9.79152H103.211L104.997 8.78988ZM105.067 8.75135L106.74 7.81424H95.4078L93.3782 8.75135H105.067ZM96.9541 6.89638H85.9685L83.7155 7.77764H95.0336L96.9541 6.89638ZM97.0279 6.86364L98.8313 6.03439H88.1755L86.0557 6.86364H97.0279ZM89.8399 5.22248H79.4924L77.187 6.00357H87.8322L89.8399 5.22248ZM89.9181 5.19262L91.8139 4.4568H81.7573L79.5819 5.19262H89.9181ZM91.8876 4.4279L93.6775 3.73157H83.8967L81.84 4.4279H91.8876ZM92.2888 4.4279H102.336L103.854 3.73157H94.0703L92.2888 4.4279ZM102.737 4.4279H112.785L114.027 3.73157H104.243L102.737 4.4279ZM113.185 4.4279H123.231L124.2 3.73157H114.416L113.185 4.4279ZM123.634 4.4279H133.679L134.373 3.73157H124.59L123.634 4.4279ZM134.082 4.4279H144.128L144.546 3.73157H134.763L134.082 4.4279ZM144.083 5.19262H154.419L154.57 4.4568H144.513L144.083 5.19262ZM154.341 7.7786H165.66L165.492 6.89734H154.509L154.341 7.7786ZM165.582 5.19262H175.918L175.488 4.4568H165.431L165.582 5.19262ZM175.874 4.4279H185.919L185.239 3.73157H175.455L175.874 4.4279ZM186.322 4.4279H196.367L195.412 3.73157H185.628L186.322 4.4279ZM196.77 4.4279H206.815L205.584 3.73157H195.803L196.77 4.4279ZM207.218 4.4279H217.264L215.758 3.73157H205.976L207.218 4.4279ZM217.664 4.4279H227.712L225.93 3.73157H216.149L217.664 4.4279ZM228.112 4.4279H238.16L236.103 3.73157H226.322L228.112 4.4279ZM238.561 4.4279H248.607L246.277 3.73157H236.496L238.561 4.4279ZM238.646 4.4568L240.832 5.19262H251.168L248.702 4.4568H238.646ZM240.922 5.22248L243.238 6.00357H253.883L251.269 5.22248H240.922ZM242.909 6.03439H232.25L234.383 6.86364H245.352L242.909 6.03439ZM234.47 6.89638L236.736 7.77764H248.055L245.453 6.89638H234.47ZM236.376 7.81424H225.045L227.089 8.75135H238.778L236.376 7.81424ZM227.174 8.78988L229.357 9.79152H241.441L238.876 8.78988H227.174ZM228.962 9.8339H216.865L218.776 10.9049H231.28L228.962 9.8339ZM218.854 10.9502L220.906 12.0992H233.865L231.377 10.9502H218.854ZM220.991 12.1473L223.196 13.383H236.642L233.968 12.1473H220.991ZM222.75 13.434H209.283L211.136 14.766H225.106L222.75 13.434ZM211.212 14.8219L213.214 16.2637H227.753L225.204 14.8219H211.212ZM212.715 16.3234H198.151L199.707 17.8865H214.864L212.715 16.3234ZM199.772 17.9511L201.466 19.6529H217.292L214.953 17.9511H199.772ZM200.902 19.7232H185.047L186.164 21.584L202.723 21.582L200.902 19.7232ZM186.211 21.6601L187.435 23.7009H204.797L202.799 21.6601H186.211ZM187.484 23.7866L188.833 26.0345H207.085L204.88 23.7866H187.484ZM188.16 26.1289H169.873L170.385 28.6205H189.616L188.16 26.1289ZM170.405 28.7236L170.974 31.4983H191.3L189.678 28.7236H170.405ZM149.594 28.7236H130.322L128.699 31.4983H149.025L149.594 28.7236ZM149.614 28.6196L150.127 26.128H131.839L130.383 28.6196H149.614ZM132.515 23.7857H115.118L112.914 26.0336H131.166L132.515 23.7857ZM132.566 23.6999L133.788 21.6591H117.199L115.201 23.6999H132.566ZM133.835 21.583L134.952 19.7223H119.097L117.276 21.583H133.835ZM120.227 17.9501H105.046L102.707 19.6519H118.535L120.227 17.9501ZM120.292 17.8856L121.847 16.3224H107.283L105.135 17.8856H120.292ZM108.788 14.8209H94.7945L92.246 16.2627H106.785L108.788 14.8209ZM108.864 14.7651L110.717 13.4331H97.2496L94.893 14.7651H108.864ZM99.0085 12.1464H86.0316L83.3576 13.382H96.8045L99.0085 12.1464ZM99.0935 12.0982L101.146 10.9492H88.6234L86.1345 12.0982H99.0935ZM101.224 10.9049L103.137 9.8339H91.0373L88.719 10.9049H101.224ZM92.8278 8.79084H81.1242L78.5622 9.79248H90.644L92.8278 8.79084ZM92.9111 8.75231L94.956 7.8152H83.6237L81.2221 8.75231H92.9111ZM85.5308 6.89734H74.5479L71.9449 7.7786H83.2636L85.5308 6.89734ZM85.618 6.8646L87.7512 6.03535H77.0947L74.6487 6.8646H85.618ZM79.0799 5.22344H68.7319L66.1176 6.00453H76.7627L79.0799 5.22344ZM79.1694 5.19358L81.3555 4.45776H71.2989L68.8331 5.19358H79.1694ZM81.441 4.42887L83.5061 3.73253H73.7247L71.3951 4.42887H81.441ZM75.6424 3.04583H66.1209L63.6524 3.7046H73.4253L75.6424 3.04583ZM73.8164 3.7046H83.5866L85.5448 3.04583H76.0228L73.8164 3.7046ZM83.9782 3.7046H93.7507L95.4467 3.04583H85.9246L83.9782 3.7046ZM94.1401 3.7046H103.912L105.349 3.04583H95.827L94.1401 3.7046ZM104.302 3.7046H114.074L115.251 3.04583H105.729L104.302 3.7046ZM114.466 3.7046H124.236L125.153 3.04583H115.631L114.466 3.7046ZM124.627 3.7046H134.4L135.056 3.04583H125.534L124.627 3.7046ZM134.789 3.7046H144.561L144.958 3.04583H135.436L134.789 3.7046ZM144.528 4.42887H154.575L154.719 3.73253H144.936L144.528 4.42887ZM154.515 6.8646H165.485L165.329 6.03535H154.672L154.515 6.8646ZM165.424 4.42887H175.472L175.065 3.73253H165.281L165.424 4.42887ZM175.439 3.7046H185.211L184.564 3.04583H175.045L175.439 3.7046ZM185.6 3.7046H195.373L194.466 3.04583H184.947L185.6 3.7046ZM195.764 3.7046H205.534L204.369 3.04583H194.849L195.764 3.7046ZM205.926 3.7046H215.699L214.272 3.04583H204.752L205.926 3.7046ZM216.088 3.7046H225.861L224.173 3.04583H214.651L216.088 3.7046ZM226.252 3.7046H236.022L234.075 3.04583H224.554L226.252 3.7046ZM236.414 3.7046H246.184L243.978 3.04583H234.456L236.414 3.7046ZM246.576 3.7046H256.348L253.88 3.04583H244.358L246.576 3.7046ZM256.738 3.7046H266.51L263.782 3.04583H254.26L256.738 3.7046ZM256.449 3.73157H246.668L249.008 4.4279H259.054L256.449 3.73157ZM249.105 4.4568L251.582 5.19262H261.918L259.161 4.4568H249.105ZM251.683 5.22248L254.308 6.00357H264.953L262.033 5.22248H251.683ZM253.99 6.03439H243.334L245.791 6.86364H256.763L253.99 6.03439ZM245.894 6.89638L248.508 7.77764H259.826L256.877 6.89638H245.894ZM248.163 7.81424H236.83L239.245 8.75135H250.933L248.163 7.81424ZM239.343 8.78988L241.922 9.79152H254.006L251.048 8.78988H239.343ZM241.546 9.8339H229.446L231.782 10.9049H244.287L241.546 9.8339ZM231.879 10.9502L234.383 12.0992H247.342L244.402 10.9502H231.879ZM234.488 12.1473L237.18 13.383H250.627L247.465 12.1473H234.488ZM236.755 13.434H223.288L225.667 14.766H239.638L236.755 13.434ZM225.765 14.8219L228.336 16.2637H242.875L239.758 14.8219H225.765ZM227.86 16.3234H213.298L215.471 17.8865H230.625L227.86 16.3234ZM215.561 17.9511L217.926 19.6529H233.752L230.743 17.9511H215.561ZM217.391 19.7232H201.537L203.387 21.582H219.947L217.391 19.7232ZM203.463 21.6601L205.493 23.7009H222.859L220.052 21.6601H203.463ZM205.578 23.7866L207.816 26.0345H226.065L222.974 23.7866H205.578ZM207.178 26.1289H188.893L190.386 28.6205H209.618L207.178 26.1289ZM190.448 28.7236L192.113 31.4983H212.44L209.721 28.7236H190.448ZM191.37 31.6158H171L171.638 34.7238H193.187L191.37 31.6158ZM171.665 34.8558L172.383 38.3635H195.315L193.263 34.8558H171.665ZM148.338 34.8558H126.738L124.686 38.3635H147.619L148.338 34.8558ZM148.365 34.7238L149.003 31.6158H128.632L126.814 34.7238H148.365ZM129.554 28.7236H110.282L107.565 31.4983H127.889L129.554 28.7236ZM129.616 28.6196L131.111 26.128H112.823L110.385 28.6196H129.616ZM114.424 23.7857H97.0273L93.9369 26.0336H112.189L114.424 23.7857ZM114.509 23.6999L116.538 21.6591H99.9494L97.1454 23.6999H114.509ZM116.615 21.583L118.466 19.7223H102.611L100.055 21.583H116.615ZM104.441 17.9501H89.2598L86.2499 19.6519H102.076L104.441 17.9501ZM104.53 17.8856L106.703 16.3224H92.1414L89.3757 17.8856H104.53ZM94.2363 14.8209H80.2436L77.1262 16.2627H91.6647L94.2363 14.8209ZM94.3347 14.7651L96.7139 13.4331H83.249L80.364 14.7651H94.3347ZM85.5133 12.1464H72.5363L69.3745 13.382H82.8213L85.5133 12.1464ZM85.618 12.0982L88.1225 10.9492H75.6002L72.6601 12.0982H85.618ZM88.2188 10.9049L90.5545 9.8339H78.4553L75.7144 10.9049H88.2188ZM80.6572 8.79084H68.9536L65.9949 9.79248H78.0795L80.6572 8.79084ZM80.7557 8.75231L83.1702 7.8152H71.8385L69.0684 8.75231H80.7557ZM74.1073 6.89734H63.124L60.1743 7.7786H71.493L74.1073 6.89734ZM74.2103 6.8646L76.6671 6.03535H66.0112L63.2388 6.8646H74.2103ZM68.3183 5.22344H57.9702L55.0481 6.00453H65.6933L68.3183 5.22344ZM68.419 5.19358L70.896 4.45776H60.8394L58.0822 5.19358H68.419ZM70.9922 4.42887L73.3331 3.73253H63.5511L60.9469 4.42887H70.9922ZM65.7406 3.04583H56.2185L53.49 3.7046H63.2624L65.7406 3.04583ZM65.8367 3.02078L68.1838 2.39572H58.9105L56.3237 3.02078H65.8367ZM66.2171 3.02078H75.7274L77.8307 2.39572H68.5546L66.2171 3.02078ZM76.1077 3.02078H85.6208L87.476 2.39572H78.1999L76.1077 3.02078ZM85.9989 3.02078H95.5119L97.1207 2.39572H87.8451L85.9989 3.02078ZM95.8923 3.02078H105.405L106.766 2.39572H97.4904L95.8923 3.02078ZM105.783 3.02078H115.296L116.411 2.39572H107.137L105.783 3.02078ZM115.676 3.02078H125.189L126.058 2.39572H116.783L115.676 3.02078ZM125.567 3.02078H135.081L135.702 2.39572H126.426L125.567 3.02078ZM135.461 3.02078H144.971L145.347 2.39572H136.071L135.461 3.02078ZM145.339 3.04583L144.951 3.7046H154.724L154.861 3.04583H145.339ZM154.678 6.00453H165.322L165.174 5.22344H154.827L154.678 6.00453ZM165.277 3.70556H175.049L174.664 3.04679H165.142L165.277 3.70556ZM175.029 3.02078H184.54L183.929 2.39572H174.653L175.029 3.02078ZM184.92 3.02078H194.433L193.574 2.39572H184.298L184.92 3.02078ZM194.813 3.02078H204.324L203.219 2.39572H193.945L194.813 3.02078ZM204.704 3.02078H214.217L212.863 2.39572H203.59L204.704 3.02078ZM214.597 3.02078H224.108L222.51 2.39572H213.235L214.597 3.02078ZM224.489 3.02078H234.001L232.155 2.39572H222.879L224.489 3.02078ZM234.382 3.02078H243.892L241.8 2.39572H232.525L234.382 3.02078ZM244.273 3.02078H253.785L251.444 2.39572H242.171L244.273 3.02078ZM254.164 3.02078H263.677L261.09 2.39572H251.817L254.164 3.02078ZM264.057 3.02078H273.567L270.736 2.39572H261.461L264.057 3.02078ZM264.162 3.04583L266.901 3.7046H276.671L273.684 3.04583H264.162ZM266.621 3.73253H256.84L259.456 4.42887H269.501L266.621 3.73253ZM259.563 4.45776L262.329 5.19358H272.668L269.62 4.45776H259.563ZM262.443 5.22344L265.377 6.00453H276.02L272.794 5.22344H262.443ZM265.071 6.03535H254.414L257.2 6.8646H268.172L265.071 6.03535ZM257.314 6.89734L260.277 7.7786H271.596L268.299 6.89734H257.314ZM259.946 7.8152H248.613L251.399 8.75231H263.087L259.946 7.8152ZM251.513 8.79084L254.487 9.79248H266.569L263.217 8.79084H251.513ZM254.127 9.83486H242.027L244.787 10.9059H257.292L254.127 9.83486ZM244.901 10.9511L247.859 12.1001H260.818L257.424 10.9511H244.901ZM247.98 12.1483L251.162 13.384H264.609L260.959 12.1483H247.98ZM250.757 13.435H237.29L240.195 14.767H254.166L250.757 13.435ZM240.316 14.8229L243.456 16.2647H257.995L254.309 14.8229H240.316ZM243.004 16.3244H228.442L231.23 17.8875H246.387L243.004 16.3244ZM231.347 17.952L234.384 19.6539H250.211L246.528 17.952H231.347ZM233.876 19.7242H218.023L220.605 21.583H237.167L233.876 19.7242ZM220.715 21.661L223.55 23.7019H240.913L237.304 21.661H220.715ZM223.669 23.7876L226.793 26.0355H245.042L241.066 23.7876H223.669ZM226.193 26.1299H207.908L210.386 28.6215H229.617L226.193 26.1299ZM210.488 28.7245L213.247 31.4993H233.573L229.76 28.7245H210.488ZM212.552 31.6168H192.181L194.047 34.7248H215.597L212.552 31.6168ZM194.125 34.8567L196.229 38.3644H219.162L215.725 34.8567H194.125ZM195.401 38.5137H172.412L173.229 42.5029H197.732L195.401 38.5137ZM173.265 42.6734L174.202 47.2502H200.51L197.834 42.6734H173.265ZM145.796 47.2502L146.733 42.6734H122.165L119.489 47.2502H145.796ZM146.767 42.5029L147.587 38.5137H124.597L122.265 42.5029H146.767ZM125.873 34.8567H104.274L100.837 38.3644H123.77L125.873 34.8567ZM125.952 34.7248L127.818 31.6168H107.447L104.401 34.7248H125.952ZM109.51 28.7245H90.2383L86.4249 31.4993H106.751L109.51 28.7245ZM109.614 28.6205L112.094 26.1289H93.8058L90.3818 28.6205H109.614ZM96.3301 23.7866H78.9336L74.957 26.0345H93.2065L96.3301 23.7866ZM96.4488 23.7009L99.2843 21.6601H82.6953L79.0856 23.7009H96.4488ZM99.394 21.584L101.976 19.7232H86.1238L82.832 21.584H99.394ZM88.6526 17.9511H73.4709L69.7875 19.6529H85.6152L88.6526 17.9511ZM88.7691 17.8865L91.5573 16.3234H76.9957L73.6122 17.8865H88.7691ZM79.6832 14.8219H65.6904L62.0048 16.2637H76.5438L79.6832 14.8219ZM79.8036 14.766L82.7083 13.434H69.2434L65.8334 14.766H79.8036ZM72.0186 12.1473H59.0393L55.3896 13.383H68.8365L72.0186 12.1473ZM72.1396 12.0992L75.0977 10.9502H62.5753L59.1805 12.0992H72.1396ZM75.2142 10.9059L77.9714 9.83486H65.8711L62.707 10.9059H75.2142ZM68.4848 8.7918H56.7812L53.4286 9.79345H65.5104L68.4848 8.7918ZM68.599 8.75328L71.385 7.81616H60.0527L56.9112 8.75328H68.599ZM62.6845 6.89831H51.6995L48.406 7.77956H59.7224L62.6845 6.89831ZM62.7993 6.86556L65.5852 6.03631H54.9288L51.8289 6.86556H62.7993ZM57.5555 5.2244H47.2057L43.9786 6.0055H54.6216L57.5555 5.2244ZM57.6697 5.19455L60.4354 4.45872H50.3788L47.3312 5.19455H57.6697ZM60.5435 4.42983L63.1589 3.73349H53.378L50.4981 4.42983H60.5435ZM55.837 3.04679H46.3156L43.3276 3.70556H53.1L55.837 3.04679ZM55.9417 3.02175L58.538 2.39668H49.2646L46.432 3.02175H55.9417ZM51.7011 1.78029H42.6608L39.7381 2.37357H49.003L51.7011 1.78029ZM49.3738 2.37357H58.6381L61.1022 1.78029H52.0619L49.3738 2.37357ZM59.0101 2.37357H68.2749L70.5061 1.78029H61.4657L59.0101 2.37357ZM68.6458 2.37357H77.9101L79.9065 1.78029H70.8662L68.6458 2.37357ZM78.282 2.37357H87.5463L89.3076 1.78029H80.2667L78.282 2.37357ZM87.9155 2.37357H97.182L98.7086 1.78029H89.6671L87.9155 2.37357ZM97.5512 2.37357H106.818L108.109 1.78029H99.0704L97.5512 2.37357ZM107.187 2.37357H116.455L117.512 1.78029H108.472L107.187 2.37357ZM116.824 2.37357H126.09L126.913 1.78029H117.873L116.824 2.37357ZM126.46 2.37357H135.727L136.315 1.78029H127.274L126.46 2.37357ZM136.096 2.37357H145.36L145.716 1.78029H136.677L136.096 2.37357ZM145.351 3.02271H154.865L154.992 2.39765H145.717L145.351 3.02271ZM154.831 5.19551H165.17L165.029 4.45969H154.973L154.831 5.19551ZM165.136 3.02271H174.649L174.284 2.39765H165.009L165.136 3.02271ZM174.64 2.37357H183.905L183.323 1.78029H174.284L174.64 2.37357ZM184.276 2.37357H193.541L192.726 1.78029H183.685L184.276 2.37357ZM193.912 2.37357H203.176L202.127 1.78029H193.086L193.912 2.37357ZM203.545 2.37357H212.813L211.528 1.78029H202.487L203.545 2.37357ZM213.182 2.37357H222.448L220.928 1.78029H211.89L213.182 2.37357ZM222.817 2.37357H232.084L230.332 1.78029H221.291L222.817 2.37357ZM232.453 2.37357H241.72L239.733 1.78029H230.693L232.453 2.37357ZM242.089 2.37357H251.356L249.133 1.78029H240.093L242.089 2.37357ZM251.725 2.37357H260.99L258.535 1.78029H249.497L251.725 2.37357ZM261.361 2.37357H270.626L267.938 1.78029H258.897L261.361 2.37357ZM270.997 2.37357H280.262L277.339 1.78029H268.299L270.997 2.37357ZM280.633 2.37357H289.898L286.74 1.78029H277.7L280.633 2.37357ZM280.383 2.39765H271.107L273.95 3.02271H283.463L280.383 2.39765ZM274.065 3.04775L277.064 3.70653H286.835L283.587 3.04775H274.065ZM276.796 3.73446H267.014L269.905 4.43079H279.951L276.796 3.73446ZM270.024 4.45969L273.081 5.19551H283.417L280.081 4.45969H270.024ZM273.208 5.22537L276.449 6.00646H287.092L283.557 5.22537H273.208ZM276.155 6.03728H265.499L268.612 6.86652H279.582L276.155 6.03728ZM268.739 6.89927L272.049 7.78053H283.365L279.722 6.89927H268.739ZM271.731 7.81712H260.399L263.556 8.75424H275.244L271.731 7.81712ZM263.686 8.79277L267.054 9.79441H279.138L275.388 8.79277H263.686ZM266.71 9.83679H254.612L257.792 10.9078H270.299L266.71 9.83679ZM257.924 10.953L261.337 12.102H274.296L270.446 10.953H257.924ZM261.478 12.1502L265.148 13.3859H278.595L274.454 12.1502H261.478ZM264.763 13.4369H251.296L254.727 14.7689H268.698L264.763 13.4369ZM254.868 14.8248L258.578 16.2666H273.117L268.861 14.8248H254.868ZM258.151 16.3263H243.587L246.995 17.8894H262.15L258.151 16.3263ZM247.136 17.954L250.844 19.6558H266.672L262.317 17.954H247.136ZM250.365 19.7261H234.513L237.829 21.5849H254.389L250.365 19.7261ZM237.968 21.6629L241.609 23.7038H258.974L254.559 21.6629H237.968ZM241.761 23.7895L245.774 26.0374H264.025L259.158 23.7895H241.761ZM245.212 26.1318H226.927L230.387 28.6234H249.618L245.212 26.1318ZM230.532 28.7265L234.388 31.5012H254.714L249.805 28.7265H230.532ZM233.737 31.6187H213.368L216.461 34.7267H238.011L233.737 31.6187ZM216.591 34.8587L220.079 38.3663H243.012L238.19 34.8587H216.591ZM219.31 38.5156H196.321L198.715 42.5049H223.219L219.31 38.5156ZM198.818 42.6753L201.564 47.2521H227.869L223.385 42.6753H198.818ZM200.626 47.4486H174.245L175.332 52.7534H203.728L200.626 47.4486ZM175.379 52.9827L176.655 59.2035H207.501L203.862 52.9827H175.379ZM176.711 59.4741L178.228 66.8728H211.983L207.658 59.4741H176.711ZM143.291 59.4741H112.345L108.019 66.8728H141.774L143.291 59.4741ZM143.348 59.2035L144.623 52.9827H116.141L112.502 59.2035H143.348ZM144.671 52.7534L145.758 47.4486H119.376L116.274 52.7534H144.671ZM121.185 42.6744H96.6182L92.1335 47.2511H118.441L121.185 42.6744ZM121.288 42.5039L123.682 38.5147H100.693L96.7836 42.5039H121.288ZM103.412 34.8577H81.8124L76.9901 38.3654H99.9235L103.412 34.8577ZM103.544 34.7257L106.637 31.6178H86.2656L81.9936 34.7257H103.544ZM89.4708 28.7255H70.1983L65.2887 31.5003H85.614L89.4708 28.7255ZM89.616 28.6215L93.076 26.1299H74.791L70.3851 28.6215H89.616ZM78.2415 23.7876H60.8451L55.9777 26.0355H74.2289L78.2415 23.7876ZM78.3934 23.7019L82.0341 21.661H65.4434L61.0285 23.7019H78.3934ZM82.1731 21.5849L85.4891 19.7242H69.6367L65.6128 21.5849H82.1731ZM72.866 17.952H57.6849L53.3302 19.6539H69.1584L72.866 17.952ZM73.0073 17.8875L76.415 16.3244H61.8511L57.8521 17.8875H73.0073ZM65.1345 14.8229H51.1413L46.885 16.2647H61.4241L65.1345 14.8229ZM65.2752 14.767L68.706 13.435H55.2405L51.3045 14.767H65.2752ZM58.5233 12.1483H45.5464L41.4065 13.384H54.8534L58.5233 12.1483ZM58.664 12.1001L62.0768 10.9511H49.5544L45.7056 12.1001H58.664ZM62.209 10.9068L65.3889 9.83582H53.2913L49.7019 10.9068H62.209ZM56.3147 8.79277H44.6134L40.863 9.79441H52.947L56.3147 8.79277ZM56.447 8.75424L59.6026 7.81712H48.2698L44.7568 8.75424H56.447ZM51.2622 6.89927H40.2789L36.636 7.78053H47.9525L51.2622 6.89927ZM51.3917 6.86652L54.5023 6.03728H43.8458L40.4195 6.86652H51.3917ZM46.7955 5.22537H36.4458L32.9103 6.00646H43.5533L46.7955 5.22537ZM46.9204 5.19551L49.977 4.45969H39.921L36.5847 5.19551H46.9204ZM50.0958 4.43079L52.9869 3.73446H43.2049L40.0499 4.43079H50.0958ZM45.9357 3.04775H36.4143L33.1674 3.70653H42.9376L45.9357 3.04775ZM46.0522 3.02271L48.8944 2.39765H39.6188L36.5392 3.02271H46.0522ZM42.3018 1.78125H33.2609L30.1036 2.37453H39.3679L42.3018 1.78125ZM42.4155 1.7591L45.2036 1.19471H36.3867L33.3835 1.7591H42.4155ZM42.7756 1.7591H51.8075L54.3723 1.19471H45.5547L42.7756 1.7591ZM52.1676 1.7591H61.1996L63.5426 1.19471H54.7257L52.1676 1.7591ZM61.5597 1.7591H70.5916L72.713 1.19471H63.8938L61.5597 1.7591ZM70.954 1.7591H79.9836L81.8811 1.19471H73.0635L70.954 1.7591ZM80.3454 1.7591H89.3779L91.052 1.19471H82.2345L80.3454 1.7591ZM89.738 1.7591H98.77L100.222 1.19471H91.4036L89.738 1.7591ZM99.1295 1.7591H108.161L109.39 1.19471H100.573L99.1295 1.7591ZM108.522 1.7591H117.553L118.56 1.19471H109.743L108.522 1.7591ZM117.913 1.7591H126.945L127.73 1.19471H118.911L117.913 1.7591ZM127.308 1.7591H136.34L136.9 1.19471H128.082L127.308 1.7591ZM136.7 1.7591H145.732L146.07 1.19471H137.253L136.7 1.7591ZM145.732 2.37453H154.997L155.119 1.78125H146.079L145.732 2.37453ZM154.976 4.43176H165.024L164.891 3.73542H155.108L154.976 4.43176ZM165.004 2.37453H174.268L173.922 1.78125H164.881L165.004 2.37453ZM174.268 1.7591H183.3L182.747 1.19471H173.931L174.268 1.7591ZM183.662 1.7591H192.694L191.918 1.19471H183.101L183.662 1.7591ZM193.054 1.7591H202.086L201.088 1.19471H192.271L193.054 1.7591ZM202.446 1.7591H211.478L210.256 1.19471H201.439L202.446 1.7591ZM211.838 1.7591H220.87L219.427 1.19471H210.61L211.838 1.7591ZM221.23 1.7591H230.261L228.597 1.19471H219.78L221.23 1.7591ZM230.624 1.7591H239.654L237.765 1.19471H228.949L230.624 1.7591ZM240.016 1.7591H249.048L246.935 1.19471H238.118L240.016 1.7591ZM249.408 1.7591H258.44L256.106 1.19471H247.289L249.408 1.7591ZM258.8 1.7591H267.832L265.274 1.19471H256.457L258.8 1.7591ZM268.192 1.7591H277.224L274.444 1.19471H265.627L268.192 1.7591ZM277.585 1.7591H286.616L283.615 1.19471H274.796L277.585 1.7591ZM286.979 1.7591H296.009L292.784 1.19471H283.966L286.979 1.7591ZM287.102 1.78125L290.268 2.37453H299.533L296.14 1.78125H287.102ZM290.027 2.39861H280.751L283.842 3.02367H293.353L290.027 2.39861ZM283.967 3.04872L287.225 3.70749H296.998L293.489 3.04872H283.967ZM286.968 3.73542H277.186L280.35 4.43176H290.398L286.968 3.73542ZM280.482 4.46065L283.83 5.19647H294.166L290.539 4.46065H280.482ZM283.969 5.22633L287.516 6.00742H298.161L294.316 5.22633H283.969ZM287.236 6.03824H276.58L280.019 6.86749H290.991L287.236 6.03824ZM280.16 6.90023L283.819 7.78149H295.138L291.146 6.90023H280.16ZM283.517 7.81809H272.184L275.709 8.7552H287.399L283.517 7.81809ZM275.854 8.79373L279.62 9.79537H291.702L287.558 8.79373H275.854ZM279.292 9.83775H267.192L270.797 10.9087H283.304L279.292 9.83775ZM270.947 10.954L274.814 12.103H287.773L283.469 10.954H270.947ZM274.972 12.1512L279.13 13.3869H292.577L287.95 12.1512H274.972ZM278.763 13.4379H265.299L269.255 14.7699H283.228L278.763 13.4379ZM269.419 14.8258L273.697 16.2675H288.238L283.411 14.8258H269.419ZM273.295 16.3273H258.731L262.755 17.8904H277.911L273.295 16.3273ZM262.922 17.9549L267.305 19.6568H283.13L278.104 17.9549H262.922ZM266.852 19.7271H250.997L255.05 21.5859H271.61L266.852 19.7271ZM255.22 21.6639L259.666 23.7048H277.03L271.809 21.6639H255.22ZM259.852 23.7905L264.753 26.0384H283.002L277.249 23.7905H259.852ZM264.227 26.1328H245.942L250.386 28.6244H269.618L264.227 26.1328ZM250.574 28.7274L255.524 31.5022H275.848L269.845 28.7274H250.574ZM254.918 31.6197H234.55L238.869 34.7277H260.419L254.918 31.6197ZM239.052 34.8596L243.928 38.3673H266.859L260.651 34.8596H239.052ZM243.216 38.5166H220.228L224.195 42.5058H248.699L243.216 38.5166ZM224.365 42.6763L228.917 47.2531H255.225L248.935 42.6763H224.365ZM228.06 47.4495H201.678L204.861 52.7544H233.256L228.06 47.4495ZM205 52.9836L208.73 59.2044H239.576L233.48 52.9836H205ZM208.893 59.4751L213.331 66.8737H247.086L239.84 59.4751H208.893ZM212.172 67.1964H178.294L180.126 76.1399H217.401L212.172 67.1964ZM180.207 76.5348L182.47 87.5625H224.081L217.632 76.5348H180.207ZM180.898 88.0557H139.101L136.453 101.996H183.546L180.898 88.0557ZM139.793 76.5348H102.367L95.9182 87.5625H137.529L139.793 76.5348ZM139.874 76.1399L141.706 67.1964H107.828L102.598 76.1399H139.874ZM111.107 59.4741H80.1598L72.9139 66.8728H106.669L111.107 59.4741ZM111.27 59.2035L115.001 52.9827H86.5199L80.4242 59.2035H111.27ZM115.139 52.7534L118.321 47.4486H91.9399L86.7433 52.7534H115.139ZM95.6346 42.6744H71.0654L64.7749 47.2511H91.0824L95.6346 42.6744ZM95.8046 42.5039L99.7722 38.5147H76.7836L71.3006 42.5039H95.8046ZM80.9475 34.8577H59.3483L53.1406 38.3654H76.0712L80.9475 34.8577ZM81.1315 34.7257L85.4497 31.6178H65.0822L59.5812 34.7257H81.1315ZM69.4279 28.7255H50.156L44.1519 31.5003H64.4761L69.4279 28.7255ZM69.6136 28.6215L74.0578 26.1299H55.7728L50.3816 28.6215H69.6136ZM60.1479 23.7876H42.7508L36.9972 26.0355H55.2467L60.1479 23.7876ZM60.333 23.7019L64.78 21.661H48.191L42.9703 23.7019H60.333ZM64.9494 21.5849L69.0025 19.7242H53.1479L48.3896 21.5849H64.9494ZM57.0766 17.952H41.8955L36.8695 19.6539H52.6954L57.0766 17.952ZM57.2443 17.8875L61.2676 16.3244H46.7038L42.0874 17.8875H57.2443ZM50.5803 14.8229H36.587L31.7624 16.2647H46.302L50.5803 14.8229ZM50.7434 14.767L54.6998 13.435H41.2355L36.7733 14.767H50.7434ZM45.0258 12.1483H32.0488L27.4206 13.384H40.868L45.0258 12.1483ZM45.1873 12.1001L49.0519 10.9511H36.5291L32.2261 12.1001H45.1873ZM49.2017 10.9068L52.8063 9.83582H40.7065L36.6945 10.9068H49.2017ZM44.1441 8.79277H32.4405L28.2956 9.79441H40.3773L44.1441 8.79277ZM44.2892 8.75424L47.8135 7.81712H36.4818L32.6014 8.75424H44.2892ZM39.8389 6.89927H28.8532L24.8631 7.78053H36.1801L39.8389 6.89927ZM39.9795 6.86652L43.4187 6.03728H32.7623L29.0074 6.86652H39.9795ZM36.0299 5.22537H25.6824L21.838 6.00646H32.4827L36.0299 5.22537ZM36.1689 5.19551L39.5187 4.45969H29.4598L25.8321 5.19551H36.1689ZM39.6487 4.43079L42.8127 3.73446H33.0313L29.6005 4.43079H39.6487ZM36.0322 3.04775H26.5107L23.0017 3.70653H32.7736L36.0322 3.04775ZM36.1571 3.02271L39.248 2.39765H29.9724L26.6469 3.02271H36.1571ZM32.8996 1.78125H23.8587L20.4662 2.37453H29.7305L32.8996 1.78125ZM33.0229 1.7591L36.0322 1.19471H27.2152L23.9904 1.7591H33.0229ZM30.0664 0.636099H21.4616L18.1788 1.17352H26.989L30.0664 0.636099ZM27.3412 1.17352H36.1515L39.0156 0.636099H30.4113L27.3412 1.17352ZM36.5026 1.17352H45.3105L47.9642 0.636099H39.36L36.5026 1.17352ZM45.6639 1.17352H54.4713L56.9134 0.636099H48.3086L45.6639 1.17352ZM54.8235 1.17352H63.6338L65.8626 0.636099H57.2578L54.8235 1.17352ZM63.9849 1.17352H72.7951L74.8113 0.636099H66.2064L63.9849 1.17352ZM73.1462 1.17352H81.9542L83.7605 0.636099H75.1557L73.1462 1.17352ZM82.3082 1.17352H91.1156L92.7091 0.636099H84.1048L82.3082 1.17352ZM91.4672 1.17352H100.277L101.658 0.636099H93.054L91.4672 1.17352ZM100.629 1.17352H109.439L110.607 0.636099H102.003L100.629 1.17352ZM109.79 1.17352H118.598L119.559 0.636099H110.952L109.79 1.17352ZM118.952 1.17352H127.76L128.508 0.636099H119.902L118.952 1.17352ZM128.114 1.17352H136.922L137.457 0.636099H128.85L128.114 1.17352ZM137.273 1.17352L146.084 1.17159L146.406 0.635136H137.799L137.273 1.17256V1.17352ZM146.093 1.7591H155.124L155.238 1.19471H146.421L146.093 1.7591ZM164.877 1.7591H173.909L173.579 1.19471H164.763L164.877 1.7591ZM173.917 1.17159H182.727L182.202 0.635136H173.595L173.917 1.17159ZM183.078 1.17159H191.889L191.15 0.635136H182.544L183.078 1.17159ZM192.24 1.17159H201.048L200.099 0.635136H191.495L192.24 1.17159ZM201.402 1.17159H210.21L209.048 0.635136H200.443L201.402 1.17159ZM210.561 1.17159H219.371L217.998 0.635136H209.393L210.561 1.17159ZM219.723 1.17159H228.533L226.946 0.635136H218.342L219.723 1.17159ZM228.884 1.17159H237.692L235.896 0.635136H227.291L228.884 1.17159ZM238.046 1.17159H246.854L244.844 0.635136H236.24L238.046 1.17159ZM247.205 1.17159H256.015L253.793 0.635136H245.189L247.205 1.17159ZM256.367 1.17159H265.177L262.742 0.635136H254.137L256.367 1.17159ZM265.528 1.17159H274.336L271.691 0.635136H263.087L265.528 1.17159ZM274.689 1.17159H283.497L280.639 0.635136H272.035L274.689 1.17159ZM283.851 1.17159H292.659L289.589 0.635136H280.984L283.851 1.17159ZM293.01 1.17159H301.82L298.537 0.635136H289.933L293.01 1.17159ZM302.172 1.17159H310.98L307.487 0.635136H298.883L302.172 1.17159ZM301.955 1.19375H293.138L296.371 1.75813H305.402L301.955 1.19375ZM296.503 1.78029L299.905 2.37357H309.17L305.545 1.78029H296.504H296.503ZM299.672 2.39765H290.398L293.733 3.02271H303.246L299.672 2.39765ZM293.869 3.04775L297.387 3.70653H307.16L303.392 3.04775H293.87H293.869ZM297.141 3.73446H287.359L290.799 4.43079H300.847L297.141 3.73446ZM290.942 4.45969L294.581 5.19551H304.917L300.999 4.45969H290.942ZM294.731 5.22537L298.586 6.00646H309.233L305.079 5.22537H294.732H294.731ZM298.32 6.03728H287.664L291.43 6.86652H302.4L298.32 6.03728ZM291.585 6.89927L295.59 7.78053H306.906L302.567 6.89927H291.585ZM295.302 7.81712H283.97L287.865 8.75424H299.554L295.302 7.81712ZM288.027 8.79277L292.187 9.79441H304.271L299.73 8.79277H288.027ZM291.875 9.83679H279.776L283.804 10.9078H296.311L291.875 9.83679ZM283.972 10.953L288.291 12.102H301.25L296.495 10.953H283.972ZM288.47 12.1502L293.115 13.3859H306.563L301.447 12.1502H288.47ZM292.769 13.4369H279.304L283.787 14.7689H297.759L292.769 13.4369ZM283.972 14.8248L288.819 16.2666H303.36L297.965 14.8248H283.972ZM288.439 16.3263H273.878L278.519 17.8894H293.673L288.439 16.3263ZM278.712 17.954L283.765 19.6558H299.59L293.893 17.954H278.712ZM283.342 19.7261H267.486L272.273 21.5849H288.833L283.342 19.7261ZM272.475 21.6629L277.725 23.7038H295.09L289.063 21.6629H272.475ZM277.946 23.7895L283.733 26.0374H301.984L295.343 23.7895H277.946ZM283.245 26.1318H264.96L270.386 28.6234H289.618L283.245 26.1318ZM270.617 28.7265L276.662 31.5012H296.988L289.889 28.7265H270.617ZM276.104 31.6187H255.733L261.281 34.7267H282.831L276.104 31.6187ZM261.515 34.8587L267.777 38.3663H290.708L283.118 34.8587H261.515ZM267.123 38.5156H244.135L249.678 42.5049H274.182L267.123 38.5156ZM249.915 42.6753L256.277 47.2521H282.582L274.484 42.6753H249.915ZM255.493 47.4486H229.114L234.391 52.7534H262.787L255.493 47.4486ZM234.62 52.9827L240.807 59.2035H271.653L263.1 52.9827H234.62ZM241.075 59.4741L248.436 66.8728H282.193L272.025 59.4741H241.075ZM247.404 67.1954H213.526L218.89 76.139H256.165L247.404 67.1954ZM219.127 76.5338L225.745 87.5616H267.357L256.553 76.5338H219.127ZM224.368 88.0547H182.571L185.428 101.995H232.521L224.368 88.0547ZM185.558 102.626L189.284 120.805H243.519L232.89 102.626H185.558ZM183.665 102.626H136.333L132.883 120.805H187.118L183.665 102.626ZM134.442 102.626H87.1108L76.4808 120.805H130.716L134.442 102.626ZM134.572 101.995L137.43 88.0547H95.6323L87.4799 101.995H134.572ZM100.873 76.5338H63.4481L52.6437 87.5616H94.2554L100.873 76.5338ZM101.11 76.139L106.474 67.1954H72.5959L63.8358 76.139H101.11ZM78.9252 59.4731H47.976L37.8075 66.8718H71.5645L78.9252 59.4731ZM79.1936 59.2025L85.3811 52.9817H56.9005L48.348 59.2025H79.1936ZM85.6095 52.7525L90.886 47.4476H64.5071L57.2134 52.7525H85.6095ZM70.0857 42.6734H45.5171L37.4181 47.2502H63.7261L70.0857 42.6734ZM70.3226 42.5029L75.8658 38.5137H52.8766L45.8187 42.5029H70.3226ZM58.4845 34.8567H36.883L29.2921 38.3644H52.2233L58.4845 34.8567ZM58.7191 34.7248L64.2668 31.6168H43.8959L37.1694 34.7248H58.7191ZM49.3857 28.7245H30.1131L23.013 31.4993H43.3389L49.3857 28.7245ZM49.6135 28.6205L55.0402 26.1289H36.7547L30.3815 28.6205H49.6135ZM42.0542 23.7866H24.6572L18.0156 26.0345H36.2668L42.0542 23.7866ZM42.2759 23.7009L47.5282 21.6601H30.9363L24.9098 23.7009H42.2759ZM47.7268 21.584L52.5131 19.7232H36.6584L31.1671 21.584H47.7268ZM41.2889 17.9511H26.1073L20.4099 19.6529H36.2359L41.2889 17.9511ZM41.4814 17.8865L46.1225 16.3234H31.5609L26.3267 17.8865H41.4814ZM36.0277 14.8219H22.035L16.6393 16.2637H31.1811L36.0277 14.8219ZM36.2133 14.766L40.6959 13.434H27.2315L22.241 14.766H36.2133ZM31.5294 12.1473H18.553L13.4375 13.383H26.8843L31.5294 12.1473ZM31.709 12.0992L36.0299 10.9502H23.5053L18.7499 12.0992H31.709ZM36.1959 10.9059L40.2243 9.83486H28.1245L23.6888 10.9059H36.1959ZM31.9734 8.7918H20.2698L15.7288 9.79345H27.8134L31.9734 8.7918ZM32.1344 8.75328L36.0305 7.81616H24.6982L20.4465 8.75328H32.1344ZM28.4155 6.89831H17.4321L13.0931 7.77956H24.409L28.4155 6.89831ZM28.5696 6.86556L32.3358 6.03631H21.6793L17.5998 6.86556H28.5696ZM25.2683 5.2244H14.9213L10.7674 6.0055H21.4126L25.2683 5.2244ZM25.4185 5.19455L29.0592 4.45872H19.0003L15.0817 5.19455H25.4185ZM29.1999 4.42983L32.6396 3.73349H22.8582L19.1523 4.42983H29.1999ZM26.1298 3.04679H16.6077L12.8399 3.70556H22.6123L26.1298 3.04679ZM26.2659 3.02175L29.6022 2.39668H20.3266L16.7529 3.02175H26.2659ZM23.4958 1.78029H14.4571L10.8293 2.37357H20.0965L23.4958 1.78029ZM23.628 1.75813L26.8613 1.19375H18.0449L14.5955 1.75813H23.628ZM21.1166 0.635136H12.5124L9.01746 1.17256H17.8271L21.1166 0.635136ZM24.7174 0.10253L21.5893 0.61491H30.1874L33.1213 0.10253H24.7174ZM33.4567 0.10253L30.5295 0.61491H39.127L41.8595 0.10253H33.4567ZM42.1949 0.10253L39.4714 0.61491H48.0672L50.5982 0.10253H42.1949ZM50.9336 0.10253L48.4116 0.61491H57.0097L59.337 0.10253H50.9336ZM59.6724 0.10253L57.3513 0.61491H65.9493L68.0746 0.10253H59.6724ZM68.4106 0.10253L66.2937 0.61491H74.889L76.8134 0.10253H68.4106ZM77.1493 0.10253L75.2339 0.61491H83.8314L85.5521 0.10253H77.1493ZM85.8875 0.10253L84.1735 0.61491H92.7716L94.2909 0.10253H85.8875ZM94.6257 0.10253L93.1154 0.61491H101.713L103.029 0.10253H94.6257ZM103.364 0.10253L102.056 0.61491H110.654L111.768 0.10253H103.364ZM112.104 0.10253L110.996 0.61491H119.594L120.507 0.10253H112.104ZM120.842 0.10253L119.938 0.61491H128.536L129.245 0.10253H120.842ZM129.581 0.10253L128.878 0.61491H137.476L137.984 0.10253H129.581ZM138.32 0.10253L137.819 0.61491H146.416L146.723 0.10253H138.32ZM146.434 1.17159H155.242L155.354 0.635136H146.748L146.434 1.17159ZM147.058 0.10253L146.76 0.61491H155.358L155.461 0.10253H147.058ZM164.202 0.10253H155.799L155.7 0.61491H164.298L164.202 0.10253ZM164.303 0.635136H155.696L155.595 1.17159H164.403L164.303 0.635136ZM164.408 1.19375H155.591L155.483 1.75813H164.515L164.408 1.19375ZM155.479 1.78029L155.367 2.37357H164.632L164.52 1.78029H155.479ZM172.942 0.0880832H164.539L164.642 0.600463H173.24L172.942 0.0880832ZM164.646 0.620689L164.758 1.15715H173.566L173.252 0.620689H164.646ZM173.277 0.0880832L173.584 0.600463H182.181L181.68 0.0880832H173.277ZM182.016 0.0880832L182.524 0.600463H191.122L190.419 0.0880832H182.016ZM190.755 0.0880832L191.467 0.600463H200.062L199.158 0.0880832H190.755ZM199.493 0.0880832L200.406 0.600463H209.004L207.896 0.0880832H199.493ZM208.232 0.0880832L209.346 0.600463H217.944L216.635 0.0880832H208.232ZM216.971 0.0880832L218.289 0.600463H226.884L225.374 0.0880832H216.971ZM225.71 0.0880832L227.23 0.600463H235.827L234.113 0.0880832H225.71ZM234.448 0.0880832L236.169 0.600463H244.767L242.85 0.0880832H234.447H234.448ZM243.187 0.0880832L245.112 0.600463H253.707L251.589 0.0880832H243.186H243.187ZM251.926 0.0880832L254.052 0.600463H262.649L260.328 0.0880832H251.925H251.926ZM260.664 0.0880832L262.991 0.600463H271.589L269.066 0.0880832H260.663H260.664ZM269.402 0.0880832L271.933 0.600463H280.531L277.805 0.0880832H269.402ZM278.141 0.0880832L280.873 0.600463H289.47L286.543 0.0880832H278.141ZM286.882 0.0880832L289.813 0.600463H298.411L295.284 0.0880832H286.882ZM295.62 0.0880832L298.755 0.600463H307.353L304.023 0.0880832H295.62ZM312.761 0.0880832H304.358L307.695 0.600463H316.293L312.761 0.0880832ZM320.142 1.15715L316.436 0.621652H307.832L311.334 1.15811H320.142V1.15715ZM311.126 1.1793H302.307L305.764 1.74369H314.795L311.126 1.1793ZM318.806 2.36008L314.946 1.7668H305.905L309.541 2.36008H318.806ZM309.317 2.38416H300.044L303.626 3.00923H313.138L309.317 2.38416ZM317.322 3.69304L313.294 3.03427H303.772L307.552 3.69304H317.322ZM307.314 3.72001H297.533L301.247 4.41635H311.296L307.314 3.72001ZM311.459 4.44524H301.4L305.332 5.18106H315.668L311.459 4.44524ZM320.303 5.99297L315.841 5.21188H305.493L309.657 5.99297H320.303ZM309.402 6.02476H298.746L302.839 6.854H313.811L309.402 6.02476ZM318.679 7.76801L313.992 6.88675H303.01L307.362 7.76801H318.679ZM307.089 7.8046H295.756L300.022 8.74172H311.71L307.089 7.8046ZM316.837 9.78189L311.903 8.78024H300.199L304.755 9.78189H316.837ZM304.46 9.82427H292.36L296.811 10.8953H309.315L304.46 9.82427ZM309.517 10.9405H296.994L301.77 12.0895H314.728L309.517 10.9405ZM320.547 13.3724L314.943 12.1367H301.966L307.1 13.3724H320.547ZM306.774 13.4234H293.308L298.317 14.7554H312.29L306.774 13.4234ZM318.482 16.2531L312.518 14.8113H298.524L303.94 16.2531H318.482ZM303.584 16.3138H289.021L294.279 17.8769H309.436L303.584 16.3138ZM316.051 19.6433L309.68 17.9414H294.499L300.223 19.6433H316.051ZM299.829 19.7136H283.974L289.495 21.5724H306.055L299.829 19.7136ZM306.314 21.6504H289.725L295.782 23.6913H313.147L306.314 21.6504ZM320.963 26.024L313.433 23.776H296.036L302.714 26.024H320.963ZM302.264 26.1183H283.977L290.388 28.6099H309.62L302.264 26.1183ZM318.125 31.4887L309.931 28.714H290.659L297.8 31.4887H318.125ZM297.287 31.6062H276.916L283.692 34.7142H305.243L297.287 31.6062ZM314.556 38.3538L305.58 34.8461H283.979L291.625 38.3538H314.556ZM291.03 38.5031H268.043L275.162 42.4924H299.666L291.03 38.5031ZM309.94 47.2396L300.033 42.6628H275.466L283.634 47.2396H309.94ZM282.93 47.436H256.55L263.922 52.7409H292.315L282.93 47.436ZM292.72 52.9701H264.24L272.884 59.1909H303.73L292.72 52.9701ZM317.298 66.8603L304.207 59.4616H273.26L283.54 66.8603H317.298ZM282.636 67.1829H248.759L257.656 76.1264H294.929L282.636 67.1829ZM310.631 87.55L295.472 76.5223H258.048L269.02 87.55H310.631ZM267.838 88.0431H226.041L234.403 101.983H281.493L267.838 88.0431ZM299.919 120.793L282.113 102.614H234.781L245.686 120.793H299.919ZM258.45 146.329L244.01 121.631H189.457L194.521 146.329H258.45ZM191.965 146.329L187.277 121.631H132.724L128.037 146.329H191.965ZM61.5507 146.329H125.48L130.545 121.631H75.9913L61.5507 146.329ZM20.0796 120.793H74.315L85.2201 102.614H37.8885L20.0796 120.793ZM38.5075 101.982H85.5977L93.9606 88.0422H52.1631L38.5075 101.982ZM9.36917 87.55H50.9809L61.953 76.5223H24.5277L9.36917 87.55ZM25.0713 76.1274H62.3441L71.2415 67.1839H37.3641L25.0713 76.1274ZM2.70224 66.8603H36.4593L46.7398 59.4616H15.7929L2.70224 66.8603ZM16.2696 59.1909H47.1157L55.7605 52.9701H27.2799L16.2696 59.1909ZM27.6823 52.7409H56.0778L63.4492 47.436H37.0698L27.6823 52.7409ZM10.0596 47.2386H36.3647L44.5329 42.6619H19.9665L10.0596 47.2386ZM20.3334 42.4914H44.8373L51.956 38.5021H28.9691L20.3334 42.4914ZM5.44263 38.3529H28.3738L36.0204 34.8452H14.4194L5.44263 38.3529ZM14.7564 34.7132H36.3062L43.0823 31.6052H22.7119L14.7564 34.7132ZM1.87338 31.4877H22.1993L29.34 28.713H10.068L1.87338 31.4877ZM10.3792 28.609H29.6112L36.0221 26.1174H17.7371L10.3792 28.609ZM-0.964294 26.023H17.2852L23.9628 23.7751H6.56635L-0.964294 26.023ZM6.85275 23.6894H24.216L30.2735 21.6485H13.6851L6.85275 23.6894ZM13.9445 21.5724H30.5042L36.0249 19.7117H20.1702L13.9445 21.5724ZM3.94809 19.6414H19.7763L25.5001 17.9395H10.3184L3.94809 19.6414ZM10.5627 17.875H25.7196L30.9786 16.3118H16.4147L10.5627 17.875ZM1.51779 16.2512H16.0591L21.4745 14.8094H7.48187L1.51779 16.2512ZM7.70975 14.7545H21.6827L26.6908 13.4225H13.2259L7.70975 14.7545ZM-0.547882 13.3714H12.899L18.0325 12.1358H5.05548L-0.547882 13.3714ZM5.27267 12.0876H18.2323L23.0051 10.9386H10.4822L5.27267 12.0876ZM10.6836 10.8943H23.1891L27.6395 9.8233H15.5397L10.6836 10.8943ZM3.16257 9.78189H15.2466L19.8005 8.78024H8.09686L3.16257 9.78189ZM8.28931 8.74172H19.9772L24.2447 7.8046H12.9102L8.28931 8.74172ZM1.32028 7.76897H12.6367L16.9915 6.88771H6.00644L1.32028 7.76897ZM6.18762 6.854H17.1598L21.2528 6.02476H10.5964L6.18762 6.854ZM-0.30426 5.99394H10.3415L14.5055 5.21285H4.15799L-0.30426 5.99394ZM4.33014 5.18299H14.667L18.5986 4.44717H8.54196L4.33014 5.18299ZM8.70517 4.41827H18.7505L22.4649 3.72194H12.6829L8.70517 4.41827ZM2.67636 3.69401H12.4488L16.2262 3.03523H6.70474L2.67636 3.69401ZM6.86118 3.00923H16.372L19.9547 2.38416H10.6814L6.86118 3.00923ZM1.19308 2.36008H10.4597L14.0941 1.7668H5.05325L1.19308 2.36008ZM5.20346 1.74465H14.2354L17.6926 1.18026H8.87341L5.20346 1.74465ZM-0.142761 1.15907H8.66519L12.1675 0.621652H3.5632L-0.142761 1.15907ZM3.70612 0.600463H12.3036L15.6399 0.0880832H7.23706L3.70612 0.600463Z" fill="url(#paint0_linear_851_19585)"/>
<defs>
<linearGradient id="paint0_linear_851_19585" x1="160" y1="0.0668945" x2="160" y2="147.495" gradientUnits="userSpaceOnUse">
<stop stop-color="white" stop-opacity="0"/>
<stop offset="0.328125" stop-color="white"/>
<stop offset="0.65625" stop-color="white"/>
<stop offset="1" stop-color="white" stop-opacity="0"/>
</linearGradient>
</defs>
</svg>
