<svg width="17" height="17" viewBox="0 0 17 17" fill="none" xmlns="http://www.w3.org/2000/svg">
<g id="star 4" clip-path="url(#clip0_1204_17840)">
<path id="Vector" d="M16.4479 7.14024C16.4141 7.03657 16.3244 6.96096 16.2165 6.94521L11.0356 6.19228L8.71867 1.4977C8.67055 1.39975 8.57089 1.33789 8.46206 1.33789C8.35323 1.33789 8.25327 1.39975 8.20545 1.4977L5.88823 6.19256L0.707353 6.94549C0.599382 6.96125 0.510027 7.03657 0.475946 7.14053C0.442438 7.24392 0.470218 7.3579 0.548404 7.4338L4.29759 11.0882L3.41235 16.2484C3.39402 16.3558 3.43812 16.4644 3.52605 16.5285C3.61454 16.5933 3.73168 16.6016 3.82762 16.5503L8.46206 14.1142L13.0959 16.5503C13.1377 16.5724 13.1838 16.5832 13.2294 16.5832C13.2887 16.5832 13.3477 16.5649 13.3978 16.5285C13.486 16.4644 13.5301 16.3558 13.5115 16.2484L12.6265 11.0885L16.3757 7.4338C16.4536 7.35733 16.4817 7.24363 16.4479 7.14024Z" fill="#F2C94C"/>
</g>
<defs>
<clipPath id="clip0_1204_17840">
<rect width="16" height="16" fill="white" transform="translate(0.461914 0.960449)"/>
</clipPath>
</defs>
</svg>
