<svg width="20" height="21" viewBox="0 0 20 21" fill="none" xmlns="http://www.w3.org/2000/svg">
<g id="Iconly/Light-outline/Search">
<g id="Search">
<path id="Search_2" fill-rule="evenodd" clip-rule="evenodd" d="M9.67624 1.80176C5.25265 1.80176 1.66663 5.30858 1.66663 9.63447C1.66663 13.9604 5.25265 17.4672 9.67624 17.4672C11.5682 17.4672 13.3069 16.8257 14.6774 15.753L17.2808 18.2923L17.3501 18.3506C17.5918 18.5255 17.9345 18.5056 18.1532 18.2912C18.3938 18.0553 18.3933 17.6734 18.1521 17.4381L15.5793 14.9287C16.8874 13.5346 17.6859 11.6757 17.6859 9.63447C17.6859 5.30858 14.0998 1.80176 9.67624 1.80176ZM9.67624 3.0082C13.4185 3.0082 16.4522 5.97489 16.4522 9.63447C16.4522 13.2941 13.4185 16.2607 9.67624 16.2607C5.934 16.2607 2.90032 13.2941 2.90032 9.63447C2.90032 5.97489 5.934 3.0082 9.67624 3.0082Z" fill="white"/>
</g>
</g>
</svg>
