<svg width="21" height="22" viewBox="0 0 21 22" fill="none" xmlns="http://www.w3.org/2000/svg">
<path d="M10.5 0.626465L11.4441 7.83726C11.522 8.43196 11.7942 8.98426 12.2184 9.40834C12.6425 9.83242 13.1949 10.1045 13.7896 10.1824L21 11.1265L13.7896 12.0706C13.1948 12.1484 12.6424 12.4206 12.2183 12.8447C11.7941 13.2689 11.522 13.8213 11.4441 14.416L10.5 21.6265L9.5559 14.416C9.47806 13.8213 9.20596 13.269 8.78188 12.8448C8.3578 12.4207 7.80549 12.1485 7.21079 12.0706L0 11.1265L7.21079 10.1824C7.80544 10.1045 8.35771 9.83232 8.78178 9.40824C9.20585 8.98417 9.47799 8.4319 9.5559 7.83726L10.5 0.626465Z" fill="white"/>
</svg>
