<svg width="28" height="27" viewBox="0 0 28 27" fill="none" xmlns="http://www.w3.org/2000/svg">
<path d="M27.7296 10.073C27.6721 9.89673 27.5197 9.7682 27.3362 9.74142L18.5287 8.46144L14.5899 0.480658C14.5081 0.314148 14.3387 0.208984 14.1537 0.208984C13.9687 0.208984 13.7987 0.314148 13.7174 0.480658L9.77816 8.46193L0.97067 9.74191C0.787119 9.76869 0.635216 9.89673 0.577278 10.0735C0.520314 10.2492 0.567541 10.443 0.700456 10.572L7.07408 16.7845L5.56916 25.5569C5.538 25.7395 5.61298 25.924 5.76245 26.0331C5.91289 26.1431 6.11202 26.1572 6.27512 26.0701L14.1537 21.9288L22.0312 26.0701C22.1023 26.1076 22.1807 26.1261 22.2581 26.1261C22.3589 26.1261 22.4592 26.0949 22.5444 26.0331C22.6943 25.924 22.7693 25.7395 22.7377 25.5569L21.2332 16.785L27.6069 10.572C27.7393 10.442 27.787 10.2487 27.7296 10.073Z" fill="#00FF41"/>
</svg>
